<svg width="24" height="24" viewBox="0 0 24 24" fill="none" xmlns="http://www.w3.org/2000/svg">
    <path d="M0 0h24v24H0z" />
    <path d="M4.696 6.329a1.095 1.095 0 01-1.067-1.087c0-.588.479-1.075 1.067-1.088h3.821c2.508 0 4.566 2.063 4.566 4.567v5.467a3.502 3.502 0 003.484 3.445c1.891 0 3.458-1.55 3.479-3.445v-.121c.012-.592.5-1.067 1.087-1.067.588 0 1.075.475 1.088 1.067v.121c0 3.104-2.554 5.658-5.654 5.658-3.104 0-5.659-2.554-5.659-5.659V8.721a2.402 2.402 0 00-2.391-2.392H4.696z" fill="#00A074"/>
    <path d="M10.171 16.333a6.601 6.601 0 001.092 2.017 5.66 5.66 0 01-3.83 1.496c-3.104 0-5.658-2.554-5.658-5.658 0-3.1 2.554-5.655 5.654-5.655h.775c.6 0 1.088.492 1.088 1.088a1.09 1.09 0 01-1.088 1.087h-.775c-1.908 0-3.479 1.571-3.479 3.484a3.496 3.496 0 003.479 3.479 3.473 3.473 0 002.742-1.338zM16.567 4.154c3.104 0 5.658 2.554 5.658 5.659v.12A1.095 1.095 0 0121.137 11a1.095 1.095 0 01-1.087-1.067v-.12a3.498 3.498 0 00-3.483-3.484c-.959 0-1.88.4-2.538 1.104a5.58 5.58 0 00-.958-2.066 5.634 5.634 0 013.496-1.213z" fill="#62BA12"/>
</svg>