<svg width="24" height="24" viewBox="0 0 24 24" fill="none" xmlns="http://www.w3.org/2000/svg">
<mask id="mask0_717_3827" style="mask-type:luminance" maskUnits="userSpaceOnUse" x="3" y="3" width="18" height="18">
<path d="M21 3H3V21H21V3Z" fill="white"/>
</mask>
<g mask="url(#mask0_717_3827)">
<path d="M20.9997 6.67096C21.0043 7.24844 20.5163 7.66687 20.0109 7.66312C19.5516 7.65988 19.0361 7.29462 19.0354 6.66747C19.0349 6.08849 19.4811 5.66881 20.02 5.66956C20.5964 5.67055 21.0113 6.14917 20.9997 6.67096Z" fill="#2FC750"/>
<path d="M6.34774 8.22577C6.05035 8.22959 5.75263 8.27561 5.45608 8.36605C4.40815 8.68586 3.69436 9.39652 3.27399 10.4062C2.97462 11.1255 2.93304 11.882 3.08876 12.6404C3.32136 13.7741 3.9659 14.6049 4.97904 15.1323C5.5726 15.4412 6.21374 15.5054 6.86749 15.4143C7.57391 15.316 8.21942 15.0751 8.72356 14.5186C8.74197 14.5506 8.74013 14.5775 8.7383 14.6023C8.73782 14.6087 8.7372 14.615 8.7371 14.6211C8.73784 14.7314 8.73788 14.8416 8.73782 14.9519C8.73779 15.0254 8.73761 15.0988 8.73782 15.1723C8.73794 15.242 8.73504 15.2734 8.74924 15.2873C8.76367 15.3016 8.79583 15.2977 8.86717 15.2978C9.28111 15.2983 9.69489 15.2988 10.1088 15.2975C10.1915 15.2975 10.2282 15.3039 10.2441 15.2888C10.2598 15.2738 10.2555 15.2381 10.2555 15.1547C10.2559 13.4979 10.2558 11.841 10.2558 10.1842C10.2557 9.63227 10.2558 9.0805 10.2558 8.52851C10.2558 8.52212 10.2555 8.51567 10.2553 8.50925C10.2549 8.4956 10.2545 8.48201 10.256 8.4686C10.2619 8.41466 10.2465 8.39059 10.1859 8.39084C9.72855 8.39334 9.27143 8.39334 8.81432 8.39084C8.74951 8.39034 8.73631 8.4156 8.7368 8.47478C8.73926 8.73816 8.73827 9.00172 8.73705 9.26537C8.73705 9.2708 8.73799 9.27668 8.73895 9.28274C8.74209 9.30286 8.74549 9.3249 8.71613 9.33719C8.69951 9.31719 8.68304 9.29704 8.66667 9.27703C8.6352 9.23857 8.60396 9.20033 8.57156 9.16289C8.27416 8.82061 7.91644 8.56504 7.48968 8.41699C7.11173 8.28582 6.73009 8.22085 6.34774 8.22577ZM6.55793 9.62507C6.62269 9.62416 6.68795 9.6257 6.75387 9.62934C7.2065 9.65432 7.61723 9.79844 7.97104 10.0923C8.46852 10.5055 8.72716 11.0416 8.76116 11.6897C8.78432 12.1321 8.72228 12.5604 8.50151 12.9492C8.10013 13.6553 7.4942 14.0261 6.68818 14.0558C6.44672 14.0645 6.20546 14.0492 5.97508 13.9747C5.13684 13.7041 4.63801 13.1267 4.47706 12.2496C4.4578 12.1445 4.45403 12.0386 4.45043 11.9408C4.44942 11.9135 4.44839 11.8868 4.4471 11.8609C4.44612 11.1021 4.719 10.4924 5.3069 10.0405C5.68097 9.75277 6.10471 9.63134 6.55793 9.62507ZM18.1984 8.6012C18.1984 8.55326 18.199 8.50532 18.1981 8.45738C18.1966 8.37175 18.1961 8.36951 18.1148 8.36951C17.6653 8.36876 17.216 8.36876 16.7666 8.36951C16.6789 8.36951 16.6781 8.37125 16.6771 8.46288C16.6749 8.71055 16.6736 8.95821 16.6712 9.20588C16.671 9.23534 16.6773 9.26705 16.6626 9.29401C16.6513 9.29176 16.6462 9.29227 16.6445 9.29026C16.6142 9.25357 16.5842 9.21637 16.5539 9.17966C16.2482 8.80916 15.8694 8.54726 15.4175 8.39273C15.0088 8.2529 14.5876 8.21346 14.1592 8.2237C13.8175 8.23194 13.4841 8.28611 13.1657 8.41269C12.344 8.7395 11.7431 9.32248 11.339 10.1047C10.8953 10.9635 10.8433 11.8783 11.0741 12.8073C11.289 13.6719 11.8015 14.3377 12.4968 14.8654C12.8228 15.1127 13.1892 15.2745 13.5896 15.3564C14.0237 15.4453 14.4591 15.4468 14.894 15.3719C15.5639 15.2568 16.1785 15.0219 16.6716 14.4848C16.6742 14.5298 16.6777 14.5528 16.6767 14.5757C16.6696 14.7313 16.6651 14.8868 16.641 15.0411C16.5247 15.7814 16.1448 16.3146 15.4494 16.599C14.9199 16.8158 14.3764 16.8382 13.8257 16.7024C13.3117 16.5755 12.8625 16.3337 12.521 15.9114C12.4788 15.8593 12.4756 15.86 12.4138 15.9224C12.0956 16.244 11.7781 16.5663 11.4602 16.8884C11.4491 16.8996 11.4382 16.9114 11.4269 16.9226C11.4064 16.9428 11.4055 16.9633 11.4245 16.985C11.4482 17.012 11.471 17.0392 11.4952 17.0657C11.8128 17.4122 12.1841 17.6855 12.6038 17.8903C13.589 18.3711 14.6161 18.4391 15.6694 18.1867C16.2444 18.0489 16.7516 17.777 17.1698 17.3465C17.5548 16.9505 17.8027 16.4747 17.963 15.9485C18.1392 15.3707 18.1964 14.7758 18.1971 14.1746C18.1998 12.3168 18.1984 10.459 18.1984 8.6012ZM16.705 11.8526C16.6961 12.5863 16.4123 13.1983 15.8084 13.6462C15.5119 13.8661 15.1757 13.9855 14.8121 14.0207C14.3647 14.0639 13.9283 14.0169 13.5269 13.7954C12.8678 13.4317 12.4919 12.8692 12.4041 12.1118C12.3558 11.6956 12.3903 11.2859 12.5606 10.9029C12.8987 10.1432 13.4776 9.70352 14.303 9.6156C14.7781 9.56492 15.2342 9.63582 15.6468 9.88649C16.2734 10.2672 16.6233 10.832 16.6916 11.572C16.6967 11.6277 16.7014 11.6834 16.7047 11.7393C16.7063 11.7715 16.705 11.8034 16.705 11.8526ZM19.2849 11.8371V8.50602C19.2849 8.35847 19.2757 8.37669 19.41 8.37644C19.8319 8.37593 20.2535 8.37593 20.6753 8.37644C20.8141 8.37669 20.8025 8.3612 20.8025 8.50452C20.8028 10.178 20.8025 11.8516 20.8025 13.525V15.1426C20.8025 15.1745 20.802 15.2065 20.802 15.2384C20.802 15.2677 20.7871 15.2819 20.7592 15.2827C20.7354 15.2834 20.7118 15.2834 20.6882 15.2834C20.2585 15.2834 19.829 15.2837 19.3992 15.2834C19.2731 15.2834 19.2847 15.2946 19.2847 15.168C19.2849 14.0576 19.2849 12.9474 19.2849 11.8371Z" fill="white"/>
</g>
</svg>
