<svg width="24" height="24" viewBox="0 0 24 24" fill="none" xmlns="http://www.w3.org/2000/svg">
    <path d="M0 0H24V24H0V0Z" fill="#ececec" />
    <path d="M20.9951 8.81314L13.8932 15.9174C13.4027 16.4076 12.7376 16.683 12.0441 16.683C11.3507 16.683 10.6856 16.4076 10.195 15.9174L3.04658 8.75916L3.00977 15.1395L6.97296 19.1273C8.31527 20.4688 10.1353 21.2223 12.0331 21.2223C13.9308 21.2223 15.7509 20.4688 17.0932 19.1273L20.9852 15.2352L20.9951 8.81314Z" fill="#86BE4E" />
    <path d="M17.059 4.87203C15.7157 3.53233 13.896 2.78 11.9988 2.78C10.1017 2.78 8.28198 3.53233 6.93871 4.87203L3.01233 8.81068L6.2516 11.9739L10.151 8.0843C10.6415 7.59413 11.3066 7.31878 12.0001 7.31878C12.6935 7.31878 13.3586 7.59413 13.8491 8.0843L21.0001 15.2352V8.81068L17.059 4.87203Z" fill="#2E73B9" />
    <path d="M20.9951 15.2303V8.81314L17.7877 12.023L20.9951 15.2303Z" fill="#272E61" />
    <path d="M3 15.1444L3.04417 15.1911L6.25644 11.9788L3.04417 8.76651L3 8.81314V15.1444Z" fill="#272E61" />
</svg>