<svg width="24" height="24" viewBox="0 0 24 24" fill="none" xmlns="http://www.w3.org/2000/svg">
    <path d="M0 0H24V24H0V0Z" fill="#016BBF" />
    <path d="M17.7025 8.1687L14.7466 2.99588H8.6333L12.0595 8.43742L17.7025 8.1687Z" fill="white" />
    <path d="M12.1266 8.43742L9.23792 12.7369H11.8579L13.2015 10.7215H16.2246L17.7697 8.23588L17.7025 8.1687L12.0595 8.43742H12.1266Z" fill="#00B6F1" />
    <path d="M22.1365 15.9615L19.6508 11.5277H13.5375L15.9559 15.8272L16.0903 15.9615H22.1365Z" fill="white" />
    <path d="M13 16.1631L11.5892 13.4759H8.90203L7.28972 11.259L4.19946 11.1918L7.021 16.0959L13 16.1631Z" fill="white" />
    <path d="M3.86365 21H9.9098L11.3878 18.7159L13.0672 21H19.1134L22.1365 15.9615H16.0903L13.4031 20.1267L11.858 17.9769L13.0001 16.1631L7.02108 16.0959V16.1631L3.86365 21Z" fill="#00B6F1" />
</svg>