<svg width="24" height="24" viewBox="0 0 24 24" fill="none" xmlns="http://www.w3.org/2000/svg">
    <path d="M0 0H24V24H0V0Z" fill="#FDE100"/>
    <path d="M3 9.00004L6.74648 11.5L11.2465 8.50004L9.37324 7.24652L11.8099 5.6268L17.0563 9.1268L8.43662 14.8733L10.3099 16.1268L21 9.00004L12 3L3 9.00004ZM21 15L17.2465 12.5L12.7465 15.5L14.6197 16.7465L12.1831 18.3733L6.93662 14.8733L15.5563 9.1268L13.6831 7.87328L3 15L12 21L21 15ZM21 5.5L19.1197 6.75357L17.2465 5.5L21 3V5.5ZM3 18.5L4.87324 17.2465L6.74648 18.5L3 21V18.5Z" fill="#003882"/>
</svg>