<svg width="24" height="24" viewBox="0 0 24 24" fill="none" xmlns="http://www.w3.org/2000/svg">
    <path d="M0 0H24V24H0V0Z" fill="#FF8800" />
    <path d="M3.53483 9.01807V7.54268H4.08812C4.19876 7.54268 4.29097 7.55649 4.35555 7.58416C4.42469 7.61644 4.48 7.66255 4.5169 7.7225C4.55839 7.78704 4.57685 7.85159 4.57685 7.91615C4.57685 7.98069 4.55839 8.04061 4.52614 8.09594C4.48923 8.15128 4.43852 8.19739 4.36936 8.22967C4.45695 8.25734 4.52614 8.30345 4.57685 8.36337C4.62296 8.42793 4.64601 8.50171 4.64601 8.5893C4.64601 8.65844 4.63215 8.72301 4.60448 8.78294C4.57223 8.83828 4.53995 8.88437 4.49386 8.91665C4.45236 8.94891 4.39703 8.97657 4.33249 8.99043C4.26793 9.00887 4.18954 9.01807 4.09732 9.01807H3.53483ZM3.72847 8.16051H4.04661C4.13423 8.16051 4.19415 8.15589 4.23563 8.14205C4.28177 8.12822 4.31864 8.10518 4.3463 8.06827C4.36936 8.03602 4.38318 7.99451 4.38318 7.93921C4.38318 7.8931 4.36936 7.84696 4.3463 7.81009C4.32325 7.7732 4.29097 7.75014 4.24949 7.73632C4.20338 7.7225 4.12962 7.71328 4.02356 7.71328H3.72847V8.16051ZM3.72847 8.84289H4.09732C4.15728 8.84289 4.20338 8.83828 4.22643 8.83365C4.27254 8.82442 4.30941 8.81522 4.34169 8.79217C4.36936 8.7737 4.39703 8.74606 4.41547 8.71378C4.43389 8.67688 4.44313 8.63539 4.44313 8.5893C4.44313 8.53396 4.42931 8.48324 4.40164 8.44637C4.37397 8.40488 4.33708 8.37721 4.28635 8.35875C4.23563 8.34493 4.16187 8.3357 4.06967 8.3357H3.72847V8.84289ZM7.21415 9.01807L7.78126 7.54268H7.99335L8.59272 9.01807H8.3714L8.20081 8.57085H7.583L7.42161 9.01807H7.21415ZM7.63831 8.40946H8.14089L7.98411 7.99913C7.93801 7.87926 7.90572 7.7732 7.88268 7.69484C7.86424 7.79165 7.83657 7.88387 7.7997 7.97607L7.63831 8.40946ZM11.2116 9.01807V7.54268H11.4098L12.1844 8.69997V7.54268H12.3735V9.01807H12.1706L11.396 7.8562V9.01807H11.2116ZM16.2142 8.49708L16.4078 8.5478C16.3663 8.70917 16.2925 8.82904 16.1865 8.91665C16.0804 8.99963 15.9513 9.04115 15.7992 9.04115C15.6378 9.04115 15.5087 9.00887 15.4073 8.94432C15.3105 8.87976 15.2321 8.78756 15.1814 8.66306C15.1306 8.53857 15.103 8.40946 15.103 8.26653C15.103 8.11438 15.1353 7.98069 15.1906 7.86543C15.2505 7.75014 15.3335 7.66255 15.4442 7.6026C15.5502 7.54268 15.6701 7.51501 15.7992 7.51501C15.9467 7.51501 16.0712 7.55188 16.1726 7.63027C16.2741 7.70403 16.3432 7.81009 16.3847 7.94379L16.1911 7.98991C16.1542 7.88387 16.1081 7.80548 16.0436 7.75476C15.979 7.70866 15.896 7.68099 15.7946 7.68099C15.6839 7.68099 15.5871 7.70866 15.5133 7.76398C15.435 7.81932 15.3842 7.8931 15.3519 7.98068C15.3197 8.07289 15.3059 8.16972 15.3059 8.26653C15.3059 8.39103 15.3243 8.50171 15.3612 8.59391C15.3981 8.68611 15.4534 8.75989 15.5318 8.80598C15.6101 8.85209 15.6931 8.87515 15.7807 8.87515C15.8914 8.87515 15.9836 8.84289 16.0574 8.77831C16.1358 8.71839 16.1865 8.62158 16.2142 8.49708ZM19.0497 8.29882C19.0497 8.05446 19.1143 7.86082 19.248 7.7225C19.377 7.58416 19.5476 7.51501 19.7551 7.51501C19.8935 7.51501 20.0133 7.5473 20.124 7.61183C20.2346 7.67637 20.3176 7.76861 20.373 7.88387C20.4329 7.99913 20.4606 8.13285 20.4606 8.28039C20.4606 8.42793 20.4329 8.56163 20.3684 8.6815C20.3084 8.80137 20.2254 8.88899 20.1148 8.94891C20.0041 9.00887 19.8842 9.04115 19.7551 9.04115C19.6168 9.04115 19.4923 9.00887 19.3817 8.93971C19.2756 8.87515 19.1926 8.78294 19.1327 8.66767C19.0774 8.5478 19.0497 8.42793 19.0497 8.29882ZM19.2525 8.29882C19.2525 8.47865 19.2987 8.61696 19.3955 8.71839C19.4923 8.82442 19.6122 8.87515 19.7551 8.87515C19.9027 8.87515 20.0226 8.82442 20.1148 8.71839C20.2116 8.61696 20.2577 8.46941 20.2577 8.28039C20.2577 8.16051 20.2392 8.05446 20.1978 7.96687C20.1563 7.87463 20.0963 7.80548 20.0226 7.75476C19.9442 7.70866 19.8566 7.68099 19.7551 7.68099C19.6168 7.68099 19.5015 7.7317 19.4001 7.82392C19.2987 7.92073 19.2525 8.07752 19.2525 8.29882ZM6.0753 13.8362L6.10297 13.8408L6.12601 13.8547L6.14906 13.8639L6.1675 13.8777L6.19059 13.8962L6.20901 13.9146L6.22746 13.933L6.24127 13.9561L6.25512 13.9791L6.26435 14.0022L6.27356 14.0253L6.27818 14.0529L6.28279 14.0806L6.28741 14.1082L6.28279 14.1359L6.27818 14.1636L6.27356 14.1866L6.26435 14.2143L6.25512 14.2373L6.24127 14.2604L6.22746 14.2788L6.20901 14.3019L6.19059 14.3204L6.1675 14.3342L6.14906 14.3526L6.12601 14.3618L6.10297 14.3757L6.0753 14.3803L6.04763 14.3895L6.01537 14.3941H5.54508V13.8224H6.01537L6.04763 13.827L6.0753 13.8362ZM6.0753 11.6323L6.10297 11.6415L6.12601 11.6508L6.14906 11.6646L6.1675 11.6784L6.19059 11.6969L6.20901 11.7153L6.22746 11.7337L6.24127 11.7568L6.25512 11.7799L6.26435 11.8029L6.27356 11.826L6.27818 11.8536L6.28279 11.8813L6.28741 11.909L6.28279 11.9366L6.27818 11.9643L6.27356 11.9873L6.26435 12.015L6.25512 12.0381L6.24127 12.0611L6.22746 12.0795L6.20901 12.1026L6.19059 12.1211L6.1675 12.1349L6.14906 12.1487L6.12601 12.1626L6.10297 12.1718L6.0753 12.181L6.04763 12.1856L6.01537 12.1902H5.54508V11.6231H6.01537L6.04763 11.6277L6.0753 11.6323ZM6.01537 14.0621L6.02 14.0668H6.02458L6.02919 14.0714H6.03381V14.076L6.03842 14.0806L6.04304 14.0852L6.04763 14.0898V14.0944V14.099V14.1036V14.1082V14.1128V14.1175V14.1221V14.1267H6.04304V14.1313L6.03842 14.1359L6.03381 14.1405V14.1451H6.02919L6.02458 14.1497H6.02L6.01537 14.1543H6.01075H5.99691H5.78021V14.0621H6.00153H6.01075H6.01537ZM6.01537 11.8629H6.02L6.02458 11.8675H6.02919L6.03381 11.8721V11.8767L6.03842 11.8813H6.04304V11.8859L6.04763 11.8905V11.8951V11.8998V11.9043V11.909V11.9136V11.9182V11.9228L6.04304 11.9274V11.932L6.03842 11.9366V11.9412H6.03381L6.02919 11.9459L6.02458 11.9504H6.02H6.01537V11.9551H6.01075H5.99691H5.78021V11.8582H6.00153L6.01075 11.8629H6.01537ZM5.30533 13.5873H6.00153H6.03842C6.31046 13.6103 6.52253 13.8362 6.52253 14.1082C6.52253 14.3803 6.31046 14.6062 6.03842 14.6246V14.6293H5.30533V13.5873ZM5.30533 11.388H6.00153H6.03842C6.31046 11.411 6.52253 11.6323 6.52253 11.909C6.52253 12.181 6.31046 12.4069 6.03842 12.4254V12.43H5.30533V11.388ZM18.8468 12.3055H18.833L18.8053 12.2962L18.7777 12.2917L18.75 12.2824L18.7223 12.2778L18.6947 12.2686L18.667 12.2594H18.6624L18.6486 12.2548L18.6117 12.2409L18.5932 12.2363L18.5748 12.2317L18.5564 12.2271L18.5333 12.2225L18.5149 12.2179L18.4964 12.2133L18.478 12.2087H18.4595L18.4365 12.204H18.4181L18.3996 12.1994H18.3765H18.3581L18.335 12.1948H18.3212L18.2659 12.1994H18.2198L18.1691 12.2087L18.123 12.2133L18.0814 12.2225L18.0353 12.2363L17.9939 12.2455L17.9524 12.264L17.9155 12.2778L17.8786 12.2962L17.8417 12.3147L17.8048 12.3378L17.7725 12.3608L17.7403 12.3839L17.708 12.4115L17.6757 12.4392L17.6481 12.4668L17.6204 12.4945L17.5973 12.5268L17.5697 12.5637L17.5466 12.596L17.5236 12.6328L17.5051 12.6743L17.4867 12.7112L17.4682 12.7527L17.4544 12.7988L17.4406 12.8403L17.4267 12.8864L17.4175 12.9371L17.4083 12.9879L17.3991 13.0386V13.0893L17.3945 13.1446V13.1907L17.3991 13.2415L17.4037 13.2876L17.4129 13.3337L17.4221 13.3751L17.436 13.4166L17.4498 13.4581L17.4637 13.4996L17.4821 13.5365L17.5005 13.5734L17.5236 13.6103L17.5466 13.6472L17.5743 13.6795L17.5973 13.7117L17.625 13.7394L17.6573 13.7671L17.685 13.7947L17.7172 13.8178L17.7541 13.8408L17.7864 13.8639L17.8233 13.8823L17.8601 13.8962L17.9017 13.9146L17.9431 13.9284L17.9846 13.9376L18.0261 13.9469L18.063 13.9515L18.0077 13.9054L17.957 13.8501L17.9155 13.7901L17.874 13.7256L17.8417 13.6564L17.814 13.5873L17.7956 13.5135L17.7864 13.4351L17.7818 13.3705V13.0662L17.7864 12.9971L17.7956 12.9233L17.814 12.8496L17.8417 12.7758L17.874 12.7066L17.9155 12.6467L17.957 12.5867L18.0077 12.5314L18.063 12.4807L18.123 12.4392L18.1829 12.3977L18.252 12.3654L18.3258 12.3378L18.3996 12.3193L18.4734 12.3101L18.5425 12.3055H18.8468ZM18.3166 10.12C18.6855 10.12 19.0405 10.1846 19.3678 10.2998L19.3632 10.3045C19.6629 10.4197 19.875 10.7102 19.875 11.0514C19.875 11.494 19.5108 11.8536 19.0681 11.8536C18.9667 11.8536 18.8699 11.8352 18.7823 11.7983V11.8029C18.6348 11.7522 18.478 11.7245 18.3166 11.7245C17.5512 11.7245 16.9703 12.2686 16.9242 13.0662C16.8781 13.8593 17.4867 14.5001 18.312 14.4264C18.5056 14.4218 18.6762 14.3803 18.8284 14.3111V13.6564H18.5517C18.3904 13.6564 18.252 13.5227 18.252 13.3567V13.0754C18.252 12.9141 18.3904 12.7758 18.5517 12.7758C18.9298 12.7758 19.3033 12.7758 19.6767 12.7758H19.792C19.8381 12.7758 19.8796 12.7758 19.9211 12.7758C20.2577 12.7758 20.5297 13.0478 20.5297 13.3844V14.9843C20.5297 15.5237 20.0686 15.805 19.5845 15.9202C19.0958 16.0355 18.5379 16.0078 18.3166 16.0078C16.6337 16.0078 15.2597 14.6846 15.2597 13.0662C15.2597 11.4433 16.6337 10.12 18.3166 10.12ZM15.6009 15.1318C15.6009 15.5883 15.2228 15.9663 14.7618 15.9663C14.3514 15.9663 14.0056 15.662 13.9411 15.2701L13.4616 13.4121L12.9682 15.1456C12.9313 15.2793 12.8991 15.3762 12.8299 15.496C12.6686 15.7727 12.332 15.9663 11.9493 15.9663C11.5574 15.9663 11.2162 15.7635 11.0548 15.473C10.9949 15.3624 10.9672 15.2517 10.935 15.1272L10.4554 13.4535L9.98974 15.3254H9.98513C9.89754 15.6943 9.56558 15.9663 9.17368 15.9663C8.7172 15.9663 8.33915 15.5883 8.33915 15.1318C8.33915 15.0534 8.34835 14.9935 8.36682 14.9197L9.21517 10.9868H9.21978C9.26126 10.5396 9.74076 10.1892 10.3217 10.1892C10.8151 10.1892 11.2392 10.4428 11.3775 10.7886C11.4145 10.8762 11.4329 10.9776 11.4605 11.0652L11.9493 12.7896L12.4288 11.1113C12.4611 11.0053 12.4887 10.8946 12.5302 10.7886C12.6686 10.4428 13.0881 10.1892 13.5815 10.1892C14.0287 10.1892 14.416 10.3967 14.5912 10.6917C14.6142 10.7332 14.6327 10.7748 14.6465 10.8162C14.688 10.9315 14.7111 11.056 14.7387 11.1759L15.541 14.7445C15.5686 14.8874 15.6009 14.9935 15.6009 15.1318ZM6.82224 10.1339C6.8084 10.1339 6.79457 10.1339 6.78534 10.1339H3.89444C3.66393 10.1339 3.4749 10.3229 3.4749 10.5534V15.5283C3.4749 15.7589 3.66393 15.9479 3.89444 15.9479H6.78534C6.84529 15.9479 6.90983 15.9479 6.96978 15.9479C7.76279 15.9479 8.4083 15.2425 8.4083 14.3803C8.4083 13.7256 8.03944 13.1631 7.51844 12.9279C7.82737 12.6467 8.02563 12.1902 8.02563 11.6738C8.02563 10.8255 7.48619 10.1339 6.82224 10.1339ZM14.25 16.3306L14.1993 16.3075L14.1486 16.2845L14.0978 16.2568L14.0517 16.2245L14.0056 16.1923L13.9595 16.16L13.9134 16.1231L13.8719 16.0862L13.8351 16.0493L13.7936 16.0078L13.7567 15.9663L13.7244 15.9202L13.6921 15.8741L13.6598 15.828L13.6275 15.7773L13.6045 15.7312L13.5769 15.6759L13.5538 15.6251L13.5353 15.5698L13.5169 15.5191L13.4985 15.4592L13.4846 15.4038V15.3946L13.4385 15.2194L13.4201 15.2793L13.4155 15.3024L13.4063 15.3301L13.4016 15.3531L13.3924 15.3808L13.3832 15.4084L13.374 15.4361L13.3648 15.4638L13.3555 15.4915L13.3417 15.5237L13.3325 15.5514L13.3186 15.579L13.3048 15.6113L13.291 15.6436L13.2725 15.6713L13.2541 15.7035L13.2356 15.7358L13.2126 15.7773L13.1849 15.8142L13.1619 15.8557L13.1296 15.8926L13.102 15.9249L13.0697 15.9617L13.0374 15.994L13.0051 16.0309L12.9682 16.0632L12.9313 16.0908L12.8945 16.1185L12.8576 16.1508L12.8207 16.1738L12.7792 16.2015L12.7423 16.2245L12.7008 16.2476L12.6547 16.2707L12.6132 16.2937L12.5717 16.3121L12.5256 16.3306L12.4841 16.3444L12.438 16.3629L12.3919 16.3767L12.3412 16.3905L12.2951 16.3997L12.249 16.409L12.1983 16.4182L12.1522 16.4228L12.1014 16.432H12.0507L12 16.4366H11.9493H11.8986L11.8478 16.432H11.7971L11.7464 16.4228L11.6957 16.4182L11.645 16.409L11.5989 16.3997L11.5481 16.3859L11.502 16.3721L11.4513 16.3582L11.4052 16.3398L11.3591 16.326L11.313 16.3029L11.2715 16.2845L11.2254 16.2614L11.1839 16.2384L11.1424 16.2153L11.1009 16.1876L11.0594 16.16L11.0225 16.1323L10.9856 16.1046L10.9488 16.0724L10.9119 16.0401L10.875 16.0078L10.8427 15.9709L10.8105 15.9387L10.7782 15.9018L10.7505 15.8603L10.7182 15.8234L10.6952 15.7819L10.6675 15.7404L10.6444 15.6989L10.626 15.6666L10.6076 15.6344L10.5938 15.6021L10.5799 15.5698L10.5707 15.5376L10.5569 15.5099L10.5476 15.4822L10.5384 15.4499L10.5292 15.4223L10.52 15.3992L10.5108 15.3716L10.5062 15.3485L10.4969 15.3209L10.4923 15.3024L10.4877 15.2793L10.4416 15.4546L10.4139 15.5421L10.3955 15.5975L10.377 15.6436L10.354 15.6943L10.3309 15.745L10.3033 15.7911L10.2756 15.8372L10.2433 15.8787L10.2111 15.9249L10.1788 15.9663L10.1465 16.0078L10.1096 16.0447L10.0681 16.0816L10.0313 16.1185L9.98974 16.1508L9.94826 16.183L9.90216 16.2153L9.85606 16.243L9.80995 16.2707L9.76381 16.2983L9.71312 16.3214L9.667 16.3398L9.61169 16.3629L9.56097 16.3767L9.51025 16.3951L9.45491 16.409L9.39957 16.4182L9.34427 16.4274L9.28893 16.432L9.23359 16.4366H9.17368H9.10911L9.03996 16.432L8.97541 16.4228L8.91085 16.409L8.84632 16.3951L8.78637 16.3767L8.72643 16.3582L8.66648 16.3352L8.60656 16.3075L8.55122 16.2799L8.49589 16.2476L8.44518 16.2153L8.39446 16.1784L8.34376 16.1369L8.29763 16.0954L8.25153 16.054L8.21004 16.0078L8.16856 15.9663L8.12703 16.0032L8.05327 16.0585L7.97491 16.1139L7.89652 16.1646L7.81351 16.2107L7.72593 16.2522L7.63831 16.2891L7.55072 16.326L7.45852 16.3536L7.36169 16.3767L7.26487 16.3951L7.16804 16.409L7.07122 16.4182H6.97899H3.88063H3.80224L3.71465 16.4044L3.62704 16.3813L3.54867 16.349L3.47028 16.3121L3.39652 16.266L3.32736 16.2153L3.2628 16.16L3.20749 16.0954L3.15677 16.0263L3.11064 15.9525L3.07376 15.8741L3.04148 15.7911L3.01843 15.7082L3.00461 15.6159L3 15.5376V10.5396L3.00461 10.4612L3.01843 10.3736L3.04148 10.286L3.07376 10.203L3.11064 10.1246L3.15677 10.0509L3.20749 9.98632L3.2628 9.92179L3.32736 9.86184L3.39652 9.81111L3.47028 9.76963L3.54867 9.72811L3.62704 9.70047L3.71465 9.67742L3.80224 9.66358L3.88063 9.65896H6.83144L6.91444 9.66358L7.00666 9.6728L7.09428 9.68663L7.18186 9.70506L7.26945 9.73272L7.35246 9.76039L7.43546 9.79729L7.51382 9.83878L7.5922 9.88026L7.66598 9.93099L7.73512 9.98171L7.80432 10.037L7.86885 10.097L7.92877 10.1615L7.98872 10.2261L8.04406 10.2906L8.09936 10.3644L8.15009 10.4382L8.19622 10.5119L8.2377 10.5903L8.2792 10.6733L8.3161 10.7517L8.34835 10.8393L8.38063 10.9269L8.4083 11.0145L8.43135 11.1021L8.44979 11.1943L8.46822 11.2865L8.48207 11.3834L8.49127 11.4756L8.49589 11.5724L8.50051 11.6692V11.7337L8.49589 11.7891L8.49127 11.849L8.48669 11.909L8.48207 11.9689L8.47285 12.0242L8.46363 12.0842L8.45441 12.1395L8.44058 12.1948L8.43135 12.2501L8.41291 12.3055L8.39907 12.3608L8.38063 12.4115L8.3622 12.4668L8.34376 12.5176L8.32529 12.5683L8.30224 12.619L8.2792 12.6697L8.25615 12.7204L8.22848 12.7712L8.20081 12.8173L8.24232 12.8587L8.29304 12.9095L8.31148 12.9279L8.7541 10.8808L8.76331 10.8485L8.77254 10.8024L8.79098 10.7379L8.8094 10.6687L8.83249 10.6042L8.86013 10.5442L8.89241 10.4843L8.92932 10.4243L8.96619 10.369L9.00308 10.3137L9.04458 10.263L9.09067 10.2123L9.13678 10.1662L9.1875 10.12L9.23822 10.0785L9.28893 10.037L9.34427 10.0001L9.39957 9.96327L9.45952 9.93099L9.51946 9.8987L9.57941 9.87106L9.63936 9.8434L9.70389 9.82034L9.76843 9.79729L9.83759 9.77883L9.90216 9.76501L9.97132 9.74658L10.0405 9.73734L10.1096 9.72811L10.1788 9.71891L10.2526 9.7143H10.3217H10.3863L10.4462 9.71891L10.5062 9.72353L10.5661 9.73272L10.626 9.73734L10.6814 9.75116L10.7413 9.76039L10.7966 9.77425L10.852 9.79267L10.9073 9.81111L10.9626 9.82955L11.0179 9.84801L11.0686 9.87106L11.1194 9.89412L11.1701 9.92179L11.2208 9.94943L11.2669 9.97709L11.3176 10.0094L11.3637 10.0417L11.4052 10.0785L11.4513 10.1108L11.4928 10.1477L11.5343 10.1892L11.5712 10.2307L11.6081 10.2722L11.645 10.3137L11.6772 10.3598L11.7095 10.4105L11.7418 10.4566L11.7695 10.5073L11.7925 10.558L11.8156 10.6087L11.8248 10.641L11.834 10.6641L11.8432 10.6917L11.8525 10.7148L11.8617 10.7379L11.8663 10.7609L11.8709 10.7839L11.8801 10.8024L11.8847 10.8255L11.8894 10.8439L11.8939 10.8623L11.8986 10.8808L11.9032 10.8946V10.9084L11.9078 10.9223L11.9124 10.9361L11.9493 11.0698L11.977 10.9822L11.9816 10.9638L11.9862 10.9453L11.9908 10.9269L11.9954 10.9084L12.0046 10.8854L12.0092 10.8623L12.0138 10.8439L12.023 10.8209L12.0277 10.7932L12.0369 10.7701L12.0415 10.7471L12.0507 10.7194L12.06 10.6964L12.0692 10.6687L12.0784 10.641L12.0922 10.6087L12.1153 10.558L12.1383 10.5073L12.166 10.4566L12.1983 10.4105L12.2306 10.3598L12.2628 10.3137L12.2997 10.2722L12.3366 10.2307L12.3735 10.1892L12.415 10.1477L12.4565 10.1108L12.5025 10.0785L12.5441 10.0417L12.5902 10.0094L12.6363 9.97709L12.687 9.94943L12.7377 9.92179L12.7884 9.89412L12.8391 9.87106L12.8899 9.84801L12.9452 9.82955L13.0005 9.81111L13.0512 9.79267L13.1112 9.77425L13.1665 9.76039L13.2264 9.75116L13.2818 9.73734L13.3417 9.73272L13.4016 9.72353L13.4616 9.71891L13.5215 9.7143H13.5815H13.6368L13.6921 9.71891L13.7474 9.72353L13.8028 9.72811L13.8535 9.73272L13.9088 9.74197L13.9595 9.75116L14.0149 9.76501L14.0656 9.77883L14.1163 9.79267L14.167 9.8065L14.2131 9.82494L14.2638 9.8434L14.3099 9.86184L14.3561 9.88489L14.4022 9.90793L14.4483 9.93099L14.4944 9.95865L14.5358 9.98632L14.5774 10.014L14.6189 10.0417L14.6603 10.0739L14.7019 10.1062L14.7387 10.1385L14.7756 10.1707L14.8125 10.2076L14.8448 10.2445L14.877 10.286L14.9093 10.3229L14.9416 10.3644L14.9693 10.4105L14.9969 10.452L15.0108 10.4797L15.0246 10.5027L15.0384 10.5258L15.0476 10.5534L15.0615 10.5765L15.0707 10.6042L15.0799 10.6272L15.0938 10.6549L15.103 10.6871L15.1122 10.7148L15.1214 10.7471L15.1306 10.7748L15.1399 10.8024L15.1445 10.8301L15.1537 10.8577L15.1583 10.8854L15.1629 10.9131L15.1721 10.9361L15.1767 10.9592L15.1814 10.9822L15.186 11.0053L15.1952 11.0514L15.1998 11.0698L15.2644 11.3603L15.3059 11.2911L15.3981 11.1482L15.4995 11.0145L15.6009 10.8854L15.7116 10.7655L15.8314 10.6457L15.9513 10.535L16.0804 10.4243L16.2142 10.3275L16.3525 10.2307L16.4954 10.1431L16.6429 10.0601L16.7951 9.98632L16.9519 9.91717L17.1086 9.85722L17.2746 9.80189L17.4406 9.75578L17.6112 9.71891L17.7818 9.69124L17.957 9.66819L18.1368 9.65433L18.312 9.64975H18.3581H18.395L18.4365 9.65433H18.4734H18.5149L18.5517 9.65896H18.5932L18.6301 9.66358L18.6716 9.66819L18.7085 9.6728L18.7454 9.67742L18.7869 9.682L18.8238 9.68663L18.8607 9.69124L18.8975 9.69586L18.939 9.70506L18.9759 9.70967L19.0128 9.71891L19.0497 9.72353L19.0866 9.73272L19.1235 9.74197L19.1603 9.75116L19.1972 9.76039L19.2341 9.76963L19.271 9.77883L19.3079 9.78806L19.3448 9.79729L19.3817 9.81111L19.4186 9.82034L19.4508 9.83417L19.4877 9.8434L19.5476 9.86645L19.6306 9.90332L19.6675 9.92637L19.709 9.94943L19.7505 9.97248L19.7874 9.99553L19.8289 10.0232L19.8658 10.0555L19.9027 10.0832L19.935 10.1154L19.9672 10.1477L19.9995 10.18L20.0318 10.2168L20.064 10.2491L20.0917 10.286L20.1194 10.3275L20.147 10.3644L20.1701 10.4059L20.1931 10.4474L20.2162 10.4889L20.2346 10.5304L20.2531 10.5719L20.2715 10.618L20.2853 10.6641L20.2992 10.7102L20.313 10.7563L20.3222 10.8024L20.3315 10.8531L20.3361 10.8993L20.3407 10.9499L20.3453 11.0007V11.0514V11.1159L20.3407 11.1805L20.3315 11.245L20.3176 11.305L20.3038 11.3695L20.29 11.4295L20.2669 11.4894L20.2439 11.5447L20.2208 11.6047L20.1885 11.66L20.1609 11.7107L20.1286 11.7614L20.0917 11.8121L20.0548 11.8629L20.0133 11.909L19.9718 11.9504L19.9257 11.992L19.8796 12.0335L19.8335 12.0703L19.7828 12.1072L19.7321 12.1395L19.6767 12.1718L19.6214 12.1994L19.5661 12.2225L19.5061 12.2455L19.4508 12.2686L19.3863 12.287L19.3263 12.3009L19.2895 12.3055H19.792H19.9303H19.9764L20.0318 12.3101L20.0871 12.3193L20.1378 12.3285L20.1931 12.3378L20.2439 12.3562L20.2946 12.37L20.3407 12.3931L20.3914 12.4115L20.4375 12.4346L20.4836 12.4623L20.5251 12.4899L20.5666 12.5222L20.6081 12.5545L20.645 12.5867L20.6865 12.6236L20.7188 12.6605L20.7556 12.6974L20.7879 12.7389L20.8156 12.7804L20.8432 12.8219L20.8709 12.868L20.894 12.9141L20.917 12.9648L20.9355 13.0109L20.9539 13.0616L20.9677 13.1123L20.977 13.1677L20.9862 13.2184L20.9954 13.2737L21 13.329V13.3751V14.9889V15.058L20.9908 15.1318L20.9816 15.2056L20.9677 15.2793L20.9493 15.3485L20.9262 15.4177L20.9032 15.4822L20.8755 15.5468L20.8432 15.6113L20.8064 15.6666L20.7695 15.7266L20.728 15.7773L20.6865 15.828L20.6404 15.8787L20.5943 15.9249L20.5481 15.9663L20.502 16.0078L20.4513 16.0447L20.4006 16.0816L20.3499 16.1139L20.2946 16.1462L20.2439 16.1784L20.1885 16.2061L20.1332 16.2291L20.0825 16.2568L20.0272 16.2752L19.9718 16.2983L19.9165 16.3167L19.8612 16.3352L19.8059 16.3536L19.7505 16.3675L19.6952 16.3813L19.6399 16.3905L19.5845 16.4044L19.5292 16.4136L19.4785 16.4228L19.4232 16.432L19.3678 16.4412L19.3171 16.4459L19.2618 16.4504L19.2111 16.4597L19.1603 16.4643H19.1096L19.0589 16.4689L19.0082 16.4735H18.9575L18.9114 16.4781H18.8653L18.8192 16.4827H18.773H18.7316H18.6901H18.6486H18.6071H18.5702H18.5333H18.501H18.4688H18.4365H18.4088L18.3812 16.4781H18.3581H18.335H18.312L18.1368 16.4735L17.957 16.4643L17.7818 16.4412L17.6112 16.409L17.4406 16.3721L17.2746 16.326L17.1086 16.2752L16.9519 16.2107L16.7951 16.1462L16.6429 16.0678L16.4954 15.9894L16.3525 15.8972L16.2142 15.805L16.0804 15.7035L15.979 15.6159L15.9698 15.639L15.9421 15.6989L15.9144 15.7543L15.8822 15.8096L15.8453 15.8603L15.8084 15.911L15.7715 15.9617L15.73 16.0078L15.6885 16.054L15.6424 16.0954L15.5963 16.1369L15.5456 16.1784L15.4949 16.2153L15.4395 16.2476L15.3888 16.2799L15.3289 16.3075L15.2736 16.3352L15.2136 16.3582L15.1537 16.3767L15.0892 16.3951L15.0292 16.409L14.9647 16.4228L14.8955 16.432L14.8309 16.4366H14.7664H14.7019L14.6465 16.432L14.5866 16.4274L14.5266 16.4182L14.4713 16.4044L14.4114 16.3905L14.3561 16.3721L14.3053 16.3536L14.25 16.3306ZM15.2874 11.826L15.2275 11.9689L15.186 12.0888L14.9693 11.1252L14.9647 11.1021L14.9554 11.056L14.9508 11.0329L14.9462 11.0099L14.9416 10.9868L14.9324 10.9638L14.9278 10.9407L14.9231 10.9131L14.9186 10.89L14.9093 10.867L14.9047 10.8393L14.8955 10.8116L14.8863 10.7886L14.877 10.7609L14.8678 10.7379L14.8632 10.7148L14.854 10.6917L14.8448 10.6733L14.8356 10.6549L14.8263 10.6318L14.8171 10.6134L14.8033 10.5903L14.7941 10.5719L14.771 10.535L14.748 10.5027L14.7249 10.4658L14.6972 10.4336L14.6696 10.4013L14.6419 10.3736L14.6096 10.3413L14.582 10.3137L14.5497 10.286L14.5128 10.2584L14.4805 10.2307L14.4436 10.2076L14.4114 10.1846L14.3745 10.1615L14.333 10.1385L14.2961 10.12L14.2546 10.097L14.2177 10.0785L14.1762 10.0647L14.1347 10.0462L14.0886 10.0324L14.0471 10.0186L14.001 10.0048L13.9595 9.99553L13.9134 9.98632L13.8673 9.97709L13.8212 9.9679L13.7751 9.96327L13.729 9.95865L13.6783 9.95404H13.6322L13.5815 9.94943L13.5307 9.95404H13.4754L13.4247 9.95865L13.3694 9.96327L13.3186 9.97248L13.2679 9.98171L13.2172 9.99094L13.1711 10.0048L13.1204 10.0186L13.0743 10.0324L13.0282 10.0509L12.9821 10.0693L12.936 10.0878L12.8899 10.1062L12.8484 10.1292L12.8069 10.1523L12.7654 10.18L12.7239 10.203L12.687 10.2307L12.6455 10.263L12.6086 10.2906L12.5763 10.3229L12.5441 10.3552L12.5118 10.3874L12.4795 10.4243L12.4472 10.4612L12.4196 10.4981L12.3965 10.535L12.3735 10.5765L12.3504 10.618L12.3274 10.6595L12.3089 10.701L12.2997 10.724L12.2905 10.7471L12.2813 10.7701L12.2766 10.7932L12.2674 10.8162L12.2628 10.8393L12.2536 10.8623L12.249 10.8854L12.2397 10.9038L12.2351 10.9269L12.2306 10.9499L12.2259 10.9684L12.2167 10.9915L12.2121 11.0099L12.2075 11.0283L12.2029 11.0468L11.9493 11.9274L11.6865 11.0007L11.6819 10.9868L11.6772 10.9684L11.6726 10.9546L11.668 10.9361L11.6634 10.9223L11.6588 10.9038L11.6542 10.8854L11.6496 10.867L11.645 10.8439L11.6404 10.8255L11.6358 10.807L11.6265 10.7839L11.6219 10.7655L11.6127 10.7425L11.6035 10.724L11.5989 10.701L11.5804 10.6595L11.5574 10.618L11.5343 10.5765L11.5113 10.535L11.4836 10.4981L11.4559 10.4612L11.4283 10.4243L11.396 10.3874L11.3637 10.3552L11.3314 10.3229L11.2946 10.2906L11.2577 10.263L11.2208 10.2307L11.1839 10.203L11.1424 10.18L11.1009 10.1523L11.0594 10.1292L11.0179 10.1062L10.9718 10.0878L10.9257 10.0693L10.8796 10.0509L10.8335 10.0324L10.7874 10.0186L10.7367 10.0048L10.686 9.99094L10.6352 9.98171L10.5845 9.97248L10.5338 9.96327L10.4831 9.95865L10.4324 9.95404H10.377L10.3217 9.94943L10.2618 9.95404H10.1972L10.1373 9.96327L10.0727 9.9679L10.0128 9.98171L9.95749 9.99094L9.89754 10.0094L9.84221 10.0232L9.78228 10.0417L9.73156 10.0647L9.67623 10.0878L9.6255 10.1108L9.5748 10.1385L9.52407 10.1662L9.47796 10.1984L9.43186 10.2307L9.38576 10.263L9.34427 10.2998L9.30276 10.3367L9.26126 10.3736L9.2244 10.4151L9.19211 10.4612L9.15983 10.5027L9.12755 10.5488L9.09991 10.5949L9.07686 10.6457L9.05377 10.6964L9.03072 10.7471L9.01691 10.8024L9.00308 10.8531L8.99385 10.8946L8.98463 10.9361L8.43135 13.495L8.42212 13.4812L8.39446 13.4259L8.35757 13.3705L8.32529 13.3198L8.28843 13.2645L8.25153 13.2138L8.21004 13.1677L8.16856 13.117L8.12703 13.0709L8.08094 13.0293L8.03483 12.9879L7.98411 12.9464L7.93801 12.9049L7.88729 12.868L7.8919 12.8587L7.91957 12.8219L7.94724 12.7804L7.97491 12.7389L7.99796 12.6974L8.021 12.6559L8.04406 12.6144L8.06711 12.5683L8.08555 12.5268L8.10398 12.4807L8.12245 12.4346L8.14089 12.3885L8.15931 12.3378L8.17314 12.2917L8.18698 12.2409L8.20081 12.1948L8.21004 12.1441L8.22386 12.0934L8.23309 12.0427L8.24232 11.992L8.24692 11.9366L8.25153 11.8859L8.25615 11.8352L8.26076 11.7799V11.7245L8.26537 11.6692L8.26076 11.5816L8.25615 11.494L8.24692 11.411L8.2377 11.3234L8.21928 11.2404L8.20081 11.1574L8.18237 11.079L8.1547 11.0007L8.12703 10.9223L8.09936 10.8485L8.06711 10.7748L8.03022 10.701L7.98872 10.6318L7.95186 10.5673L7.90572 10.4981L7.85962 10.4382L7.8089 10.3782L7.75818 10.3229L7.70749 10.2676L7.64753 10.2168L7.5922 10.1707L7.53228 10.1246L7.46771 10.0832L7.40318 10.0462L7.33402 10.014L7.26487 9.98171L7.19568 9.95404L7.12191 9.9356L7.04814 9.91717L6.97436 9.90332L6.90063 9.8987L6.82685 9.89412H3.88986L3.82991 9.8987L3.76076 9.90793L3.7008 9.92637L3.64088 9.94943L3.58093 9.97709L3.52562 10.0094L3.4749 10.0462L3.42877 10.0878L3.38728 10.1339L3.35041 10.1846L3.31813 10.2399L3.29046 10.2952L3.26741 10.3552L3.24897 10.4197L3.23974 10.4843V10.5488V15.5329V15.5929L3.24897 15.6574L3.26741 15.722L3.29046 15.7819L3.31813 15.8418L3.35041 15.8926L3.38728 15.9433L3.42877 15.9894L3.4749 16.0355L3.52562 16.0724L3.58093 16.1046L3.64088 16.1323L3.7008 16.1554L3.76076 16.1692L3.82991 16.183H3.88986H6.97436H7.05737L7.14498 16.1738L7.22796 16.1646L7.31096 16.1462L7.39394 16.1277L7.47233 16.1001L7.55072 16.0724L7.62911 16.0401L7.70287 16.0032L7.77665 15.9617L7.8458 15.9156L7.91496 15.8695L7.97949 15.8188L8.04406 15.7635L8.10398 15.7082L8.15931 15.6482L8.21004 15.5929L8.23309 15.639L8.26076 15.6851L8.28843 15.7312L8.3161 15.7727L8.34835 15.8096L8.38063 15.8511L8.41751 15.8879L8.45441 15.9249L8.49589 15.9571L8.5328 15.9894L8.57428 16.0171L8.62039 16.0447L8.66648 16.0724L8.71259 16.0954L8.75873 16.1185L8.80482 16.1369L8.85554 16.1554L8.90627 16.1692L8.96157 16.1784L9.01229 16.1876L9.06763 16.1969L9.11834 16.2015H9.17368H9.21978L9.26589 16.1969L9.31199 16.1923L9.35809 16.1876L9.4042 16.1784L9.4503 16.1646L9.49182 16.1554L9.5333 16.1415L9.5748 16.1231L9.61627 16.1046L9.65778 16.0862L9.69467 16.0678L9.73618 16.0447L9.77306 16.0217L9.80534 15.994L9.84221 15.9663L9.87449 15.9387L9.90677 15.911L9.93902 15.8787L9.97132 15.8465L9.99899 15.8142L10.0267 15.7819L10.0497 15.745L10.0774 15.7082L10.1004 15.6713L10.1189 15.6344L10.1419 15.5929L10.1603 15.5514L10.1742 15.5099L10.1926 15.4684L10.2157 15.39L10.4693 14.3664L10.7044 15.1918L10.7136 15.2148L10.7182 15.2379L10.7275 15.2609L10.7321 15.284L10.7413 15.307L10.7459 15.3301L10.7551 15.3531L10.7597 15.3762L10.7689 15.4038L10.7782 15.4269L10.7874 15.4546L10.7966 15.4776L10.8105 15.5053L10.8243 15.5329L10.8335 15.5606L10.852 15.5883L10.8704 15.6205L10.8888 15.6528L10.9119 15.6897L10.935 15.722L10.9626 15.7496L10.9856 15.7819L11.0133 15.8096L11.041 15.8418L11.0733 15.8695L11.1009 15.8926L11.1332 15.9202L11.1655 15.9433L11.1978 15.9709L11.23 15.9894L11.2669 16.0124L11.2992 16.0355L11.3361 16.054L11.373 16.0724L11.4098 16.0908L11.4467 16.1046L11.4882 16.1185L11.5251 16.1323L11.5666 16.1462L11.6081 16.1554L11.6496 16.1692L11.6911 16.1784L11.7326 16.183L11.7741 16.1923L11.8202 16.1969H11.8617L11.9078 16.2015H11.9493H11.9954L12.0369 16.1969H12.0784L12.1199 16.1923L12.1614 16.183L12.2029 16.1784L12.2444 16.1692L12.2859 16.16L12.3228 16.1508L12.3642 16.1369L12.4011 16.1231L12.4426 16.1093L12.4795 16.0954L12.5164 16.077L12.5487 16.0585L12.5855 16.0401L12.6225 16.0217L12.6547 16.0032L12.687 15.9802L12.7193 15.9571L12.7515 15.9341L12.7838 15.911L12.8115 15.8834L12.8391 15.8557L12.8668 15.8326L12.8945 15.8004L12.9221 15.7727L12.9452 15.745L12.9682 15.7128L12.9913 15.6805L13.0144 15.6482L13.0328 15.6159L13.0512 15.5883L13.065 15.5606L13.0789 15.5376L13.0927 15.5099L13.102 15.4868L13.1112 15.4592L13.125 15.4361L13.1342 15.4084L13.1434 15.3854L13.1527 15.3624L13.1573 15.3347L13.1665 15.3116L13.1757 15.2886L13.1803 15.2609L13.1895 15.2379L13.1942 15.2148L13.4524 14.3157L13.7152 15.3439V15.3531L13.729 15.3992L13.7428 15.4453L13.7567 15.4915L13.7751 15.5376L13.7936 15.579L13.812 15.6205L13.8351 15.662L13.8581 15.6989L13.8858 15.7404L13.9088 15.7773L13.9411 15.8142L13.9688 15.8465L14.001 15.8834L14.0333 15.9156L14.0702 15.9433L14.1025 15.9756L14.1394 16.0032L14.1809 16.0263L14.2177 16.054L14.2592 16.077L14.3007 16.0954L14.3422 16.1139L14.3883 16.1323L14.4298 16.1508L14.4759 16.16L14.522 16.1738L14.5681 16.183L14.6189 16.1923L14.665 16.1969L14.7157 16.2015H14.7664H14.8171L14.8725 16.1969L14.9278 16.1876L14.9785 16.1784L15.0292 16.1692L15.0799 16.1554L15.1306 16.1369L15.1814 16.1185L15.2275 16.0954L15.2736 16.0724L15.3197 16.0447L15.3612 16.0171L15.4027 15.9894L15.4442 15.9571L15.4856 15.9249L15.5225 15.8879L15.5548 15.8511L15.5917 15.8096L15.6194 15.7727L15.6517 15.7312L15.6793 15.6851L15.707 15.639L15.73 15.5929L15.7485 15.5468L15.7715 15.5007L15.7854 15.4499L15.7992 15.3992L15.813 15.3439L15.8222 15.2932L15.8314 15.2379V15.1871L15.8361 15.1456L15.8868 15.2056L15.9928 15.3162L16.1081 15.4177L16.228 15.5191L16.3525 15.6113L16.4816 15.7035L16.6153 15.7819L16.7536 15.8603L16.8965 15.9295L17.0395 15.994L17.1916 16.0493L17.3438 16.1001L17.4959 16.1415L17.6573 16.1784L17.8187 16.2061L17.98 16.2291L18.1506 16.2384L18.312 16.243H18.335H18.3581H18.3858H18.4088H18.4411L18.4688 16.2476H18.501H18.5379H18.5702H18.6071H18.6486H18.6855H18.727H18.7684L18.8145 16.243H18.8561H18.9022L18.9483 16.2384H18.9944L19.0405 16.2338L19.0912 16.2291H19.1373L19.188 16.2245L19.2387 16.2199L19.2895 16.2107L19.3356 16.2061L19.3863 16.1969L19.437 16.1923L19.4877 16.183L19.5384 16.1738L19.5891 16.16L19.6399 16.1508L19.6906 16.1369L19.7413 16.1231L19.792 16.1093L19.8427 16.0954L19.8888 16.077L19.9395 16.0585L19.9903 16.0355L20.0364 16.0171L20.0825 15.994L20.1286 15.9709L20.1747 15.9433L20.2208 15.9156L20.2669 15.8879L20.3084 15.8557L20.3545 15.8234L20.396 15.7911L20.4329 15.7543L20.4698 15.7128L20.5067 15.6759L20.5436 15.6344L20.5758 15.5883L20.6081 15.5421L20.6358 15.496L20.6634 15.4453L20.6865 15.39L20.7049 15.3393L20.7234 15.284L20.7372 15.224L20.751 15.1687L20.7556 15.1088L20.7649 15.0442V14.9889V13.3798V13.3383L20.7603 13.2968L20.7556 13.2553L20.7464 13.2138L20.7372 13.1723L20.728 13.1308L20.7142 13.0939L20.6957 13.057L20.6819 13.0201L20.6634 12.9832L20.6404 12.9464L20.6219 12.9141L20.5989 12.8818L20.5712 12.8496L20.5436 12.8173L20.5159 12.7896L20.4882 12.7619L20.4559 12.7343L20.4283 12.7112L20.3914 12.6882L20.3591 12.6651L20.3222 12.642L20.29 12.6236L20.2485 12.6098L20.2116 12.5913L20.1747 12.5775L20.1332 12.5683L20.0917 12.5591L20.0502 12.5498L20.0087 12.5452L19.9672 12.5406H19.9257H19.792H19.4416H18.5471L18.501 12.5452L18.4457 12.5545L18.395 12.5637L18.3443 12.5821L18.2982 12.6052L18.252 12.6328L18.2106 12.6651L18.1737 12.6974L18.1414 12.7343L18.1091 12.7758L18.0814 12.8219L18.0584 12.868L18.04 12.9187L18.0307 12.9694L18.0215 13.0248L18.0169 13.0709V13.3613L18.0215 13.4121L18.0307 13.4628L18.04 13.5181L18.0584 13.5642L18.0814 13.6149L18.1091 13.6564L18.1414 13.6979L18.1737 13.7348L18.2106 13.7717L18.252 13.7993L18.2982 13.827L18.3443 13.8501L18.395 13.8685L18.4457 13.8823L18.501 13.8916H18.5471H18.5932V14.1451L18.584 14.1497L18.5564 14.159L18.5333 14.1636L18.5056 14.1682L18.478 14.1728L18.4503 14.1774L18.4226 14.182L18.395 14.1866L18.3627 14.1912H18.335H18.2982L18.2244 14.1959H18.1645H18.0999L18.04 14.1866L17.9846 14.182L17.9293 14.1682L17.874 14.1543L17.8187 14.1359L17.7679 14.1175L17.7172 14.0944L17.6711 14.0668L17.625 14.0391L17.5789 14.0114L17.5374 13.9791L17.4959 13.9423L17.459 13.9054L17.4221 13.8685L17.3899 13.827L17.3576 13.7809L17.3253 13.7394L17.2976 13.6933L17.27 13.6426L17.2469 13.5918L17.2285 13.5411L17.21 13.4904L17.1962 13.4351L17.1824 13.3798L17.1731 13.3198L17.1639 13.2599L17.1593 13.1999V13.14V13.0801L17.1639 13.0155L17.1731 12.951L17.1824 12.891L17.1962 12.8357L17.21 12.7758L17.2285 12.7204L17.2469 12.6697L17.27 12.6144L17.293 12.5637L17.3207 12.5176L17.3484 12.4715L17.376 12.4254L17.4083 12.3839L17.4406 12.3424L17.4775 12.3055L17.5144 12.2686L17.5512 12.2317L17.5927 12.1994L17.6342 12.1672L17.6803 12.1395L17.7218 12.1118L17.7725 12.0842L17.8187 12.0611L17.8694 12.0427L17.9201 12.0242L17.9708 12.0058L18.0261 11.992L18.0814 11.9827L18.1368 11.9735L18.1967 11.9643H18.2567L18.3166 11.9597H18.3443H18.3673L18.395 11.9643H18.4181L18.4411 11.9689H18.4688L18.4918 11.9735L18.5149 11.9781L18.5425 11.9827L18.5656 11.9873L18.5886 11.992L18.6117 11.9966L18.6348 12.0058L18.6578 12.0104L18.6808 12.0196L18.7177 12.0288L18.7316 12.0335H18.7408L18.7638 12.0427L18.7869 12.0473L18.81 12.0565L18.833 12.0611L18.8561 12.0657L18.8791 12.0703L18.9022 12.0749L18.9252 12.0795L18.9483 12.0842H18.9713L18.999 12.0888H19.022H19.0451H19.0728H19.1235L19.1742 12.0842L19.2295 12.0795L19.2802 12.0703L19.3309 12.0565L19.377 12.0427L19.4278 12.0242L19.4739 12.0058L19.52 11.9873L19.5661 11.9643L19.6076 11.9366L19.6491 11.909L19.6906 11.8813L19.7321 11.8536L19.769 11.8168L19.8059 11.7845L19.8381 11.7476L19.8704 11.7107L19.9027 11.6738L19.9303 11.6323L19.958 11.5908L19.9811 11.5447L20.0041 11.4986L20.0272 11.4525L20.0456 11.4064L20.064 11.3603L20.0779 11.3096L20.0871 11.2589L20.0963 11.2081L20.1056 11.1574L20.1101 11.1021V11.0514V11.0099L20.1056 10.9684L20.1009 10.9269L20.0963 10.89L20.0917 10.8485L20.0825 10.8116L20.0733 10.7748L20.0594 10.7379L20.0502 10.6964L20.0364 10.6641L20.0179 10.6272L20.0041 10.5903L19.9856 10.558L19.9672 10.5258L19.9442 10.4935L19.9257 10.4612L19.9027 10.429L19.8796 10.3967L19.8566 10.369L19.8289 10.3413L19.8012 10.3137L19.7736 10.286L19.7459 10.263L19.7182 10.2399L19.686 10.2123L19.6537 10.1938L19.626 10.1707L19.5891 10.1523L19.5569 10.1339L19.5246 10.1154L19.4554 10.0832L19.4093 10.0693L19.377 10.0555L19.3448 10.0462L19.3125 10.037L19.2756 10.0232L19.2433 10.014L19.2111 10.0048L19.1742 9.99553L19.1419 9.98632L19.105 9.97709L19.0728 9.97248L19.0359 9.96327L19.0036 9.95404L18.9667 9.94943L18.9344 9.94023L18.8975 9.9356L18.8607 9.93099L18.8238 9.92637L18.7915 9.91717L18.7546 9.91256L18.7177 9.90793H18.6808L18.6486 9.90332L18.6117 9.8987L18.5748 9.89412H18.5379L18.501 9.88951H18.4641H18.4273L18.3904 9.88489H18.3535H18.3166L18.1506 9.88951L17.98 9.90332L17.8187 9.92179L17.6573 9.94943L17.4959 9.98632L17.3438 10.0278L17.1916 10.0785L17.0395 10.1339L16.8965 10.1984L16.7536 10.2676L16.6153 10.3459L16.4816 10.429L16.3525 10.5165L16.228 10.6087L16.1081 10.7102L15.9928 10.8162L15.8868 10.9269L15.7807 11.0422L15.6839 11.162L15.5917 11.2865L15.5041 11.4156L15.4257 11.5493L15.3519 11.683L15.2874 11.826Z" fill="white" />
</svg>