<svg width="24" height="24" viewBox="0 0 24 24" fill="none" xmlns="http://www.w3.org/2000/svg">
<mask id="mask0_717_3842" style="mask-type:luminance" maskUnits="userSpaceOnUse" x="3" y="3" width="18" height="18">
<path d="M21 3H3V21H21V3Z" fill="white"/>
</mask>
<g mask="url(#mask0_717_3842)">
<path d="M17.0298 8.52548C16.8784 8.52548 16.7863 8.59821 16.7468 8.66428V8.57832C16.7468 8.5651 16.7335 8.5519 16.7204 8.5519H16.5757C16.5624 8.5519 16.5492 8.5651 16.5492 8.57832V9.45783C16.5492 9.47104 16.5624 9.48425 16.5757 9.48425H16.7336C16.7468 9.48425 16.7598 9.47104 16.7598 9.45783V8.93536C16.7598 8.78991 16.8455 8.71061 16.9773 8.71061C17.076 8.71061 17.1551 8.79648 17.1551 8.89574V9.45783C17.1551 9.47104 17.1681 9.48425 17.1813 9.48425H17.3394C17.3525 9.48425 17.3656 9.47104 17.3656 9.45783V8.88903C17.3721 8.6774 17.2536 8.52548 17.0298 8.52548ZM18.024 8.52548C17.754 8.52548 17.5631 8.73713 17.5631 9.00161C17.5631 9.2661 17.754 9.47754 18.024 9.47754C18.1227 9.47754 18.2083 9.45114 18.2676 9.41149C18.2676 9.41149 18.34 9.3718 18.3927 9.29242C18.3927 9.29242 18.3927 9.28571 18.3993 9.28571L18.4059 9.2792V9.2725C18.4453 9.20643 18.4452 9.15362 18.4452 9.15362C18.4452 9.14041 18.4323 9.1272 18.4191 9.1272H18.2612C18.2479 9.1272 18.2413 9.1337 18.2347 9.14691V9.15362C18.2018 9.23966 18.1229 9.29912 18.0175 9.29912C17.8661 9.29912 17.7738 9.1801 17.7738 9.00811C17.7673 8.83624 17.8661 8.71061 18.0175 8.71061C18.1229 8.71061 18.2018 8.77017 18.2347 8.85611V8.86261C18.2347 8.87593 18.2479 8.88253 18.2612 8.88253H18.4191C18.4323 8.88253 18.4452 8.86933 18.4452 8.85611C18.4452 8.85611 18.4453 8.80309 18.4059 8.73703V8.73052L18.3993 8.72382C18.3993 8.71716 18.3927 8.71717 18.3927 8.71061C18.3602 8.66225 18.3175 8.6216 18.2676 8.59153C18.1942 8.54722 18.1098 8.52433 18.024 8.52548ZM14.3109 8.25439C14.2977 8.25439 14.2845 8.26759 14.2845 8.28081V9.45133C14.2845 9.46444 14.2977 9.47754 14.3109 9.47754H14.4555C14.4624 9.47707 14.4689 9.47414 14.4737 9.46929C14.4786 9.46443 14.4815 9.45798 14.4819 9.45112V9.32554C14.5412 9.41814 14.6532 9.47754 14.7915 9.47754C15.0614 9.47754 15.2194 9.25944 15.2194 9.00161C15.2194 8.74379 15.0614 8.52548 14.7915 8.52548C14.6466 8.52548 14.5478 8.59155 14.4951 8.66428V8.28081C14.4951 8.26759 14.4819 8.25439 14.4687 8.25439H14.3109ZM14.7453 8.71061C14.9033 8.71061 15.002 8.83628 15.002 9.00161C15.0087 9.16694 14.91 9.29242 14.7453 9.29242C14.5873 9.29242 14.4887 9.16694 14.4887 9.00161C14.4887 8.83628 14.5873 8.71061 14.7453 8.71061ZM15.7856 8.53219C15.5156 8.53219 15.3576 8.75029 15.3576 9.00811C15.3576 9.26605 15.5091 9.48425 15.7856 9.48425C15.9304 9.48425 16.0358 9.4313 16.0951 9.33204V9.45763C16.0951 9.47095 16.1081 9.48425 16.1213 9.48425H16.2662C16.2793 9.48425 16.2926 9.47104 16.2926 9.45783V8.57832C16.2926 8.55855 16.286 8.5519 16.2662 8.5519H16.1213C16.1081 8.5519 16.0951 8.5651 16.0951 8.57832V8.68419C16.0358 8.59159 15.9304 8.53219 15.7856 8.53219ZM15.8315 8.71061C15.9896 8.71061 16.0884 8.83628 16.0884 9.00161C16.095 9.16694 15.9961 9.29242 15.8315 9.29242C15.6735 9.29242 15.5748 9.16694 15.5748 9.00161C15.5748 8.83628 15.6735 8.71061 15.8315 8.71061ZM19.0643 8.52548C18.7745 8.52548 18.5904 8.74379 18.5904 9.00161C18.5904 9.25944 18.7745 9.47754 19.0643 9.47754C19.3605 9.47754 19.5449 9.25944 19.5449 9.00161C19.5449 8.74379 19.3539 8.52548 19.0643 8.52548ZM19.0643 8.71061C19.2156 8.71061 19.3341 8.82307 19.3341 9.00161C19.3275 9.18016 19.2156 9.29242 19.0643 9.29242C18.9128 9.29242 18.8009 9.18016 18.8009 9.00161C18.8009 8.82307 18.9128 8.71061 19.0643 8.71061ZM15.4299 10.1122C14.956 10.1122 14.6531 10.2909 14.37 10.7405C14.1659 10.2512 13.7907 10.1189 13.4352 10.1189C13.1653 10.1189 12.7966 10.2049 12.5925 10.5751L12.5463 10.3107C12.5332 10.2447 12.4806 10.1983 12.4082 10.1983H11.8485C11.7694 10.1983 11.7101 10.2578 11.7101 10.3371V13.4118C11.7101 13.4911 11.7694 13.5505 11.8485 13.5505H12.5067C12.5858 13.5505 12.6451 13.491 12.6451 13.4116V11.7586C12.6451 11.3818 12.836 11.0181 13.2048 11.0181C13.5866 11.0181 13.7642 11.3091 13.7642 11.7521V13.4116C13.7642 13.4909 13.8237 13.5505 13.9026 13.5505H14.5478C14.6269 13.5505 14.686 13.4909 14.686 13.4116V11.7521C14.686 11.3752 14.8572 11.038 15.2259 11.038C15.6012 11.038 15.7659 11.3158 15.7659 11.7389V13.4116C15.7659 13.4909 15.8251 13.5505 15.9041 13.5505H16.569C16.6481 13.5505 16.7072 13.4909 16.7072 13.4116V11.7125C16.7006 10.4695 16.0949 10.1122 15.4299 10.1122ZM7.59542 8.58482C7.51635 8.58482 7.45703 8.64443 7.45703 8.72382V13.405C7.45703 13.4843 7.51635 13.5439 7.59542 13.5439H8.21421C8.28673 13.5439 8.33938 13.4908 8.3526 13.4248L8.39853 13.114C8.71462 13.5173 9.09655 13.6166 9.51783 13.6166C10.5054 13.6166 11.1836 12.9091 11.1836 11.8578C11.1769 10.7601 10.4921 10.0923 9.49792 10.0923C9.10285 10.0923 8.72783 10.2182 8.43817 10.5753V8.72382C8.43817 8.64443 8.37874 8.58482 8.29978 8.58482H7.59542ZM9.39936 10.9785C9.88005 10.9785 10.2683 11.3686 10.2683 11.8513C10.2617 12.334 9.87339 12.7239 9.39936 12.7239C8.91877 12.7239 8.53021 12.334 8.53021 11.8513C8.53021 11.3686 8.91877 10.9785 9.39936 10.9785ZM20.361 9.8732C20.352 9.87278 20.343 9.87318 20.3341 9.87442C20.2988 9.87939 20.2657 9.8975 20.2427 9.92725L19.9728 10.2843C19.7016 10.1624 19.4077 10.0993 19.1104 10.0992C18.1492 10.0992 17.2471 10.6877 17.2471 11.8712C17.2471 12.9489 17.9844 13.6233 19.1169 13.6233C19.7423 13.6233 19.9531 13.8811 19.9531 14.2183C19.9531 14.648 19.5449 14.8597 19.0971 14.8597C18.6693 14.8597 18.3202 14.7142 18.2412 14.2712C18.228 14.2051 18.1689 14.1523 18.103 14.1523H17.4381C17.3592 14.1523 17.2932 14.2183 17.2932 14.3043C17.3394 15.2101 17.9582 15.7457 19.0971 15.7457C20.0452 15.7457 20.9735 15.2499 20.9735 14.2118C20.9669 14.0135 20.9669 13.4446 20.1966 13.1008C20.6969 12.8431 20.9208 12.3803 20.9406 11.8844C20.9406 11.4679 20.8353 11.1305 20.651 10.8594L20.967 10.4959C21.0196 10.4363 21.0064 10.3437 20.9472 10.2908L20.4402 9.90064C20.4156 9.88331 20.388 9.87446 20.361 9.8732ZM19.0907 10.985C19.5646 10.985 19.9531 11.3752 19.9531 11.8513C19.9596 12.3274 19.5713 12.7174 19.0907 12.7174C18.61 12.7174 18.228 12.3273 18.228 11.8513C18.228 11.3686 18.6166 10.985 19.0907 10.985Z" fill="white"/>
<path d="M4.65894 10.4364C4.65894 10.2711 4.81032 10.1389 4.97493 10.1654C5.85723 10.2975 6.5353 11.0645 6.5353 11.9836C6.5353 13.4251 5.3831 13.7424 4.88274 13.8086C4.76424 13.8218 4.65894 13.7292 4.65894 13.6102V10.4364Z" fill="#462A71"/>
<path d="M4.07317 8.41296C3.48074 8.41306 3 8.89598 3 9.49101V11.8909C3 12.0034 3.09228 12.096 3.20423 12.096H4.02705C4.37591 12.096 4.65904 11.8117 4.65904 11.4613V8.61801C4.65904 8.50563 4.56697 8.41296 4.45501 8.41296H4.07317Z" fill="white"/>
</g>
</svg>
