<svg width="24" height="24" viewBox="0 0 24 24" fill="none" xmlns="http://www.w3.org/2000/svg">
    <path d="M0 0H24V24H0V0Z" fill="#A80A35" />
    <path d="M6.59692 5.32507V8.95737C10.8083 8.7731 12.1399 10.8601 12.1399 10.8601C11.708 5.68259 6.59692 5.32507 6.59692 5.32507Z" fill="white" />
    <path d="M12.1399 10.8601C12.1399 10.8601 13.4715 8.7731 17.6829 8.95737V5.32507C17.6829 5.32507 12.5718 5.68259 12.1399 10.8601Z" fill="white" />
    <path d="M12.1438 10.8561C12.1438 10.8561 14.2308 12.1877 14.0465 16.3991H17.6788C17.6788 16.3991 17.3213 11.288 12.1438 10.8561Z" fill="white" />
    <path d="M3.0133 21.629H6.78113C6.01782 12.4581 12.1359 10.8562 12.1359 10.8562C2.25785 11.2736 3.0133 21.629 3.0133 21.629Z" fill="white" />
    <path d="M17.3984 3H6.88115C5.4444 3 4.27966 4.16474 4.27966 5.60148V13.1675C4.67504 12.6687 5.12022 12.1915 5.62205 11.7472V5.73819C5.62205 4.9673 6.24701 4.34238 7.01791 4.34238H17.2618C18.0327 4.34238 18.6576 4.9673 18.6576 5.73819V15.9821C18.6576 16.7529 18.0326 17.378 17.2618 17.378H8.09712V18.7203H17.3985C18.8352 18.7203 19.9999 17.5555 19.9999 16.1188V5.60148C19.9999 4.16474 18.8352 3 17.3984 3Z" fill="#F68C1F" />
</svg>