<svg width="24" height="24" viewBox="0 0 24 24" fill="none" xmlns="http://www.w3.org/2000/svg">
    <path d="M0 2C0 0.89543 0.895431 0 2 0H22C23.1046 0 24 0.895431 24 2V22C24 23.1046 23.1046 24 22 24H2C0.89543 24 0 23.1046 0 22V2Z" />
    <path d="M0 0H24V24H0V0Z" />
    <path d="M10.4261 16.8462V20.6924C10.4261 20.7953 10.5033 20.8596 10.5934 20.8596H11.661V15.9329L10.5934 16.5503C10.4905 16.6146 10.4261 16.7047 10.4261 16.8462ZM11.5067 7.40431C10.4647 7.40431 9.31987 7.50722 8.18787 7.70017C9.33273 6.23372 11.1465 5.28182 13.1661 5.28182C14.6583 5.28182 16.1504 5.83495 17.1538 6.68395C17.3339 6.83831 17.4754 6.85117 17.6169 6.70967C17.7584 6.58104 17.7455 6.43954 17.5912 6.25945C16.2791 4.74154 14.3495 3.71246 12.0855 3.75105C9.11405 3.8025 6.59279 5.69345 5.62802 8.29189C4.7533 8.56203 3.94289 8.89648 3.22253 9.29525C3.02958 9.41103 2.95239 9.53966 3.02958 9.70689C3.09389 9.86125 3.23539 9.9127 3.42835 9.86125C4.0458 9.68116 4.67611 9.53966 5.33216 9.3853C5.26784 9.73262 5.21638 10.0799 5.21638 10.453C5.16493 12.8585 6.45129 15.1353 8.41942 16.3831C8.61237 16.5117 8.7796 16.5117 8.89537 16.3574C9.01114 16.203 8.99828 16.0615 8.83105 15.92C7.58328 14.788 6.87579 13.1157 6.87579 11.4563C6.87579 10.6202 7.04301 9.8098 7.3646 9.07657C8.02065 9.02512 8.72814 8.97366 9.51282 8.97366C14.5939 8.97366 18.8775 10.6459 18.8775 12.8456C18.8775 13.9519 17.4625 15.071 15.7902 15.8171C15.3915 15.9972 15.34 16.1258 15.4043 16.293C15.4558 16.4603 15.6487 16.5117 15.8546 16.4474C18.7875 15.4826 21 13.9004 21 11.9966C21 9.39816 16.8065 7.40431 11.5067 7.40431ZM13.5648 14.8395L12.1499 15.6499V20.8468H13.6678C13.8221 20.8468 13.9379 20.731 13.9379 20.5766V15.0324C13.9379 14.8266 13.7321 14.7494 13.5648 14.8395Z" fill="white" />
</svg>