<svg width="24" height="24" viewBox="0 0 24 24" fill="none" xmlns="http://www.w3.org/2000/svg">
    <path d="M0 0H24V24H0V0Z" fill="#3333CC" />
    <path d="M6.51457 9.89278C5.87379 9.89278 5.31068 10.0568 4.84466 10.385L4.5534 10.5855V7.45001L3 7.88752V16.4008H4.57282V15.8721L4.86408 16.0726C5.34952 16.3825 5.91263 16.5466 6.53399 16.5466C8.3204 16.5466 9.77671 15.0518 9.77671 13.2106C9.77671 11.3694 8.30098 9.89278 6.51457 9.89278ZM6.39807 15.0518C5.34952 15.0518 4.5534 14.2679 4.5534 13.2288C4.5534 12.1897 5.34952 11.3876 6.39807 11.3876C7.44661 11.3876 8.24273 12.1715 8.24273 13.2106C8.22331 14.2497 7.44661 15.0518 6.39807 15.0518Z" fill="white" />
    <path d="M13.039 12.5361L12.8642 12.4814C12.1264 12.2262 11.8157 12.0621 11.8157 11.6975C11.8157 11.3147 12.2234 11.1689 12.6118 11.1689C13.0001 11.1689 13.4662 11.2965 13.4662 11.8434V12.1533H15.0196V11.8434C15.0196 10.622 14.0293 9.74695 12.6118 9.74695C11.0778 9.74695 10.2817 10.7131 10.2817 11.6793C10.2817 13.0465 11.4856 13.4476 12.4565 13.7757L12.5535 13.8122C13.2914 14.0674 13.6603 14.2497 13.6603 14.5596C13.6603 14.9788 13.1749 15.1247 12.7477 15.1247C12.2623 15.1247 11.6603 14.9971 11.6603 14.359V14.0309H10.1069V14.359C10.1069 15.6716 11.1555 16.5466 12.7477 16.5466C14.1652 16.5466 15.2137 15.7263 15.2137 14.5778C15.1943 13.2835 13.9904 12.8642 13.039 12.5361Z" fill="white" />
    <path d="M18.6699 15.5622H20.3398V14.9971H17.9515L18.9806 14.0491C19.8156 13.2835 20.2233 12.5908 20.2233 11.8798C20.2233 10.8225 19.4272 9.74695 17.8932 9.74695C16.7476 9.74695 15.5243 10.4214 15.5243 11.8798V12.135H17.0583V11.898C17.0583 11.4058 17.3495 11.1506 17.9126 11.1506C18.2816 11.1506 18.6893 11.3512 18.6893 11.8798C18.6893 12.3173 18.2233 12.7913 17.8932 13.1012L16.3787 14.5231C15.8544 15.0153 15.5437 15.6898 15.5437 16.3825H20.3593V15.8174H18.6699C18.5923 15.8174 18.5146 15.7627 18.5146 15.6716C18.5146 15.6351 18.5728 15.5622 18.6699 15.5622ZM21 15.708C21 15.8174 20.9029 15.9086 20.7864 15.9086C20.6699 15.9086 20.5728 15.8174 20.5728 15.708C20.5728 15.5987 20.6699 15.5075 20.7864 15.5075C20.9029 15.5075 21 15.5987 21 15.708Z" fill="white" />
</svg>