<svg width="24" height="24" viewBox="0 0 24 24" fill="none" xmlns="http://www.w3.org/2000/svg">
    <path d="M0 0H24V24H0V0Z" fill="#00447C" />
    <path d="M18.3014 5.76084C18.2393 5.76084 18.115 5.76084 18.0529 5.6987C16.2509 5.32589 13.6412 5.82298 11.1558 8.05988L11.7771 8.92979C13.8897 6.94143 16.5616 5.6987 18.3636 5.88511C18.4257 5.88511 18.4878 5.82298 18.3014 5.76084ZM17.0587 4.70452C17.183 4.76666 17.183 4.64239 16.9966 4.51811C16.9344 4.51811 16.8723 4.45598 16.8101 4.45598C13.8276 3.08898 10.8451 3.52394 8.73244 4.89093L9.41594 5.76084C11.5907 4.20743 14.7597 3.71034 17.0587 4.70452ZM9.16739 7.12784L9.85089 7.99775C12.5227 5.26375 16.0645 4.64239 18.115 5.45016C18.1771 5.5123 18.1771 5.45016 17.9907 5.32589C17.9286 5.26375 17.8043 5.20161 17.7422 5.20161C15.5053 4.20743 11.9014 4.45598 9.16739 7.12784ZM14.449 15.1434L13.7655 14.2735C11.715 16.324 9.04312 17.5667 7.24117 17.3803C7.1169 17.3182 7.17903 17.3803 7.36544 17.4425C7.36544 17.4425 7.42758 17.5046 7.55185 17.5046C9.29166 17.9395 11.9635 17.3803 14.449 15.1434ZM8.54603 18.5609C8.42176 18.4988 8.35962 18.5609 8.60816 18.6852C8.6703 18.6852 8.73244 18.7473 8.79457 18.8095C11.715 20.1143 14.7597 19.6794 16.8723 18.3124L16.1888 17.4425C14.014 19.058 10.8451 19.493 8.54603 18.5609ZM16.4373 16.1376L15.7538 15.2056C13.0198 18.0017 9.54021 18.623 7.48971 17.7531C7.42758 17.691 7.42758 17.8153 7.61398 17.9395C7.67612 17.9395 7.80039 18.0017 7.86253 18.0638C10.0994 18.9959 13.7033 18.8095 16.4373 16.1376Z" fill="white" fillOpacity="0.8" />
    <path d="M20.1654 15.3298C19.2955 17.0075 18.0528 18.3123 16.313 19.1822C12.1498 21.2327 6.99253 19.5551 4.94203 15.3919C2.89154 11.1667 4.81776 6.13363 8.98089 4.08313C10.1615 3.52391 11.4042 3.27536 12.5848 3.21322C13.0197 3.21322 13.579 3.27536 14.0761 3.3375C14.2003 3.39963 14.2003 3.27536 14.0761 3.27536C13.579 3.15109 13.0197 3.02681 12.5848 3.02681C11.0314 2.90254 9.47798 3.21322 8.04884 3.89672C3.57503 6.07149 1.71095 11.4773 3.94785 15.9512C6.12262 20.425 11.4663 22.2891 15.9401 20.0521C18.0528 19.058 19.5441 17.3803 20.3518 15.3919C20.6625 14.7706 20.6625 14.4599 20.6625 14.3977C20.6625 14.0871 20.3518 14.957 20.1654 15.3298Z" fill="white" />
</svg>