<svg width="24" height="24" viewBox="0 0 24 24" fill="none" xmlns="http://www.w3.org/2000/svg">
    <path d="M0 0H24V24H0V0Z" />
    <path d="M9.07694 13.6854C9.39141 13.4017 9.59635 13.0287 9.69296 12.5671H12.7973C12.655 13.8867 12.1397 14.955 11.2516 15.7729C10.3631 16.5908 9.26934 17 7.97101 17C7.02394 17 6.17145 16.7854 5.41315 16.3567C4.65485 15.9279 4.06308 15.3321 3.63785 14.5692C3.21262 13.8063 3 12.95 3 12C3 11.05 3.21262 10.1937 3.63785 9.43083C4.06308 8.66792 4.65485 8.07208 5.41315 7.64333C6.17145 7.21417 7.02394 7 7.97101 7C9.24873 7 10.3276 7.39458 11.2075 8.18417C12.0871 8.97333 12.6069 10.0079 12.7658 11.2875H9.70589C9.57614 10.8654 9.35423 10.5258 9.03975 10.2683C8.72567 10.0112 8.37361 9.8825 7.98394 9.8825C7.44755 9.8825 7.01505 10.0771 6.68642 10.4662C6.35699 10.8554 6.19288 11.3667 6.19288 11.9996C6.19288 12.6287 6.3586 13.1379 6.68925 13.5271C7.0207 13.9163 7.4516 14.1104 7.98394 14.1104C8.39867 14.1104 8.76286 13.9688 9.07694 13.6854ZM20.0958 11.0854C20.6985 11.6813 21 12.4521 21 13.3967C21 14.4767 20.6532 15.3475 19.9592 16.0083C19.2647 16.6696 18.3504 17 17.2145 17C16.0925 17 15.1801 16.6683 14.4772 16.005C13.7739 15.3412 13.4226 14.4817 13.4226 13.4246C13.4226 12.8475 13.5192 12.2667 13.712 11.6825C13.9049 11.0983 14.2032 10.4592 14.607 9.76583L16.0338 7.32L19.0493 7.31958L17.3609 10.2054C17.5294 10.1962 17.6624 10.1917 17.7602 10.1917C18.7138 10.1917 19.4923 10.4896 20.0958 11.0854ZM18.0598 14.2833C18.2768 14.0554 18.3856 13.76 18.3856 13.3967C18.3856 13.0338 18.2768 12.7358 18.0598 12.5029C17.8423 12.27 17.5606 12.1537 17.215 12.1537C16.8689 12.1537 16.5868 12.2704 16.3701 12.5029C16.1523 12.7358 16.0439 13.0338 16.0439 13.3967C16.0439 13.76 16.1523 14.0554 16.3697 14.2833C16.5868 14.5117 16.8689 14.6258 17.2145 14.6258C17.5606 14.6258 17.8427 14.5117 18.0598 14.2833Z" fill="#F4F4F4" />
</svg>