<svg width="24" height="24" viewBox="0 0 24 24" fill="none" xmlns="http://www.w3.org/2000/svg">
<path d="M0 0H24V24H0V0Z" fill="#00285F" />
<path d="M16.4359 10.4424C16.4359 10.5707 16.385 10.6936 16.2943 10.7843C16.2036 10.8749 16.0806 10.9258 15.9524 10.9257C15.6855 10.9256 15.4693 10.7091 15.4694 10.4423C15.4695 10.1754 15.6859 9.95913 15.9528 9.95918C16.2196 9.95923 16.4359 10.1756 16.4359 10.4424ZM9.2305 9.95537C9.2305 10.2388 9.00073 10.4686 8.7173 10.4686C8.43387 10.4686 8.2041 10.2388 8.2041 9.95537C8.2041 9.67194 8.43387 9.44217 8.7173 9.44217C9.00073 9.44217 9.2305 9.67194 9.2305 9.95537Z" fill="#32E6C8" />
<path d="M6.49068 8.00002C6.39869 7.99914 6.31021 8.03529 6.24516 8.10034C6.18011 8.1654 6.14395 8.25388 6.14483 8.34587V10.3051C5.4546 9.60619 4.41061 9.39346 3.50196 9.76653C2.59331 10.1396 2 11.0246 2 12.0068C2 12.9891 2.59331 13.874 3.50196 14.2471C4.41061 14.6202 5.4546 14.4075 6.14483 13.7086V14.0814C6.14483 14.2725 6.29974 14.4274 6.49082 14.4274C6.6819 14.4274 6.8368 14.2725 6.8368 14.0814V8.34587C6.83769 8.25383 6.8015 8.16531 6.73638 8.10025C6.67127 8.03519 6.58272 7.99906 6.49068 8.00002ZM4.41531 13.7355C3.46012 13.7355 2.68578 12.9612 2.68578 12.006C2.68578 11.0508 3.46012 10.2765 4.41531 10.2765C5.3705 10.2765 6.14483 11.0508 6.14483 12.006C6.14483 13.0022 5.34238 13.7355 4.41531 13.7355ZM8.74042 10.9932C8.83244 10.9923 8.92096 11.0284 8.98603 11.0935C9.0511 11.1585 9.08723 11.2471 9.08627 11.3391V14.0963C9.08627 14.2874 8.93143 14.4422 8.74042 14.4422C8.54942 14.4422 8.39457 14.2874 8.39457 14.0963V11.3391C8.39369 11.2471 8.42985 11.1586 8.4949 11.0935C8.55995 11.0285 8.64843 10.9923 8.74042 10.9932ZM15.9328 11.4294L15.9312 11.4286C16.0181 11.4275 16.1018 11.4615 16.1633 11.523C16.2248 11.5845 16.2588 11.6682 16.2577 11.7551V14.3532C16.2663 14.4751 16.2062 14.5916 16.1019 14.6552C15.9975 14.7187 15.8664 14.7187 15.7621 14.6552C15.6578 14.5916 15.5976 14.4751 15.6063 14.3532V11.7559C15.6052 11.669 15.6392 11.5853 15.7007 11.5238C15.7622 11.4624 15.8459 11.4283 15.9328 11.4294ZM19.7088 10.1225C18.4494 10.1226 17.4285 11.1437 17.4286 12.4032C17.4287 13.6627 18.4497 14.6836 19.7092 14.6835C20.9687 14.6835 21.9897 13.6625 21.9897 12.403C21.9912 11.7977 21.7514 11.2167 21.3233 10.7886C20.8952 10.3606 20.3142 10.1209 19.7088 10.1225ZM19.7088 14.0321C18.8091 14.0321 18.0797 13.3027 18.0797 12.403C18.0797 11.5033 18.8091 10.7739 19.7088 10.7739C20.6086 10.7739 21.338 11.5033 21.338 12.403C21.3377 13.3026 20.6085 14.0318 19.7088 14.0321ZM14.3399 10.449C14.341 10.3621 14.3069 10.2784 14.2455 10.2169C14.184 10.1554 14.1003 10.1214 14.0134 10.1225H12.1034H12.0944H12.0591C11.0729 10.1242 10.1996 10.7596 9.8944 11.6973C9.58924 12.6351 9.9214 13.6627 10.7177 14.2445C11.514 14.8262 12.594 14.8303 13.3946 14.2544C13.7771 14.8026 13.7859 15.5289 13.4167 16.0861C13.0475 16.6434 12.3753 16.9185 11.7214 16.78C11.0674 16.6416 10.5644 16.1176 10.4528 15.4585C10.4161 15.2895 10.254 15.1785 10.0832 15.2053C9.91232 15.232 9.79198 15.3874 9.80873 15.5595C9.99276 16.6858 10.9829 17.5014 12.1236 17.4664C13.3119 17.434 14.2895 16.471 14.338 15.2836C14.3618 14.7476 14.1954 14.2206 13.8683 13.7954C14.5691 12.8794 14.4791 11.5851 13.6583 10.775H14.0139C14.1008 10.7761 14.1845 10.7421 14.246 10.6806C14.3075 10.6191 14.3415 10.5354 14.3404 10.4485L14.3399 10.449ZM13.6874 12.4033C13.6874 13.303 12.958 14.0324 12.0583 14.0324C11.1585 14.0324 10.4291 13.303 10.4291 12.4033C10.4291 11.5036 11.1585 10.7742 12.0583 10.7742C12.9579 10.7745 13.6871 11.5037 13.6874 12.4033Z" fill="white" />
</svg>