<svg width="24" height="24" viewBox="0 0 24 24" fill="none" xmlns="http://www.w3.org/2000/svg">
    <path d="M0 0H24V24H0V0Z" />
    <path d="M8.83771 10.045C8.67555 10.045 8.53141 9.9189 8.53141 9.75674C8.53141 9.75674 8.53141 9.75674 8.53141 9.73872C8.53141 9.57656 8.65754 9.43242 8.83771 9.43242C9.01789 9.43242 9.14401 9.57656 9.14401 9.73872C9.14401 9.9189 9.01789 10.045 8.83771 10.045ZM8.83771 9.36035C8.60348 9.36035 8.44133 9.54053 8.44133 9.73872C8.44133 9.93692 8.60348 10.1171 8.83771 10.1171C9.07194 10.1171 9.2341 9.93692 9.2341 9.73872C9.2341 9.54053 9.07194 9.36035 8.83771 9.36035ZM7.75666 9.93692L7.81071 9.99097C7.73864 10.063 7.64855 10.1171 7.50441 10.1171C7.2882 10.1171 7.10802 9.95493 7.10802 9.73872C7.10802 9.52251 7.27018 9.36035 7.50441 9.36035C7.64855 9.36035 7.72062 9.4144 7.81071 9.46846L7.75666 9.52251C7.68458 9.48647 7.61251 9.45044 7.50441 9.45044C7.32423 9.45044 7.19811 9.57656 7.19811 9.75674C7.19811 9.93692 7.32423 10.063 7.50441 10.063C7.61251 10.045 7.68458 10.009 7.75666 9.93692ZM6.31524 9.37837H6.40533V10.1171H6.33326L5.82877 9.52251V10.1171H5.73868V9.37837H5.82877L6.31524 9.97295V9.37837ZM4.47745 9.84683L4.65762 9.46846L4.8378 9.84683H4.47745ZM4.62159 9.37837L4.26123 10.1171H4.35132L4.44141 9.9189H4.85582L4.9459 10.1171H5.03599L4.67564 9.37837C4.69366 9.37837 4.62159 9.37837 4.62159 9.37837ZM3.34233 10.045H3.09009V9.77476H3.34233C3.46846 9.77476 3.54053 9.82881 3.54053 9.90088C3.54053 9.99097 3.46846 10.045 3.34233 10.045ZM3.09009 9.45044H3.32432C3.43242 9.45044 3.50449 9.50449 3.50449 9.57656C3.50449 9.66665 3.43242 9.70269 3.32432 9.70269H3.09009V9.45044ZM3.45044 9.73872C3.52251 9.70269 3.57656 9.66665 3.57656 9.55855C3.57656 9.45044 3.46846 9.37837 3.32432 9.37837H3V10.1171H3.34233C3.50449 10.1171 3.63062 10.045 3.63062 9.9189C3.63062 9.81079 3.55855 9.75674 3.45044 9.73872Z" fill="white" />
    <path d="M11.3428 9V10.8558H12.8563V11.9909H11.3428V13.7206C11.3428 14.099 11.523 14.2612 11.8833 14.2972C12.2977 14.3512 12.622 14.1711 12.8563 14.063L12.8923 14.0449L13.3608 15.0539L13.3427 15.0719C12.7301 15.3782 12.3518 15.4683 11.8833 15.4683C10.7482 15.4683 10.1356 14.8377 10.1356 13.7026V9.63062L11.3428 9ZM18.1895 10.9819H18.1715V15.3242H19.3786V11.9369C19.5228 11.9189 19.6669 11.9008 19.9552 11.9008C20.2435 11.9008 20.4237 11.9369 20.6219 11.9909H20.6399L21.0002 10.8738H20.9642C20.6038 10.7837 20.3156 10.7477 19.8471 10.7477C19.3967 10.7477 18.694 10.8018 18.1895 10.9819ZM13.3608 13.1441C13.3608 11.6486 14.0454 10.7477 15.4328 10.7477C16.8021 10.7477 17.5408 11.5045 17.5408 12.9999L15.5049 13.9909L14.9823 12.9999L16.2796 12.3333C16.2976 12.045 15.9193 11.8648 15.4508 11.8828C14.9103 11.9189 14.604 12.1711 14.604 13.09C14.604 13.9909 15.0364 14.2972 15.685 14.2972C16.2616 14.2972 16.8201 14.2071 17.1084 14.117H17.1264L17.4868 15.1981H17.4688C16.9823 15.3602 16.3337 15.4323 15.685 15.4323C14.1535 15.4323 13.3608 14.6575 13.3608 13.1441ZM5.3429 10.9819H5.32488V15.3242H6.53207V11.9369C6.74828 11.9008 6.91044 11.9008 7.23475 11.9008C7.82934 11.9008 8.11762 12.1531 8.11762 12.6576V15.3422H9.3248V12.7296C9.3248 11.4864 8.56806 10.7477 7.32484 10.7477C6.60414 10.7477 5.79334 10.8378 5.3429 10.9819ZM3.00061 15.3242H4.20779V10.8558H3.00061V15.3242Z" fill="white" />
</svg>