<svg width="24" height="24" viewBox="0 0 24 24" fill="none" xmlns="http://www.w3.org/2000/svg">
    <path d="M0 0H24V24H0V0Z" fill="#004990" />
    <path d="M18.1804 15.0764L19.2769 13.5H20.9955L19.4494 15.0764H18.1804ZM5.77614 13.5005V15.4527H4.94713V16.7862H5.77614V19.1635C5.77614 19.9499 5.93377 20.5405 6.27495 20.8997C6.56739 21.2136 7.08157 21.4463 7.7042 21.4463C8.23902 21.4463 8.45023 21.3664 8.68997 21.2733V19.9152C8.64079 19.9385 8.50072 19.9661 8.3185 19.9661C7.6884 19.9661 7.54262 19.574 7.54262 18.8574V16.7862H8.67065V15.4527H7.54262V13.5005H5.77614ZM2.25 21.3025H4.06915V13.5006H2.25V21.3025ZM19.9487 15.4566V18.8837C19.9487 19.0216 19.9316 19.1445 19.8877 19.2552C19.7419 19.6069 19.3831 20.0051 18.7921 20.0051C18.0496 20.0051 17.7242 19.4594 17.7242 18.5469V15.4526H15.9485V18.8718C15.9485 19.3294 16.0039 19.7184 16.1141 20.039C16.2238 20.3595 16.374 20.6251 16.565 20.8328C16.756 21.0419 16.9852 21.1942 17.2518 21.2904C17.5183 21.3865 17.8134 21.4348 18.1348 21.4348C18.4149 21.4348 18.6626 21.4006 18.8791 21.3321C19.0951 21.2645 19.2817 21.1819 19.438 21.0853C19.5948 20.99 19.7261 20.8855 19.8319 20.7727C19.9377 20.6607 20.0211 20.5606 20.0804 20.4719L20.3092 21.3022H21.7499V15.4566H19.9487ZM9.82121 15.8375C10.273 15.5744 11.1051 15.2846 12.2204 15.2846C14.2332 15.2846 14.9235 16.4386 14.9235 17.8441V21.3024H13.4429L13.244 20.6947H13.2246C12.8273 21.165 12.173 21.446 11.398 21.446C10.097 21.446 9.39178 20.5481 9.39178 19.6585C9.39178 18.1467 10.8483 17.3809 13.2066 17.391V17.3282C13.2066 17.0542 12.9818 16.5132 11.9175 16.5163C11.2794 16.5163 10.5729 16.7389 10.1628 16.987L9.82121 15.8375ZM13.229 19.4385C13.2505 19.3428 13.2593 19.2369 13.2593 19.1443V18.5247C13.1355 18.523 13.0161 18.5243 12.8997 18.5282C12.7065 18.5357 12.526 18.5511 12.3623 18.577C11.6615 18.685 11.1916 18.9687 11.1916 19.5193C11.1916 20.0106 11.5363 20.2697 12.0364 20.2697C12.6108 20.2697 13.0376 19.911 13.1992 19.5298L13.211 19.5004C13.2145 19.4916 13.2264 19.4508 13.229 19.4385Z" fill="#FFE512" />
</svg>