<svg width="24" height="24" viewBox="0 0 24 24" fill="none" xmlns="http://www.w3.org/2000/svg">
<path fill-rule="evenodd" clip-rule="evenodd" d="M6.22012 2.88247L17.8071 2.88932C19.6259 2.88932 21.1246 4.3879 21.1176 6.21352V17.8004C21.1176 19.6261 19.619 21.1179 17.7935 21.1179L6.19968 21.111C4.37405 21.1044 2.88232 19.6126 2.88232 17.7869L2.89592 6.19982C2.89592 4.3743 4.38775 2.87562 6.22012 2.88247Z" fill="#33348E"/>
<path fill-rule="evenodd" clip-rule="evenodd" d="M18.5497 11.1997H17.2283L16.6833 12.2351H17.6097L18.5497 11.1997ZM19.4285 12.8824H18.141V15.6615C18.141 16.5131 17.5687 16.7582 17.1466 16.7582C16.7446 16.7582 16.3017 16.6083 16.3087 15.8657V12.8823H15.0212L15.0144 16.0497C15.0144 17.2757 15.7162 17.8206 16.6835 17.8206C17.3577 17.8275 17.8824 17.5345 18.1752 17.0169H18.1888V17.6913H19.4286V12.8824H19.4285ZM14.0129 14.156C14.0129 12.964 12.7597 12.7529 12.0649 12.7529C11.0635 12.7529 10.0212 12.964 9.86457 14.4353H11.1111C11.152 14.1561 11.2678 13.7677 11.9081 13.7677C12.2419 13.7677 12.7597 13.7951 12.7597 14.3265C12.7597 14.5988 12.5076 14.6807 12.3032 14.7079L11.1453 14.8782C10.321 14.994 9.708 15.4776 9.708 16.4177C9.708 17.4121 10.4709 17.8208 11.1997 17.8208C12.0853 17.8208 12.5008 17.419 12.7869 17.1262C12.8141 17.3919 12.8345 17.46 12.9096 17.6916L14.0199 17.6847C14.0199 17.1534 14.013 16.7651 14.013 16.7584L14.0129 14.156ZM8.52267 11.1997H7.23524V12.8754H6.56766V13.7814H7.22839V16.7037C7.22839 17.3234 7.42594 17.7459 8.54311 17.7459H8.71348C8.91778 17.7459 9.12208 17.7321 9.31974 17.7255V16.7649C9.23113 16.7717 9.13588 16.7853 9.05401 16.7853C8.52952 16.7853 8.51582 16.6763 8.51582 16.3901L8.52267 13.7813H9.32648V12.8753H8.52267V11.1997ZM5.97509 11.1929H4.58546L4.57861 17.6846H5.96825L5.97509 11.1929Z" fill="#FFF22D"/>
<path fill-rule="evenodd" clip-rule="evenodd" d="M12.7595 15.9679V15.3481C12.63 15.4502 12.4119 15.5319 11.8807 15.6069C11.3971 15.6886 11.002 15.8112 11.002 16.3358C11.002 16.7717 11.3562 16.9148 11.6014 16.9148C12.1737 16.9149 12.7595 16.5538 12.7595 15.9679Z" fill="#33348E"/>
</svg>
