<svg width="24" height="24" viewBox="0 0 24 24" fill="none" xmlns="http://www.w3.org/2000/svg">
<g clip-path="url(#clip0_861_3702)">
<path d="M22.2857 11.8717C22.2857 8.17366 17.666 5.16431 11.9999 5.16431C6.30838 5.16431 1.71423 8.17366 1.71423 11.8717V12.2543C1.71423 16.1818 5.74678 19.3697 11.9999 19.3697C18.3041 19.3697 22.2857 16.1818 22.2857 12.2543V11.8717Z" fill="#0A0080"/>
<path d="M21.8773 11.8718C21.8773 15.3658 17.4618 18.1967 12 18.1967C6.53813 18.1967 2.12268 15.3658 2.12268 11.8718C2.12268 8.3778 6.53813 5.54688 12 5.54688C17.4618 5.5724 21.8773 8.3778 21.8773 11.8718Z" fill="#2ABCFF"/>
<path d="M8.70751 9.88252C8.70751 9.88252 8.60534 9.9845 8.65636 10.0866C8.80955 10.2906 9.29449 10.3927 9.77942 10.2906C10.0602 10.2141 10.4431 9.93358 10.8003 9.65304C11.1832 9.34697 11.566 9.0409 11.9743 8.9134C12.3828 8.78575 12.638 8.83681 12.8166 8.88787C13.0209 8.93893 13.225 9.06629 13.5824 9.34697C14.2714 9.85699 16.9768 12.2288 17.4362 12.6369C17.8191 12.4584 19.5037 11.7443 21.7752 11.2342C21.622 10.01 20.8818 8.88787 19.7589 7.9698C18.2019 8.63286 16.2878 8.96445 14.3991 8.04625C14.3991 8.04625 13.3782 7.56175 12.3828 7.58715C10.9025 7.61267 10.2644 8.27573 9.57522 8.93893L8.70751 9.88252Z" fill="white"/>
<path d="M17.3598 12.8664C17.3343 12.8409 14.1695 10.061 13.4548 9.52545C13.0464 9.21938 12.8167 9.1428 12.5615 9.09174C12.4339 9.06635 12.2552 9.09174 12.1277 9.1428C11.7958 9.24491 11.3619 9.52545 10.9791 9.83138C10.5707 10.163 10.1878 10.4435 9.85604 10.52C9.42226 10.6476 8.86066 10.52 8.60544 10.3671C8.5034 10.2905 8.42674 10.214 8.40123 10.1375C8.29919 9.9335 8.47789 9.75493 8.5034 9.7294L9.3711 8.78581L9.67734 8.47974C9.39661 8.50527 9.14139 8.58172 8.88617 8.65817C8.57993 8.73475 8.27369 8.83687 7.96731 8.83687C7.83977 8.83687 7.15062 8.73475 7.02308 8.68383C6.23177 8.47974 5.54276 8.25012 4.49622 7.76562C3.24562 8.68383 2.42893 9.83138 2.19922 11.1066C2.37792 11.1576 2.65865 11.2342 2.78619 11.2596C5.59378 11.8717 6.46162 12.5348 6.64018 12.6623C6.81888 12.4839 7.04859 12.3562 7.32932 12.3562C7.63556 12.3562 7.91629 12.5093 8.09499 12.7644C8.24818 12.6368 8.47789 12.5348 8.75862 12.5348C8.88617 12.5348 9.01371 12.5603 9.1669 12.6114C9.29086 12.6525 9.40486 12.7191 9.50158 12.807C9.59829 12.8948 9.67559 13.0019 9.7285 13.1214C9.83053 13.0704 9.95821 13.045 10.1113 13.045C10.2645 13.045 10.4175 13.0704 10.5707 13.1469C11.0811 13.3764 11.1577 13.8866 11.1322 14.2691H11.2343C11.8468 14.2691 12.3574 14.7791 12.3574 15.3913C12.3574 15.5697 12.3062 15.7483 12.2297 15.9268C12.4084 16.0288 12.8167 16.2329 13.1996 16.1818C13.5058 16.1563 13.608 16.0543 13.659 15.9779C13.6845 15.9268 13.71 15.9013 13.6845 15.8502L12.8932 14.9577C12.8932 14.9577 12.7657 14.83 12.8167 14.7793C12.8678 14.7282 12.9442 14.8047 12.9954 14.8557C13.4038 15.1872 13.8887 15.6973 13.8887 15.6973C13.8887 15.6973 13.9397 15.7738 14.1184 15.7993C14.2715 15.8248 14.5522 15.7993 14.7564 15.6463C14.8076 15.5952 14.8586 15.5443 14.884 15.4932C15.0883 15.2382 14.8586 14.9832 14.8586 14.9832L13.9397 13.9375C13.9397 13.9375 13.8122 13.81 13.8632 13.7591C13.9142 13.708 13.9908 13.7845 14.0418 13.8355C14.4152 14.1761 14.7811 14.5247 15.1393 14.8812C15.2159 14.9322 15.5733 15.1618 16.0325 14.8557C16.3134 14.6771 16.3644 14.4477 16.3644 14.2691C16.3389 14.0396 16.1602 13.8866 16.1602 13.8866L14.8841 12.6114C14.8841 12.6114 14.7566 12.5093 14.8076 12.4328C14.8586 12.3818 14.9351 12.4584 14.9861 12.5093C15.3946 12.8409 16.492 13.8355 16.492 13.8355C16.5175 13.8355 16.8749 14.1161 17.3598 13.81C17.5385 13.708 17.6405 13.555 17.6405 13.3509C17.5895 13.0704 17.3598 12.8664 17.3598 12.8664Z" fill="white"/>
<path d="M11.2343 14.4731C11.0301 14.4731 10.8259 14.5753 10.8004 14.5753C10.7749 14.5753 10.8004 14.4987 10.8259 14.4476C10.8514 14.3967 11.1066 13.6315 10.4686 13.351C9.98368 13.147 9.70295 13.3765 9.60078 13.4786C9.57527 13.504 9.54976 13.504 9.54976 13.4786C9.54976 13.351 9.47323 12.9685 9.06482 12.841C8.47785 12.6625 8.09495 13.0704 7.99291 13.2235C7.94176 12.892 7.66103 12.6113 7.30377 12.6113C7.21323 12.6109 7.12349 12.6284 7.03973 12.6628C6.95598 12.6973 6.87987 12.748 6.8158 12.812C6.75173 12.876 6.70097 12.9521 6.66644 13.0359C6.63191 13.1197 6.6143 13.2094 6.61463 13.3001C6.61432 13.3907 6.63194 13.4804 6.66648 13.5642C6.70102 13.6479 6.75178 13.724 6.81585 13.788C6.87992 13.8521 6.95602 13.9027 7.03977 13.9372C7.12351 13.9716 7.21324 13.9891 7.30377 13.9886C7.48247 13.9886 7.66103 13.9121 7.78871 13.7846V13.8101C7.7632 13.9885 7.71205 14.6006 8.35017 14.8558C8.60539 14.9578 8.83511 14.8813 9.01381 14.7537C9.06482 14.7028 9.06482 14.7283 9.06482 14.7792C9.03931 14.9322 9.06482 15.2894 9.54976 15.4678C9.90702 15.6208 10.1367 15.4678 10.2643 15.3403C10.3154 15.2894 10.3411 15.2894 10.3411 15.3913C10.3664 15.8504 10.7493 16.2074 11.2088 16.2074C11.6937 16.2074 12.0765 15.8249 12.0765 15.3403C12.102 14.8813 11.7192 14.4987 11.2343 14.4731Z" fill="white"/>
<path d="M17.4873 12.5348C16.5175 11.6932 14.246 9.72942 13.659 9.27032C13.3016 9.0153 13.072 8.86227 12.8677 8.81135C12.7656 8.78582 12.6381 8.76029 12.4849 8.76029C12.3317 8.76029 12.153 8.78582 12 8.83688C11.6171 8.96438 11.2087 9.27032 10.826 9.57638L10.8004 9.60191C10.4431 9.88245 10.0859 10.163 9.80501 10.2396C9.67746 10.265 9.54978 10.2905 9.44775 10.2905C9.14137 10.2905 8.86078 10.1885 8.75861 10.061C8.7331 10.0355 8.75861 10.01 8.78412 9.9589L9.62631 8.98991C10.2899 8.32672 10.9281 7.68919 12.3829 7.66366H12.4594C13.3783 7.66366 14.2715 8.07171 14.3736 8.12276C15.2414 8.53081 16.1092 8.7349 17.0024 8.7349C17.9213 8.7349 18.8656 8.50528 19.8865 8.04618C19.7845 7.9442 19.6568 7.86775 19.5293 7.76564C18.6614 8.14816 17.8192 8.32672 17.0024 8.32672C16.1857 8.32672 15.3435 8.12276 14.5522 7.74011C14.5012 7.71458 13.5058 7.25562 12.4594 7.25562H12.3829C11.1578 7.28114 10.4686 7.71458 10.0092 8.09724C9.54979 8.09724 9.16688 8.22474 8.80962 8.32672C8.50338 8.4033 8.22265 8.47975 7.96729 8.47975H7.66105C7.35481 8.47975 5.84899 8.09724 4.6494 7.63813C4.52185 7.71458 4.41968 7.81656 4.29214 7.91867C5.54275 8.4287 7.07408 8.83688 7.55888 8.86227C7.68656 8.86227 7.83975 8.8878 7.96743 8.8878C8.27367 8.8878 8.60542 8.81135 8.91166 8.70937C9.09036 8.65832 9.29456 8.60726 9.49863 8.5562L9.32007 8.73476L8.45223 9.6785C8.3757 9.75495 8.22265 9.93351 8.32469 10.163C8.3757 10.265 8.45223 10.3414 8.5544 10.418C8.75861 10.5456 9.14137 10.6476 9.47326 10.6476C9.6008 10.6476 9.72834 10.6476 9.83052 10.5966C10.1879 10.5201 10.5707 10.2141 10.9791 9.88245C11.311 9.62744 11.7704 9.29584 12.102 9.19387C12.2042 9.16834 12.3317 9.14281 12.4084 9.14281H12.4849C12.7146 9.16834 12.9443 9.24492 13.3528 9.55086C14.0673 10.0865 17.2321 12.8664 17.2576 12.8919C17.2576 12.8919 17.4618 13.0704 17.4363 13.3509C17.4363 13.5039 17.3343 13.657 17.1811 13.7591C17.0536 13.8355 16.9004 13.8866 16.7727 13.8866C16.5686 13.8866 16.4154 13.7845 16.4154 13.7845C16.4154 13.7845 15.318 12.7898 14.9096 12.4584C14.8586 12.4073 14.7821 12.3563 14.7309 12.3563C14.7054 12.3563 14.6799 12.3818 14.6544 12.4073C14.6034 12.4838 14.6544 12.5857 14.7564 12.6623L16.0325 13.9375C16.0325 13.9375 16.1857 14.0906 16.2112 14.2691C16.2112 14.4731 16.1092 14.6516 15.905 14.8047C15.7518 14.9066 15.5987 14.9577 15.4456 14.9577C15.2414 14.9577 15.1137 14.8813 15.0883 14.8557L14.9096 14.6772C14.5777 14.3456 14.246 14.0141 13.9907 13.81C13.9397 13.7591 13.8632 13.708 13.812 13.708C13.7865 13.708 13.761 13.708 13.7355 13.7336C13.71 13.7591 13.6845 13.8355 13.761 13.912C13.7742 13.9399 13.7914 13.9657 13.812 13.9886L14.7309 15.0342C14.7309 15.0342 14.9096 15.2638 14.7564 15.4679L14.7309 15.5186L14.6544 15.5952C14.5012 15.7229 14.297 15.7483 14.195 15.7483H14.0674C13.9652 15.7227 13.9142 15.6973 13.8887 15.6718C13.8376 15.6208 13.3783 15.1363 12.9954 14.8302C12.9443 14.7791 12.8933 14.7282 12.8167 14.7282C12.7912 14.7282 12.7656 14.7282 12.7401 14.7536C12.6636 14.8302 12.7912 14.9577 12.8167 15.0088L13.608 15.8758C13.608 15.8758 13.608 15.9013 13.5825 15.9268C13.5568 15.9779 13.4548 16.0545 13.1741 16.1053H13.0719C12.7656 16.1053 12.4594 15.9524 12.3062 15.8758C12.3829 15.7227 12.4084 15.5443 12.4084 15.3657C12.4084 14.7282 11.8724 14.1925 11.2343 14.1925H11.1833C11.2088 13.8865 11.1578 13.3255 10.5963 13.0959C10.4431 13.0195 10.2644 12.9939 10.1112 12.9939C9.9837 12.9939 9.85616 13.0195 9.75399 13.0704C9.62645 12.8409 9.44775 12.6623 9.16702 12.5859C9.01383 12.5348 8.88615 12.5093 8.7331 12.5093C8.50339 12.5093 8.27367 12.5859 8.06946 12.7134C7.89077 12.4839 7.58453 12.3309 7.3038 12.3309C7.04857 12.3309 6.79335 12.4328 6.58915 12.6114C6.33392 12.4328 5.36405 11.7952 2.76067 11.2087C2.63312 11.1832 2.35239 11.1066 2.17369 11.0557C2.14819 11.2087 2.12268 11.3362 2.09717 11.4892C2.09717 11.4892 2.58211 11.6167 2.68414 11.6167C5.33854 12.2034 6.23175 12.8154 6.38494 12.9429C6.33512 13.0643 6.30914 13.1941 6.30841 13.3254C6.30841 13.8866 6.76784 14.32 7.3038 14.32C7.35481 14.32 7.43134 14.32 7.48249 14.2946C7.55902 14.7027 7.83975 15.0088 8.22265 15.1617C8.3502 15.2127 8.45237 15.2382 8.57991 15.2382C8.65644 15.2382 8.7331 15.2382 8.80962 15.2127C8.88615 15.3911 9.06485 15.6463 9.4221 15.7993C9.54978 15.8504 9.67733 15.8758 9.80501 15.8758C9.90718 15.8758 10.0092 15.8504 10.1112 15.8249C10.2899 16.2584 10.7239 16.5645 11.2088 16.5645C11.515 16.5645 11.8213 16.4369 12.051 16.2074C12.2297 16.3093 12.638 16.5134 13.0464 16.5134H13.1996C13.608 16.4624 13.7865 16.3093 13.8632 16.1818C13.8887 16.1563 13.8887 16.1309 13.9142 16.1054C14.0163 16.1309 14.1184 16.1563 14.2205 16.1563C14.4502 16.1563 14.6544 16.0799 14.8586 15.9268C15.0628 15.7738 15.2158 15.5698 15.2414 15.3657C15.318 15.3913 15.3945 15.3913 15.4456 15.3913C15.6753 15.3913 15.905 15.3147 16.1092 15.1872C16.5175 14.9066 16.5941 14.575 16.5941 14.3456C16.6707 14.3711 16.7472 14.3711 16.8238 14.3711C17.028 14.3711 17.2321 14.2946 17.4363 14.1927C17.5581 14.1206 17.661 14.0206 17.7365 13.9008C17.812 13.7811 17.8578 13.645 17.8702 13.5039C17.8958 13.3 17.8447 13.1214 17.7426 12.9429C18.4317 12.6368 19.9887 12.0757 21.8518 11.6678C21.8518 11.5146 21.8263 11.3871 21.8008 11.2341C19.5803 11.6423 17.9213 12.3563 17.4873 12.5348ZM11.2343 16.1563C10.8004 16.1563 10.443 15.8249 10.4175 15.3913C10.4175 15.3657 10.4175 15.2636 10.341 15.2636C10.3155 15.2636 10.2899 15.2893 10.2389 15.3147C10.1368 15.3913 10.0092 15.4933 9.85602 15.4933C9.7795 15.4933 9.67746 15.4677 9.60094 15.4423C9.14151 15.2638 9.14151 14.9322 9.16688 14.8047C9.16688 14.7791 9.16688 14.7282 9.14137 14.7027L9.11587 14.6772H9.09036C9.06485 14.6772 9.03934 14.6772 9.01383 14.7027C8.86064 14.8047 8.7331 14.8557 8.60542 14.8557C8.52889 14.8557 8.45237 14.8302 8.37571 14.8047C7.76323 14.5752 7.81424 13.9886 7.83975 13.8355C7.83975 13.81 7.83975 13.7845 7.81424 13.7591L7.76322 13.7336L7.71207 13.7845C7.58453 13.8866 7.43134 13.963 7.27829 13.963C6.92089 13.963 6.64016 13.6825 6.64016 13.3255C6.64016 12.9684 6.92089 12.6879 7.27829 12.6879C7.58453 12.6879 7.86526 12.9173 7.89077 13.2234L7.91628 13.402L8.01845 13.2489C8.01845 13.2234 8.27353 12.8409 8.75861 12.8409C8.83513 12.8409 8.93717 12.8664 9.03934 12.8919C9.4221 12.9939 9.47326 13.3509 9.47326 13.4784C9.47326 13.555 9.54978 13.555 9.54978 13.555C9.57529 13.555 9.6008 13.5295 9.62631 13.5295C9.70297 13.453 9.85602 13.3255 10.0857 13.3255C10.1879 13.3255 10.3155 13.3509 10.4431 13.402C11.0301 13.657 10.7749 14.3966 10.7749 14.4222C10.7239 14.5497 10.7239 14.6006 10.7749 14.6261H10.8259C10.8514 14.6261 10.8769 14.6261 10.9281 14.6006C11.0046 14.5752 11.1323 14.5241 11.2343 14.5241C11.6682 14.5241 12.051 14.8813 12.051 15.3402C12.051 15.7993 11.6937 16.1563 11.2343 16.1563Z" fill="#0A0080"/>
</g>
<defs>
<clipPath id="clip0_861_3702">
<rect width="20.5714" height="14.2741" fill="white" transform="translate(1.71423 5.14282)"/>
</clipPath>
</defs>
</svg>
