<svg width="24" height="24" viewBox="0 0 24 24" fill="none" xmlns="http://www.w3.org/2000/svg">
    <path d="M0 0H24V24H0V0Z" />
    <path d="M12 4.50008C9.62742 4.49005 7.34767 5.42122 5.66057 7.08944C3.97347 8.75765 3.01669 11.0268 3.00001 13.3993C2.99837 14.5694 3.23037 15.728 3.68242 16.8072C4.13447 17.8864 4.79745 18.8645 5.6325 19.6841C5.98625 20.0317 6.46235 20.2264 6.95829 20.2264C7.45423 20.2264 7.93033 20.0317 8.28408 19.6841C8.45815 19.5128 8.59639 19.3086 8.69075 19.0833C8.78511 18.8581 8.83371 18.6163 8.83371 18.3721C8.83371 18.1279 8.78511 17.8861 8.69075 17.6609C8.59639 17.4356 8.45815 17.2314 8.28408 17.0601C7.79728 16.5814 7.41065 16.0105 7.14673 15.3808C6.88282 14.7511 6.7469 14.0752 6.7469 13.3924C6.7469 12.7097 6.88282 12.0337 7.14673 11.404C7.41065 10.7743 7.79728 10.2035 8.28408 9.72476C9.27353 8.75135 10.6059 8.20583 11.9939 8.20583C13.3819 8.20583 14.7143 8.75135 15.7037 9.72476C16.1905 10.2035 16.5772 10.7743 16.8411 11.404C17.105 12.0337 17.2409 12.7097 17.2409 13.3924C17.2409 14.0752 17.105 14.7511 16.8411 15.3808C16.5772 16.0105 16.1905 16.5814 15.7037 17.0601C15.5297 17.2314 15.3914 17.4356 15.2971 17.6609C15.2027 17.8861 15.1541 18.1279 15.1541 18.3721C15.1541 18.6163 15.2027 18.8581 15.2971 19.0833C15.3914 19.3086 15.5297 19.5128 15.7037 19.6841C16.0575 20.0317 16.5336 20.2264 17.0295 20.2264C17.5255 20.2264 18.0016 20.0317 18.3553 19.6841C19.1926 18.8655 19.8578 17.8879 20.312 16.8086C20.7661 15.7294 21.0001 14.5702 21 13.3993C20.9833 11.0268 20.0265 8.75765 18.3394 7.08944C16.6523 5.42122 14.3726 4.49005 12 4.50008Z" fill="white" />
</svg>