<svg width="24" height="24" viewBox="0 0 24 24" fill="none" xmlns="http://www.w3.org/2000/svg">
<rect width="24" height="24" fill="#8200E9"/>
<mask id="mask0_177_6415" style="mask-type:alpha" maskUnits="userSpaceOnUse" x="2" y="2" width="20" height="20">
<rect x="2" y="2" width="20" height="20" fill="#D9D9D9"/>
</mask>
<g mask="url(#mask0_177_6415)">
<path d="M21.1531 13.226C21.1678 12.9502 21.1641 12.6745 21.1568 12.3987C21.1531 12.2625 21.1531 12.1263 21.1531 11.9901V8.04629H18.7331V11.6611C18.7331 12.0465 18.7331 12.4153 18.7368 12.7442C18.7405 13.3788 18.7405 13.8606 18.7331 13.9935C18.6891 14.967 18.3995 15.6016 17.8568 16.1232C16.0565 16.1232 14.8868 15.0002 14.8245 13.216C14.8098 12.8074 14.8025 11.7874 14.8025 10.6112V8.04297L12.3825 8.04629V11.8007C12.3825 12.7243 12.3825 13.525 12.4521 14.0898C12.6758 15.8341 13.8418 16.997 15.6018 16.997C16.5038 16.997 17.2738 16.6747 17.8531 16.1232C17.8935 16.1232 17.9338 16.1265 17.9778 16.1265C19.1585 16.1265 20.2621 15.5085 20.8011 14.5517C21.0395 14.133 21.1275 13.6845 21.1531 13.226Z" fill="#E3E2E6"/>
<path d="M6.1421 8.7073C6.72144 8.15577 7.48777 7.8335 8.39344 7.8335C10.1534 7.8335 11.3194 8.99636 11.5431 10.7406C11.6164 11.3088 11.6164 12.1062 11.6128 13.0298V16.7842H9.19277V14.2226C9.19277 14.2226 9.1891 12.0298 9.17444 11.6178C9.10844 9.83362 7.94244 8.71063 6.1421 8.7073C5.59577 9.23225 5.3061 9.86684 5.2621 10.8403C5.25477 10.9765 5.25844 11.4583 5.25844 12.0896C5.25844 12.4185 5.2621 12.7873 5.2621 13.1727V16.7875H2.8421V12.8438C2.8421 12.7075 2.83844 12.5713 2.83844 12.4351C2.83477 12.1593 2.82744 11.8836 2.8421 11.6078C2.86777 11.1493 2.95577 10.6975 3.1941 10.2788C3.7331 9.32196 4.84044 8.70398 6.01744 8.70398C6.05777 8.70398 6.0981 8.7073 6.1421 8.7073Z" fill="#E3E2E6"/>
</g>
</svg>
