<svg width="24" height="24" viewBox="0 0 24 24" fill="none" xmlns="http://www.w3.org/2000/svg">
    <path d="M0 0H24V24H0V0Z" fill="#2D6655" />
    <path d="M11.8881 20.2472L19.1295 16.1972L19.1401 7.8532L11.8881 3.6759L4.59375 7.8532V16.3986L11.8881 20.2472Z" fill="#65B22E" />
    <path d="M19.1294 13.4512L14.2312 18.9325L19.1294 16.1972V13.4512Z" fill="#35B558" />
    <path d="M4.59375 9.87823V15.8473L11.6973 12.2956L4.59375 9.87823Z" fill="#35B558" />
    <path d="M19.1401 7.85319L12.8211 4.21661L11.6973 12.2955L19.1401 8.90282V7.85319Z" fill="#70BF54" />
    <path d="M14.2312 18.9326L19.1295 13.4512L19.1401 8.90283L11.6973 12.2956L12.6515 19.8126L14.2312 18.9326Z" fill="#60BC56" />
    <path d="M11.8881 20.2472L12.6515 19.8125L11.6973 12.2955L4.59375 15.8473V16.3986L11.8881 20.2472Z" fill="#00AE5A" />
    <path d="M11.6973 12.2955L12.8211 4.21662L11.8881 3.6759L4.59375 7.8532V9.87823L11.6973 12.2955Z" fill="#50AF47" />
    <path d="M19.4475 7.29127L12.1426 3.07157C11.9729 2.97614 11.7609 2.97614 11.5912 3.07157L4.27568 7.30187C4.11664 7.40789 4.01062 7.58813 4.01062 7.77897C4.01062 7.98042 4.11664 8.16065 4.28628 8.25607L11.5912 12.4652C11.6761 12.5182 11.7715 12.5394 11.8669 12.5394C11.9623 12.5394 12.0577 12.5182 12.1426 12.4652L19.4581 8.24547C19.6278 8.15005 19.7338 7.96981 19.7338 7.76837C19.7232 7.57753 19.6172 7.39729 19.4475 7.29127ZM11.8669 11.3625L5.65397 7.77897L11.8669 4.1848L18.0798 7.76837L11.8669 11.3625Z" fill="white" />
    <path d="M19.1824 9.77222C18.875 9.77222 18.6311 10.0161 18.6311 10.3235V15.9109L11.8669 19.8126L5.10264 15.9215V10.3341C5.10264 10.0267 4.85878 9.78282 4.55132 9.78282C4.24385 9.78282 4 10.0267 4 10.3341V16.2396C4 16.441 4.10602 16.6213 4.27566 16.7167L11.5806 20.9258C11.6654 20.9788 11.7609 21 11.8563 21C11.9517 21 12.0471 20.9788 12.1319 20.9258L19.4475 16.7061C19.6171 16.6107 19.7232 16.4304 19.7232 16.229V10.3235C19.7232 10.0161 19.4793 9.77222 19.1824 9.77222Z" fill="white" />
</svg>