<svg width="24" height="24" viewBox="0 0 24 24" fill="none" xmlns="http://www.w3.org/2000/svg">
<path d="M11.9988 11.3091L5.35935 7.4864L12.0025 3.64472L18.642 7.4788L11.9988 11.3091ZM20.1111 6.96634L12.2949 2.45655C12.1126 2.35026 11.8887 2.35026 11.7065 2.45655L3.89025 6.97776C3.70805 7.08402 3.5979 7.27764 3.5979 7.4864C3.5979 7.69521 3.71181 7.88883 3.89402 7.99509L11.7103 12.4973C11.8014 12.5505 11.9039 12.577 12.0025 12.577C12.105 12.577 12.2075 12.5505 12.2949 12.4973L20.1111 7.98373C20.2933 7.87741 20.4034 7.68385 20.4034 7.47504C20.4034 7.26622 20.2933 7.07266 20.1111 6.96634Z" fill="white"/>
<path d="M19.8151 9.61218C19.4886 9.61218 19.2267 9.8741 19.2267 10.2006V16.1795L11.9989 20.3553L4.77105 16.1908V10.2158C4.77105 9.89311 4.50908 9.62737 4.18264 9.62737C3.85615 9.62737 3.59424 9.88928 3.59424 10.2158V16.5325C3.59424 16.7413 3.70809 16.9387 3.89035 17.0412L11.7066 21.5434C11.7977 21.5966 11.9002 21.6231 11.9989 21.6231C12.1014 21.6231 12.2 21.5966 12.2912 21.5434L20.1112 17.0298C20.2934 16.9235 20.4035 16.7299 20.4035 16.5212V10.2006C20.4035 9.87792 20.1415 9.61218 19.8151 9.61218Z" fill="white"/>
</svg>
