<svg width="24" height="24" viewBox="0 0 24 24" fill="none" xmlns="http://www.w3.org/2000/svg">
    <path d="M0 0H24V24H0V0Z" />
    <path d="M20.157 14.4358C20.0284 15.5958 19.4878 16.8486 18.7097 17.7019C18.3036 18.1479 17.9935 18.5613 16.561 19.536C14.699 20.5673 13.051 21.2546 12.0916 22C11.1315 21.2546 9.48414 20.5672 7.62149 19.536C6.18942 18.5613 5.87944 18.1479 5.47265 17.7019C4.69528 16.8486 4.15456 15.5959 4.0259 14.4358C3.86858 12.9392 4.44116 11.6131 5.38671 10.6963C5.68717 10.3524 5.48672 10.181 5.34389 9.90826C5.08728 9.42101 5.02864 9.20691 4.59858 8.36169C4.36928 7.9096 4.25261 7.57811 4.3126 7.28686C4.52721 6.5128 5.34389 6.21617 5.63069 5.86885C5.68117 5.8069 5.78532 5.77153 5.81666 5.71092C5.86868 5.60894 5.83062 5.4961 5.83062 5.4961C5.83 5.49361 5.51185 4.87759 5.54454 4.77944C5.61053 4.58148 6.69063 3.99142 7.57867 3.63345C8.65267 3.24683 9.23673 3.08952 10.2008 2.84543C11.3894 2.54476 12.0916 2 12.0916 2C12.0916 2 12.7936 2.54476 13.9822 2.84553C14.9463 3.08952 15.5295 3.24683 16.6038 3.63355C17.4924 3.99152 18.5724 4.58168 18.6384 4.77954C18.6711 4.8777 18.353 5.49361 18.3517 5.4962C18.3517 5.4962 18.3138 5.60904 18.3665 5.71102C18.3973 5.77163 18.5018 5.807 18.5527 5.86896C18.8393 6.21637 19.6558 6.51301 19.8704 7.28696C19.9304 7.57822 19.814 7.90971 19.5838 8.36179C19.1544 9.20701 19.0958 9.42111 18.8392 9.90836C18.6958 10.181 18.4952 10.3525 18.7964 10.6964C19.7416 11.613 20.3145 12.9392 20.157 14.4358ZM19.641 14.1204C19.6271 12.9024 19.2119 11.7997 18.3238 10.9257C17.7932 10.4383 18.0225 10.3331 18.1944 10.009C18.4524 9.52175 18.4083 9.52433 18.8391 8.61902C19.0338 8.20965 19.3831 7.63107 19.2544 7.24363C19.0966 6.90035 18.3131 6.37307 18.2656 6.34163C18.0043 6.16693 17.8223 6.04096 17.6356 5.86885C17.5442 5.71826 17.6503 5.63955 17.6503 5.63955C17.6503 5.63955 17.985 5.10017 17.9364 5.00884C17.6785 4.52211 15.2291 3.7194 13.8683 3.40415C13.2136 3.25283 12.0916 2.63071 12.0916 2.63071C12.0916 2.63071 10.969 3.25283 10.3155 3.40415C8.95406 3.7194 6.50415 4.52211 6.24682 5.00884C6.1981 5.10017 6.5329 5.63955 6.5329 5.63955C6.5329 5.63955 6.63892 5.71836 6.54759 5.86885C6.36142 6.04096 6.17814 6.16683 5.91688 6.34163C5.87003 6.37296 5.08614 6.90035 4.928 7.24363C4.79954 7.63107 5.14882 8.20965 5.34409 8.61902C5.77487 9.52444 5.73071 9.52175 5.98814 10.009C6.16025 10.3331 6.38945 10.4383 5.85948 10.9257C4.97144 11.7998 4.55607 12.9024 4.54221 14.1204C4.62754 15.4098 5.0428 16.4844 6.30412 17.8306C6.71018 18.2772 7.27811 18.7478 8.72487 19.5213C10.0863 20.2234 11.0888 20.6388 12.077 21.3694C13.0658 20.6388 14.0972 20.2234 15.4585 19.5213C16.9052 18.7478 17.4732 18.2773 17.8798 17.8306C19.1397 16.4844 19.5551 15.4098 19.641 14.1204Z" fill="white" />
    <path d="M18.5812 14.4784C18.4525 14.3497 18.0972 14.4519 18.0531 14.5212C17.9105 14.0465 17.6264 13.6397 17.2785 13.379C17.2785 13.379 17.2771 13.2899 17.3204 13.2464C17.4017 13.2031 17.6357 13.2323 17.8225 13.1464C17.9651 13.0804 17.9937 13.5183 18.3806 13.461C18.6551 13.4204 18.6532 13.1316 18.4951 13.1604C18.4465 13.1451 18.3818 13.2631 18.3238 13.2751C18.1224 13.3184 18.0945 13.0171 18.0945 12.8885C18.0945 12.8312 18.2085 12.471 18.1224 12.2289C18.0152 11.925 17.673 11.7577 17.5212 11.6563C17.4784 11.6277 17.4027 11.4504 17.4925 11.3837C17.7072 11.2264 17.292 11.0829 17.2205 11.441C17.1812 11.6384 17.2612 11.691 17.2491 11.7998C17.2345 11.9285 16.8453 12.1917 17.1632 12.4305C17.3352 12.5591 17.3879 12.3478 17.3066 12.2437C17.1493 12.043 17.865 11.7423 17.894 12.5016C17.9051 12.8171 17.3852 12.9597 17.2705 13.0031C16.3965 13.0031 15.6878 12.1657 15.6878 11.1337C15.6878 10.335 16.1225 9.64628 16.7186 9.37829C16.9626 9.10638 17.9652 9.14972 17.9227 8.71976C17.8926 8.42644 17.6071 8.27502 17.4493 8.43296C17.3779 8.57631 17.6213 8.5911 17.6071 8.73373C17.594 8.86632 17.3558 8.90169 17.1919 8.79103C17.1084 8.73507 17.0772 8.64891 17.0626 8.50442C17.0053 7.93164 18.1519 7.51637 18.1519 7.51637C18.1519 7.51637 17.2058 7.22977 17.1772 6.95765C17.1532 6.72917 17.2632 6.6997 17.3639 6.82836C17.4232 6.905 17.5933 6.74221 17.3919 6.55635C17.2346 6.45571 17.0045 6.54497 16.9338 6.78565C16.8625 7.02912 15.9738 5.95429 15.859 5.63966C15.8037 5.487 15.8612 5.14837 16.045 5.2097C16.1744 5.25304 16.1459 5.33837 16.1025 5.39567C16.0511 5.46517 16.0965 5.58629 16.189 5.59632C16.2818 5.60697 16.4251 5.50375 16.4325 5.32441C16.4465 4.9803 15.7879 4.72235 15.6158 5.25304C15.5797 5.36288 15.4863 5.2097 15.4152 5.15241C15.2565 5.02508 14.2692 3.849 12.9511 3.83431C12.4478 3.82893 12.6785 3.95491 12.4351 3.93505C12.2638 3.92026 12.149 3.677 12.077 3.59094C12.0345 3.66241 11.8911 3.92036 11.7191 3.93505C11.4758 3.95491 11.7071 3.82904 11.2037 3.83431C9.88506 3.8491 8.89824 5.02508 8.73958 5.15241C8.6676 5.2097 8.5743 5.36288 8.53893 5.25304C8.36683 4.72245 7.7083 4.9804 7.72226 5.32441C7.7296 5.50375 7.87285 5.60697 7.96552 5.59632C8.0582 5.58618 8.1035 5.46507 8.05168 5.39567C8.00834 5.33837 7.98031 5.25304 8.10898 5.2097C8.2936 5.14837 8.3511 5.487 8.29494 5.63966C8.18034 5.95429 7.29231 7.02912 7.22094 6.78565C7.1503 6.54497 6.92017 6.45581 6.76223 6.55635C6.56158 6.74231 6.73152 6.90511 6.79088 6.82836C6.8909 6.6997 7.00084 6.72917 6.97768 6.95765C6.9482 7.22977 6.00286 7.51637 6.00286 7.51637C6.00286 7.51637 6.46757 7.69499 6.79088 7.97446C6.96558 8.12577 7.11151 8.30388 7.09165 8.50453C7.07769 8.64902 7.04635 8.73517 6.96289 8.79113C6.79823 8.9018 6.56075 8.86643 6.54762 8.73383C6.53293 8.5912 6.7762 8.57651 6.70493 8.43306C6.54762 8.27512 6.26164 8.42654 6.23227 8.71987C6.18965 9.14982 7.19229 9.10648 7.43566 9.3784C8.03234 9.64638 8.46695 10.3351 8.46695 11.1338C8.46695 12.1659 7.75825 13.0032 6.88428 13.0032C6.76958 12.9598 6.24871 12.8172 6.26081 12.5017C6.28946 11.7424 7.0055 12.043 6.84818 12.2438C6.76689 12.3479 6.81953 12.5592 6.99153 12.4306C7.30947 12.1918 6.92017 11.9285 6.90559 11.7999C6.89359 11.6912 6.97354 11.6385 6.93424 11.4411C6.86287 11.0831 6.44678 11.2265 6.6616 11.3838C6.7521 11.4506 6.67639 11.6278 6.63357 11.6564C6.48142 11.7578 6.13897 11.9252 6.03161 12.229C5.94629 12.4711 6.06026 12.8313 6.06026 12.8886C6.06026 13.0172 6.03161 13.3185 5.83096 13.2752C5.77284 13.2632 5.70819 13.1451 5.65886 13.1605C5.50154 13.1318 5.49906 13.4206 5.77366 13.4611C6.16028 13.5184 6.24695 13.0745 6.34707 13.1179C6.61837 13.2338 6.7522 13.2032 6.8335 13.2465C6.87683 13.2899 6.87632 13.3791 6.87632 13.3791C6.52755 13.6398 6.24426 14.0466 6.10164 14.5213C6.05757 14.452 5.7023 14.3498 5.57363 14.4785C5.4157 14.6219 5.46503 14.8013 5.473 14.8659C5.48717 14.9799 5.73312 15.0085 5.7023 14.7792C5.67365 14.5646 5.96025 14.6367 6.00296 14.8512C6.06026 15.1806 5.97162 15.3126 5.98828 15.4246C6.13225 16.3413 6.7883 16.9139 7.5577 16.9139C7.68554 16.9139 7.80697 16.9019 7.92363 16.8746C8.06016 16.8424 8.13763 17.0859 8.25243 17.2866C8.25243 17.2866 7.77966 17.4725 7.83717 17.8306C7.89447 18.1894 8.22378 18.3753 8.46705 18.0599C8.56706 17.9314 8.39558 17.9166 8.20961 17.9166C8.06833 17.8166 8.08229 17.644 8.42423 17.5732C8.83981 17.4872 9.21163 18.3752 9.3556 18.7478C9.49844 19.1199 10.2865 20.1519 11.3611 19.908C11.4325 19.8919 12.077 20.868 12.077 20.868C12.077 20.868 12.7224 19.8918 12.7939 19.908C13.8685 20.1519 14.6564 19.1199 14.7994 18.7478C14.9425 18.3752 15.3152 17.4872 15.7305 17.5732C16.0727 17.644 16.0865 17.8166 15.9454 17.9166C15.7594 17.9166 15.5879 17.9314 15.6879 18.0599C15.9307 18.3753 16.2606 18.1894 16.3179 17.8306C16.3754 17.4725 15.9025 17.2866 15.9025 17.2866C16.0172 17.0859 16.0945 16.8424 16.2313 16.8746C16.3481 16.9019 16.4694 16.9139 16.5973 16.9139C17.3667 16.9139 18.0948 16.3413 18.1373 15.3813C18.1428 15.2687 18.1082 15.044 18.1521 14.8512C18.1947 14.6366 18.4815 14.5646 18.4528 14.7792C18.4221 15.0086 18.6674 14.9799 18.6822 14.8659C18.6891 14.8013 18.7391 14.6218 18.5812 14.4784ZM11.9055 4.99488C12.0343 4.80809 12.0768 4.57941 12.1055 4.69339C12.1548 4.89021 12.3208 4.9802 12.2488 5.0375C12.139 5.12551 11.8575 5.06366 11.9055 4.99488ZM12.0768 20.3952L11.7049 19.8507L12.0768 19.3354L12.4496 19.8507L12.0768 20.3952ZM17.9077 15.3379C17.9077 16.0819 17.3144 16.6846 16.5831 16.6846C16.2709 16.6849 15.9689 16.5735 15.7317 16.3705C15.5677 16.1986 15.4436 15.9246 15.4436 15.6465C15.4436 15.1279 15.8317 14.7078 16.2743 14.7078C16.3318 14.7484 16.4036 14.6791 16.5038 14.9937C16.6331 15.0513 16.647 14.9458 16.647 14.8225C16.647 14.6218 16.4324 14.5357 16.1744 14.4359C15.9851 14.3618 16.1478 13.9566 15.859 13.9338C15.673 13.9197 15.601 14.0058 15.6444 14.1343C15.673 14.2463 15.775 14.1429 15.8303 14.1776C16.0171 14.2923 15.7557 14.6176 15.7557 14.6176C15.459 14.8809 15.2716 15.2523 15.2716 15.6389C15.2716 15.8849 15.3483 16.1011 15.4584 16.3124C15.5857 16.4716 15.7024 16.6203 15.8391 16.7083C15.8391 16.7083 15.973 17.029 15.6305 17.315C15.4584 17.4583 15.2864 17.2717 14.713 18.2744C14.6838 18.327 14.5857 18.1203 14.3697 18.0456C14.2257 17.9595 13.7963 18.0456 13.7678 18.4184C13.741 18.7617 14.0832 18.5905 14.1691 18.3037C14.2789 18.2317 14.3799 18.3623 14.4552 18.5038C14.5591 18.6991 14.3405 19.1632 13.7538 19.5359C13.223 19.8653 12.2778 19.7079 12.3064 19.0772C12.3278 18.6111 12.9659 18.5038 12.8792 18.8764C12.8277 19.1017 13.4238 19.1345 13.1377 18.6471C12.8511 18.1598 12.1918 18.5906 12.077 18.8764C11.9625 18.5905 11.3037 18.1597 11.0172 18.6471C10.7304 19.1345 11.3272 19.1017 11.2751 18.8764C11.189 18.5038 11.827 18.6111 11.8478 19.0772C11.8765 19.7079 10.9311 19.8652 10.4011 19.5359C9.81379 19.1632 9.59514 18.6992 9.69919 18.5038C9.77511 18.3624 9.87513 18.2317 9.9858 18.3037C10.0717 18.5905 10.4139 18.7618 10.3864 18.4184C10.3584 18.0456 9.9285 17.9596 9.78514 18.0456C9.56918 18.1203 9.47103 18.327 9.44104 18.2744C8.86835 17.2716 8.69635 17.4583 8.52435 17.315C8.18179 17.0289 8.31573 16.7083 8.31573 16.7083C8.4384 16.5696 8.58289 16.5003 8.71052 16.341C8.82279 16.124 8.88169 15.8833 8.88231 15.6389C8.88231 15.2522 8.69501 14.8809 8.3991 14.6176C8.3991 14.6176 8.13763 14.2923 8.3237 14.1776C8.37975 14.1429 8.48101 14.2463 8.51049 14.1343C8.553 14.0058 8.53645 13.9685 8.29505 13.9485C7.95177 13.9197 8.1699 14.3617 7.98042 14.4357C7.72247 14.5356 7.50713 14.6217 7.50713 14.8224C7.50713 14.9457 7.52181 15.051 7.65048 14.9936C7.75111 14.679 7.82259 14.7483 7.87978 14.7077C8.32308 14.7077 8.71052 15.1278 8.71052 15.6464C8.71052 15.9245 8.58703 16.1985 8.4232 16.3704C8.18591 16.5732 7.88395 16.6846 7.57177 16.6845C6.84043 16.6845 6.24706 16.0818 6.24706 15.3377C6.16038 14.2064 6.84829 13.5183 7.47517 13.1717C8.17972 12.8697 8.68249 12.0836 8.68249 11.1617C8.68249 10.1797 8.16638 9.42163 7.33502 9.07773C7.11172 8.92828 7.22239 8.89487 7.29241 8.73362C7.31641 8.67829 7.31372 8.59617 7.32106 8.50432C7.34237 8.23696 7.31568 8.36366 7.29241 8.2322C7.28424 8.18835 7.22104 8.14025 7.2349 8.0029C7.29241 7.45886 7.86634 7.6923 7.90833 7.90288C7.95166 8.1177 7.87502 8.09619 7.82238 8.14635C7.57891 8.0602 7.66424 8.21638 7.67892 8.26085C7.72226 8.38952 7.86571 8.43492 8.03751 8.31836C8.18034 8.27502 8.23899 8.06289 8.28098 8.07489C8.55558 8.1537 8.68228 7.84558 8.56758 7.8309C8.45298 7.81693 8.30963 7.96039 8.20961 7.8309C7.86489 7.38895 7.29427 7.41284 7.19229 7.6016C7.0055 7.9456 6.84818 7.75943 6.84818 7.75943C6.84818 7.75943 6.59106 7.57419 6.61888 7.55898C7.063 7.31551 7.26428 7.17619 7.95166 6.49894C8.25243 6.15484 8.97633 5.19078 9.16912 5.0375C9.79983 4.53618 10.9883 3.6622 11.6765 4.20686C11.9505 4.42416 11.8478 4.66474 11.7477 4.75141C11.6331 4.86539 11.5544 4.47133 11.5044 4.49284C11.3463 4.52211 11.5904 4.77944 11.4758 4.89425C11.3692 5.00936 11.1764 4.87004 11.189 4.75141C11.2176 4.47877 10.5877 4.99488 11.3463 5.2095C11.5085 5.2548 11.5044 5.1522 11.6189 5.16616C11.7336 5.18085 11.8764 5.3242 12.077 5.29555C12.2777 5.3242 12.4211 5.18085 12.5359 5.16616C12.6504 5.1522 12.6464 5.2547 12.8078 5.2095C13.5672 4.99488 12.9365 4.47877 12.9659 4.75141C12.9785 4.86994 12.7857 5.00936 12.6792 4.89425C12.5647 4.77944 12.8078 4.52211 12.6505 4.49284C12.5999 4.47133 12.5219 4.86539 12.4073 4.75141C12.3064 4.66474 12.2044 4.42416 12.4784 4.20686C13.1658 3.6621 14.3551 4.53618 14.9858 5.0375C15.1785 5.19067 15.9024 6.15484 16.2033 6.49894C16.8899 7.17619 17.02 7.27228 17.5361 7.55898C17.5634 7.57429 17.2921 7.7736 17.2921 7.7736C17.2921 7.7736 17.1634 7.87423 16.9627 7.6016C16.8354 7.42897 16.2892 7.38884 15.9454 7.8309C15.8452 7.96039 15.7019 7.81693 15.5873 7.8309C15.4726 7.84558 15.5993 8.1537 15.8739 8.07489C15.9159 8.06289 15.9739 8.27502 16.1174 8.31836C16.2892 8.43492 16.4326 8.38952 16.4759 8.26085C16.4907 8.21638 16.5761 8.0602 16.332 8.14635C16.2798 8.09629 16.2033 8.1177 16.2466 7.90288C16.2885 7.6923 16.8626 7.45897 16.9201 8.0029C16.934 8.14025 16.87 8.18824 16.8626 8.2322C16.8393 8.36366 16.8127 8.23686 16.8334 8.50432C16.8414 8.59627 16.838 8.67829 16.8626 8.73362C16.9319 8.89487 17.0434 8.92828 16.8192 9.07773C15.9887 9.42163 15.4725 10.1797 15.4725 11.1617C15.4725 12.0837 15.9745 12.8697 16.6799 13.1717C17.3064 13.5183 17.9936 14.2066 17.9077 15.3379Z" fill="white" />
    <path d="M14.6723 11.6938C14.4024 11.1645 13.9443 10.7978 13.4382 10.6538L13.4668 10.5538C13.7389 10.1525 13.8542 9.62104 13.8682 9.12045C13.8682 9.02519 13.8595 8.93386 13.8428 8.84781C13.9004 8.8052 14.103 8.92114 14.269 9.16379C14.4549 9.4357 14.6703 9.20712 14.4836 9.06315C14.3395 8.95248 14.1975 8.4191 14.1828 8.31846C14.1688 8.21762 14.1688 7.84569 14.1976 7.78849C14.2616 7.66035 14.1976 7.30104 14.0255 7.64504C13.8535 7.98904 13.6095 7.90299 13.6095 7.90299C13.4808 7.63108 13.1351 7.07959 12.5215 6.929C12.6069 6.71356 12.9215 6.42562 13.3789 6.24027C13.6155 6.14512 13.8035 6.08099 13.997 6.06899C14.0683 5.94033 14.0831 5.85417 14.0255 5.85417C13.6669 5.85417 13.1569 6.01883 12.9395 6.11895C12.7588 6.20293 12.5175 6.26561 12.2502 6.28909C12.0348 6.30771 11.8315 6.29892 11.6597 6.26758C11.3629 6.21431 11.0171 6.14098 10.7162 6.04096C10.4007 5.82552 10.3722 6.15494 10.4256 6.19828C10.6148 6.25299 10.821 6.3376 11.0208 6.44889C11.2076 6.58976 11.3376 6.75173 11.4469 6.90035C11.1495 7.00885 10.8675 7.22367 10.7448 7.43042C10.6216 7.2276 10.3416 7.04298 10.1288 7.04298C9.60537 6.9863 9.3408 7.33827 9.3408 7.66635C9.3408 7.82573 9.41661 7.9697 9.54011 8.07634C9.54011 8.07634 9.72742 8.17501 9.8507 8.07499C9.89807 8.03569 9.8567 7.96898 9.8567 7.91768C9.74221 7.7737 9.78285 7.5444 10.0288 7.5444C10.2734 7.5444 10.4727 7.77433 10.4727 8.03166C9.94213 8.31112 9.5127 8.8144 9.5127 9.37178C9.5127 9.9605 9.87087 10.4818 10.5874 10.7398V13.6046C10.5874 13.6046 10.6155 13.9198 10.2861 13.5184C10.2022 13.4159 10.1068 13.3652 9.99943 13.2038C9.61282 12.5878 9.32208 12.043 9.2261 12.043C9.09743 12.043 8.98283 12.0572 9.12598 12.2865C9.25742 12.4972 9.32678 12.7407 9.32611 12.9891C9.32611 13.2178 9.3741 13.4985 8.88199 13.8911C8.66737 14.0632 8.86803 14.2352 9.05409 14.0632C9.24089 13.8911 9.41289 13.9198 9.46957 13.9198C9.62802 13.9198 9.99943 13.9486 10.3582 14.3353C10.4809 14.3793 10.5582 14.4886 10.5582 14.6293C10.5582 14.8073 10.4175 14.9512 10.2435 14.9512C10.0695 14.9512 9.92827 14.8073 9.92827 14.6293C9.92827 14.5464 9.96427 14.5358 10.0142 14.4785C10.0142 14.4785 9.95693 14.2925 9.74231 14.4498C9.66412 14.5065 9.48415 14.7078 9.54145 14.8511C9.55562 15.2091 10.0249 15.5998 10.7016 15.2524C10.8129 15.4319 11.0195 15.6778 11.2317 15.8111C11.451 15.9486 11.6736 15.9712 11.6549 16.0311C11.4896 16.5557 11.0171 16.725 11.0171 16.725C10.6891 16.779 10.4008 16.7711 10.3583 16.4984C10.1437 16.0544 10.673 16.1691 10.5156 15.8683C10.3862 15.825 10.2149 15.8392 10.1449 15.871C9.91762 16.0123 9.77013 16.2345 9.77013 16.4843C9.77013 16.9109 10.2002 17.2578 10.7302 17.2578C10.9616 17.2578 11.1735 17.1918 11.3396 17.0825C11.5536 16.9404 11.805 16.8277 11.9334 16.6271C12.0768 16.8277 12.5395 17.093 12.6644 17.1719C12.8935 17.3151 13.6095 17.4012 13.0941 17.0572C12.2676 16.5064 12.3923 15.9397 12.3923 15.9397C12.9509 15.9257 13.911 15.1517 14.0449 14.2005C14.8623 13.7218 15.1456 12.6223 14.6723 11.6938ZM10.5875 10.1089C10.2289 9.92295 10.1003 9.65166 10.1003 9.3783C10.1003 9.09501 10.3029 8.81161 10.5875 8.60496V10.1089ZM11.7475 7.34416V7.74495C11.4036 7.7163 11.1315 7.81694 11.1176 7.80691C11.1828 7.58826 11.4063 7.3663 11.7475 7.34416ZM11.7475 8.22434V10.3245C11.7475 10.3245 11.4329 10.3525 11.2749 10.295C11.1676 10.2558 11.1463 10.1663 11.1463 10.1663V8.33284C11.3417 8.27336 11.5435 8.23695 11.7475 8.22434ZM11.7461 15.4278C11.3749 15.3133 11.2043 14.9619 11.1888 14.7219C11.3415 14.7506 11.5329 14.8226 11.7461 14.8079V15.4278ZM11.7475 14.1632C11.7475 14.2511 11.4641 14.2246 11.2888 14.0919C11.1788 14.0086 11.1461 13.8772 11.1461 13.8772V11.6277H11.7474L11.7475 14.1632ZM11.7622 11.1404H11.1601V10.8258C11.3894 10.8544 11.5042 10.8684 11.7622 10.8684V11.1404ZM12.3923 7.41429C12.6882 7.48897 12.9229 7.69634 12.9935 7.90299C12.9656 7.90299 12.5068 7.74505 12.3923 7.7737V7.41429ZM12.3901 8.23365C12.5621 8.23365 12.5356 8.28961 12.7789 8.30429C12.893 8.34629 13.1568 8.37835 13.2228 8.4763C13.3049 8.59576 13.3189 8.8444 13.3089 9.12035C13.2703 9.82707 13.1516 10.109 12.9223 10.4098C12.885 10.5158 12.7669 10.4911 12.6502 10.4671C12.5646 10.4506 12.4786 10.4364 12.3923 10.4245L12.3901 8.23365ZM12.4069 15.3952V14.8078C12.8014 14.7851 13.135 14.714 13.2802 14.6365C13.2662 14.8511 12.879 15.241 12.4069 15.3952ZM13.3671 13.9773C13.1375 14.1065 12.9363 14.1919 12.7503 14.2066C12.407 14.1919 12.3923 14.2385 12.3923 14.1778V11.8285C12.3923 11.8285 13.4807 12.1438 13.5241 13.4473C13.5276 13.5603 13.5522 13.8911 13.3671 13.9773ZM14.0402 13.2917L14.0283 13.2604C14.0148 12.9638 13.9148 12.6158 13.7275 12.2777C13.4322 11.7444 12.9509 11.3697 12.6644 11.2983C12.7015 11.2624 12.6988 11.2577 12.7448 11.2324C13.051 10.9831 13.7504 11.3005 14.0776 11.8911C14.3976 12.3298 14.3483 13.0144 14.0402 13.2917Z" fill="white" />
</svg>