<svg width="24" height="24" viewBox="0 0 24 24" fill="none" xmlns="http://www.w3.org/2000/svg">
    <path d="M0 0H24V24H0V0Z" fill="#EC0000" />
    <path d="M15.8948 10.8376C15.8708 10.2144 15.6911 9.6032 15.3795 9.05193L12.5632 4.18642C12.3475 3.81491 12.2037 3.41944 12.1198 3L12 3.20373C11.3049 4.41411 11.3049 5.90013 12 7.11052L14.253 11.0173C14.9481 12.2277 14.9481 13.7137 14.253 14.9241L14.1332 15.1278C14.0493 14.7084 13.9055 14.3129 13.6897 13.9534L11.6285 10.3702L10.3103 8.09321C10.0945 7.7217 9.95073 7.32623 9.86684 6.91878L9.747 7.1225C9.05193 8.32091 9.05193 9.80692 9.73502 11.0173L12 14.9241C12.6951 16.1345 12.6951 17.6205 12 18.8309L11.8802 19.0346C11.7963 18.6152 11.6405 18.2197 11.4368 17.8602L8.62051 12.9707C8.249 12.3236 8.06924 11.5925 8.10519 10.8495C5.08522 11.6285 3 13.3063 3 15.2477C3 17.9441 7.02663 20.1252 12 20.1252C16.9734 20.1252 21 17.9441 21 15.2477C21 13.3063 18.9148 11.6285 15.8948 10.8376Z" fill="white" />
</svg>