<svg width="24" height="24" viewBox="0 0 24 24" fill="none" xmlns="http://www.w3.org/2000/svg">
<path d="M4.12235 4.95251C3.97566 4.96474 3.82898 5.00141 3.69452 5.08698C3.37671 5.27033 3.19336 5.61258 3.19336 5.95485C3.19336 6.10153 3.23003 6.26043 3.30337 6.40712L8.22945 14.9758L9.83073 12.2133L12.4344 7.71503L10.8331 4.95251H4.12235Z" fill="#6EBB49"/>
<path d="M4.12235 4.95251C3.97566 4.96474 3.82898 5.00141 3.69452 5.08698C3.37671 5.27033 3.19336 5.61259 3.19336 5.95485C3.19336 6.10153 3.23003 6.26044 3.30337 6.40712L8.22945 14.9758L9.83073 12.2133L12.4344 7.71503L10.8331 4.95251H4.12235Z" fill="#6EBB49"/>
<path d="M10.8452 4.95251L15.0379 12.2011H17.9837H18.216L21.5775 6.38267C21.6386 6.24821 21.6753 6.11375 21.6753 5.95485C21.6753 5.41701 21.2597 4.98919 20.7341 4.95251H10.8452Z" fill="#00AE9C"/>
<path d="M17.996 12.2012H9.84298L8.2417 14.9636L11.6154 20.782C11.6888 20.9043 11.811 21.002 11.9332 21.0877C12.0921 21.1732 12.2632 21.2221 12.4344 21.2221C12.7644 21.2221 13.0822 21.051 13.2778 20.7699L18.2283 12.2012H17.996Z" fill="#B8D335"/>
<path d="M21.5653 6.37022C21.6264 6.23575 21.6631 6.08908 21.6631 5.93016C21.6631 5.56346 21.4553 5.23343 21.1619 5.0623C21.0275 4.98895 20.8807 4.94006 20.7218 4.94006L10.833 4.96451L12.4343 7.72703L15.0379 12.213L18.2282 12.1886L21.5653 6.37022Z" fill="#00AE9C"/>
<path d="M11.6031 20.782C11.6888 20.9043 11.7988 21.002 11.9332 21.0877C12.251 21.271 12.6299 21.2588 12.9355 21.0877C13.07 21.0143 13.18 20.9043 13.2656 20.7699L18.2161 12.2134H15.0258L9.83075 12.2012L8.2417 14.9636L11.6031 20.782Z" fill="#B8D335"/>
</svg>
