<svg width="24" height="23" viewBox="0 0 24 23" fill="none" xmlns="http://www.w3.org/2000/svg">
<path d="M14.2829 16.9439V12.8608L12.268 14.9023L14.2829 16.9439ZM19.1875 14.9021C19.1875 14.1743 18.6718 13.8229 17.9337 13.8229H15.963V15.9823H17.9337C18.6718 15.9813 19.1875 15.6299 19.1875 14.9021ZM18.5822 3.28571H5.41574C4.02813 3.28571 3.3103 4.03646 3.3103 5.49204V17.5079C3.3103 18.9625 4.0272 19.7143 5.41568 19.7143H14.2829V19.245C14.2829 18.4234 14.5524 17.9542 15.1788 17.6966V17.6497H12.6933C12.5595 17.6497 12.5143 17.6258 12.4248 17.5319L11.1267 16.1243L9.78341 17.5559C9.71607 17.6268 9.67082 17.6497 9.53613 17.6497H7.54421C7.43168 17.6497 7.43168 17.5788 7.49903 17.509L10.0519 14.9043L7.45378 12.2757C7.38643 12.2048 7.40952 12.135 7.52205 12.135H9.53799C9.64966 12.135 9.6949 12.1579 9.76126 12.2288L11.172 13.7073L12.4931 12.2288C12.5614 12.1579 12.6057 12.135 12.6952 12.135H17.9578C19.1664 12.135 20.2422 12.5572 20.6444 13.8251H20.6896V5.4941C20.6877 4.0364 19.9708 3.28571 18.5822 3.28571ZM17.9779 17.6474H16.0303C15.9852 17.6474 15.963 17.6715 15.963 17.7183V19.713H18.5822C19.9699 19.713 20.6877 18.9623 20.6877 17.5066V15.9812H20.6424C20.2393 17.2491 19.2096 17.6474 17.9779 17.6474Z" fill="white"/>
</svg>
