<svg width="400" height="413" viewBox="0 0 400 413" fill="none" xmlns="http://www.w3.org/2000/svg">
<path d="M235.257 25.0442C263.584 39.8029 361.787 93.3342 365.548 96.2109C368.368 98.087 374.635 104.341 376.515 108.343V108.343C378.662 112.958 379.785 117.982 379.805 123.072L380.15 207.651C380.4 273.565 380.024 301.456 379.022 305.208C377.142 312.087 369.747 319.216 361.85 321.468C358.591 322.468 355.207 322.969 354.455 322.718C353.202 322.218 352.826 301.581 352.826 225.286C352.826 122.601 352.826 123.352 347.06 118.349C345.681 117.223 331.769 109.344 315.85 100.839C216.706 47.8076 194.27 35.3002 194.27 32.7988C194.27 30.9227 196.903 28.9215 204.799 24.9192C218.461 18.0401 221.845 18.0401 235.257 25.0442ZM149.775 52.5603C163.061 58.0636 296.047 129.605 303.066 135.109C305.698 137.11 309.615 140.893 311.495 144.52V144.52C313.541 149.202 314.597 154.256 314.597 159.365V245.423V333.236C314.597 337.167 313.605 341.035 311.714 344.481V344.481C305.447 356.363 296.297 363.367 282.635 366.869C269.224 370.246 260.951 367.62 226.859 348.859C211.442 340.354 170.08 318.091 141.628 302.957C98.1346 279.818 96.7559 278.943 92.4943 274.565C87.4807 269.312 85.0993 263.684 84.0965 254.178C83.4698 248.55 83.5952 246.049 84.9739 244.298C86.7287 241.921 87.1047 242.046 97.2572 247.299C116.309 257.055 202.543 303.332 250.924 329.723C269.475 339.853 273.736 340.979 280.128 337.727C288.589 332.615 288.902 336.351 288.902 245.423C288.902 166.877 288.777 164.001 286.395 160.123C285.142 157.872 281.883 154.745 279.251 153.119C276.619 151.493 244.156 133.858 206.93 114.096C158.423 88.2062 137.993 77.9502 134.233 77.575C127.214 76.6995 120.821 79.5761 116.434 85.4546V85.4546C114.078 88.4542 112.787 92.1525 112.764 95.9668L112.423 152.494C112.173 203.899 111.797 215.03 110.418 215.531C107.911 216.531 91.4916 207.901 88.4834 204.024C85.726 200.647 85.726 200.272 86.102 142.363L86.4228 92.6428C86.4592 87.0005 87.7181 81.4332 90.1129 76.3243V76.3243C93.8731 68.0694 102.271 59.1892 109.791 55.1869C121.949 48.9332 138.243 47.8076 149.775 52.5603ZM47.4972 94.2097C47.9986 95.3354 48.2493 139.486 48.2493 192.392C47.9358 275.394 48.3746 289.074 50.004 292.076C51.5081 295.077 63.9168 302.206 116.81 330.473C152.532 349.609 186.499 367.87 192.39 370.997C207.431 379.252 207.557 383.129 193.017 390.133C179.23 396.637 180.608 397.012 125.333 367.245C42.7343 322.593 33.3338 317.215 28.8216 312.212C20.5491 303.082 20.6745 304.333 20.6745 203.649C20.6745 117.723 20.7998 112.595 23.0559 107.718C25.9387 101.464 29.6989 97.5867 36.342 94.5849C42.609 91.7082 46.4945 91.5832 47.4972 94.2097Z" fill="#005BC0"/>
</svg>
