<svg width="1085" height="1085" viewBox="0 0 1085 1085" fill="none" xmlns="http://www.w3.org/2000/svg">
<path d="M308 1003L308 485L144 372L144 1003C144 1048.29 180.713 1085 226 1085C271.287 1085 308 1048.29 308 1003Z" fill="#005BC0"/>
<path d="M719.5 483H477V648H719.5C765.063 648 802 611.064 802 565.5C802 519.937 765.063 483 719.5 483Z" fill="#005BC0"/>
<path d="M694.756 232.244H491.569C394.226 232.244 315.313 311.156 315.313 408.5C315.313 413.718 144 294 144 294V238.313C144 143.7 220.7 67 315.313 67H685V72C685 120.325 724.175 159.5 772.5 159.5C816.324 159.5 852.623 127.283 859.005 85.2413C859.662 79.2514 860 73.1651 860 67V72C860 76.5012 859.66 80.9231 859.005 85.2413C849.925 167.92 779.853 232.244 694.756 232.244Z" fill="#005BC0"/>
<circle cx="773" cy="67" r="67" fill="#283041"/>
</svg>
