<?xml version="1.0" encoding="UTF-8"?>
<svg xmlns="http://www.w3.org/2000/svg" xmlns:xlink="http://www.w3.org/1999/xlink" width="24px" height="24px" viewBox="0 0 24 24" version="1.1">
<g id="surface1">
<path style=" stroke:none;fill-rule:nonzero;fill:rgb(0%,47.058824%,34.509804%);fill-opacity:1;" d="M 15.765625 4.167969 C 14.308594 4.164062 12.886719 4.597656 11.679688 5.410156 C 11.59375 5.46875 11.019531 5.878906 10.996094 5.898438 C 10.042969 6.617188 9.398438 6.742188 8.523438 6.519531 C 8.46875 6.507812 8.21875 6.421875 8.136719 6.390625 C 5.886719 5.542969 3.34375 6.265625 1.875 8.171875 C 0.40625 10.078125 0.355469 12.71875 1.75 14.679688 C 3.144531 16.644531 5.65625 17.464844 7.941406 16.703125 C 9.25 16.3125 9.960938 16.417969 10.78125 17 C 10.945312 17.113281 11.339844 17.367188 11.421875 17.429688 C 13.992188 19.3125 17.480469 19.328125 20.066406 17.460938 C 22.648438 15.597656 23.734375 12.28125 22.753906 9.25 C 21.773438 6.21875 18.949219 4.164062 15.765625 4.167969 Z M 15.765625 4.167969 "/>
<path style=" stroke:none;fill-rule:nonzero;fill:rgb(100%,100%,100%);fill-opacity:1;" d="M 13.113281 12.644531 C 12.683594 13.066406 12.019531 13.136719 11.507812 12.816406 L 11.023438 13.589844 C 11.890625 14.136719 13.023438 14.015625 13.757812 13.296875 Z M 12.238281 9.492188 C 11.417969 9.480469 10.65625 9.921875 10.261719 10.636719 C 9.863281 11.355469 9.894531 12.234375 10.34375 12.921875 L 14.359375 11.203125 C 14.128906 10.214844 13.253906 9.511719 12.238281 9.492188 Z M 10.90625 11.847656 C 10.84375 11.277344 11.160156 10.734375 11.691406 10.507812 C 12.21875 10.28125 12.832031 10.429688 13.199219 10.867188 Z M 15.621094 8.496094 L 15.621094 12.777344 L 16.367188 13.085938 L 16.015625 13.925781 L 15.277344 13.621094 C 15.128906 13.558594 15.003906 13.453125 14.917969 13.316406 C 14.820312 13.160156 14.769531 12.976562 14.773438 12.789062 L 14.773438 8.496094 Z M 9.152344 8.496094 L 9.152344 12.777344 L 9.890625 13.085938 L 9.539062 13.925781 L 8.800781 13.621094 C 8.660156 13.558594 8.539062 13.453125 8.453125 13.320312 C 8.355469 13.164062 8.304688 12.980469 8.308594 12.796875 L 8.308594 8.496094 Z M 9.152344 8.496094 "/>
<path style=" stroke:none;fill-rule:nonzero;fill:rgb(78.039216%,83.529412%,25.098039%);fill-opacity:1;" d="M 19.277344 10.535156 C 19.929688 10.847656 20.199219 11.628906 19.886719 12.277344 L 20.710938 12.671875 C 21.167969 11.714844 20.882812 10.566406 20.035156 9.933594 C 19.183594 9.300781 18 9.355469 17.214844 10.070312 L 17.832031 10.746094 C 18.226562 10.386719 18.796875 10.300781 19.277344 10.535156 Z M 19.277344 10.535156 "/>
<path style=" stroke:none;fill-rule:nonzero;fill:rgb(100%,100%,100%);fill-opacity:1;" d="M 18.148438 12.886719 C 17.496094 12.574219 17.222656 11.796875 17.535156 11.144531 L 16.714844 10.75 C 16.261719 11.707031 16.542969 12.847656 17.390625 13.480469 C 18.242188 14.113281 19.417969 14.058594 20.203125 13.351562 L 19.589844 12.675781 C 19.195312 13.035156 18.625 13.117188 18.148438 12.886719 Z M 7.46875 12.949219 L 7.46875 11.710938 C 7.46875 10.488281 6.480469 9.5 5.257812 9.5 C 4.039062 9.5 3.050781 10.488281 3.050781 11.710938 C 3.050781 12.929688 4.039062 13.921875 5.257812 13.921875 C 5.601562 13.921875 5.941406 13.839844 6.246094 13.6875 L 5.890625 12.855469 C 5.484375 13.082031 4.992188 13.074219 4.59375 12.839844 C 4.195312 12.601562 3.949219 12.171875 3.949219 11.710938 C 3.949219 11.496094 4 11.285156 4.101562 11.097656 C 4.28125 10.761719 4.59375 10.523438 4.960938 10.4375 C 5.058594 10.414062 5.15625 10.402344 5.257812 10.402344 C 5.980469 10.402344 6.566406 10.988281 6.566406 11.710938 L 6.566406 12.941406 C 6.5625 13.125 6.613281 13.308594 6.710938 13.464844 C 6.796875 13.601562 6.921875 13.707031 7.070312 13.769531 L 7.484375 13.933594 L 7.835938 13.09375 Z M 7.46875 12.949219 "/>
</g>
</svg>
