<svg viewBox="-6.974270767414147 0 228.0558309574469 148.8785501167544" xmlns="http://www.w3.org/2000/svg" width="100" height="100"><path d="M142.82 0A69.5 69.5 0 0 0 104 11.83c-.79.54-6.25 4.44-6.49 4.63-9.07 6.82-15.16 8-23.5 5.91-.51-.13-2.9-.95-3.65-1.24a52 52 0 1 0-1.89 98c12.44-3.72 19.19-2.7 27 2.81 1.56 1.1 5.32 3.51 6.1 4.08A69.77 69.77 0 1 0 142.82 0z" fill="#007858"/><g fill="#fff"><path d="M117.65 80.56a12.33 12.33 0 0 1-15.26 1.62l-4.63 7.35a21.07 21.07 0 0 0 26-2.76zM109.31 50.62a21.08 21.08 0 0 0-18 32.58l38.18-16.32a21.09 21.09 0 0 0-20.18-16.26zM96.66 73a12.39 12.39 0 0 1 21.8-9.32zM141.48 41.13v40.69l7.06 2.93-3.33 8-7-2.9a7.71 7.71 0 0 1-3.44-2.9 9 9 0 0 1-1.35-5V41.13zM80 41.13v40.69l7 2.93-3.33 8-7-2.9A7.71 7.71 0 0 1 73.34 87a9 9 0 0 1-1.36-5V41.13z"/></g><path d="M176.22 60.51A12.4 12.4 0 0 1 182 77.07l7.81 3.75a21.08 21.08 0 0 0-33.19-24.71l5.84 6.41a12.39 12.39 0 0 1 13.76-2.01z" fill="#c7d540"/><path d="M165.47 82.88a12.42 12.42 0 0 1-5.81-16.56l-7.81-3.76A21.08 21.08 0 0 0 185 87.27l-5.84-6.4a12.41 12.41 0 0 1-13.69 2.01zM64 83.47V71.69a21 21 0 1 0-21 21 21 21 0 0 0 9.38-2.21L49 82.58a12.42 12.42 0 0 1-18.43-10.89A12.32 12.32 0 0 1 32 65.86a12.46 12.46 0 0 1 8.17-6.27 12.26 12.26 0 0 1 2.8-.33 12.45 12.45 0 0 1 12.46 12.43v11.68a9 9 0 0 0 1.35 5 7.84 7.84 0 0 0 3.44 2.9l3.94 1.56 3.34-8z" fill="#fff"/></svg>