<?xml version="1.0" encoding="UTF-8"?>
<svg xmlns="http://www.w3.org/2000/svg" xmlns:xlink="http://www.w3.org/1999/xlink" width="24px" height="24px" viewBox="0 0 24 24" version="1.1">
<g id="surface1">
<rect x="0" y="0" width="24" height="24" style="fill:rgb(100%,100%,100%);fill-opacity:1;stroke:none;"/>
<path style=" stroke:none;fill-rule:nonzero;fill:rgb(0%,43.529412%,81.176471%);fill-opacity:1;" d="M 0 0 L 0 24 L 24 24 L 24 20.207031 L 20.6875 20.207031 L 19.464844 18.777344 L 18.191406 20.207031 L 8.785156 20.207031 L 8.785156 12.585938 L 5.679688 12.585938 L 9.558594 3.800781 L 13.335938 3.800781 L 14.246094 5.792969 L 14.246094 3.800781 L 18.9375 3.800781 L 19.71875 5.886719 L 20.488281 3.800781 L 24 3.800781 L 24 0 Z M 21.289062 5.039062 L 20.054688 8.289062 L 19.726562 9.167969 L 19.390625 8.289062 L 18.152344 5.039062 L 15.441406 5.039062 L 15.441406 11.441406 L 17.070312 11.441406 L 17.070312 7.273438 L 17.0625 6.433594 L 17.382812 7.273438 L 18.945312 11.441406 L 20.496094 11.441406 L 22.0625 7.273438 L 22.367188 6.441406 L 22.367188 11.441406 L 24 11.441406 L 24 5.039062 Z M 10.441406 5.039062 L 7.609375 11.441406 L 9.464844 11.441406 L 9.960938 10.207031 L 13.0625 10.207031 L 13.558594 11.441406 L 15.441406 11.441406 L 12.625 5.039062 Z M 11.191406 7.207031 L 11.511719 6.410156 L 11.832031 7.207031 L 12.496094 8.824219 L 10.527344 8.824219 Z M 21.417969 12.59375 L 19.488281 14.664062 L 17.566406 12.59375 L 10.097656 12.59375 L 10.097656 18.96875 L 15.441406 18.96875 L 15.441406 17.585938 L 11.726562 17.585938 L 11.726562 16.472656 L 15.367188 16.472656 L 15.367188 15.097656 L 11.726562 15.097656 L 11.726562 13.976562 L 15.441406 13.976562 L 15.441406 12.59375 L 18.425781 15.792969 L 15.441406 18.96875 L 17.503906 18.96875 L 19.449219 16.886719 L 21.382812 18.96875 L 23.503906 18.96875 L 20.511719 15.769531 L 23.503906 12.59375 Z M 22.191406 15.761719 L 24 17.601562 L 24 13.945312 Z M 22.191406 15.761719 "/>
</g>
</svg>
