<?xml version="1.0" encoding="UTF-8"?>
<svg xmlns="http://www.w3.org/2000/svg" xmlns:xlink="http://www.w3.org/1999/xlink" width="24px" height="24px" viewBox="0 0 24 24" version="1.1">
    <g id="surface1">
        <path style=" stroke:none;fill-rule:nonzero;fill:rgb(79.215686%,83.529412%,0%);fill-opacity:1;" d="M 18.761719 5.5 L 0.917969 5.5 L 0.917969 9.015625 C 0.925781 14.382812 5.5 18.726562 11.121094 18.71875 L 23.039062 18.71875 L 23.039062 9.539062 C 23.039062 8.453125 22.707031 7.441406 21.902344 6.671875 C 21.089844 5.910156 19.898438 5.5 18.761719 5.5 "/>
        <path style=" stroke:none;fill-rule:nonzero;fill:rgb(72.156863%,77.647059%,29.019608%);fill-opacity:1;" d="M 5.121094 14.207031 L 5.105469 14.164062 L 4.46875 12.371094 L 4.457031 12.328125 L 4.496094 12.3125 L 6.347656 11.664062 C 6.410156 11.644531 6.480469 11.628906 6.550781 11.628906 C 6.808594 11.628906 7.039062 11.792969 7.125 12.03125 L 7.570312 13.296875 L 7.582031 13.339844 L 7.542969 13.351562 L 5.160156 14.191406 Z M 5.121094 14.207031 "/>
        <path style=" stroke:none;fill-rule:nonzero;fill:rgb(100%,100%,100%);fill-opacity:1;" d="M 6.023438 11.726562 L 4.492188 12.273438 L 4.40625 12.300781 L 4.433594 12.386719 L 5.070312 14.179688 L 5.097656 14.261719 L 5.183594 14.234375 L 6.03125 13.9375 L 7.5625 13.394531 L 7.648438 13.367188 L 7.617188 13.28125 L 7.175781 12.019531 C 7.082031 11.757812 6.835938 11.585938 6.558594 11.585938 C 6.488281 11.585938 6.410156 11.601562 6.339844 11.621094 Z M 6.023438 13.839844 L 5.148438 14.144531 L 4.519531 12.347656 L 6.023438 11.820312 L 6.367188 11.699219 C 6.433594 11.679688 6.496094 11.671875 6.550781 11.671875 C 6.785156 11.671875 6.996094 11.8125 7.082031 12.046875 L 7.527344 13.308594 Z M 6.023438 13.839844 "/>
        <path style=" stroke:none;fill-rule:nonzero;fill:rgb(0%,24.313725%,50.588235%);fill-opacity:1;" d="M 6.828125 15.949219 C 6.179688 15.949219 5.597656 15.542969 5.378906 14.925781 L 5.21875 14.46875 L 5.203125 14.425781 L 5.246094 14.410156 L 7.761719 13.527344 C 7.824219 13.507812 7.894531 13.492188 7.964844 13.492188 C 8.226562 13.492188 8.464844 13.664062 8.550781 13.910156 L 9.007812 15.230469 L 9.023438 15.273438 L 8.980469 15.285156 L 7.328125 15.871094 C 7.167969 15.914062 6.996094 15.949219 6.828125 15.949219 "/>
        <path style=" stroke:none;fill-rule:nonzero;fill:rgb(100%,100%,100%);fill-opacity:1;"
              d="M 7.117188 13.707031 L 5.230469 14.367188 L 5.148438 14.398438 L 5.175781 14.480469 L 5.339844 14.941406 C 5.558594 15.570312 6.15625 15.992188 6.820312 15.992188 C 6.917969 15.992188 7.019531 15.984375 7.109375 15.964844 C 7.1875 15.949219 7.265625 15.929688 7.34375 15.902344 L 8.996094 15.316406 L 9.082031 15.285156 L 9.050781 15.203125 L 8.585938 13.882812 C 8.496094 13.613281 8.238281 13.4375 7.957031 13.4375 C 7.878906 13.4375 7.808594 13.449219 7.738281 13.472656 Z M 7.117188 15.871094 C 7.019531 15.894531 6.917969 15.902344 6.828125 15.902344 C 6.214844 15.902344 5.640625 15.519531 5.421875 14.90625 L 5.261719 14.445312 L 7.117188 13.789062 L 7.773438 13.558594 C 7.835938 13.535156 7.902344 13.523438 7.964844 13.523438 C 8.203125 13.523438 8.421875 13.667969 8.507812 13.910156 L 8.972656 15.230469 L 7.320312 15.816406 C 7.25 15.84375 7.1875 15.859375 7.117188 15.871094 Z M 7.117188 15.871094 "/>
        <path style=" stroke:none;fill-rule:nonzero;fill:rgb(0%,24.313725%,50.588235%);fill-opacity:1;"
              d="M 9.855469 10.691406 C 10.195312 10.621094 10.292969 10.335938 10.371094 10.070312 L 10.4375 9.835938 C 10.257812 9.921875 10.054688 9.933594 9.863281 9.949219 L 9.792969 9.957031 C 9.449219 9.992188 9.222656 10.082031 9.222656 10.40625 C 9.222656 10.632812 9.449219 10.710938 9.636719 10.710938 C 9.714844 10.71875 9.800781 10.703125 9.855469 10.691406 M 9.835938 9.449219 L 9.871094 9.449219 C 10.386719 9.398438 10.621094 9.371094 10.621094 9.082031 C 10.621094 8.769531 10.246094 8.75 10.132812 8.75 C 10.019531 8.75 9.921875 8.769531 9.835938 8.804688 C 9.6875 8.867188 9.589844 8.996094 9.554688 9.15625 L 8.777344 9.179688 C 8.796875 8.796875 8.96875 8.542969 9.25 8.375 C 9.414062 8.273438 9.609375 8.210938 9.835938 8.183594 C 9.941406 8.167969 10.054688 8.164062 10.167969 8.164062 C 10.675781 8.164062 11.027344 8.269531 11.234375 8.464844 C 11.355469 8.585938 11.410156 8.742188 11.417969 8.933594 C 11.417969 9.066406 11.394531 9.230469 11.355469 9.453125 L 11.085938 10.632812 C 11.058594 10.734375 11.042969 10.902344 11.042969 11.027344 C 11.042969 11.078125 11.058594 11.140625 11.070312 11.191406 L 11.085938 11.226562 L 10.246094 11.226562 L 10.21875 10.972656 C 10.109375 11.078125 9.976562 11.164062 9.828125 11.21875 C 9.679688 11.277344 9.511719 11.304688 9.339844 11.304688 C 8.664062 11.304688 8.359375 10.902344 8.359375 10.507812 C 8.359375 9.941406 8.777344 9.574219 9.503906 9.484375 Z M 16.421875 8.164062 L 16.5 8.164062 C 16.917969 8.164062 17.269531 8.273438 17.511719 8.496094 C 17.765625 8.71875 17.898438 9.050781 17.898438 9.476562 C 17.898438 9.632812 17.886719 9.792969 17.855469 9.941406 L 16.429688 9.964844 L 15.6875 9.964844 L 15.683594 10.109375 C 15.683594 10.457031 15.910156 10.660156 16.304688 10.660156 C 16.347656 10.660156 16.386719 10.65625 16.421875 10.648438 C 16.648438 10.597656 16.785156 10.429688 16.882812 10.265625 L 17.707031 10.257812 L 17.742188 10.257812 L 17.730469 10.289062 C 17.484375 10.9375 17.082031 11.246094 16.417969 11.304688 C 16.339844 11.3125 16.261719 11.3125 16.183594 11.3125 C 15.351562 11.3125 14.847656 10.824219 14.847656 10.003906 C 14.847656 9.523438 15.003906 9.074219 15.285156 8.734375 C 15.582031 8.382812 15.984375 8.183594 16.421875 8.164062 Z M 16.421875 9.390625 L 17.066406 9.390625 C 17.058594 9.117188 16.996094 8.8125 16.542969 8.8125 C 16.5 8.8125 16.457031 8.8125 16.421875 8.820312 C 16.128906 8.863281 15.910156 9.050781 15.78125 9.390625 Z M 6.398438 11.226562 L 4.476562 11.226562 L 5.304688 7.136719 L 6.390625 7.117188 L 7.027344 7.117188 C 7.492188 7.117188 7.789062 7.175781 8 7.308594 C 8.246094 7.464844 8.367188 7.71875 8.367188 8.089844 C 8.367188 8.332031 8.296875 8.558594 8.164062 8.726562 C 8.035156 8.890625 7.867188 9.003906 7.660156 9.046875 C 8 9.164062 8.203125 9.476562 8.203125 9.871094 C 8.203125 10.289062 8.035156 10.640625 7.726562 10.886719 C 7.441406 11.105469 7.054688 11.226562 6.628906 11.226562 Z M 6.398438 7.859375 L 6.066406 7.859375 L 5.875 8.761719 L 6.855469 8.761719 C 7.144531 8.761719 7.433594 8.605469 7.433594 8.253906 C 7.433594 7.984375 7.292969 7.859375 6.992188 7.859375 Z M 6.398438 9.417969 L 5.742188 9.417969 L 5.515625 10.484375 L 6.601562 10.484375 C 7.027344 10.484375 7.28125 10.253906 7.28125 9.855469 C 7.28125 9.453125 6.925781 9.417969 6.601562 9.417969 Z M 14.21875 11.226562 L 13.367188 11.226562 L 13.375 11.199219 L 13.734375 9.476562 C 13.753906 9.390625 13.78125 9.199219 13.78125 9.121094 C 13.78125 8.960938 13.59375 8.847656 13.421875 8.847656 C 12.851562 8.847656 12.675781 9.40625 12.625 9.644531 L 12.285156 11.207031 L 12.285156 11.226562 L 11.429688 11.226562 L 11.4375 11.199219 L 12.054688 8.261719 L 12.058594 8.238281 L 12.878906 8.238281 L 12.871094 8.269531 L 12.800781 8.601562 C 13.0625 8.304688 13.394531 8.15625 13.796875 8.15625 C 14.367188 8.15625 14.679688 8.445312 14.679688 8.96875 C 14.679688 9.050781 14.652344 9.222656 14.59375 9.476562 L 14.234375 11.199219 Z M 19.113281 11.304688 C 18.78125 11.304688 18.484375 11.234375 18.257812 11.101562 C 17.984375 10.9375 17.835938 10.683594 17.835938 10.367188 L 17.835938 10.222656 L 18.625 10.222656 L 18.625 10.34375 C 18.625 10.589844 18.910156 10.71875 19.183594 10.71875 C 19.296875 10.71875 19.671875 10.695312 19.671875 10.394531 C 19.671875 10.210938 19.578125 10.152344 19.394531 10.089844 L 18.773438 9.890625 C 18.359375 9.757812 18.117188 9.589844 18.117188 9.117188 C 18.117188 8.457031 18.78125 8.164062 19.445312 8.164062 C 19.917969 8.164062 20.242188 8.261719 20.449219 8.464844 C 20.605469 8.621094 20.679688 8.847656 20.675781 9.121094 L 20.675781 9.144531 L 19.882812 9.144531 L 19.882812 9.121094 C 19.875 8.875 19.734375 8.75 19.453125 8.75 C 19.242188 8.75 18.980469 8.789062 18.980469 9.007812 C 18.980469 9.109375 19.035156 9.191406 19.332031 9.285156 L 19.734375 9.417969 C 20.144531 9.554688 20.527344 9.75 20.527344 10.28125 C 20.527344 10.621094 20.371094 10.894531 20.066406 11.070312 C 19.835938 11.21875 19.488281 11.304688 19.113281 11.304688 Z M 18.667969 12.90625 L 18.734375 12.90625 C 19.015625 12.90625 19.382812 13.019531 19.539062 13.332031 L 19.839844 11.910156 L 20.652344 11.890625 L 19.839844 15.878906 L 19.058594 15.902344 L 19.09375 15.605469 C 18.988281 15.746094 18.84375 15.851562 18.667969 15.914062 C 18.550781 15.957031 18.40625 15.984375 18.257812 15.984375 C 17.574219 15.984375 17.144531 15.542969 17.144531 14.828125 C 17.144531 14.328125 17.285156 13.859375 17.53125 13.515625 C 17.808594 13.132812 18.195312 12.929688 18.667969 12.90625 Z M 18.667969 15.320312 C 19.136719 15.210938 19.359375 14.582031 19.359375 14.148438 C 19.359375 13.769531 19.164062 13.550781 18.816406 13.550781 C 18.769531 13.550781 18.71875 13.558594 18.667969 13.5625 C 18.195312 13.667969 17.976562 14.277344 17.976562 14.722656 C 17.976562 15.003906 18.117188 15.335938 18.515625 15.335938 C 18.570312 15.335938 18.621094 15.328125 18.667969 15.320312 Z M 15.859375 15.902344 L 15.019531 15.902344 L 15.027344 15.871094 L 15.625 13.007812 L 15.632812 12.984375 L 16.429688 12.984375 L 16.421875 13.011719 L 16.332031 13.410156 C 16.523438 13.089844 16.875 12.90625 17.285156 12.90625 C 17.371094 12.90625 17.449219 12.914062 17.53125 12.921875 L 17.558594 12.921875 L 17.554688 12.949219 L 17.390625 13.710938 L 17.382812 13.734375 L 17.363281 13.726562 C 17.339844 13.71875 17.328125 13.71875 17.304688 13.710938 C 17.214844 13.691406 17.121094 13.675781 17.039062 13.675781 C 16.417969 13.675781 16.226562 14.171875 16.132812 14.601562 L 15.867188 15.871094 Z M 13.464844 14.171875 L 13.492188 14.164062 C 13.996094 14.113281 14.21875 14.09375 14.21875 13.8125 C 14.21875 13.507812 13.851562 13.484375 13.746094 13.484375 C 13.640625 13.484375 13.542969 13.507812 13.464844 13.542969 C 13.316406 13.605469 13.21875 13.726562 13.191406 13.890625 L 12.425781 13.910156 C 12.449219 13.542969 12.609375 13.289062 12.886719 13.121094 C 13.046875 13.027344 13.238281 12.964844 13.457031 12.9375 C 13.558594 12.921875 13.667969 12.914062 13.78125 12.914062 C 14.277344 12.914062 14.625 13.011719 14.820312 13.210938 C 14.933594 13.332031 14.996094 13.480469 14.996094 13.664062 C 14.996094 13.789062 14.976562 13.953125 14.933594 14.171875 L 14.679688 15.328125 C 14.652344 15.421875 14.644531 15.597656 14.644531 15.710938 C 14.644531 15.761719 14.652344 15.824219 14.671875 15.871094 L 14.6875 15.902344 L 13.867188 15.902344 L 13.847656 15.652344 C 13.742188 15.761719 13.613281 15.835938 13.464844 15.894531 C 13.316406 15.949219 13.15625 15.980469 12.992188 15.980469 C 12.335938 15.980469 12.039062 15.589844 12.039062 15.203125 C 12.039062 14.652344 12.449219 14.292969 13.15625 14.199219 Z M 13.464844 15.386719 C 13.796875 15.316406 13.917969 15.039062 13.996094 14.769531 L 14.058594 14.546875 C 13.890625 14.628906 13.691406 14.644531 13.5 14.660156 L 13.429688 14.660156 C 13.089844 14.695312 12.871094 14.785156 12.871094 15.101562 C 12.871094 15.320312 13.089844 15.398438 13.28125 15.398438 C 13.351562 15.40625 13.410156 15.398438 13.464844 15.386719 Z M 10.515625 15.980469 C 9.667969 15.980469 9.214844 15.546875 9.214844 14.722656 C 9.214844 14.226562 9.371094 13.769531 9.644531 13.445312 C 9.941406 13.089844 10.367188 12.90625 10.859375 12.90625 C 11.234375 12.90625 11.550781 12.992188 11.769531 13.160156 C 12.023438 13.351562 12.160156 13.632812 12.164062 14 L 12.164062 14.023438 L 11.332031 14.023438 L 11.332031 14 C 11.332031 13.691406 11.175781 13.550781 10.832031 13.550781 C 10.210938 13.550781 10.046875 14.328125 10.046875 14.742188 C 10.046875 15.019531 10.140625 15.34375 10.570312 15.34375 C 10.964844 15.34375 11.128906 15.019531 11.183594 14.828125 L 11.191406 14.8125 L 12.03125 14.8125 L 12.023438 14.84375 C 11.769531 15.582031 11.246094 15.980469 10.515625 15.980469 Z M 10.515625 15.980469 "/>
    </g>
</svg>
