<?xml version="1.0" encoding="utf-8"?>
<svg xmlns="http://www.w3.org/2000/svg" viewBox="0 0 339.9 213.9" width="24" height="24" style="enable-background:new 0 0 339.9 213.9;" xml:space="preserve">
<g>
	<path fill="#CAD500" d="M265.7,14.9H13v49.8c0.1,76,64.9,137.5,144.5,137.4h168.8v-130c0-15.4-4.7-29.7-16.1-40.6
		C298.7,20.7,281.8,14.9,265.7,14.9"/>
	<path fill="#B8C64A" d="M72.5,138.2l-0.2-0.6l-9-25.4l-0.2-0.6l0.6-0.2l26.2-9.2c0.9-0.3,1.9-0.5,2.9-0.5c3.6,0,6.9,2.3,8.1,5.7
		l6.3,17.9l0.2,0.6l-0.6,0.2L73.1,138L72.5,138.2z"/>
	<path fill="#FFFFFF" d="M85.3,103.1l-21.7,7.7l-1.2,0.4l0.4,1.2l9,25.4l0.4,1.2l1.2-0.4l12-4.2l21.7-7.7l1.2-0.4l-0.4-1.2l-6.3-17.9
		c-1.3-3.7-4.8-6.1-8.7-6.1c-1,0-2.1,0.2-3.1,0.5L85.3,103.1z M85.3,133l-12.4,4.3L64,111.9l21.3-7.5l4.9-1.7
		c0.9-0.3,1.8-0.4,2.6-0.4c3.3,0,6.3,2,7.5,5.3l6.3,17.9L85.3,133z"/>
	<path fill="#003E81" d="M96.7,162.9L96.7,162.9c-9.2,0-17.4-5.8-20.5-14.5l-2.3-6.5l-0.2-0.6l0.6-0.2l35.6-12.5
		c0.9-0.3,1.9-0.5,2.9-0.5c3.7,0,7.1,2.4,8.3,5.9l6.5,18.7l0.2,0.6l-0.6,0.2l-23.4,8.3C101.5,162.4,99.1,162.9,96.7,162.9"/>
	<path fill="#FFFFFF" d="M100.8,131.1l-26.7,9.4l-1.2,0.4l0.4,1.2l2.3,6.5c3.1,8.9,11.6,14.9,21,14.9c1.4,0,2.8-0.1,4.1-0.4
		c1.1-0.2,2.2-0.5,3.3-0.9l23.4-8.3l1.2-0.4l-0.4-1.2l-6.6-18.7c-1.3-3.8-4.9-6.3-8.9-6.3c-1.1,0-2.1,0.2-3.1,0.5L100.8,131.1z
		 M100.8,161.8c-1.4,0.3-2.8,0.4-4.1,0.4c-8.7,0-16.8-5.4-19.9-14.1l-2.3-6.5l26.3-9.3l9.3-3.3c0.9-0.3,1.8-0.5,2.7-0.5
		c3.4,0,6.5,2.1,7.7,5.5l6.6,18.7l-23.4,8.3C102.7,161.4,101.8,161.6,100.8,161.8z"/>
	<path fill="#003E81" d="M139.6,88.4c4.8-1,6.2-5,7.3-8.8l0.9-3.3c-2.5,1.2-5.4,1.4-8.1,1.6l-1,0.1c-4.9,0.5-8.1,1.8-8.1,6.4
		c0,3.2,3.2,4.3,5.9,4.3C137.6,88.8,138.8,88.6,139.6,88.4 M139.3,70.8l0.5,0c7.3-0.7,10.6-1.1,10.6-5.2c0-4.4-5.3-4.7-6.9-4.7
		c-1.6,0-3,0.3-4.2,0.8c-2.1,0.9-3.5,2.7-4,5l-11,0.3c0.3-5.4,2.7-9,6.7-11.4c2.3-1.4,5.1-2.3,8.3-2.7c1.5-0.2,3.1-0.3,4.7-0.3
		c7.2,0,12.2,1.5,15.1,4.3c1.7,1.7,2.5,3.9,2.6,6.6c0,1.9-0.3,4.2-0.9,7.4L157,87.6c-0.4,1.4-0.6,3.8-0.6,5.6c0,0.7,0.2,1.6,0.4,2.3
		L157,96h-0.5h-11.4l-0.4-3.6c-1.5,1.5-3.4,2.7-5.5,3.5c-2.1,0.8-4.5,1.2-6.9,1.2c-9.6,0-13.9-5.7-13.9-11.3c0-8,5.9-13.2,16.2-14.5
		L139.3,70.8z M232.6,52.6l1.1,0c5.9,0,10.9,1.6,14.3,4.7c3.6,3.2,5.5,7.9,5.5,13.9c0,2.2-0.2,4.5-0.6,6.6l-20.2,0.3h-10.5l-0.1,2.1
		c0,4.9,3.2,7.8,8.8,7.8c0.6,0,1.2-0.1,1.7-0.2c3.2-0.7,5.1-3.1,6.5-5.4l11.7-0.1h0.5l-0.2,0.4c-3.5,9.2-9.2,13.6-18.6,14.4
		c-1.1,0.1-2.2,0.1-3.3,0.1c-11.8,0-18.9-6.9-18.9-18.5c0-6.8,2.2-13.2,6.2-18C220.7,55.7,226.4,52.9,232.6,52.6z M232.6,70h9.1
		c-0.1-3.9-1-8.2-7.4-8.2c-0.6,0-1.2,0-1.7,0.1c-4.2,0.6-7.3,3.3-9.1,8.1H232.6z M90.6,96H63.4l11.7-57.9l15.4-0.3h9
		c6.6,0,10.8,0.8,13.8,2.7c3.5,2.2,5.2,5.8,5.2,11.1c0,3.4-1,6.6-2.9,9c-1.8,2.3-4.2,3.9-7.1,4.5c4.8,1.7,7.7,6.1,7.7,11.7
		c0,5.9-2.4,10.9-6.8,14.4c-4,3.1-9.5,4.8-15.5,4.8H90.6z M90.6,48.3h-4.7l-2.7,12.8h7.3h6.6c4.1,0,8.2-2.2,8.2-7.2
		c0-3.8-2-5.6-6.3-5.6H90.6z M90.6,70.4h-9.3l-3.2,15.1h12.5h2.9c6,0,9.6-3.3,9.6-8.9c0-5.7-5-6.2-9.6-6.2H90.6z M201.4,96h-0.3
		h-11.4h-0.4l0.1-0.4l5.1-24.4c0.3-1.2,0.7-3.9,0.7-5c0-2.3-2.7-3.9-5.1-3.9c-8.1,0-10.6,7.9-11.3,11.3L174,95.7L174,96h-0.3h-11.4
		h-0.4l0.1-0.4l8.7-41.6l0.1-0.3h0.3h10.9h0.4l-0.1,0.4l-1,4.7c3.7-4.2,8.4-6.3,14.1-6.3c8.1,0,12.5,4.1,12.5,11.5
		c0,1.2-0.4,3.6-1.2,7.2l-5.1,24.4L201.4,96z M270.7,97.1c-4.7,0-8.9-1-12.1-2.9c-3.9-2.3-6-5.9-6-10.4v-1.7v-0.3h0.3h10.6h0.3v0.3
		v1.4c0,3.5,4,5.3,7.9,5.3c1.6,0,6.9-0.3,6.9-4.6c0-2.6-1.3-3.4-3.9-4.3l-8.8-2.8c-5.9-1.9-9.3-4.3-9.3-11c0-9.3,9.4-13.5,18.8-13.5
		c6.7,0,11.3,1.4,14.2,4.3c2.2,2.2,3.3,5.4,3.2,9.3v0.3h-0.3h-10.6h-0.3l0-0.3c-0.1-3.5-2.1-5.3-6.1-5.3c-3,0-6.7,0.6-6.7,3.7
		c0,1.4,0.8,2.6,5,3.9l5.7,1.9c5.8,1.9,11.2,4.7,11.2,12.2c0,4.8-2.2,8.7-6.5,11.2C280.9,95.9,276,97.1,270.7,97.1z M264.4,119.8
		l0.9,0c4,0,9.2,1.6,11.4,6l4.3-20.1l11.5-0.3l-11.5,56.5l-11.1,0.3l0.5-4.2c-1.5,2-3.5,3.5-6,4.4c-1.7,0.6-3.7,1-5.8,1
		c-9.7,0-15.8-6.3-15.8-16.4c0-7.1,2-13.7,5.5-18.6C252.2,123,257.7,120.1,264.4,119.8z M264.4,154c6.6-1.6,9.8-10.5,9.8-16.6
		c0-5.4-2.8-8.5-7.7-8.5c-0.7,0-1.4,0.1-2.1,0.2c-6.7,1.5-9.8,10.1-9.8,16.4c0,4,2,8.7,7.6,8.7C263,154.2,263.7,154.1,264.4,154z
		 M224.6,162.2h-0.3h-11.2h-0.4l0.1-0.4l8.5-40.6l0.1-0.3h0.3h10.6h0.4l-0.1,0.4l-1.3,5.6c2.7-4.5,7.7-7.1,13.5-7.1
		c1.2,0,2.3,0.1,3.5,0.2l0.4,0l-0.1,0.4l-2.3,10.8l-0.1,0.3l-0.3-0.1c-0.3-0.1-0.5-0.1-0.8-0.2c-1.3-0.3-2.6-0.5-3.8-0.5
		c-8.8,0-11.5,7-12.8,13.1l-3.8,18L224.6,162.2z M190.7,137.7l0.4-0.1c7.1-0.7,10.3-1,10.3-5c0-4.3-5.2-4.6-6.7-4.6
		c-1.5,0-2.9,0.3-4,0.8c-2.1,0.9-3.5,2.6-3.9,4.9l-10.8,0.3c0.3-5.2,2.6-8.8,6.5-11.2c2.3-1.3,5-2.2,8.1-2.6c1.4-0.2,3-0.3,4.6-0.3
		c7,0,11.9,1.4,14.7,4.2c1.6,1.7,2.5,3.8,2.5,6.4c0,1.8-0.3,4.1-0.9,7.2l-3.6,16.4c-0.4,1.3-0.5,3.8-0.5,5.4c0,0.7,0.1,1.6,0.4,2.3
		l0.2,0.4h-0.5h-11.1l-0.3-3.5c-1.5,1.5-3.3,2.6-5.4,3.4c-2.1,0.8-4.4,1.2-6.7,1.2c-9.3,0-13.5-5.5-13.5-11
		c0-7.8,5.8-12.9,15.8-14.2L190.7,137.7z M190.7,154.9c4.7-1,6.4-4.9,7.5-8.7l0.9-3.2c-2.4,1.2-5.2,1.4-7.9,1.6l-0.5,0l-0.5,0
		c-4.8,0.5-7.9,1.8-7.9,6.3c0,3.1,3.1,4.2,5.8,4.2C189.1,155.2,189.9,155.1,190.7,154.9z M148.9,163.3c-12,0-18.4-6.1-18.4-17.8
		c0-7,2.2-13.5,6.1-18.1c4.2-5,10.2-7.6,17.2-7.6c5.3,0,9.8,1.2,12.9,3.6c3.6,2.7,5.5,6.7,5.6,11.9v0.3H172h-11.2h-0.3v-0.3
		c0-4.4-2.2-6.4-7.1-6.4c-8.8,0-11.1,11-11.1,16.9c0,3.9,1.3,8.5,7.4,8.5c5.6,0,7.9-4.6,8.7-7.3l0.1-0.2h0.2h11.2h0.5l-0.1,0.4
		C166.7,157.7,159.3,163.3,148.9,163.3z"/>
</g>
</svg>
