<?xml version="1.0" encoding="UTF-8"?>
<svg xmlns="http://www.w3.org/2000/svg" xmlns:xlink="http://www.w3.org/1999/xlink" width="24px" height="24px" viewBox="0 0 24 24" version="1.1">
<g id="surface1">
<path style="fill:none;stroke-width:2.0001;stroke-linecap:butt;stroke-linejoin:miter;stroke:rgb(0%,36.078431%,66.27451%);stroke-opacity:1;stroke-miterlimit:2.6131;" d="M 16.604167 16 L 110.208333 16 C 112.208333 16 113.791667 17.604167 113.791667 19.604167 L 113.791667 108.5 C 113.791667 110.5 112.208333 112.104167 110.208333 112.104167 L 16.604167 112.104167 C 14.604167 112.104167 13 110.5 13 108.5 L 13 19.604167 C 13 17.604167 14.604167 16 16.604167 16 Z M 16.604167 16 " transform="matrix(0.1875,0,0,0.1875,0,0)"/>
<path style=" stroke:none;fill-rule:nonzero;fill:rgb(0%,36.078431%,66.27451%);fill-opacity:1;" d="M 6.019531 17.15625 L 5.15625 17.15625 L 5.15625 16.539062 C 5.15625 16.351562 5.136719 16.238281 5.117188 16.199219 C 5.101562 16.164062 5.0625 16.125 4.988281 16.125 C 4.914062 16.125 4.875 16.144531 4.855469 16.199219 C 4.835938 16.257812 4.820312 16.367188 4.820312 16.554688 L 4.820312 18.207031 C 4.820312 18.375 4.835938 18.488281 4.855469 18.542969 C 4.875 18.601562 4.914062 18.617188 4.988281 18.617188 C 5.042969 18.617188 5.101562 18.601562 5.117188 18.542969 C 5.136719 18.488281 5.15625 18.375 5.15625 18.167969 L 5.15625 17.71875 L 6.019531 17.71875 L 6.019531 17.851562 C 6.019531 18.226562 6 18.488281 5.945312 18.636719 C 5.886719 18.789062 5.792969 18.917969 5.625 19.050781 C 5.457031 19.164062 5.25 19.21875 5.007812 19.21875 C 4.742188 19.21875 4.539062 19.164062 4.367188 19.070312 C 4.199219 18.976562 4.085938 18.84375 4.03125 18.65625 C 3.976562 18.488281 3.957031 18.226562 3.957031 17.867188 L 3.957031 16.835938 C 3.957031 16.574219 3.957031 16.386719 3.976562 16.257812 C 3.992188 16.125 4.050781 16.011719 4.125 15.882812 C 4.199219 15.769531 4.3125 15.675781 4.460938 15.601562 C 4.613281 15.523438 4.78125 15.507812 4.96875 15.507812 C 5.230469 15.507812 5.4375 15.5625 5.605469 15.65625 C 5.773438 15.769531 5.886719 15.898438 5.945312 16.050781 C 6 16.199219 6.019531 16.445312 6.019531 16.78125 Z M 8.304688 17.679688 C 8.304688 18.039062 8.304688 18.300781 8.289062 18.429688 C 8.269531 18.582031 8.230469 18.710938 8.136719 18.84375 C 8.0625 18.976562 7.949219 19.070312 7.800781 19.125 C 7.648438 19.199219 7.5 19.21875 7.3125 19.21875 C 7.125 19.21875 6.976562 19.179688 6.824219 19.125 C 6.675781 19.070312 6.5625 18.976562 6.488281 18.84375 C 6.394531 18.710938 6.355469 18.582031 6.335938 18.429688 C 6.320312 18.28125 6.320312 18.019531 6.320312 17.664062 L 6.320312 17.0625 C 6.320312 16.707031 6.320312 16.445312 6.335938 16.292969 C 6.355469 16.144531 6.394531 16.011719 6.488281 15.882812 C 6.5625 15.75 6.675781 15.65625 6.824219 15.601562 C 6.976562 15.523438 7.125 15.507812 7.3125 15.507812 C 7.5 15.507812 7.648438 15.542969 7.800781 15.601562 C 7.949219 15.65625 8.0625 15.75 8.136719 15.882812 C 8.230469 16.011719 8.269531 16.144531 8.289062 16.292969 C 8.304688 16.445312 8.304688 16.6875 8.304688 17.0625 Z M 7.445312 16.519531 C 7.445312 16.351562 7.445312 16.257812 7.425781 16.199219 C 7.386719 16.144531 7.367188 16.125 7.3125 16.125 C 7.273438 16.125 7.238281 16.144531 7.199219 16.179688 C 7.179688 16.21875 7.164062 16.332031 7.164062 16.519531 L 7.164062 18.1875 C 7.164062 18.394531 7.164062 18.523438 7.179688 18.5625 C 7.199219 18.617188 7.238281 18.636719 7.292969 18.636719 C 7.351562 18.636719 7.386719 18.617188 7.40625 18.5625 C 7.425781 18.507812 7.425781 18.375 7.425781 18.167969 L 7.425781 16.519531 Z M 11.324219 15.601562 L 11.324219 19.164062 L 10.554688 19.164062 L 10.554688 16.761719 L 10.257812 19.164062 L 9.710938 19.164062 L 9.394531 16.820312 L 9.394531 19.164062 L 8.625 19.164062 L 8.625 15.601562 L 9.75 15.601562 C 9.789062 15.804688 9.824219 16.070312 9.863281 16.351562 L 9.976562 17.25 L 10.179688 15.582031 L 11.324219 15.582031 Z M 11.664062 15.601562 L 12.542969 15.601562 C 12.789062 15.601562 12.957031 15.617188 13.085938 15.65625 C 13.21875 15.695312 13.3125 15.75 13.367188 15.824219 C 13.425781 15.898438 13.480469 15.992188 13.5 16.085938 C 13.519531 16.199219 13.539062 16.351562 13.539062 16.574219 L 13.539062 16.894531 C 13.539062 17.117188 13.519531 17.289062 13.460938 17.382812 C 13.425781 17.492188 13.332031 17.570312 13.21875 17.625 C 13.105469 17.679688 12.957031 17.699219 12.75 17.699219 L 12.523438 17.699219 L 12.523438 19.125 L 11.664062 19.125 Z M 12.542969 16.199219 L 12.542969 17.101562 C 12.5625 17.101562 12.582031 17.101562 12.601562 17.101562 C 12.675781 17.101562 12.730469 17.082031 12.769531 17.042969 C 12.804688 17.007812 12.804688 16.914062 12.804688 16.78125 L 12.804688 16.5 C 12.804688 16.386719 12.789062 16.292969 12.75 16.257812 C 12.730469 16.21875 12.65625 16.199219 12.542969 16.199219 Z M 13.78125 15.601562 L 14.398438 15.601562 C 14.8125 15.601562 15.09375 15.617188 15.226562 15.65625 C 15.375 15.695312 15.488281 15.769531 15.582031 15.917969 C 15.675781 16.050781 15.710938 16.273438 15.710938 16.574219 C 15.710938 16.855469 15.675781 17.042969 15.617188 17.136719 C 15.5625 17.230469 15.429688 17.289062 15.242188 17.304688 C 15.414062 17.34375 15.523438 17.417969 15.601562 17.492188 C 15.65625 17.570312 15.695312 17.644531 15.710938 17.699219 C 15.730469 17.757812 15.730469 17.945312 15.730469 18.226562 L 15.730469 19.164062 L 14.925781 19.164062 L 14.925781 17.980469 C 14.925781 17.792969 14.90625 17.679688 14.886719 17.625 C 14.851562 17.585938 14.792969 17.550781 14.664062 17.550781 L 14.664062 19.164062 L 13.800781 19.164062 L 13.800781 15.601562 Z M 14.664062 16.199219 L 14.664062 16.988281 C 14.757812 16.988281 14.832031 16.96875 14.867188 16.949219 C 14.90625 16.914062 14.925781 16.835938 14.925781 16.667969 L 14.925781 16.480469 C 14.925781 16.367188 14.90625 16.292969 14.867188 16.257812 C 14.832031 16.21875 14.757812 16.199219 14.664062 16.199219 Z M 17.570312 15.601562 L 18.074219 19.164062 L 17.195312 19.164062 L 17.15625 18.523438 L 16.835938 18.523438 L 16.78125 19.164062 L 15.882812 19.164062 L 16.332031 15.601562 Z M 17.101562 17.886719 C 17.0625 17.492188 17.007812 16.988281 16.96875 16.386719 C 16.875 17.0625 16.820312 17.570312 16.800781 17.886719 Z M 20.0625 16.667969 L 19.257812 16.667969 L 19.257812 16.40625 C 19.257812 16.273438 19.238281 16.199219 19.21875 16.164062 C 19.199219 16.125 19.164062 16.105469 19.105469 16.105469 C 19.050781 16.105469 19.011719 16.125 18.992188 16.179688 C 18.976562 16.21875 18.957031 16.292969 18.957031 16.386719 C 18.957031 16.5 18.976562 16.59375 18.992188 16.648438 C 19.03125 16.707031 19.105469 16.78125 19.238281 16.875 C 19.632812 17.117188 19.875 17.324219 19.96875 17.476562 C 20.0625 17.625 20.117188 17.886719 20.117188 18.226562 C 20.117188 18.488281 20.082031 18.65625 20.042969 18.789062 C 19.988281 18.898438 19.875 19.011719 19.726562 19.085938 C 19.554688 19.164062 19.386719 19.21875 19.164062 19.21875 C 18.9375 19.21875 18.730469 19.164062 18.5625 19.070312 C 18.394531 18.976562 18.28125 18.863281 18.242188 18.710938 C 18.1875 18.5625 18.167969 18.355469 18.167969 18.09375 L 18.167969 17.867188 L 18.976562 17.867188 L 18.976562 18.300781 C 18.976562 18.429688 18.992188 18.523438 19.011719 18.5625 C 19.03125 18.601562 19.070312 18.617188 19.125 18.617188 C 19.179688 18.617188 19.21875 18.601562 19.257812 18.542969 C 19.292969 18.488281 19.292969 18.429688 19.292969 18.335938 C 19.292969 18.132812 19.273438 18 19.21875 17.925781 C 19.164062 17.867188 19.03125 17.757812 18.804688 17.605469 C 18.582031 17.457031 18.449219 17.34375 18.375 17.269531 C 18.300781 17.195312 18.242188 17.101562 18.207031 16.988281 C 18.167969 16.875 18.132812 16.707031 18.132812 16.519531 C 18.132812 16.238281 18.167969 16.050781 18.226562 15.917969 C 18.28125 15.789062 18.394531 15.695312 18.542969 15.617188 C 18.695312 15.542969 18.863281 15.507812 19.070312 15.507812 C 19.292969 15.507812 19.480469 15.542969 19.648438 15.617188 C 19.800781 15.695312 19.914062 15.789062 19.96875 15.917969 C 20.023438 16.03125 20.042969 16.238281 20.042969 16.519531 L 20.042969 16.667969 Z M 20.0625 16.667969 "/>
<path style=" stroke:none;fill-rule:evenodd;fill:rgb(89.019608%,2.352941%,7.45098%);fill-opacity:1;" d="M 4.179688 19.875 C 4.179688 19.875 5.570312 19.273438 8.792969 19.367188 C 12 19.480469 20.289062 19.367188 20.289062 19.367188 C 20.289062 19.367188 20.175781 19.96875 17.605469 19.929688 C 15.039062 19.914062 4.179688 19.875 4.179688 19.875 Z M 4.179688 19.875 "/>
<path style=" stroke:none;fill-rule:evenodd;fill:rgb(89.019608%,2.352941%,7.45098%);fill-opacity:1;" d="M 3.394531 8.605469 C 3.394531 8.605469 8.644531 8.605469 10.574219 8.605469 C 12.507812 8.605469 13.761719 9.207031 13.761719 9.207031 C 13.761719 9.207031 7.460938 9.167969 5.8125 9.167969 C 4.179688 9.167969 3.394531 8.605469 3.394531 8.605469 Z M 3.394531 8.605469 "/>
<path style=" stroke:none;fill-rule:nonzero;fill:rgb(0%,36.078431%,66.27451%);fill-opacity:1;" d="M 3.9375 9.882812 L 5.34375 9.882812 C 5.792969 9.882812 6.132812 9.917969 6.355469 9.992188 C 6.582031 10.070312 6.769531 10.199219 6.898438 10.40625 C 7.03125 10.613281 7.105469 10.949219 7.105469 11.417969 C 7.105469 11.738281 7.050781 11.960938 6.957031 12.074219 C 6.863281 12.207031 6.65625 12.300781 6.375 12.355469 C 6.695312 12.429688 6.917969 12.542969 7.03125 12.730469 C 7.144531 12.898438 7.199219 13.164062 7.199219 13.519531 L 7.199219 14.023438 C 7.199219 14.382812 7.164062 14.664062 7.070312 14.832031 C 6.992188 15 6.84375 15.132812 6.675781 15.1875 C 6.488281 15.242188 6.113281 15.28125 5.550781 15.28125 L 3.9375 15.28125 Z M 5.34375 10.820312 L 5.34375 12.019531 C 5.398438 12.019531 5.457031 12.019531 5.476562 12.019531 C 5.605469 12.019531 5.699219 11.980469 5.738281 11.925781 C 5.773438 11.851562 5.792969 11.664062 5.792969 11.34375 C 5.792969 11.175781 5.773438 11.0625 5.757812 10.988281 C 5.71875 10.914062 5.679688 10.875 5.625 10.855469 C 5.585938 10.820312 5.492188 10.820312 5.34375 10.820312 Z M 5.34375 12.863281 L 5.34375 14.382812 C 5.550781 14.382812 5.664062 14.34375 5.71875 14.289062 C 5.773438 14.230469 5.792969 14.101562 5.792969 13.875 L 5.792969 13.367188 C 5.792969 13.144531 5.773438 12.992188 5.71875 12.957031 C 5.679688 12.882812 5.550781 12.863281 5.34375 12.863281 Z M 10.144531 9.882812 L 10.949219 15.28125 L 9.507812 15.28125 L 9.429688 14.304688 L 8.925781 14.304688 L 8.851562 15.28125 L 7.386719 15.28125 L 8.101562 9.882812 Z M 9.394531 13.367188 C 9.320312 12.75 9.242188 12 9.1875 11.101562 C 9.039062 12.132812 8.960938 12.882812 8.925781 13.367188 Z M 14.324219 9.882812 L 14.324219 15.28125 L 13.085938 15.28125 L 12.355469 12.824219 L 12.355469 15.28125 L 11.175781 15.28125 L 11.175781 9.882812 L 12.355469 9.882812 L 13.144531 12.320312 L 13.144531 9.882812 Z M 14.886719 9.882812 L 15.882812 9.882812 C 16.539062 9.882812 16.988281 9.898438 17.230469 9.957031 C 17.476562 10.011719 17.664062 10.144531 17.8125 10.351562 C 17.960938 10.554688 18.039062 10.894531 18.039062 11.363281 C 18.039062 11.773438 17.980469 12.074219 17.886719 12.207031 C 17.773438 12.355469 17.570312 12.429688 17.269531 12.46875 C 17.550781 12.542969 17.738281 12.636719 17.832031 12.75 C 17.925781 12.863281 17.980469 12.976562 18 13.070312 C 18.019531 13.164062 18.039062 13.425781 18.039062 13.875 L 18.039062 15.300781 L 16.726562 15.300781 L 16.726562 13.5 C 16.726562 13.21875 16.707031 13.03125 16.648438 12.957031 C 16.613281 12.882812 16.480469 12.84375 16.292969 12.84375 L 16.292969 15.28125 L 14.886719 15.28125 Z M 16.292969 10.820312 L 16.292969 12.019531 C 16.445312 12.019531 16.554688 12 16.632812 11.960938 C 16.6875 11.925781 16.726562 11.773438 16.726562 11.53125 L 16.726562 11.230469 C 16.726562 11.0625 16.6875 10.949219 16.632812 10.894531 C 16.574219 10.835938 16.460938 10.820312 16.292969 10.820312 Z M 19.988281 9.882812 L 19.988281 15.28125 L 18.582031 15.28125 L 18.582031 9.882812 Z M 19.988281 9.882812 "/>
<path style=" stroke:none;fill-rule:evenodd;fill:rgb(89.019608%,2.352941%,7.45098%);fill-opacity:1;" d="M 7.726562 8.007812 C 8.851562 6.1875 9.992188 5.230469 11.210938 5.25 C 13.460938 5.289062 14.511719 7.164062 15.226562 9.355469 C 16.949219 9.167969 18.675781 9.226562 20.398438 9.28125 C 18.695312 9.019531 16.988281 8.792969 15.226562 8.792969 C 14.71875 6.5625 13.726562 4.800781 11.53125 4.761719 C 10.105469 4.742188 8.625 5.269531 7.726562 8.007812 Z M 7.726562 8.007812 "/>
<path style=" stroke:none;fill-rule:evenodd;fill:rgb(100%,80%,0%);fill-opacity:1;" d="M 9.207031 8.511719 C 9.675781 7.5 10.445312 6.507812 11.417969 5.550781 C 11.0625 5.550781 10.800781 5.550781 10.445312 5.550781 C 9.675781 6.730469 9.226562 7.726562 9.207031 8.511719 Z M 9.207031 8.511719 "/>
<path style=" stroke:none;fill-rule:evenodd;fill:rgb(68.627451%,79.215686%,4.313725%);fill-opacity:1;" d="M 11.625 4.425781 C 11.886719 4.480469 12.167969 4.554688 12.429688 4.613281 C 14.117188 4.351562 15.695312 5.511719 16.707031 8.042969 C 16.070312 6.28125 15.804688 4.425781 13.632812 4.105469 C 12.917969 3.992188 12.054688 4.105469 11.625 4.425781 Z M 11.625 4.425781 "/>
<path style=" stroke:none;fill-rule:evenodd;fill:rgb(100%,100%,100%);fill-opacity:1;" d="M 8.8125 12.898438 L 9.65625 12.898438 L 10.105469 12.09375 L 9.675781 11.304688 L 8.832031 11.304688 Z M 8.8125 12.898438 "/>
<path style=" stroke:none;fill-rule:evenodd;fill:rgb(0%,36.078431%,66.27451%);fill-opacity:1;" d="M 8.363281 12.132812 L 8.832031 11.289062 L 9.28125 12.113281 L 8.8125 12.917969 Z M 8.363281 12.132812 "/>
<path style=" stroke:none;fill-rule:evenodd;fill:rgb(100%,100%,100%);fill-opacity:1;" d="M 9.429688 14.0625 L 10.292969 14.0625 L 10.726562 13.257812 L 10.3125 12.449219 L 9.449219 12.449219 Z M 9.429688 14.0625 "/>
<path style=" stroke:none;fill-rule:evenodd;fill:rgb(0%,36.078431%,66.27451%);fill-opacity:1;" d="M 8.980469 13.273438 L 9.449219 12.429688 L 9.898438 13.257812 L 9.429688 14.0625 Z M 8.980469 13.273438 "/>
<path style=" stroke:none;fill-rule:evenodd;fill:rgb(100%,100%,100%);fill-opacity:1;" d="M 8.136719 14.0625 L 8.980469 14.0625 L 9.429688 13.257812 L 9 12.449219 L 8.15625 12.449219 Z M 8.136719 14.0625 "/>
<path style=" stroke:none;fill-rule:evenodd;fill:rgb(0%,36.078431%,66.27451%);fill-opacity:1;" d="M 7.6875 13.273438 L 8.15625 12.429688 L 8.605469 13.257812 L 8.136719 14.0625 Z M 7.6875 13.273438 "/>
</g>
</svg>
