<?xml version="1.0" encoding="utf-8"?>
<svg version="1.1" xmlns="http://www.w3.org/2000/svg" width="24" height="24" viewBox="0 0 128 128" style="enable-background:new 0 0 128 128;" xml:space="preserve">
<g>
	<path fill="none" stroke="#005CA9" stroke-width="2.0001" stroke-miterlimit="2.6131" d="M16.6,16h93.6c2,0,3.6,1.6,3.6,3.6v88.9c0,2-1.6,3.6-3.6,3.6H16.6c-2,0-3.6-1.6-3.6-3.6V19.6
		C13,17.6,14.6,16,16.6,16L16.6,16z"/>
    <path fill="#005CA9" d="M32.1,91.5h-4.6v-3.3c0-1-0.1-1.6-0.2-1.8c-0.1-0.2-0.3-0.4-0.7-0.4c-0.4,0-0.6,0.1-0.7,0.4
		c-0.1,0.3-0.2,0.9-0.2,1.9v8.8c0,0.9,0.1,1.5,0.2,1.8c0.1,0.3,0.3,0.4,0.7,0.4c0.3,0,0.6-0.1,0.7-0.4c0.1-0.3,0.2-0.9,0.2-2v-2.4
		h4.6v0.7c0,2-0.1,3.4-0.4,4.2c-0.3,0.8-0.8,1.5-1.7,2.2c-0.9,0.6-2,0.9-3.3,0.9c-1.4,0-2.5-0.3-3.4-0.8c-0.9-0.5-1.5-1.2-1.8-2.2
		c-0.3-0.9-0.4-2.3-0.4-4.2v-5.5c0-1.4,0-2.4,0.1-3.1c0.1-0.7,0.4-1.3,0.8-2c0.4-0.6,1-1.1,1.8-1.5c0.8-0.4,1.7-0.5,2.7-0.5
		c1.4,0,2.5,0.3,3.4,0.8c0.9,0.6,1.5,1.3,1.8,2.1c0.3,0.8,0.4,2.1,0.4,3.9V91.5L32.1,91.5z M44.3,94.3c0,1.9,0,3.3-0.1,4
		c-0.1,0.8-0.3,1.5-0.8,2.2c-0.4,0.7-1,1.2-1.8,1.5c-0.8,0.4-1.6,0.5-2.6,0.5c-1,0-1.8-0.2-2.6-0.5c-0.8-0.3-1.4-0.8-1.8-1.5
		c-0.5-0.7-0.7-1.4-0.8-2.2c-0.1-0.8-0.1-2.2-0.1-4.1v-3.2c0-1.9,0-3.3,0.1-4.1c0.1-0.8,0.3-1.5,0.8-2.2c0.4-0.7,1-1.2,1.8-1.5
		c0.8-0.4,1.6-0.5,2.6-0.5c1,0,1.8,0.2,2.6,0.5c0.8,0.3,1.4,0.8,1.8,1.5c0.5,0.7,0.7,1.4,0.8,2.2c0.1,0.8,0.1,2.1,0.1,4.1V94.3
		L44.3,94.3z M39.7,88.1c0-0.9,0-1.4-0.1-1.7C39.4,86.1,39.3,86,39,86c-0.2,0-0.4,0.1-0.6,0.3c-0.1,0.2-0.2,0.8-0.2,1.8v8.9
		c0,1.1,0,1.8,0.1,2c0.1,0.3,0.3,0.4,0.6,0.4c0.3,0,0.5-0.1,0.6-0.4c0.1-0.3,0.1-1,0.1-2.1V88.1L39.7,88.1z M60.4,83.2v19h-4.1V89.4
		l-1.6,12.8h-2.9l-1.7-12.5v12.5H46v-19h6c0.2,1.1,0.4,2.5,0.6,4l0.6,4.8l1.1-8.9H60.4L60.4,83.2z M62.2,83.2h4.7
		c1.3,0,2.2,0.1,2.9,0.3c0.7,0.2,1.2,0.5,1.5,0.9c0.3,0.4,0.6,0.9,0.7,1.4c0.1,0.6,0.2,1.4,0.2,2.6v1.7c0,1.2-0.1,2.1-0.4,2.6
		c-0.2,0.6-0.7,1-1.3,1.3c-0.6,0.3-1.4,0.4-2.5,0.4h-1.2v7.6h-4.6V83.2L62.2,83.2z M66.9,86.4v4.8c0.1,0,0.2,0,0.3,0
		c0.4,0,0.7-0.1,0.9-0.3c0.2-0.2,0.2-0.7,0.2-1.4V88c0-0.6-0.1-1.1-0.3-1.3C67.9,86.5,67.5,86.4,66.9,86.4L66.9,86.4z M73.5,83.2
		h3.3c2.2,0,3.7,0.1,4.4,0.3c0.8,0.2,1.4,0.6,1.9,1.4c0.5,0.7,0.7,1.9,0.7,3.5c0,1.5-0.2,2.5-0.5,3c-0.3,0.5-1,0.8-2,0.9
		c0.9,0.2,1.5,0.6,1.9,1c0.3,0.4,0.5,0.8,0.6,1.1c0.1,0.3,0.1,1.3,0.1,2.8v5h-4.3v-6.3c0-1-0.1-1.6-0.2-1.9
		c-0.2-0.2-0.5-0.4-1.2-0.4v8.6h-4.6V83.2L73.5,83.2z M78.2,86.4v4.2c0.5,0,0.9-0.1,1.1-0.2c0.2-0.2,0.3-0.6,0.3-1.5v-1
		c0-0.6-0.1-1-0.3-1.2C79.1,86.5,78.7,86.4,78.2,86.4L78.2,86.4z M93.7,83.2l2.7,19h-4.7l-0.2-3.4h-1.7l-0.3,3.4h-4.8l2.4-19H93.7
		L93.7,83.2z M91.2,95.4c-0.2-2.1-0.5-4.8-0.7-8c-0.5,3.6-0.8,6.3-0.9,8H91.2L91.2,95.4z M107,88.9h-4.3v-1.4c0-0.7-0.1-1.1-0.2-1.3
		c-0.1-0.2-0.3-0.3-0.6-0.3c-0.3,0-0.5,0.1-0.6,0.4c-0.1,0.2-0.2,0.6-0.2,1.1c0,0.6,0.1,1.1,0.2,1.4c0.2,0.3,0.6,0.7,1.3,1.2
		c2.1,1.3,3.4,2.4,3.9,3.2c0.5,0.8,0.8,2.2,0.8,4c0,1.4-0.2,2.3-0.4,3c-0.3,0.6-0.9,1.2-1.7,1.6c-0.9,0.4-1.8,0.7-3,0.7
		c-1.2,0-2.3-0.3-3.2-0.8c-0.9-0.5-1.5-1.1-1.7-1.9c-0.3-0.8-0.4-1.9-0.4-3.3v-1.2h4.3v2.3c0,0.7,0.1,1.2,0.2,1.4
		c0.1,0.2,0.3,0.3,0.6,0.3c0.3,0,0.5-0.1,0.7-0.4c0.2-0.3,0.2-0.6,0.2-1.1c0-1.1-0.1-1.8-0.4-2.2c-0.3-0.3-1-0.9-2.2-1.7
		c-1.2-0.8-1.9-1.4-2.3-1.8c-0.4-0.4-0.7-0.9-0.9-1.5c-0.2-0.6-0.4-1.5-0.4-2.5c0-1.5,0.2-2.5,0.5-3.2c0.3-0.7,0.9-1.2,1.7-1.6
		c0.8-0.4,1.7-0.6,2.8-0.6c1.2,0,2.2,0.2,3.1,0.6c0.8,0.4,1.4,0.9,1.7,1.6c0.3,0.6,0.4,1.7,0.4,3.2V88.9L107,88.9z"/>
    <path fill-rule="evenodd" clip-rule="evenodd" fill="#E30613" d="M22.3,106c0,0,7.4-3.2,24.6-2.7c17.1,0.6,61.3,0,61.3,0s-0.6,3.2-14.3,3C80.2,106.2,22.3,106,22.3,106
		L22.3,106z"/>
    <path fill-rule="evenodd" clip-rule="evenodd" fill="#E30613" d="M18.1,45.9c0,0,28,0,38.3,0c10.3,0,17,3.2,17,3.2S39.8,48.9,31,48.9C22.3,48.9,18.1,45.9,18.1,45.9L18.1,45.9z
		"/>
    <path fill="#005CA9" d="M21,52.7h7.5c2.4,0,4.2,0.2,5.4,0.6c1.2,0.4,2.2,1.1,2.9,2.2c0.7,1.1,1.1,2.9,1.1,5.4c0,1.7-0.3,2.9-0.8,3.5
		c-0.5,0.7-1.6,1.2-3.1,1.5c1.7,0.4,2.9,1,3.5,2c0.6,0.9,0.9,2.3,0.9,4.2v2.7c0,1.9-0.2,3.4-0.7,4.3c-0.4,0.9-1.2,1.6-2.1,1.9
		c-1,0.3-3,0.5-6,0.5H21V52.7L21,52.7z M28.5,57.7v6.4c0.3,0,0.6,0,0.7,0c0.7,0,1.2-0.2,1.4-0.5c0.2-0.4,0.3-1.4,0.3-3.1
		c0-0.9-0.1-1.5-0.2-1.9c-0.2-0.4-0.4-0.6-0.7-0.7C29.8,57.7,29.3,57.7,28.5,57.7L28.5,57.7z M28.5,68.6v8.1c1.1,0,1.7-0.2,2-0.5
		c0.3-0.3,0.4-1,0.4-2.2v-2.7c0-1.2-0.1-2-0.4-2.2C30.3,68.7,29.6,68.6,28.5,68.6L28.5,68.6z M54.1,52.7l4.3,28.8h-7.7l-0.4-5.2
		h-2.7l-0.4,5.2h-7.8l3.8-28.8H54.1L54.1,52.7z M50.1,71.3C49.7,68,49.3,64,49,59.2c-0.8,5.5-1.2,9.5-1.4,12.1H50.1L50.1,71.3z
		 M76.4,52.7v28.8h-6.6l-3.9-13.1v13.1h-6.3V52.7h6.3l4.2,13v-13H76.4L76.4,52.7z M79.4,52.7h5.3c3.5,0,5.9,0.1,7.2,0.4
		c1.3,0.3,2.3,1,3.1,2.1c0.8,1.1,1.2,2.9,1.2,5.4c0,2.2-0.3,3.8-0.8,4.5c-0.6,0.8-1.7,1.2-3.3,1.4c1.5,0.4,2.5,0.9,3,1.5
		c0.5,0.6,0.8,1.2,0.9,1.7c0.1,0.5,0.2,1.9,0.2,4.3v7.6h-7V72c0-1.5-0.1-2.5-0.4-2.9c-0.2-0.4-0.9-0.6-1.9-0.6v13h-7.5V52.7
		L79.4,52.7z M86.9,57.7v6.4c0.8,0,1.4-0.1,1.8-0.3c0.3-0.2,0.5-1,0.5-2.3v-1.6c0-0.9-0.2-1.5-0.5-1.8
		C88.4,57.8,87.8,57.7,86.9,57.7L86.9,57.7z M106.6,52.7v28.8h-7.5V52.7H106.6L106.6,52.7z"/>
    <path fill-rule="evenodd" clip-rule="evenodd" fill="#E30613" d="M41.2,42.7C47.2,33,53.3,27.9,59.8,28c12,0.2,17.6,10.2,21.4,21.9c9.2-1,18.4-0.7,27.6-0.4
		c-9.1-1.4-18.2-2.6-27.6-2.6c-2.7-11.9-8-21.3-19.7-21.5C53.9,25.3,46,28.1,41.2,42.7L41.2,42.7z"/>
    <path fill-rule="evenodd" clip-rule="evenodd" fill="#FFCC00" d="M49.1,45.4c2.5-5.4,6.6-10.7,11.8-15.8c-1.9,0-3.3,0-5.2,0C51.6,35.9,49.2,41.2,49.1,45.4L49.1,45.4z"/>
    <path fill-rule="evenodd" clip-rule="evenodd" fill="#AFCA0B" d="M62,23.6c1.4,0.3,2.9,0.7,4.3,1c9-1.4,17.4,4.8,22.8,18.3c-3.4-9.4-4.8-19.3-16.4-21
		C68.9,21.3,64.3,21.9,62,23.6L62,23.6z"/>
    <polygon fill-rule="evenodd" clip-rule="evenodd" fill="#FFFFFF" points="47,68.8 51.5,68.8 53.9,64.5 51.6,60.3 47.1,60.3 47,68.8 	"/>
    <polygon fill-rule="evenodd" clip-rule="evenodd" fill="#005CA9" points="44.6,64.7 47.1,60.2 49.5,64.6 47,68.9 44.6,64.7 	"/>
    <polygon fill-rule="evenodd" clip-rule="evenodd" fill="#FFFFFF" points="50.3,75 54.9,75 57.2,70.7 55,66.4 50.4,66.4 50.3,75 	"/>
    <polygon fill-rule="evenodd" clip-rule="evenodd" fill="#005CA9" points="47.9,70.8 50.4,66.3 52.8,70.7 50.3,75 47.9,70.8 	"/>
    <polygon fill-rule="evenodd" clip-rule="evenodd" fill="#FFFFFF" points="43.4,75 47.9,75 50.3,70.7 48,66.4 43.5,66.4 43.4,75 	"/>
    <polygon fill-rule="evenodd" clip-rule="evenodd" fill="#005CA9" points="41,70.8 43.5,66.3 45.9,70.7 43.4,75 41,70.8 	"/>
</g>
</svg>
