<?xml version="1.0" encoding="UTF-8"?>
<svg xmlns="http://www.w3.org/2000/svg" xmlns:xlink="http://www.w3.org/1999/xlink" width="24px" height="24px" viewBox="0 0 24 24" version="1.1">
<g id="surface1">
<path style=" stroke:none;fill-rule:nonzero;fill:rgb(0%,32.54902%,54.117647%);fill-opacity:1;" d="M 17.878906 20.820312 L 3.488281 20.820312 L 3.488281 2.640625 L 20.515625 2.640625 L 20.515625 18.183594 C 20.515625 19.636719 19.335938 20.820312 17.878906 20.820312 "/>
<path style=" stroke:none;fill-rule:nonzero;fill:rgb(100%,100%,100%);fill-opacity:1;" d="M 12.402344 4.859375 L 16.726562 9.105469 C 16.96875 9.34375 16.96875 9.730469 16.726562 9.96875 L 12.402344 14.21875 L 12.402344 11.84375 L 14.433594 9.839844 C 14.601562 9.675781 14.601562 9.40625 14.433594 9.242188 L 12.402344 7.230469 Z M 12.402344 4.859375 "/>
<path style=" stroke:none;fill-rule:nonzero;fill:rgb(100%,100%,100%);fill-opacity:1;" d="M 11.601562 4.859375 L 7.273438 9.105469 C 7.03125 9.34375 7.03125 9.730469 7.273438 9.96875 L 11.597656 14.21875 L 11.597656 11.84375 L 9.566406 9.839844 C 9.398438 9.675781 9.398438 9.40625 9.566406 9.242188 L 11.597656 7.230469 L 11.597656 4.859375 Z M 11.601562 4.859375 "/>
<path style=" stroke:none;fill-rule:nonzero;fill:rgb(100%,100%,100%);fill-opacity:1;" d="M 9.867188 17.546875 L 9.441406 16.207031 L 9.027344 17.546875 Z M 9.84375 15.761719 L 10.800781 18.589844 L 10.199219 18.589844 L 10.011719 18.003906 L 8.886719 18.003906 L 8.6875 18.589844 L 8.085938 18.589844 L 8.96875 15.976562 C 9.015625 15.847656 9.136719 15.757812 9.273438 15.757812 L 9.84375 15.757812 Z M 9.84375 15.761719 "/>
<path style=" stroke:none;fill-rule:nonzero;fill:rgb(100%,100%,100%);fill-opacity:1;" d="M 12.574219 17.875 C 12.574219 18.085938 12.464844 18.148438 12.203125 18.148438 L 11.613281 18.148438 L 11.613281 17.375 L 12.253906 17.375 C 12.476562 17.375 12.570312 17.46875 12.570312 17.664062 L 12.570312 17.875 Z M 11.613281 16.207031 L 12.167969 16.207031 C 12.375 16.207031 12.46875 16.28125 12.46875 16.4375 L 12.46875 16.6875 C 12.46875 16.851562 12.390625 16.949219 12.164062 16.949219 L 11.613281 16.949219 Z M 12.703125 17.117188 C 12.9375 17.023438 13.042969 16.890625 13.042969 16.660156 L 13.042969 16.367188 C 13.042969 15.984375 12.808594 15.765625 12.234375 15.765625 L 11.042969 15.765625 L 11.042969 18.59375 L 12.316406 18.59375 C 12.867188 18.59375 13.148438 18.34375 13.148438 17.945312 L 13.148438 17.640625 C 13.148438 17.363281 12.980469 17.175781 12.703125 17.117188 "/>
<path style=" stroke:none;fill-rule:nonzero;fill:rgb(100%,100%,100%);fill-opacity:1;" d="M 7.039062 16.164062 L 7.867188 16.164062 L 7.867188 15.957031 C 7.867188 15.804688 7.742188 15.675781 7.585938 15.675781 L 7.042969 15.675781 C 6.304688 15.683594 5.992188 15.980469 5.992188 16.492188 L 5.992188 17.765625 C 5.992188 18.277344 6.308594 18.578125 7.042969 18.585938 L 7.835938 18.585938 L 7.835938 18.382812 C 7.835938 18.230469 7.710938 18.105469 7.558594 18.105469 L 7.046875 18.105469 C 6.6875 18.097656 6.566406 17.96875 6.566406 17.679688 L 6.566406 16.589844 C 6.558594 16.300781 6.679688 16.175781 7.039062 16.164062 "/>
<path style=" stroke:none;fill-rule:nonzero;fill:rgb(100%,100%,100%);fill-opacity:1;" d="M 16.765625 18.121094 L 16.765625 15.722656 L 16.507812 15.722656 C 16.332031 15.722656 16.191406 15.863281 16.191406 16.042969 L 16.191406 18.589844 L 18.011719 18.589844 L 18.011719 18.117188 L 16.765625 18.117188 Z M 16.765625 18.121094 "/>
<path style=" stroke:none;fill-rule:nonzero;fill:rgb(100%,100%,100%);fill-opacity:1;" d="M 15.054688 17.546875 L 14.628906 16.207031 L 14.214844 17.546875 Z M 15.035156 15.761719 L 15.988281 18.589844 L 15.386719 18.589844 L 15.199219 18.003906 L 14.074219 18.003906 L 13.875 18.589844 L 13.277344 18.589844 L 14.128906 16.058594 C 14.191406 15.878906 14.355469 15.761719 14.542969 15.761719 Z M 15.035156 15.761719 "/>
</g>
</svg>
