<?xml version="1.0" encoding="utf-8"?>
<!-- Generator: Adobe Illustrator 23.0.3, SVG Export Plug-In . SVG Version: 6.00 Build 0)  -->
<svg version="1.1" id="Layer_1" xmlns="http://www.w3.org/2000/svg" xmlns:xlink="http://www.w3.org/1999/xlink" x="0px" y="0px"
	 viewBox="0 0 566.9 595.3" style="enable-background:new 0 0 566.9 595.3;" xml:space="preserve">
<style type="text/css">
	.st0{fill:#00538A;}
	.st1{fill:#FFFFFF;}
</style>
<g>
	<g>
		<path class="st0" d="M429.3,516.4H72.3V65.5h422.4V451C494.7,487.1,465.4,516.4,429.3,516.4"/>
	</g>
	<path class="st1" d="M293.4,120.5l107.3,105.4c6,5.9,6,15.5,0,21.4L293.4,352.7l0-58.9l50.4-49.7c4.2-4.1,4.2-10.8,0-14.9
		l-50.4-49.9V120.5z"/>
	<path class="st1" d="M273.6,120.5L166.2,225.9c-6,5.9-6,15.5,0,21.4l107.3,105.4l0-58.9l-50.4-49.7c-4.2-4.1-4.2-10.8,0-14.9
		l50.4-49.9V120.5z"/>
	<path class="st1" d="M230.5,435.2L220,402l-10.3,33.2H230.5z M230,391l23.7,70.1h-14.9l-4.7-14.5h-27.9l-4.9,14.5h-14.9l21.9-64.8
		c1.1-3.2,4.1-5.4,7.5-5.4H230z"/>
	<path class="st1" d="M297.7,443.4c0,5.2-2.7,6.8-9.2,6.8h-14.6v-19.2h15.8c5.6,0,7.9,2.3,7.9,7.1V443.4z M273.9,402h13.7
		c5.2,0,7.5,1.8,7.5,5.7v6.2c0,4.1-2,6.5-7.6,6.5h-13.6V402z M300.9,424.6c5.8-2.3,8.4-5.6,8.4-11.4V406c0-9.5-5.8-14.9-20-14.9
		h-29.6v70.1h31.6c13.7,0,20.6-6.2,20.6-16.1v-7.5C311.9,430.7,307.8,426,300.9,424.6"/>
	<path class="st1" d="M160.4,400.9h20.5v-5.1c0-3.8-3.1-7-6.9-7h-13.5c-18.3,0.2-26.1,7.6-26.1,20.3v31.6c0,12.7,7.9,20.1,26.1,20.3
		v0h19.7V456c0-3.8-3.1-6.9-6.9-6.9h-12.7v0c-8.9-0.2-11.9-3.4-11.9-10.6v-27C148.5,404.3,151.5,401.2,160.4,400.9"/>
	<path class="st1" d="M401.7,449.5V402v-12h-6.4c-4.4,0-7.9,3.5-7.9,7.9v4.1v59.1h45.2v-11.7H401.7z"/>
	<path class="st1" d="M359.2,435.2L348.7,402l-10.3,33.2H359.2z M358.7,391l23.7,70.1h-14.9l-4.7-14.5h-27.9l-4.9,14.5h-14.9
		l21.2-62.8c1.5-4.4,5.6-7.3,10.2-7.3H358.7z"/>
</g>
</svg>
