<?xml version="1.0" encoding="UTF-8"?>
<svg xmlns="http://www.w3.org/2000/svg" xmlns:xlink="http://www.w3.org/1999/xlink" width="24px" height="24px" viewBox="0 0 24 24" version="1.1">
<g id="surface1">
<path style="fill-rule:nonzero;fill:rgb(100%,100%,100%);fill-opacity:1;stroke-width:1;stroke-linecap:butt;stroke-linejoin:miter;stroke:rgb(95.294118%,95.294118%,95.294118%);stroke-opacity:1;stroke-miterlimit:4;" d="M 4.002604 0.496745 L 53.997396 0.496745 C 55.932617 0.496745 57.499674 2.063802 57.499674 3.999023 L 57.499674 36.000977 C 57.499674 37.936198 55.932617 39.503255 53.997396 39.503255 L 4.002604 39.503255 C 2.067383 39.503255 0.500326 37.936198 0.500326 36.000977 L 0.500326 3.999023 C 0.500326 2.063802 2.067383 0.496745 4.002604 0.496745 Z M 4.002604 0.496745 " transform="matrix(0.413793,0,0,0.413793,0,3.724138)"/>
<path style=" stroke:none;fill-rule:evenodd;fill:rgb(10.196078%,9.803922%,9.803922%);fill-opacity:1;" d="M 3.65625 13.738281 C 3.65625 13.414062 3.484375 13.4375 3.324219 13.433594 L 3.324219 13.339844 C 3.464844 13.347656 3.609375 13.347656 3.75 13.347656 C 3.898438 13.347656 4.105469 13.339844 4.375 13.339844 C 5.308594 13.339844 5.816406 13.964844 5.816406 14.601562 C 5.816406 14.960938 5.609375 15.859375 4.328125 15.859375 C 4.144531 15.859375 3.976562 15.851562 3.804688 15.851562 C 3.644531 15.851562 3.484375 15.855469 3.324219 15.859375 L 3.324219 15.765625 C 3.539062 15.742188 3.644531 15.734375 3.65625 15.492188 Z M 4.007812 15.433594 C 4.007812 15.710938 4.207031 15.742188 4.382812 15.742188 C 5.164062 15.742188 5.417969 15.15625 5.417969 14.617188 C 5.417969 13.941406 4.988281 13.453125 4.289062 13.453125 C 4.140625 13.453125 4.074219 13.464844 4.007812 13.46875 Z M 4.007812 15.433594 "/>
<path style=" stroke:none;fill-rule:evenodd;fill:rgb(10.196078%,9.803922%,9.803922%);fill-opacity:1;" d="M 5.945312 15.765625 L 6.011719 15.765625 C 6.113281 15.765625 6.183594 15.765625 6.183594 15.644531 L 6.183594 14.667969 C 6.183594 14.507812 6.132812 14.488281 5.996094 14.414062 L 5.996094 14.355469 C 6.167969 14.304688 6.371094 14.238281 6.382812 14.226562 C 6.410156 14.214844 6.429688 14.210938 6.449219 14.210938 C 6.464844 14.210938 6.472656 14.230469 6.472656 14.261719 L 6.472656 15.644531 C 6.472656 15.765625 6.554688 15.765625 6.65625 15.765625 L 6.714844 15.765625 L 6.714844 15.859375 C 6.59375 15.859375 6.464844 15.851562 6.335938 15.851562 C 6.207031 15.851562 6.078125 15.855469 5.945312 15.859375 Z M 6.328125 13.652344 C 6.234375 13.652344 6.152344 13.566406 6.152344 13.472656 C 6.152344 13.382812 6.238281 13.300781 6.328125 13.300781 C 6.421875 13.300781 6.507812 13.375 6.507812 13.472656 C 6.507812 13.570312 6.425781 13.652344 6.328125 13.652344 Z M 6.328125 13.652344 "/>
<path style=" stroke:none;fill-rule:evenodd;fill:rgb(10.196078%,9.803922%,9.803922%);fill-opacity:1;" d="M 7.058594 14.6875 C 7.058594 14.554688 7.019531 14.519531 6.847656 14.449219 L 6.847656 14.382812 C 7.003906 14.332031 7.152344 14.285156 7.324219 14.210938 C 7.335938 14.210938 7.347656 14.214844 7.347656 14.246094 L 7.347656 14.480469 C 7.554688 14.332031 7.730469 14.210938 7.972656 14.210938 C 8.277344 14.210938 8.386719 14.433594 8.386719 14.714844 L 8.386719 15.644531 C 8.386719 15.765625 8.464844 15.765625 8.566406 15.765625 L 8.632812 15.765625 L 8.632812 15.859375 C 8.507812 15.859375 8.378906 15.851562 8.25 15.851562 C 8.121094 15.851562 7.988281 15.855469 7.859375 15.859375 L 7.859375 15.765625 L 7.925781 15.765625 C 8.027344 15.765625 8.097656 15.765625 8.097656 15.644531 L 8.097656 14.710938 C 8.097656 14.503906 7.972656 14.402344 7.765625 14.402344 C 7.652344 14.402344 7.464844 14.496094 7.347656 14.578125 L 7.347656 15.644531 C 7.347656 15.765625 7.425781 15.765625 7.527344 15.765625 L 7.59375 15.765625 L 7.59375 15.859375 C 7.464844 15.859375 7.339844 15.851562 7.210938 15.851562 C 7.082031 15.851562 6.949219 15.855469 6.820312 15.859375 L 6.820312 15.765625 L 6.886719 15.765625 C 6.988281 15.765625 7.058594 15.765625 7.058594 15.644531 L 7.058594 14.6875 "/>
<path style=" stroke:none;fill-rule:evenodd;fill:rgb(10.196078%,9.803922%,9.803922%);fill-opacity:1;" d="M 8.90625 14.863281 C 8.898438 14.894531 8.898438 14.949219 8.90625 15.070312 C 8.929688 15.414062 9.148438 15.695312 9.4375 15.695312 C 9.636719 15.695312 9.792969 15.589844 9.925781 15.453125 L 9.976562 15.503906 C 9.808594 15.726562 9.605469 15.914062 9.308594 15.914062 C 8.734375 15.914062 8.617188 15.355469 8.617188 15.125 C 8.617188 14.417969 9.09375 14.210938 9.347656 14.210938 C 9.640625 14.210938 9.953125 14.394531 9.957031 14.777344 C 9.957031 14.796875 9.957031 14.820312 9.953125 14.839844 L 9.921875 14.863281 Z M 9.546875 14.746094 C 9.636719 14.746094 9.648438 14.699219 9.648438 14.65625 C 9.648438 14.472656 9.535156 14.324219 9.332031 14.324219 C 9.113281 14.324219 8.960938 14.488281 8.917969 14.746094 Z M 9.546875 14.746094 "/>
<path style=" stroke:none;fill-rule:evenodd;fill:rgb(10.196078%,9.803922%,9.803922%);fill-opacity:1;" d="M 10.039062 15.765625 L 10.136719 15.765625 C 10.238281 15.765625 10.3125 15.765625 10.3125 15.644531 L 10.3125 14.632812 C 10.3125 14.519531 10.175781 14.496094 10.125 14.46875 L 10.125 14.414062 C 10.386719 14.304688 10.53125 14.210938 10.5625 14.210938 C 10.585938 14.210938 10.597656 14.21875 10.597656 14.257812 L 10.597656 14.582031 L 10.605469 14.582031 C 10.695312 14.441406 10.84375 14.210938 11.066406 14.210938 C 11.15625 14.210938 11.269531 14.269531 11.269531 14.402344 C 11.269531 14.496094 11.203125 14.585938 11.101562 14.585938 C 10.988281 14.585938 10.988281 14.496094 10.863281 14.496094 C 10.800781 14.496094 10.601562 14.582031 10.601562 14.796875 L 10.601562 15.644531 C 10.601562 15.765625 10.671875 15.765625 10.773438 15.765625 L 10.976562 15.765625 L 10.976562 15.859375 C 10.777344 15.855469 10.625 15.851562 10.46875 15.851562 C 10.320312 15.851562 10.171875 15.855469 10.039062 15.859375 L 10.039062 15.765625 "/>
<path style=" stroke:none;fill-rule:evenodd;fill:rgb(10.196078%,9.803922%,9.803922%);fill-opacity:1;" d="M 11.429688 15.355469 C 11.476562 15.59375 11.621094 15.796875 11.886719 15.796875 C 12.097656 15.796875 12.175781 15.667969 12.175781 15.542969 C 12.175781 15.113281 11.390625 15.253906 11.390625 14.671875 C 11.390625 14.46875 11.554688 14.210938 11.949219 14.210938 C 12.066406 14.210938 12.21875 14.242188 12.359375 14.3125 L 12.386719 14.683594 L 12.304688 14.683594 C 12.265625 14.453125 12.140625 14.324219 11.910156 14.324219 C 11.765625 14.324219 11.628906 14.40625 11.628906 14.5625 C 11.628906 14.984375 12.464844 14.855469 12.464844 15.421875 C 12.464844 15.660156 12.273438 15.914062 11.84375 15.914062 C 11.699219 15.914062 11.53125 15.863281 11.40625 15.789062 L 11.363281 15.375 L 11.429688 15.355469 "/>
<path style=" stroke:none;fill-rule:evenodd;fill:rgb(10.196078%,9.803922%,9.803922%);fill-opacity:1;" d="M 15.726562 13.992188 L 15.636719 13.992188 C 15.566406 13.570312 15.265625 13.402344 14.863281 13.402344 C 14.449219 13.402344 13.84375 13.679688 13.84375 14.542969 C 13.84375 15.273438 14.363281 15.796875 14.921875 15.796875 C 15.277344 15.796875 15.574219 15.550781 15.644531 15.171875 L 15.730469 15.195312 L 15.644531 15.722656 C 15.496094 15.816406 15.085938 15.914062 14.847656 15.914062 C 14.003906 15.914062 13.46875 15.367188 13.46875 14.554688 C 13.46875 13.816406 14.128906 13.285156 14.835938 13.285156 C 15.128906 13.285156 15.410156 13.378906 15.6875 13.476562 L 15.726562 13.992188 "/>
<path style=" stroke:none;fill-rule:evenodd;fill:rgb(10.196078%,9.803922%,9.803922%);fill-opacity:1;" d="M 15.855469 15.765625 L 15.925781 15.765625 C 16.023438 15.765625 16.097656 15.765625 16.097656 15.644531 L 16.097656 13.636719 C 16.097656 13.402344 16.042969 13.394531 15.90625 13.355469 L 15.90625 13.296875 C 16.050781 13.25 16.203125 13.183594 16.277344 13.140625 C 16.316406 13.121094 16.347656 13.101562 16.355469 13.101562 C 16.378906 13.101562 16.386719 13.121094 16.386719 13.152344 L 16.386719 15.644531 C 16.386719 15.765625 16.464844 15.765625 16.566406 15.765625 L 16.628906 15.765625 L 16.628906 15.859375 C 16.503906 15.859375 16.378906 15.851562 16.25 15.851562 C 16.117188 15.851562 15.988281 15.855469 15.855469 15.859375 L 15.855469 15.765625 "/>
<path style=" stroke:none;fill-rule:evenodd;fill:rgb(10.196078%,9.803922%,9.803922%);fill-opacity:1;" d="M 18.171875 15.660156 C 18.171875 15.726562 18.210938 15.730469 18.273438 15.730469 C 18.316406 15.730469 18.371094 15.726562 18.417969 15.726562 L 18.417969 15.800781 C 18.261719 15.816406 17.96875 15.890625 17.898438 15.914062 L 17.878906 15.902344 L 17.878906 15.609375 C 17.664062 15.785156 17.496094 15.914062 17.242188 15.914062 C 17.046875 15.914062 16.84375 15.785156 16.84375 15.484375 L 16.84375 14.558594 C 16.84375 14.464844 16.828125 14.375 16.628906 14.355469 L 16.628906 14.289062 C 16.757812 14.285156 17.046875 14.261719 17.09375 14.261719 C 17.132812 14.261719 17.132812 14.289062 17.132812 14.367188 L 17.132812 15.300781 C 17.132812 15.40625 17.132812 15.71875 17.449219 15.71875 C 17.570312 15.71875 17.730469 15.625 17.882812 15.496094 L 17.882812 14.527344 C 17.882812 14.453125 17.710938 14.414062 17.582031 14.378906 L 17.582031 14.3125 C 17.90625 14.292969 18.109375 14.261719 18.144531 14.261719 C 18.171875 14.261719 18.171875 14.289062 18.171875 14.328125 L 18.171875 15.660156 "/>
<path style=" stroke:none;fill-rule:evenodd;fill:rgb(10.196078%,9.803922%,9.803922%);fill-opacity:1;" d="M 18.890625 14.46875 C 19.035156 14.347656 19.230469 14.210938 19.429688 14.210938 C 19.847656 14.210938 20.101562 14.574219 20.101562 14.96875 C 20.101562 15.441406 19.753906 15.914062 19.238281 15.914062 C 18.96875 15.914062 18.828125 15.828125 18.734375 15.785156 L 18.628906 15.871094 L 18.550781 15.828125 C 18.585938 15.617188 18.601562 15.40625 18.601562 15.1875 L 18.601562 13.636719 C 18.601562 13.402344 18.546875 13.394531 18.410156 13.355469 L 18.410156 13.296875 C 18.554688 13.25 18.707031 13.183594 18.78125 13.140625 C 18.824219 13.121094 18.851562 13.101562 18.863281 13.101562 C 18.882812 13.101562 18.890625 13.121094 18.890625 13.152344 Z M 18.890625 15.449219 C 18.890625 15.589844 19.019531 15.820312 19.261719 15.820312 C 19.648438 15.820312 19.8125 15.441406 19.8125 15.117188 C 19.8125 14.730469 19.515625 14.402344 19.234375 14.402344 C 19.101562 14.402344 18.988281 14.492188 18.890625 14.574219 Z M 18.890625 15.449219 "/>
<path style=" stroke:none;fill-rule:evenodd;fill:rgb(10.196078%,9.803922%,9.803922%);fill-opacity:1;" d="M 5.265625 17.628906 L 5.269531 17.625 L 5.269531 16.890625 C 5.269531 16.726562 5.160156 16.703125 5.101562 16.703125 L 5.058594 16.703125 L 5.058594 16.644531 C 5.148438 16.644531 5.238281 16.652344 5.332031 16.652344 C 5.414062 16.652344 5.492188 16.644531 5.574219 16.644531 L 5.574219 16.703125 L 5.542969 16.703125 C 5.460938 16.703125 5.371094 16.71875 5.371094 16.953125 L 5.371094 17.847656 C 5.371094 17.917969 5.371094 17.984375 5.378906 18.046875 L 5.304688 18.046875 L 4.292969 16.917969 L 4.292969 17.726562 C 4.292969 17.898438 4.328125 17.957031 4.480469 17.957031 L 4.511719 17.957031 L 4.511719 18.015625 C 4.429688 18.015625 4.34375 18.007812 4.257812 18.007812 C 4.171875 18.007812 4.082031 18.015625 3.992188 18.015625 L 3.992188 17.957031 L 4.019531 17.957031 C 4.15625 17.957031 4.195312 17.867188 4.195312 17.707031 L 4.195312 16.882812 C 4.195312 16.769531 4.105469 16.703125 4.019531 16.703125 L 3.992188 16.703125 L 3.992188 16.644531 C 4.066406 16.644531 4.144531 16.652344 4.21875 16.652344 C 4.277344 16.652344 4.335938 16.644531 4.394531 16.644531 L 5.265625 17.628906 "/>
<path style=" stroke:none;fill-rule:evenodd;fill:rgb(10.196078%,9.803922%,9.803922%);fill-opacity:1;" d="M 5.378906 18.054688 L 5.300781 18.050781 L 4.304688 16.941406 L 4.304688 17.726562 C 4.304688 17.898438 4.332031 17.949219 4.480469 17.949219 L 4.523438 17.949219 L 4.523438 18.023438 L 4.511719 18.023438 C 4.429688 18.023438 4.34375 18.015625 4.257812 18.015625 C 4.171875 18.015625 4.082031 18.023438 3.992188 18.023438 L 3.984375 18.023438 L 3.984375 17.949219 L 4.019531 17.949219 C 4.148438 17.949219 4.1875 17.863281 4.1875 17.707031 L 4.1875 16.882812 C 4.1875 16.777344 4.101562 16.714844 4.019531 16.714844 L 3.984375 16.714844 L 3.984375 16.636719 L 3.992188 16.636719 C 4.066406 16.636719 4.144531 16.644531 4.21875 16.644531 C 4.277344 16.644531 4.332031 16.636719 4.398438 16.640625 L 5.261719 17.613281 L 5.261719 16.890625 C 5.261719 16.734375 5.15625 16.714844 5.101562 16.714844 L 5.046875 16.714844 L 5.046875 16.636719 L 5.058594 16.636719 C 5.148438 16.636719 5.238281 16.644531 5.332031 16.644531 C 5.410156 16.644531 5.492188 16.636719 5.574219 16.636719 L 5.582031 16.636719 L 5.582031 16.714844 L 5.542969 16.714844 C 5.464844 16.714844 5.378906 16.722656 5.378906 16.953125 L 5.378906 17.847656 C 5.378906 17.917969 5.378906 17.984375 5.390625 18.042969 L 5.390625 18.054688 Z M 5.304688 18.039062 L 5.371094 18.039062 C 5.363281 17.976562 5.359375 17.914062 5.359375 17.847656 L 5.359375 16.953125 C 5.359375 16.71875 5.460938 16.695312 5.542969 16.695312 L 5.566406 16.695312 L 5.566406 16.652344 C 5.488281 16.65625 5.410156 16.660156 5.332031 16.660156 C 5.242188 16.660156 5.15625 16.65625 5.066406 16.652344 L 5.066406 16.695312 L 5.101562 16.695312 C 5.160156 16.695312 5.28125 16.722656 5.28125 16.890625 L 5.277344 17.632812 L 5.273438 17.636719 L 5.265625 17.640625 L 4.394531 16.652344 C 4.335938 16.652344 4.277344 16.660156 4.21875 16.660156 C 4.144531 16.660156 4.070312 16.65625 4 16.652344 L 4 16.695312 L 4.019531 16.695312 C 4.109375 16.695312 4.203125 16.765625 4.203125 16.882812 L 4.203125 17.707031 C 4.203125 17.867188 4.160156 17.964844 4.019531 17.964844 L 4 17.964844 L 4 18.007812 C 4.085938 18.007812 4.171875 18 4.257812 18 C 4.339844 18 4.421875 18.007812 4.503906 18.007812 L 4.503906 17.964844 L 4.480469 17.964844 C 4.324219 17.964844 4.285156 17.898438 4.285156 17.726562 L 4.285156 16.898438 Z M 5.265625 17.628906 L 5.273438 17.625 Z M 5.261719 17.625 Z M 5.261719 17.625 "/>
<path style=" stroke:none;fill-rule:evenodd;fill:rgb(10.196078%,9.803922%,9.803922%);fill-opacity:1;" d="M 5.867188 16.742188 C 5.71875 16.742188 5.714844 16.78125 5.683594 16.921875 L 5.625 16.921875 C 5.632812 16.867188 5.644531 16.8125 5.648438 16.753906 C 5.65625 16.699219 5.660156 16.644531 5.660156 16.589844 L 5.707031 16.589844 C 5.722656 16.648438 5.773438 16.644531 5.828125 16.644531 L 6.839844 16.644531 C 6.894531 16.644531 6.941406 16.644531 6.945312 16.585938 L 6.992188 16.59375 C 6.984375 16.644531 6.976562 16.699219 6.972656 16.75 C 6.96875 16.804688 6.96875 16.859375 6.96875 16.910156 L 6.910156 16.933594 C 6.90625 16.859375 6.894531 16.742188 6.761719 16.742188 L 6.441406 16.742188 L 6.441406 17.789062 C 6.441406 17.941406 6.511719 17.957031 6.605469 17.957031 L 6.640625 17.957031 L 6.640625 18.015625 C 6.566406 18.015625 6.425781 18.007812 6.320312 18.007812 C 6.203125 18.007812 6.066406 18.015625 5.988281 18.015625 L 5.988281 17.957031 L 6.027344 17.957031 C 6.136719 17.957031 6.191406 17.949219 6.191406 17.792969 L 6.191406 16.742188 L 5.867188 16.742188 "/>
<path style=" stroke:none;fill-rule:evenodd;fill:rgb(10.196078%,9.803922%,9.803922%);fill-opacity:1;" d="M 6.640625 18.023438 C 6.566406 18.023438 6.425781 18.015625 6.320312 18.015625 C 6.203125 18.015625 6.066406 18.023438 5.988281 18.023438 L 5.980469 18.023438 L 5.980469 17.949219 L 6.027344 17.949219 C 6.136719 17.945312 6.179688 17.945312 6.179688 17.792969 L 6.179688 16.753906 L 5.867188 16.753906 L 5.867188 16.734375 L 6.199219 16.734375 L 6.199219 17.792969 C 6.199219 17.949219 6.132812 17.964844 6.027344 17.964844 L 5.996094 17.964844 L 5.996094 18.007812 C 6.074219 18.007812 6.207031 18 6.320312 18 C 6.425781 18 6.554688 18.007812 6.632812 18.007812 L 6.632812 17.964844 L 6.605469 17.964844 C 6.507812 17.964844 6.433594 17.941406 6.433594 17.789062 L 6.433594 16.734375 L 6.761719 16.734375 C 6.894531 16.734375 6.914062 16.847656 6.917969 16.921875 L 6.960938 16.90625 C 6.960938 16.855469 6.960938 16.800781 6.964844 16.75 C 6.96875 16.699219 6.976562 16.648438 6.984375 16.601562 L 6.953125 16.59375 C 6.945312 16.652344 6.890625 16.65625 6.839844 16.652344 L 5.816406 16.652344 C 5.769531 16.652344 5.71875 16.652344 5.703125 16.597656 L 5.671875 16.597656 C 5.667969 16.652344 5.664062 16.703125 5.660156 16.757812 C 5.652344 16.8125 5.644531 16.863281 5.636719 16.914062 L 5.679688 16.914062 C 5.703125 16.777344 5.722656 16.734375 5.867188 16.734375 L 5.867188 16.753906 C 5.722656 16.753906 5.726562 16.78125 5.695312 16.925781 L 5.691406 16.929688 L 5.617188 16.929688 L 5.617188 16.921875 C 5.625 16.867188 5.636719 16.8125 5.640625 16.753906 C 5.648438 16.699219 5.652344 16.644531 5.652344 16.589844 L 5.652344 16.582031 L 5.714844 16.582031 L 5.71875 16.585938 C 5.730469 16.636719 5.765625 16.636719 5.816406 16.636719 L 6.839844 16.636719 C 6.894531 16.636719 6.933594 16.636719 6.9375 16.585938 L 6.9375 16.574219 L 6.949219 16.578125 L 7.003906 16.585938 L 7 16.59375 C 6.992188 16.648438 6.984375 16.699219 6.980469 16.753906 C 6.976562 16.804688 6.976562 16.859375 6.976562 16.910156 L 6.976562 16.917969 L 6.972656 16.917969 L 6.902344 16.945312 L 6.902344 16.933594 C 6.894531 16.859375 6.886719 16.753906 6.761719 16.753906 L 6.449219 16.753906 L 6.449219 17.789062 C 6.453125 17.9375 6.511719 17.949219 6.605469 17.949219 L 6.648438 17.949219 L 6.648438 18.023438 L 6.640625 18.023438 "/>
<path style=" stroke:none;fill-rule:evenodd;fill:rgb(10.196078%,9.803922%,9.803922%);fill-opacity:1;" d="M 7.054688 17.957031 L 7.082031 17.957031 C 7.152344 17.957031 7.230469 17.949219 7.230469 17.847656 L 7.230469 16.816406 C 7.230469 16.714844 7.152344 16.703125 7.082031 16.703125 L 7.054688 16.703125 L 7.054688 16.644531 C 7.175781 16.644531 7.378906 16.652344 7.542969 16.652344 C 7.710938 16.652344 7.914062 16.644531 8.046875 16.644531 C 8.042969 16.730469 8.046875 16.859375 8.050781 16.945312 L 7.992188 16.960938 C 7.984375 16.835938 7.960938 16.730469 7.753906 16.730469 L 7.480469 16.730469 L 7.480469 17.246094 L 7.714844 17.246094 C 7.832031 17.246094 7.855469 17.179688 7.867188 17.074219 L 7.929688 17.074219 C 7.925781 17.152344 7.921875 17.226562 7.921875 17.304688 C 7.921875 17.378906 7.925781 17.453125 7.929688 17.527344 L 7.867188 17.539062 C 7.855469 17.421875 7.851562 17.34375 7.714844 17.34375 L 7.480469 17.34375 L 7.480469 17.800781 C 7.480469 17.929688 7.59375 17.929688 7.71875 17.929688 C 7.957031 17.929688 8.058594 17.914062 8.117188 17.691406 L 8.171875 17.703125 C 8.148438 17.808594 8.125 17.914062 8.105469 18.015625 C 7.980469 18.015625 7.753906 18.007812 7.578125 18.007812 C 7.402344 18.007812 7.167969 18.015625 7.054688 18.015625 L 7.054688 17.957031 "/>
<path style=" stroke:none;fill-rule:evenodd;fill:rgb(10.196078%,9.803922%,9.803922%);fill-opacity:1;" d="M 8.105469 18.023438 C 7.980469 18.023438 7.753906 18.015625 7.578125 18.015625 C 7.402344 18.015625 7.167969 18.023438 7.054688 18.023438 L 7.046875 18.023438 L 7.046875 17.949219 L 7.082031 17.949219 C 7.15625 17.949219 7.21875 17.941406 7.21875 17.84375 L 7.21875 16.816406 C 7.21875 16.722656 7.15625 16.714844 7.082031 16.714844 L 7.046875 16.714844 L 7.046875 16.636719 L 7.054688 16.636719 C 7.175781 16.636719 7.378906 16.644531 7.542969 16.644531 C 7.710938 16.644531 7.914062 16.636719 8.046875 16.636719 L 8.054688 16.636719 L 8.054688 16.644531 C 8.054688 16.675781 8.054688 16.710938 8.054688 16.746094 C 8.054688 16.816406 8.054688 16.890625 8.058594 16.945312 L 8.058594 16.953125 L 8.054688 16.953125 L 7.984375 16.972656 L 7.984375 16.960938 C 7.972656 16.835938 7.957031 16.742188 7.753906 16.742188 L 7.488281 16.742188 L 7.488281 17.238281 L 7.714844 17.238281 C 7.828125 17.238281 7.847656 17.179688 7.859375 17.074219 L 7.859375 17.066406 L 7.9375 17.066406 L 7.9375 17.074219 C 7.933594 17.152344 7.929688 17.226562 7.929688 17.304688 C 7.929688 17.378906 7.933594 17.453125 7.9375 17.527344 L 7.9375 17.535156 L 7.929688 17.535156 L 7.859375 17.550781 L 7.859375 17.539062 C 7.847656 17.421875 7.847656 17.355469 7.714844 17.351562 L 7.488281 17.351562 L 7.488281 17.800781 C 7.488281 17.921875 7.589844 17.921875 7.71875 17.921875 C 7.957031 17.921875 8.050781 17.910156 8.109375 17.6875 L 8.113281 17.679688 L 8.121094 17.683594 L 8.183594 17.699219 L 8.179688 17.707031 C 8.15625 17.808594 8.132812 17.914062 8.113281 18.019531 L 8.113281 18.023438 Z M 8.097656 18.007812 C 8.117188 17.910156 8.140625 17.808594 8.164062 17.710938 L 8.125 17.699219 C 8.066406 17.921875 7.953125 17.941406 7.71875 17.9375 C 7.597656 17.9375 7.472656 17.9375 7.472656 17.800781 L 7.472656 17.335938 L 7.714844 17.335938 C 7.851562 17.335938 7.867188 17.417969 7.875 17.53125 L 7.917969 17.519531 C 7.914062 17.449219 7.914062 17.375 7.914062 17.304688 C 7.914062 17.230469 7.914062 17.15625 7.917969 17.082031 L 7.875 17.082031 C 7.867188 17.183594 7.832031 17.257812 7.714844 17.253906 L 7.472656 17.253906 L 7.472656 16.722656 L 7.753906 16.722656 C 7.957031 16.722656 7.992188 16.828125 8 16.949219 L 8.042969 16.941406 C 8.039062 16.882812 8.035156 16.8125 8.035156 16.746094 C 8.035156 16.714844 8.039062 16.683594 8.039062 16.652344 C 7.90625 16.65625 7.707031 16.660156 7.542969 16.660156 C 7.382812 16.660156 7.183594 16.65625 7.066406 16.652344 L 7.066406 16.695312 L 7.082031 16.695312 C 7.152344 16.695312 7.238281 16.707031 7.238281 16.816406 L 7.238281 17.84375 C 7.238281 17.953125 7.152344 17.964844 7.082031 17.964844 L 7.066406 17.964844 L 7.066406 18.007812 C 7.179688 18.007812 7.40625 18 7.578125 18 C 7.75 18 7.972656 18.007812 8.097656 18.007812 Z M 8.097656 18.007812 "/>
<path style=" stroke:none;fill-rule:evenodd;fill:rgb(10.196078%,9.803922%,9.803922%);fill-opacity:1;" d="M 8.4375 16.855469 C 8.4375 16.710938 8.359375 16.703125 8.300781 16.703125 L 8.261719 16.703125 L 8.261719 16.644531 C 8.328125 16.644531 8.449219 16.652344 8.566406 16.652344 C 8.6875 16.652344 8.78125 16.644531 8.882812 16.644531 C 9.132812 16.644531 9.351562 16.710938 9.351562 16.992188 C 9.351562 17.167969 9.234375 17.277344 9.078125 17.335938 L 9.414062 17.839844 C 9.46875 17.921875 9.507812 17.945312 9.605469 17.957031 L 9.605469 18.015625 C 9.539062 18.015625 9.476562 18.007812 9.414062 18.007812 C 9.351562 18.007812 9.289062 18.015625 9.226562 18.015625 C 9.078125 17.820312 8.945312 17.605469 8.820312 17.378906 L 8.691406 17.378906 L 8.691406 17.800781 C 8.691406 17.953125 8.761719 17.957031 8.851562 17.957031 L 8.886719 17.957031 L 8.886719 18.015625 C 8.773438 18.015625 8.660156 18.007812 8.546875 18.007812 C 8.453125 18.007812 8.363281 18.015625 8.261719 18.015625 L 8.261719 17.957031 L 8.300781 17.957031 C 8.371094 17.957031 8.4375 17.925781 8.4375 17.851562 Z M 8.691406 17.308594 L 8.785156 17.308594 C 8.984375 17.308594 9.089844 17.234375 9.089844 17.003906 C 9.089844 16.828125 8.976562 16.714844 8.800781 16.714844 C 8.742188 16.714844 8.71875 16.722656 8.691406 16.722656 Z M 8.691406 17.308594 "/>
<path style=" stroke:none;fill-rule:evenodd;fill:rgb(10.196078%,9.803922%,9.803922%);fill-opacity:1;" d="M 9.605469 18.023438 C 9.539062 18.023438 9.476562 18.015625 9.414062 18.015625 C 9.351562 18.015625 9.289062 18.023438 9.222656 18.023438 C 9.070312 17.824219 8.941406 17.613281 8.8125 17.390625 L 8.699219 17.390625 L 8.699219 17.800781 C 8.699219 17.949219 8.757812 17.945312 8.851562 17.949219 L 8.894531 17.949219 L 8.894531 18.023438 L 8.886719 18.023438 C 8.773438 18.023438 8.660156 18.015625 8.546875 18.015625 C 8.453125 18.015625 8.363281 18.023438 8.261719 18.023438 L 8.253906 18.023438 L 8.253906 17.949219 L 8.300781 17.949219 C 8.371094 17.949219 8.429688 17.917969 8.429688 17.851562 L 8.429688 16.855469 C 8.429688 16.714844 8.359375 16.714844 8.300781 16.714844 L 8.253906 16.714844 L 8.253906 16.636719 L 8.261719 16.636719 C 8.328125 16.636719 8.449219 16.644531 8.566406 16.644531 C 8.683594 16.644531 8.78125 16.636719 8.882812 16.636719 C 9.132812 16.636719 9.359375 16.707031 9.359375 16.992188 C 9.359375 17.167969 9.242188 17.277344 9.089844 17.339844 L 9.421875 17.835938 C 9.476562 17.917969 9.511719 17.9375 9.605469 17.949219 L 9.613281 17.949219 L 9.613281 18.023438 Z M 8.691406 17.371094 L 8.824219 17.371094 L 8.828125 17.375 C 8.953125 17.601562 9.082031 17.8125 9.226562 18.007812 C 9.289062 18.007812 9.351562 18 9.414062 18 C 9.476562 18 9.535156 18.007812 9.597656 18.007812 L 9.597656 17.964844 C 9.503906 17.953125 9.460938 17.925781 9.40625 17.84375 L 9.066406 17.332031 L 9.074219 17.328125 C 9.230469 17.269531 9.34375 17.164062 9.34375 16.992188 C 9.34375 16.71875 9.132812 16.65625 8.882812 16.652344 C 8.78125 16.652344 8.6875 16.660156 8.566406 16.660156 C 8.453125 16.660156 8.335938 16.65625 8.273438 16.652344 L 8.273438 16.695312 L 8.300781 16.695312 C 8.359375 16.695312 8.445312 16.707031 8.445312 16.855469 L 8.445312 17.851562 C 8.445312 17.929688 8.371094 17.964844 8.300781 17.964844 L 8.273438 17.964844 L 8.273438 18.007812 C 8.367188 18.007812 8.457031 18 8.546875 18 C 8.65625 18 8.769531 18.007812 8.878906 18.007812 L 8.878906 17.964844 L 8.851562 17.964844 C 8.761719 17.964844 8.679688 17.957031 8.679688 17.800781 L 8.679688 17.371094 Z M 8.691406 17.316406 L 8.679688 17.316406 L 8.679688 16.714844 L 8.6875 16.714844 C 8.714844 16.714844 8.742188 16.707031 8.800781 16.707031 C 8.980469 16.707031 9.097656 16.824219 9.097656 17.003906 C 9.097656 17.238281 8.984375 17.316406 8.785156 17.316406 Z M 8.785156 17.300781 C 8.980469 17.300781 9.078125 17.230469 9.082031 17.003906 C 9.078125 16.832031 8.972656 16.726562 8.800781 16.726562 C 8.75 16.726562 8.722656 16.730469 8.699219 16.730469 L 8.699219 17.300781 Z M 8.785156 17.300781 "/>
<path style=" stroke:none;fill-rule:evenodd;fill:rgb(10.196078%,9.803922%,9.803922%);fill-opacity:1;" d="M 10.9375 17.628906 L 10.941406 17.625 L 10.941406 16.890625 C 10.941406 16.726562 10.832031 16.703125 10.769531 16.703125 L 10.726562 16.703125 L 10.726562 16.644531 C 10.820312 16.644531 10.910156 16.652344 11.003906 16.652344 C 11.085938 16.652344 11.164062 16.644531 11.246094 16.644531 L 11.246094 16.703125 L 11.214844 16.703125 C 11.132812 16.703125 11.039062 16.71875 11.039062 16.953125 L 11.039062 17.847656 C 11.039062 17.917969 11.042969 17.984375 11.050781 18.046875 L 10.976562 18.046875 L 9.964844 16.917969 L 9.964844 17.726562 C 9.964844 17.898438 10 17.957031 10.152344 17.957031 L 10.183594 17.957031 L 10.183594 18.015625 C 10.101562 18.015625 10.015625 18.007812 9.929688 18.007812 C 9.84375 18.007812 9.753906 18.015625 9.664062 18.015625 L 9.664062 17.957031 L 9.691406 17.957031 C 9.828125 17.957031 9.867188 17.867188 9.867188 17.707031 L 9.867188 16.882812 C 9.867188 16.769531 9.777344 16.703125 9.6875 16.703125 L 9.664062 16.703125 L 9.664062 16.644531 C 9.738281 16.644531 9.816406 16.652344 9.890625 16.652344 C 9.949219 16.652344 10.003906 16.644531 10.0625 16.644531 L 10.9375 17.628906 "/>
<path style=" stroke:none;fill-rule:evenodd;fill:rgb(10.196078%,9.803922%,9.803922%);fill-opacity:1;" d="M 11.050781 18.054688 L 10.972656 18.050781 L 9.972656 16.941406 L 9.972656 17.726562 C 9.976562 17.898438 10.003906 17.949219 10.152344 17.949219 L 10.191406 17.949219 L 10.191406 18.023438 L 10.183594 18.023438 C 10.097656 18.023438 10.015625 18.015625 9.929688 18.015625 C 9.84375 18.015625 9.753906 18.023438 9.664062 18.023438 L 9.65625 18.023438 L 9.65625 17.949219 L 9.691406 17.949219 C 9.820312 17.949219 9.859375 17.863281 9.859375 17.707031 L 9.859375 16.882812 C 9.859375 16.777344 9.773438 16.714844 9.6875 16.714844 L 9.65625 16.714844 L 9.65625 16.636719 L 9.664062 16.636719 C 9.738281 16.636719 9.816406 16.644531 9.890625 16.644531 C 9.949219 16.644531 10.003906 16.636719 10.070312 16.640625 L 10.933594 17.613281 L 10.933594 16.890625 C 10.933594 16.734375 10.828125 16.714844 10.769531 16.714844 L 10.71875 16.714844 L 10.71875 16.636719 L 10.726562 16.636719 C 10.820312 16.636719 10.910156 16.644531 11.003906 16.644531 C 11.082031 16.644531 11.164062 16.636719 11.246094 16.636719 L 11.253906 16.636719 L 11.253906 16.714844 L 11.214844 16.714844 C 11.132812 16.714844 11.050781 16.722656 11.050781 16.953125 L 11.050781 17.847656 C 11.050781 17.917969 11.050781 17.984375 11.0625 18.042969 L 11.0625 18.054688 Z M 10.976562 18.039062 L 11.042969 18.039062 C 11.035156 17.980469 11.03125 17.914062 11.03125 17.847656 L 11.03125 16.953125 C 11.03125 16.71875 11.132812 16.695312 11.214844 16.695312 L 11.234375 16.695312 L 11.234375 16.652344 C 11.160156 16.65625 11.082031 16.660156 11.003906 16.660156 C 10.914062 16.660156 10.824219 16.65625 10.738281 16.652344 L 10.738281 16.695312 L 10.769531 16.695312 C 10.832031 16.695312 10.949219 16.722656 10.949219 16.890625 L 10.949219 17.632812 L 10.945312 17.636719 L 10.9375 17.640625 L 10.0625 16.652344 C 10.007812 16.652344 9.949219 16.660156 9.890625 16.660156 C 9.816406 16.660156 9.742188 16.65625 9.671875 16.652344 L 9.671875 16.695312 L 9.6875 16.695312 C 9.78125 16.695312 9.875 16.765625 9.875 16.882812 L 9.875 17.707031 C 9.875 17.867188 9.832031 17.964844 9.691406 17.964844 L 9.671875 17.964844 L 9.671875 18.007812 C 9.757812 18.007812 9.84375 18 9.929688 18 C 10.011719 18 10.09375 18.007812 10.175781 18.007812 L 10.175781 17.964844 L 10.152344 17.964844 C 9.996094 17.964844 9.957031 17.898438 9.957031 17.726562 L 9.957031 16.898438 Z M 10.9375 17.628906 L 10.945312 17.625 Z M 10.933594 17.625 Z M 10.933594 17.625 "/>
<path style=" stroke:none;fill-rule:evenodd;fill:rgb(10.196078%,9.803922%,9.803922%);fill-opacity:1;" d="M 11.5625 17.734375 C 11.539062 17.800781 11.515625 17.855469 11.515625 17.890625 C 11.515625 17.949219 11.601562 17.957031 11.664062 17.957031 L 11.6875 17.957031 L 11.6875 18.015625 C 11.609375 18.011719 11.527344 18.007812 11.449219 18.007812 C 11.378906 18.007812 11.308594 18.011719 11.238281 18.015625 L 11.238281 17.957031 L 11.25 17.957031 C 11.324219 17.957031 11.390625 17.914062 11.417969 17.828125 L 11.734375 16.929688 C 11.757812 16.855469 11.792969 16.757812 11.804688 16.683594 C 11.867188 16.664062 11.949219 16.625 11.984375 16.601562 C 11.992188 16.597656 11.996094 16.597656 12 16.597656 C 12.007812 16.597656 12.011719 16.597656 12.015625 16.601562 C 12.019531 16.617188 12.027344 16.636719 12.03125 16.652344 L 12.394531 17.679688 C 12.417969 17.746094 12.441406 17.820312 12.464844 17.878906 C 12.488281 17.933594 12.53125 17.957031 12.597656 17.957031 L 12.609375 17.957031 L 12.609375 18.015625 C 12.519531 18.011719 12.429688 18.007812 12.335938 18.007812 C 12.242188 18.007812 12.140625 18.011719 12.042969 18.015625 L 12.042969 17.957031 L 12.0625 17.957031 C 12.109375 17.957031 12.183594 17.949219 12.183594 17.902344 C 12.183594 17.875 12.167969 17.824219 12.144531 17.757812 L 12.070312 17.53125 L 11.625 17.53125 Z M 11.847656 16.867188 L 11.84375 16.867188 L 11.660156 17.421875 L 12.027344 17.421875 Z M 11.847656 16.867188 "/>
<path style=" stroke:none;fill-rule:evenodd;fill:rgb(10.196078%,9.803922%,9.803922%);fill-opacity:1;" d="M 12.605469 18.023438 C 12.519531 18.019531 12.429688 18.015625 12.335938 18.015625 C 12.242188 18.015625 12.140625 18.019531 12.042969 18.023438 L 12.035156 18.027344 L 12.035156 17.949219 L 12.0625 17.949219 C 12.109375 17.949219 12.175781 17.9375 12.175781 17.902344 C 12.175781 17.878906 12.160156 17.824219 12.136719 17.761719 L 12.0625 17.539062 L 11.628906 17.539062 L 11.570312 17.738281 C 11.550781 17.804688 11.523438 17.855469 11.527344 17.890625 C 11.527344 17.9375 11.597656 17.949219 11.664062 17.949219 L 11.695312 17.949219 L 11.695312 18.027344 L 11.6875 18.023438 C 11.605469 18.019531 11.527344 18.015625 11.449219 18.015625 C 11.378906 18.015625 11.308594 18.019531 11.238281 18.023438 L 11.226562 18.027344 L 11.226562 17.949219 L 11.25 17.949219 C 11.320312 17.949219 11.382812 17.90625 11.410156 17.828125 L 11.726562 16.925781 C 11.75 16.851562 11.785156 16.753906 11.804688 16.675781 C 11.863281 16.65625 11.945312 16.617188 11.980469 16.59375 C 11.988281 16.589844 11.992188 16.589844 12 16.589844 C 12.003906 16.585938 12.015625 16.589844 12.023438 16.597656 C 12.027344 16.617188 12.035156 16.632812 12.039062 16.648438 L 12.402344 17.675781 C 12.425781 17.746094 12.449219 17.816406 12.472656 17.875 C 12.496094 17.929688 12.53125 17.949219 12.597656 17.949219 L 12.617188 17.949219 L 12.617188 18.027344 Z M 12.050781 18.007812 C 12.148438 18.003906 12.242188 18 12.335938 18 C 12.429688 18 12.511719 18.003906 12.597656 18.007812 L 12.597656 17.964844 C 12.527344 17.96875 12.480469 17.941406 12.457031 17.882812 C 12.433594 17.824219 12.410156 17.75 12.386719 17.679688 L 12.023438 16.652344 C 12.019531 16.636719 12.011719 16.621094 12.007812 16.605469 C 12.003906 16.605469 12.003906 16.605469 12.003906 16.605469 L 12 16.605469 C 11.996094 16.605469 11.996094 16.605469 11.988281 16.609375 C 11.953125 16.632812 11.871094 16.671875 11.8125 16.6875 C 11.800781 16.761719 11.765625 16.859375 11.742188 16.929688 L 11.425781 17.832031 C 11.398438 17.917969 11.328125 17.964844 11.25 17.964844 L 11.246094 17.964844 L 11.246094 18.007812 C 11.3125 18.003906 11.378906 18 11.449219 18 C 11.523438 18 11.601562 18.003906 11.675781 18.007812 L 11.675781 17.964844 L 11.664062 17.964844 C 11.601562 17.964844 11.511719 17.957031 11.507812 17.890625 C 11.507812 17.851562 11.53125 17.800781 11.550781 17.734375 L 11.5625 17.734375 L 11.550781 17.734375 L 11.617188 17.523438 L 12.074219 17.523438 L 12.152344 17.757812 C 12.175781 17.820312 12.195312 17.871094 12.195312 17.902344 C 12.191406 17.960938 12.109375 17.964844 12.0625 17.964844 L 12.050781 17.964844 Z M 11.648438 17.429688 L 11.835938 16.855469 L 11.847656 16.855469 L 11.847656 16.867188 L 11.84375 16.867188 L 11.847656 16.867188 L 11.847656 16.855469 L 11.851562 16.855469 L 12.039062 17.429688 Z M 11.671875 17.414062 L 12.015625 17.414062 L 11.84375 16.886719 Z M 11.839844 16.867188 L 11.84375 16.867188 Z M 11.839844 16.867188 "/>
<path style=" stroke:none;fill-rule:evenodd;fill:rgb(10.196078%,9.803922%,9.803922%);fill-opacity:1;" d="M 12.695312 16.742188 C 12.546875 16.742188 12.539062 16.78125 12.511719 16.921875 L 12.453125 16.921875 C 12.460938 16.867188 12.46875 16.8125 12.476562 16.753906 C 12.484375 16.699219 12.488281 16.644531 12.488281 16.589844 L 12.535156 16.589844 C 12.550781 16.648438 12.597656 16.644531 12.652344 16.644531 L 13.667969 16.644531 C 13.71875 16.644531 13.769531 16.644531 13.773438 16.585938 L 13.820312 16.59375 C 13.8125 16.644531 13.804688 16.699219 13.796875 16.75 C 13.792969 16.804688 13.792969 16.859375 13.792969 16.910156 L 13.734375 16.933594 C 13.730469 16.859375 13.722656 16.742188 13.589844 16.742188 L 13.265625 16.742188 L 13.265625 17.789062 C 13.265625 17.941406 13.335938 17.957031 13.429688 17.957031 L 13.46875 17.957031 L 13.46875 18.015625 C 13.390625 18.015625 13.253906 18.007812 13.148438 18.007812 C 13.03125 18.007812 12.890625 18.015625 12.816406 18.015625 L 12.816406 17.957031 L 12.851562 17.957031 C 12.960938 17.957031 13.015625 17.949219 13.015625 17.792969 L 13.015625 16.742188 L 12.695312 16.742188 "/>
<path style=" stroke:none;fill-rule:evenodd;fill:rgb(10.196078%,9.803922%,9.803922%);fill-opacity:1;" d="M 13.46875 18.023438 C 13.390625 18.023438 13.253906 18.015625 13.148438 18.015625 C 13.03125 18.015625 12.894531 18.023438 12.816406 18.023438 L 12.808594 18.023438 L 12.808594 17.949219 L 12.851562 17.949219 C 12.960938 17.945312 13.003906 17.945312 13.007812 17.792969 L 13.007812 16.753906 L 12.695312 16.753906 L 12.695312 16.734375 L 13.023438 16.734375 L 13.023438 17.792969 C 13.023438 17.949219 12.960938 17.964844 12.851562 17.964844 L 12.824219 17.964844 L 12.824219 18.007812 C 12.902344 18.007812 13.035156 18 13.148438 18 C 13.25 18 13.382812 18.007812 13.460938 18.007812 L 13.460938 17.964844 L 13.429688 17.964844 C 13.335938 17.964844 13.257812 17.941406 13.257812 17.789062 L 13.257812 16.734375 L 13.589844 16.734375 C 13.722656 16.734375 13.738281 16.847656 13.742188 16.921875 L 13.785156 16.90625 C 13.785156 16.855469 13.785156 16.800781 13.789062 16.75 C 13.792969 16.699219 13.800781 16.648438 13.808594 16.601562 L 13.78125 16.59375 C 13.769531 16.652344 13.714844 16.65625 13.667969 16.652344 L 12.644531 16.652344 C 12.597656 16.65625 12.546875 16.652344 12.527344 16.597656 L 12.496094 16.597656 C 12.496094 16.652344 12.492188 16.703125 12.484375 16.757812 C 12.480469 16.8125 12.46875 16.863281 12.460938 16.914062 L 12.503906 16.914062 C 12.53125 16.777344 12.546875 16.734375 12.695312 16.734375 L 12.695312 16.753906 C 12.546875 16.753906 12.550781 16.78125 12.519531 16.925781 L 12.519531 16.929688 L 12.441406 16.929688 L 12.445312 16.921875 C 12.453125 16.867188 12.460938 16.8125 12.46875 16.753906 C 12.476562 16.699219 12.480469 16.644531 12.480469 16.589844 L 12.480469 16.582031 L 12.542969 16.582031 L 12.542969 16.585938 C 12.554688 16.636719 12.59375 16.636719 12.644531 16.636719 L 13.667969 16.636719 C 13.71875 16.636719 13.761719 16.636719 13.761719 16.585938 L 13.765625 16.574219 L 13.773438 16.578125 L 13.828125 16.585938 L 13.828125 16.59375 C 13.820312 16.648438 13.8125 16.699219 13.804688 16.753906 C 13.800781 16.804688 13.800781 16.859375 13.800781 16.910156 L 13.800781 16.917969 L 13.796875 16.917969 L 13.726562 16.945312 L 13.726562 16.933594 C 13.722656 16.859375 13.714844 16.753906 13.589844 16.753906 L 13.277344 16.753906 L 13.277344 17.789062 C 13.277344 17.9375 13.335938 17.949219 13.429688 17.949219 L 13.476562 17.949219 L 13.476562 18.023438 L 13.46875 18.023438 "/>
<path style=" stroke:none;fill-rule:evenodd;fill:rgb(10.196078%,9.803922%,9.803922%);fill-opacity:1;" d="M 13.890625 17.957031 L 13.917969 17.957031 C 13.988281 17.957031 14.0625 17.949219 14.0625 17.847656 L 14.0625 16.816406 C 14.0625 16.714844 13.988281 16.703125 13.917969 16.703125 L 13.890625 16.703125 L 13.890625 16.644531 C 13.96875 16.644531 14.085938 16.652344 14.183594 16.652344 C 14.28125 16.652344 14.398438 16.644531 14.492188 16.644531 L 14.492188 16.703125 L 14.464844 16.703125 C 14.390625 16.703125 14.316406 16.714844 14.316406 16.816406 L 14.316406 17.847656 C 14.316406 17.949219 14.390625 17.957031 14.464844 17.957031 L 14.492188 17.957031 L 14.492188 18.015625 C 14.394531 18.015625 14.277344 18.007812 14.179688 18.007812 C 14.085938 18.007812 13.96875 18.015625 13.890625 18.015625 L 13.890625 17.957031 "/>
<path style=" stroke:none;fill-rule:evenodd;fill:rgb(10.196078%,9.803922%,9.803922%);fill-opacity:1;" d="M 14.492188 18.023438 C 14.394531 18.023438 14.277344 18.015625 14.179688 18.015625 C 14.085938 18.015625 13.96875 18.023438 13.890625 18.023438 L 13.882812 18.023438 L 13.882812 17.949219 L 13.917969 17.949219 C 13.988281 17.949219 14.054688 17.941406 14.054688 17.84375 L 14.054688 16.816406 C 14.054688 16.722656 13.988281 16.714844 13.917969 16.714844 L 13.882812 16.714844 L 13.882812 16.636719 L 13.890625 16.636719 C 13.96875 16.636719 14.085938 16.644531 14.183594 16.644531 C 14.28125 16.644531 14.398438 16.636719 14.492188 16.636719 L 14.5 16.636719 L 14.5 16.714844 L 14.464844 16.714844 C 14.390625 16.714844 14.328125 16.722656 14.328125 16.816406 L 14.328125 17.84375 C 14.328125 17.941406 14.390625 17.949219 14.464844 17.949219 L 14.5 17.949219 L 14.5 18.023438 Z M 14.480469 18.007812 L 14.480469 17.964844 L 14.464844 17.964844 C 14.394531 17.964844 14.308594 17.953125 14.308594 17.84375 L 14.308594 16.816406 C 14.308594 16.707031 14.394531 16.695312 14.464844 16.695312 L 14.480469 16.695312 L 14.480469 16.652344 C 14.390625 16.65625 14.277344 16.660156 14.183594 16.660156 C 14.089844 16.660156 13.976562 16.65625 13.898438 16.652344 L 13.898438 16.695312 L 13.917969 16.695312 C 13.988281 16.695312 14.074219 16.707031 14.074219 16.816406 L 14.074219 17.84375 C 14.074219 17.953125 13.988281 17.964844 13.917969 17.964844 L 13.898438 17.964844 L 13.898438 18.007812 C 13.976562 18.007812 14.085938 18 14.179688 18 C 14.277344 18 14.390625 18.007812 14.480469 18.007812 Z M 14.480469 18.007812 "/>
<path style=" stroke:none;fill-rule:evenodd;fill:rgb(10.196078%,9.803922%,9.803922%);fill-opacity:1;" d="M 15.273438 16.617188 C 15.691406 16.617188 16.027344 16.875 16.027344 17.292969 C 16.027344 17.746094 15.703125 18.046875 15.285156 18.046875 C 14.867188 18.046875 14.550781 17.761719 14.550781 17.339844 C 14.550781 16.933594 14.867188 16.617188 15.273438 16.617188 Z M 15.304688 17.960938 C 15.683594 17.960938 15.75 17.625 15.75 17.335938 C 15.75 17.050781 15.597656 16.703125 15.269531 16.703125 C 14.925781 16.703125 14.824219 17.007812 14.824219 17.273438 C 14.824219 17.625 14.984375 17.960938 15.304688 17.960938 Z M 15.304688 17.960938 "/>
<path style=" stroke:none;fill-rule:evenodd;fill:rgb(10.196078%,9.803922%,9.803922%);fill-opacity:1;" d="M 14.539062 17.339844 C 14.542969 16.929688 14.859375 16.609375 15.273438 16.609375 L 15.273438 16.625 C 14.871094 16.625 14.558594 16.9375 14.558594 17.339844 C 14.558594 17.757812 14.871094 18.039062 15.285156 18.039062 C 15.699219 18.039062 16.019531 17.742188 16.019531 17.292969 C 16.019531 16.878906 15.6875 16.625 15.273438 16.625 L 15.273438 16.609375 C 15.695312 16.609375 16.035156 16.871094 16.035156 17.292969 C 16.035156 17.75 15.707031 18.054688 15.285156 18.054688 C 14.863281 18.054688 14.542969 17.769531 14.539062 17.339844 Z M 14.816406 17.273438 C 14.816406 17.007812 14.917969 16.695312 15.269531 16.695312 C 15.605469 16.695312 15.757812 17.046875 15.761719 17.335938 C 15.757812 17.625 15.691406 17.96875 15.304688 17.96875 L 15.304688 17.949219 C 15.675781 17.949219 15.742188 17.625 15.742188 17.335938 C 15.742188 17.050781 15.589844 16.710938 15.269531 16.710938 C 14.933594 16.710938 14.832031 17.011719 14.832031 17.273438 C 14.832031 17.621094 14.992188 17.949219 15.304688 17.949219 L 15.304688 17.96875 C 14.976562 17.96875 14.816406 17.625 14.816406 17.273438 Z M 14.816406 17.273438 "/>
<path style=" stroke:none;fill-rule:evenodd;fill:rgb(10.196078%,9.803922%,9.803922%);fill-opacity:1;" d="M 17.351562 17.628906 L 17.355469 17.625 L 17.355469 16.890625 C 17.355469 16.726562 17.242188 16.703125 17.183594 16.703125 L 17.140625 16.703125 L 17.140625 16.644531 C 17.230469 16.644531 17.324219 16.652344 17.414062 16.652344 C 17.496094 16.652344 17.574219 16.644531 17.65625 16.644531 L 17.65625 16.703125 L 17.628906 16.703125 C 17.542969 16.703125 17.453125 16.71875 17.453125 16.953125 L 17.453125 17.847656 C 17.453125 17.917969 17.453125 17.984375 17.464844 18.046875 L 17.390625 18.046875 L 16.378906 16.917969 L 16.378906 17.726562 C 16.378906 17.898438 16.410156 17.957031 16.5625 17.957031 L 16.597656 17.957031 L 16.597656 18.015625 C 16.511719 18.015625 16.425781 18.007812 16.34375 18.007812 C 16.253906 18.007812 16.164062 18.015625 16.074219 18.015625 L 16.074219 17.957031 L 16.101562 17.957031 C 16.238281 17.957031 16.28125 17.867188 16.28125 17.707031 L 16.28125 16.882812 C 16.28125 16.769531 16.191406 16.703125 16.101562 16.703125 L 16.074219 16.703125 L 16.074219 16.644531 C 16.148438 16.644531 16.226562 16.652344 16.300781 16.652344 C 16.359375 16.652344 16.417969 16.644531 16.476562 16.644531 L 17.351562 17.628906 "/>
<path style=" stroke:none;fill-rule:evenodd;fill:rgb(10.196078%,9.803922%,9.803922%);fill-opacity:1;" d="M 17.464844 18.054688 L 17.382812 18.050781 L 16.386719 16.941406 L 16.386719 17.726562 C 16.386719 17.898438 16.414062 17.945312 16.5625 17.949219 L 16.605469 17.949219 L 16.605469 18.023438 L 16.597656 18.023438 C 16.511719 18.023438 16.425781 18.015625 16.34375 18.015625 C 16.253906 18.015625 16.164062 18.023438 16.074219 18.023438 L 16.066406 18.023438 L 16.066406 17.949219 L 16.101562 17.949219 C 16.230469 17.949219 16.269531 17.863281 16.269531 17.707031 L 16.269531 16.882812 C 16.269531 16.777344 16.183594 16.714844 16.101562 16.714844 L 16.066406 16.714844 L 16.066406 16.636719 L 16.074219 16.636719 C 16.148438 16.636719 16.226562 16.644531 16.300781 16.644531 C 16.359375 16.644531 16.414062 16.636719 16.480469 16.640625 L 17.34375 17.613281 L 17.34375 16.890625 C 17.34375 16.734375 17.238281 16.714844 17.183594 16.714844 L 17.132812 16.714844 L 17.132812 16.636719 L 17.140625 16.636719 C 17.230469 16.636719 17.324219 16.644531 17.414062 16.644531 C 17.496094 16.644531 17.574219 16.636719 17.65625 16.636719 L 17.664062 16.636719 L 17.664062 16.714844 L 17.625 16.714844 C 17.546875 16.714844 17.460938 16.722656 17.460938 16.953125 L 17.460938 17.847656 C 17.460938 17.917969 17.460938 17.984375 17.472656 18.042969 L 17.472656 18.054688 Z M 17.390625 18.039062 L 17.453125 18.039062 C 17.445312 17.976562 17.445312 17.914062 17.445312 17.847656 L 17.445312 16.953125 C 17.445312 16.71875 17.542969 16.695312 17.625 16.695312 L 17.648438 16.695312 L 17.648438 16.652344 C 17.570312 16.65625 17.492188 16.660156 17.414062 16.660156 C 17.324219 16.660156 17.238281 16.65625 17.148438 16.652344 L 17.148438 16.695312 L 17.183594 16.695312 C 17.242188 16.695312 17.363281 16.722656 17.363281 16.890625 L 17.359375 17.632812 L 17.351562 17.640625 L 16.476562 16.652344 C 16.417969 16.652344 16.359375 16.660156 16.300781 16.660156 C 16.230469 16.660156 16.15625 16.65625 16.082031 16.652344 L 16.082031 16.695312 L 16.101562 16.695312 C 16.191406 16.695312 16.289062 16.765625 16.289062 16.882812 L 16.289062 17.707031 C 16.289062 17.867188 16.242188 17.964844 16.101562 17.964844 L 16.082031 17.964844 L 16.082031 18.007812 C 16.167969 18.007812 16.257812 18 16.34375 18 C 16.425781 18 16.503906 18.007812 16.585938 18.007812 L 16.585938 17.964844 L 16.5625 17.964844 C 16.40625 17.964844 16.367188 17.898438 16.367188 17.726562 L 16.367188 16.898438 Z M 17.351562 17.628906 L 17.355469 17.625 Z M 17.34375 17.625 Z M 17.34375 17.625 "/>
<path style=" stroke:none;fill-rule:evenodd;fill:rgb(10.196078%,9.803922%,9.803922%);fill-opacity:1;" d="M 17.972656 17.734375 C 17.953125 17.800781 17.929688 17.855469 17.929688 17.890625 C 17.929688 17.949219 18.011719 17.957031 18.078125 17.957031 L 18.097656 17.957031 L 18.097656 18.015625 C 18.019531 18.011719 17.9375 18.007812 17.859375 18.007812 C 17.789062 18.007812 17.71875 18.011719 17.648438 18.015625 L 17.648438 17.957031 L 17.660156 17.957031 C 17.738281 17.957031 17.800781 17.914062 17.832031 17.828125 L 18.144531 16.929688 C 18.171875 16.855469 18.207031 16.757812 18.21875 16.683594 C 18.28125 16.664062 18.359375 16.625 18.398438 16.601562 C 18.402344 16.597656 18.40625 16.597656 18.414062 16.597656 C 18.417969 16.597656 18.421875 16.597656 18.425781 16.601562 C 18.433594 16.617188 18.4375 16.636719 18.445312 16.652344 L 18.804688 17.679688 C 18.828125 17.746094 18.851562 17.820312 18.878906 17.878906 C 18.902344 17.933594 18.941406 17.957031 19.007812 17.957031 L 19.019531 17.957031 L 19.019531 18.015625 C 18.929688 18.011719 18.84375 18.007812 18.75 18.007812 C 18.652344 18.007812 18.554688 18.011719 18.453125 18.015625 L 18.453125 17.957031 L 18.476562 17.957031 C 18.519531 17.957031 18.597656 17.949219 18.597656 17.902344 C 18.597656 17.875 18.578125 17.824219 18.558594 17.757812 L 18.480469 17.53125 L 18.035156 17.53125 Z M 18.257812 16.867188 L 18.253906 16.867188 L 18.070312 17.421875 L 18.441406 17.421875 Z M 18.257812 16.867188 "/>
<path style=" stroke:none;fill-rule:evenodd;fill:rgb(10.196078%,9.803922%,9.803922%);fill-opacity:1;" d="M 19.019531 18.023438 C 18.929688 18.023438 18.84375 18.015625 18.75 18.015625 C 18.652344 18.015625 18.554688 18.023438 18.453125 18.023438 L 18.445312 18.027344 L 18.445312 17.949219 L 18.476562 17.949219 C 18.519531 17.949219 18.589844 17.9375 18.589844 17.902344 C 18.589844 17.878906 18.570312 17.824219 18.550781 17.761719 L 18.472656 17.539062 L 18.039062 17.539062 L 17.980469 17.738281 C 17.960938 17.804688 17.9375 17.855469 17.9375 17.890625 C 17.9375 17.9375 18.011719 17.949219 18.074219 17.949219 L 18.105469 17.949219 L 18.105469 18.027344 L 18.097656 18.023438 C 18.019531 18.023438 17.9375 18.015625 17.859375 18.015625 C 17.789062 18.015625 17.71875 18.023438 17.648438 18.023438 L 17.640625 18.027344 L 17.640625 17.949219 L 17.660156 17.949219 C 17.734375 17.949219 17.792969 17.90625 17.824219 17.828125 L 18.136719 16.925781 C 18.164062 16.851562 18.199219 16.753906 18.214844 16.675781 C 18.277344 16.65625 18.355469 16.617188 18.394531 16.59375 C 18.398438 16.589844 18.402344 16.589844 18.414062 16.589844 C 18.417969 16.585938 18.425781 16.589844 18.433594 16.601562 C 18.441406 16.613281 18.445312 16.632812 18.453125 16.648438 L 18.8125 17.675781 C 18.835938 17.746094 18.859375 17.816406 18.886719 17.875 C 18.910156 17.929688 18.945312 17.949219 19.007812 17.949219 L 19.027344 17.949219 L 19.027344 18.027344 Z M 18.460938 18.007812 C 18.558594 18.003906 18.65625 18 18.75 18 C 18.839844 18 18.925781 18.003906 19.011719 18.007812 L 19.011719 17.964844 L 19.007812 17.964844 C 18.941406 17.964844 18.894531 17.941406 18.871094 17.882812 C 18.84375 17.824219 18.820312 17.75 18.796875 17.683594 L 18.433594 16.652344 C 18.429688 16.636719 18.421875 16.621094 18.417969 16.605469 L 18.414062 16.605469 C 18.40625 16.605469 18.40625 16.605469 18.402344 16.609375 C 18.363281 16.632812 18.285156 16.671875 18.226562 16.6875 C 18.214844 16.761719 18.179688 16.859375 18.152344 16.929688 L 17.839844 17.832031 C 17.808594 17.917969 17.738281 17.964844 17.660156 17.964844 L 17.65625 17.964844 L 17.65625 18.007812 C 17.722656 18.003906 17.792969 18 17.859375 18 C 17.9375 18 18.015625 18.003906 18.089844 18.007812 L 18.089844 17.964844 L 18.074219 17.964844 C 18.011719 17.964844 17.921875 17.957031 17.921875 17.890625 C 17.921875 17.851562 17.945312 17.800781 17.964844 17.734375 L 17.972656 17.734375 L 17.964844 17.734375 L 18.027344 17.523438 L 18.488281 17.523438 L 18.566406 17.757812 C 18.585938 17.820312 18.605469 17.871094 18.605469 17.902344 C 18.601562 17.960938 18.519531 17.964844 18.476562 17.964844 L 18.460938 17.964844 Z M 18.058594 17.429688 L 18.25 16.855469 L 18.257812 16.855469 L 18.257812 16.867188 L 18.257812 16.855469 L 18.265625 16.855469 L 18.449219 17.429688 Z M 18.085938 17.414062 L 18.429688 17.414062 L 18.257812 16.886719 Z M 18.25 16.867188 L 18.253906 16.867188 Z M 18.25 16.867188 "/>
<path style=" stroke:none;fill-rule:evenodd;fill:rgb(10.196078%,9.803922%,9.803922%);fill-opacity:1;" d="M 19.515625 17.824219 C 19.515625 17.902344 19.570312 17.925781 19.632812 17.933594 C 19.710938 17.941406 19.800781 17.941406 19.890625 17.929688 C 19.972656 17.921875 20.042969 17.875 20.078125 17.824219 C 20.109375 17.78125 20.128906 17.726562 20.140625 17.683594 L 20.199219 17.683594 C 20.175781 17.792969 20.148438 17.90625 20.125 18.015625 C 19.953125 18.015625 19.777344 18.007812 19.605469 18.007812 C 19.433594 18.007812 19.261719 18.015625 19.085938 18.015625 L 19.085938 17.957031 L 19.113281 17.957031 C 19.1875 17.957031 19.261719 17.949219 19.261719 17.828125 L 19.261719 16.816406 C 19.261719 16.714844 19.1875 16.703125 19.113281 16.703125 L 19.085938 16.703125 L 19.085938 16.644531 C 19.191406 16.644531 19.292969 16.652344 19.398438 16.652344 C 19.5 16.652344 19.597656 16.644531 19.695312 16.644531 L 19.695312 16.703125 L 19.648438 16.703125 C 19.574219 16.703125 19.515625 16.707031 19.515625 16.8125 L 19.515625 17.824219 "/>
<path style=" stroke:none;fill-rule:evenodd;fill:rgb(10.196078%,9.803922%,9.803922%);fill-opacity:1;" d="M 20.125 18.023438 C 19.953125 18.023438 19.777344 18.015625 19.605469 18.015625 C 19.433594 18.015625 19.261719 18.023438 19.085938 18.023438 L 19.078125 18.023438 L 19.078125 17.949219 L 19.113281 17.949219 C 19.1875 17.949219 19.253906 17.941406 19.253906 17.824219 L 19.253906 16.816406 C 19.253906 16.722656 19.1875 16.714844 19.113281 16.714844 L 19.078125 16.714844 L 19.078125 16.636719 L 19.085938 16.636719 C 19.191406 16.636719 19.292969 16.644531 19.398438 16.644531 C 19.496094 16.644531 19.59375 16.636719 19.695312 16.636719 L 19.703125 16.636719 L 19.703125 16.714844 L 19.648438 16.714844 C 19.570312 16.714844 19.523438 16.710938 19.523438 16.8125 L 19.523438 17.824219 C 19.523438 17.898438 19.570312 17.917969 19.632812 17.925781 C 19.667969 17.929688 19.703125 17.929688 19.742188 17.929688 C 19.789062 17.929688 19.839844 17.925781 19.890625 17.921875 C 19.96875 17.914062 20.039062 17.867188 20.074219 17.820312 C 20.101562 17.777344 20.121094 17.722656 20.132812 17.679688 L 20.132812 17.675781 L 20.207031 17.675781 L 20.207031 17.683594 C 20.183594 17.796875 20.15625 17.90625 20.132812 18.019531 L 20.132812 18.023438 Z M 20.117188 18.007812 C 20.140625 17.902344 20.164062 17.796875 20.1875 17.691406 L 20.148438 17.691406 C 20.132812 17.734375 20.117188 17.785156 20.085938 17.828125 C 20.050781 17.878906 19.976562 17.929688 19.890625 17.9375 C 19.839844 17.945312 19.789062 17.945312 19.742188 17.945312 C 19.703125 17.945312 19.667969 17.945312 19.628906 17.941406 C 19.566406 17.933594 19.503906 17.90625 19.503906 17.824219 L 19.503906 16.8125 C 19.503906 16.703125 19.574219 16.695312 19.648438 16.695312 L 19.6875 16.695312 L 19.6875 16.652344 C 19.589844 16.65625 19.496094 16.660156 19.398438 16.660156 C 19.296875 16.660156 19.195312 16.65625 19.097656 16.652344 L 19.097656 16.695312 L 19.113281 16.695312 C 19.183594 16.695312 19.269531 16.707031 19.269531 16.816406 L 19.269531 17.824219 C 19.269531 17.953125 19.183594 17.964844 19.113281 17.964844 L 19.097656 17.964844 L 19.097656 18.007812 C 19.265625 18.007812 19.4375 18 19.605469 18 C 19.777344 18 19.949219 18.007812 20.117188 18.007812 Z M 20.117188 18.007812 "/>
<path style=" stroke:none;fill-rule:evenodd;fill:rgb(100%,100%,99.607843%);fill-opacity:1;" d="M 7.90625 9.710938 C 7.90625 7.875 9.394531 6.386719 11.230469 6.386719 C 13.070312 6.386719 14.558594 7.875 14.558594 9.710938 C 14.558594 11.550781 13.070312 13.039062 11.230469 13.039062 C 9.394531 13.039062 7.90625 11.550781 7.90625 9.710938 "/>
<path style=" stroke:none;fill-rule:evenodd;fill:rgb(0%,41.176471%,66.666667%);fill-opacity:1;" d="M 13.242188 9.644531 C 13.242188 8.792969 12.710938 8.066406 11.960938 7.78125 L 11.960938 11.511719 C 12.710938 11.222656 13.242188 10.5 13.242188 9.644531 Z M 10.527344 11.511719 L 10.527344 7.78125 C 9.777344 8.070312 9.246094 8.792969 9.246094 9.644531 C 9.246094 10.496094 9.777344 11.222656 10.527344 11.511719 Z M 11.246094 6.492188 C 9.503906 6.492188 8.089844 7.902344 8.089844 9.644531 C 8.089844 11.386719 9.503906 12.800781 11.246094 12.800781 C 12.988281 12.800781 14.398438 11.386719 14.398438 9.644531 C 14.398438 7.902344 12.988281 6.492188 11.246094 6.492188 Z M 11.238281 13.097656 C 9.332031 13.105469 7.761719 11.5625 7.761719 9.683594 C 7.761719 7.628906 9.332031 6.207031 11.238281 6.207031 L 12.128906 6.207031 C 14.015625 6.207031 15.734375 7.628906 15.734375 9.683594 C 15.734375 11.5625 14.015625 13.097656 12.128906 13.097656 Z M 11.238281 13.097656 "/>
<path style=" stroke:none;fill-rule:evenodd;fill:rgb(10.196078%,9.803922%,9.803922%);fill-opacity:1;" d="M 3.320312 17.957031 L 3.347656 17.957031 C 3.417969 17.957031 3.492188 17.949219 3.492188 17.847656 L 3.492188 16.816406 C 3.492188 16.714844 3.417969 16.703125 3.347656 16.703125 L 3.320312 16.703125 L 3.320312 16.644531 C 3.394531 16.644531 3.511719 16.652344 3.609375 16.652344 C 3.707031 16.652344 3.824219 16.644531 3.917969 16.644531 L 3.917969 16.703125 L 3.890625 16.703125 C 3.820312 16.703125 3.746094 16.714844 3.746094 16.816406 L 3.746094 17.847656 C 3.746094 17.949219 3.820312 17.957031 3.890625 17.957031 L 3.917969 17.957031 L 3.917969 18.015625 C 3.824219 18.015625 3.707031 18.007812 3.609375 18.007812 C 3.511719 18.007812 3.394531 18.015625 3.320312 18.015625 L 3.320312 17.957031 "/>
<path style=" stroke:none;fill-rule:evenodd;fill:rgb(10.196078%,9.803922%,9.803922%);fill-opacity:1;" d="M 3.917969 18.023438 C 3.824219 18.023438 3.707031 18.015625 3.609375 18.015625 C 3.511719 18.015625 3.394531 18.023438 3.320312 18.023438 L 3.308594 18.023438 L 3.308594 17.949219 L 3.347656 17.949219 C 3.417969 17.949219 3.484375 17.941406 3.484375 17.84375 L 3.484375 16.816406 C 3.484375 16.71875 3.417969 16.714844 3.347656 16.714844 L 3.308594 16.714844 L 3.308594 16.636719 L 3.320312 16.636719 C 3.394531 16.636719 3.515625 16.644531 3.609375 16.644531 C 3.707031 16.644531 3.824219 16.636719 3.917969 16.636719 L 3.925781 16.636719 L 3.925781 16.714844 L 3.890625 16.714844 C 3.820312 16.714844 3.753906 16.71875 3.753906 16.816406 L 3.753906 17.84375 C 3.753906 17.941406 3.820312 17.949219 3.890625 17.949219 L 3.925781 17.949219 L 3.925781 18.023438 Z M 3.910156 18.007812 L 3.910156 17.964844 L 3.890625 17.964844 C 3.820312 17.964844 3.738281 17.953125 3.738281 17.84375 L 3.738281 16.816406 C 3.738281 16.707031 3.820312 16.695312 3.890625 16.695312 L 3.910156 16.695312 L 3.910156 16.652344 C 3.820312 16.652344 3.703125 16.660156 3.609375 16.660156 C 3.515625 16.660156 3.402344 16.65625 3.328125 16.652344 L 3.328125 16.695312 L 3.347656 16.695312 C 3.417969 16.695312 3.5 16.707031 3.5 16.816406 L 3.5 17.84375 C 3.5 17.953125 3.417969 17.964844 3.347656 17.964844 L 3.328125 17.964844 L 3.328125 18.007812 C 3.402344 18.007812 3.515625 18 3.609375 18 C 3.703125 18 3.816406 18.007812 3.910156 18.007812 Z M 3.910156 18.007812 "/>
<path style=" stroke:none;fill-rule:evenodd;fill:rgb(10.196078%,9.803922%,9.803922%);fill-opacity:1;" d="M 20.171875 16.589844 C 20.292969 16.589844 20.378906 16.679688 20.378906 16.796875 C 20.378906 16.914062 20.292969 17.003906 20.171875 17.003906 C 20.054688 17.003906 19.964844 16.914062 19.964844 16.796875 C 19.964844 16.679688 20.054688 16.589844 20.171875 16.589844 Z M 20.171875 16.964844 C 20.265625 16.964844 20.335938 16.886719 20.335938 16.796875 C 20.335938 16.707031 20.265625 16.628906 20.171875 16.628906 C 20.082031 16.628906 20.007812 16.707031 20.007812 16.796875 C 20.007812 16.886719 20.082031 16.964844 20.171875 16.964844 Z M 20.070312 16.90625 L 20.070312 16.894531 C 20.097656 16.894531 20.101562 16.894531 20.101562 16.878906 L 20.101562 16.722656 C 20.101562 16.703125 20.097656 16.695312 20.070312 16.695312 L 20.070312 16.6875 L 20.175781 16.6875 C 20.214844 16.6875 20.246094 16.703125 20.246094 16.742188 C 20.246094 16.773438 20.226562 16.792969 20.199219 16.804688 L 20.230469 16.851562 C 20.25 16.871094 20.265625 16.894531 20.277344 16.898438 L 20.277344 16.90625 L 20.238281 16.90625 C 20.21875 16.90625 20.199219 16.867188 20.164062 16.8125 L 20.140625 16.8125 L 20.140625 16.878906 C 20.140625 16.894531 20.144531 16.894531 20.171875 16.894531 L 20.171875 16.90625 Z M 20.140625 16.796875 L 20.164062 16.796875 C 20.191406 16.796875 20.203125 16.777344 20.203125 16.746094 C 20.203125 16.710938 20.183594 16.699219 20.164062 16.699219 L 20.140625 16.699219 Z M 20.140625 16.796875 "/>
</g>
</svg>
