<?xml version="1.0" encoding="UTF-8"?>
<svg width="164px" height="114px" viewBox="0 0 164 114" version="1.1" xmlns="http://www.w3.org/2000/svg" xmlns:xlink="http://www.w3.org/1999/xlink">
    <!-- Generator: Sketch 48.2 (47327) - http://www.bohemiancoding.com/sketch -->
    <title>Group 8</title>
    <desc>Created with Sketch.</desc>
    <g id="Page-1" stroke="none" stroke-width="1" fill="none" fill-rule="evenodd">
        <g id="SVG" transform="translate(-1.000000, -2549.000000)" fill-rule="nonzero">
            <g id="Group-8" transform="translate(1.000000, 2549.000000)">
                <path d="M88.5204819,66.0208696 C106.40241,66.12 122.703614,51.3495652 122.703614,33.506087 C122.703614,13.9773913 106.40241,0.396521739 88.5204819,0.396521739 L73.1084337,0.396521739 C55.0289157,0.396521739 40.1108434,13.8782609 40.1108434,33.506087 C40.1108434,51.4486957 55.0289157,66.12 73.1084337,66.0208696 L88.5204819,66.0208696 Z" id="Shape" fill="#0069AA"></path>
                <path d="M73.2072289,3.17217391 C56.7084337,3.17217391 43.2722892,16.653913 43.2722892,33.2086957 C43.2722892,49.7634783 56.7084337,63.2452174 73.2072289,63.2452174 C89.7060241,63.2452174 103.142169,49.7634783 103.142169,33.2086957 C103.142169,16.5547826 89.7060241,3.17217391 73.2072289,3.17217391 M54.2385542,33.2086957 C54.2385542,25.08 59.2771084,18.1408696 66.3903614,15.4643478 L66.3903614,50.9530435 C59.2771084,48.1773913 54.2385542,41.2382609 54.2385542,33.2086957 M80.0240964,50.9530435 L80.0240964,15.3652174 C87.1373494,18.1408696 92.1759036,24.9808696 92.1759036,33.1095652 C92.1759036,41.2382609 87.1373494,48.1773913 80.0240964,50.9530435" id="Shape" fill="#FFFFFF"></path>
                <path d="M3.95180723,72.4643478 C3.95180723,69.3913043 2.37108434,69.5895652 0.790361446,69.4904348 L0.790361446,68.5982609 C2.17349398,68.6973913 3.45783133,68.6973913 4.84096386,68.6973913 C6.32289157,68.6973913 8.2,68.5982609 10.7686747,68.5982609 C19.660241,68.5982609 24.5012048,74.546087 24.5012048,80.6921739 C24.5012048,84.0626087 22.5253012,92.6869565 10.373494,92.6869565 C8.59518072,92.6869565 7.01445783,92.5878261 5.43373494,92.5878261 C3.85301205,92.5878261 2.37108434,92.5878261 0.790361446,92.6869565 L0.790361446,91.7947826 C2.86506024,91.5965217 3.85301205,91.4973913 3.95180723,89.2173913 L3.95180723,72.4643478 Z M7.31084337,88.6226087 C7.31084337,91.2991304 9.18795181,91.5965217 10.8674699,91.5965217 C18.2771084,91.5965217 20.746988,85.946087 20.746988,80.7913043 C20.746988,74.3478261 16.5975904,69.6886957 9.97831325,69.6886957 C8.59518072,69.6886957 7.90361446,69.7878261 7.31084337,69.7878261 L7.31084337,88.6226087 Z" id="Shape" fill="#000000"></path>
                <path d="M25.686747,91.7947826 L26.3783133,91.7947826 C27.3662651,91.7947826 28.0578313,91.7947826 28.0578313,90.6052174 L28.0578313,81.2869565 C28.0578313,79.8 27.5638554,79.6017391 26.2795181,78.9078261 L26.2795181,78.3130435 C27.860241,77.8173913 29.8361446,77.2226087 29.9349398,77.0243478 C30.1325301,76.9252174 30.4289157,76.826087 30.5277108,76.826087 C30.7253012,76.826087 30.7253012,77.0243478 30.7253012,77.3217391 L30.7253012,90.6052174 C30.7253012,91.7947826 31.5156627,91.7947826 32.4048193,91.7947826 L32.9975904,91.7947826 L32.9975904,92.6869565 C31.8120482,92.6869565 30.626506,92.5878261 29.3421687,92.5878261 C28.0578313,92.5878261 26.8722892,92.5878261 25.5879518,92.6869565 L25.5879518,91.7947826 L25.686747,91.7947826 Z M29.4409639,71.5721739 C28.5518072,71.5721739 27.7614458,70.7791304 27.7614458,69.8869565 C27.7614458,68.9947826 28.5518072,68.2017391 29.4409639,68.2017391 C30.3301205,68.2017391 31.1204819,68.8956522 31.1204819,69.8869565 C31.1204819,70.7791304 30.3301205,71.5721739 29.4409639,71.5721739 Z" id="Shape" fill="#000000"></path>
                <path d="M36.3566265,81.4852174 C36.3566265,80.1965217 35.9614458,79.8991304 34.3807229,79.2052174 L34.3807229,78.5113043 C35.8626506,78.0156522 37.2457831,77.6191304 38.9253012,76.826087 C39.0240964,76.826087 39.1228916,76.9252174 39.1228916,77.1234783 L39.1228916,79.4034783 C41.0987952,78.0156522 42.7783133,76.826087 45.0506024,76.826087 C48.0144578,76.826087 49.0024096,79.0069565 49.0024096,81.6834783 L49.0024096,90.6052174 C49.0024096,91.7947826 49.7927711,91.7947826 50.6819277,91.7947826 L51.2746988,91.7947826 L51.2746988,92.6869565 C50.0891566,92.6869565 48.9036145,92.5878261 47.6192771,92.5878261 C46.3349398,92.5878261 45.1493976,92.5878261 43.8650602,92.6869565 L43.8650602,91.7947826 L44.4578313,91.7947826 C45.4457831,91.7947826 46.1373494,91.7947826 46.1373494,90.6052174 L46.1373494,81.6834783 C46.1373494,79.7008696 44.9518072,78.7095652 42.9759036,78.7095652 C41.8891566,78.7095652 40.1108434,79.6017391 39.0240964,80.3947826 L39.0240964,90.6052174 C39.0240964,91.7947826 39.8144578,91.7947826 40.7036145,91.7947826 L41.2963855,91.7947826 L41.2963855,92.6869565 C40.1108434,92.6869565 38.9253012,92.5878261 37.6409639,92.5878261 C36.4554217,92.5878261 35.1710843,92.5878261 33.886747,92.6869565 L33.886747,91.7947826 L34.4795181,91.7947826 C35.4674699,91.7947826 36.1590361,91.7947826 36.1590361,90.6052174 L36.1590361,81.4852174 L36.3566265,81.4852174 Z" id="Shape" fill="#000000"></path>
                <path d="M53.9421687,83.1704348 C53.8433735,83.4678261 53.8433735,83.9634783 53.9421687,85.1530435 C54.139759,88.4243478 56.2144578,91.1008696 58.9807229,91.1008696 C60.8578313,91.1008696 62.339759,90.1095652 63.6240964,88.8208696 L64.1180723,89.3165217 C62.5373494,91.3982609 60.5614458,93.1826087 57.7951807,93.1826087 C52.3614458,93.1826087 51.1759036,87.8295652 51.1759036,85.6486957 C51.1759036,78.9078261 55.7204819,76.9252174 58.0915663,76.9252174 C60.8578313,76.9252174 63.9204819,78.7095652 63.9204819,82.3773913 C63.9204819,82.5756522 63.9204819,82.773913 63.9204819,82.9721739 L63.6240964,83.1704348 L53.9421687,83.1704348 Z M60.0674699,82.08 C60.9566265,82.08 61.0554217,81.5843478 61.0554217,81.1878261 C61.0554217,79.4034783 59.9686747,78.0156522 58.0915663,78.0156522 C56.0168675,78.0156522 54.5349398,79.6017391 54.139759,82.08 L60.0674699,82.08 Z" id="Shape" fill="#000000"></path>
                <path d="M64.8096386,91.7947826 L65.6987952,91.7947826 C66.686747,91.7947826 67.3783133,91.7947826 67.3783133,90.6052174 L67.3783133,80.8904348 C67.3783133,79.8 66.0939759,79.6017391 65.6,79.3043478 L65.6,78.8086957 C68.0698795,77.7182609 69.453012,76.826087 69.8481928,76.826087 C70.0457831,76.826087 70.1445783,76.9252174 70.1445783,77.3217391 L70.1445783,80.3947826 L70.2433735,80.3947826 C71.1325301,79.0069565 72.5156627,76.826087 74.6891566,76.826087 C75.5783133,76.826087 76.6650602,77.4208696 76.6650602,78.6104348 C76.6650602,79.5026087 75.973494,80.3947826 75.0843373,80.3947826 C73.9975904,80.3947826 73.9975904,79.6017391 72.8120482,79.6017391 C72.2192771,79.6017391 70.3421687,80.3947826 70.3421687,82.4765217 L70.3421687,90.6052174 C70.3421687,91.7947826 71.0337349,91.7947826 72.0216867,91.7947826 L73.8987952,91.7947826 L73.8987952,92.6869565 C72.0216867,92.6869565 70.539759,92.5878261 69.0578313,92.5878261 C67.6746988,92.5878261 66.1927711,92.5878261 65.0072289,92.6869565 L65.0072289,91.7947826 L64.8096386,91.7947826 Z" id="Shape" fill="#000000"></path>
                <path d="M78.0481928,87.9286957 C78.5421687,90.2086957 79.826506,92.0921739 82.3951807,92.0921739 C84.4698795,92.0921739 85.1614458,90.8034783 85.1614458,89.613913 C85.1614458,85.5495652 77.653012,86.8382609 77.653012,81.2869565 C77.653012,79.3043478 79.2337349,76.826087 82.9879518,76.826087 C84.0746988,76.826087 85.5566265,77.1234783 86.939759,77.8173913 L87.1373494,81.2869565 L86.346988,81.2869565 C86.0506024,79.106087 84.7662651,77.9165217 82.5927711,77.9165217 C81.2096386,77.9165217 79.9253012,78.7095652 79.9253012,80.1965217 C79.9253012,84.2608696 87.9277108,82.9721739 87.9277108,88.4243478 C87.9277108,90.7043478 86.1493976,93.0834783 82,93.0834783 C80.6168675,93.0834783 79.0361446,92.5878261 77.8506024,91.893913 L77.4554217,87.9286957 L78.0481928,87.9286957 Z" id="Shape" fill="#000000"></path>
                <path d="M118.949398,74.8434783 L118.060241,74.8434783 C117.368675,70.7791304 114.503614,69.1930435 110.749398,69.1930435 C106.79759,69.1930435 101.06747,71.8695652 101.06747,80.0973913 C101.06747,87.0365217 106.007229,92.0921739 111.342169,92.0921739 C114.701205,92.0921739 117.566265,89.7130435 118.257831,86.1443478 L119.048193,86.3426087 L118.257831,91.3982609 C116.775904,92.2904348 112.922892,93.1826087 110.650602,93.1826087 C102.648193,93.1826087 97.5108434,87.9286957 97.5108434,80.1965217 C97.5108434,73.1582609 103.833735,68.0034783 110.551807,68.0034783 C113.318072,68.0034783 115.985542,68.8956522 118.653012,69.7878261 L118.949398,74.8434783 Z" id="Shape" fill="#000000"></path>
                <path d="M120.233735,91.7947826 L120.925301,91.7947826 C121.913253,91.7947826 122.604819,91.7947826 122.604819,90.6052174 L122.604819,71.373913 C122.604819,69.093913 122.110843,69.093913 120.826506,68.6973913 L120.826506,68.1026087 C122.209639,67.6069565 123.691566,67.0121739 124.383133,66.6156522 C124.778313,66.4173913 125.074699,66.2191304 125.173494,66.2191304 C125.371084,66.2191304 125.46988,66.4173913 125.46988,66.7147826 L125.46988,90.6052174 C125.46988,91.7947826 126.260241,91.7947826 127.149398,91.7947826 L127.742169,91.7947826 L127.742169,92.6869565 C126.556627,92.6869565 125.371084,92.5878261 124.086747,92.5878261 C122.80241,92.5878261 121.616867,92.5878261 120.33253,92.6869565 L120.33253,91.7947826 L120.233735,91.7947826 Z" id="Shape" fill="#000000"></path>
                <path d="M142.26506,90.8034783 C142.26506,91.3982609 142.660241,91.4973913 143.253012,91.4973913 C143.648193,91.4973913 144.142169,91.4973913 144.636145,91.4973913 L144.636145,92.1913043 C143.154217,92.2904348 140.289157,93.0834783 139.696386,93.2817391 L139.498795,93.1826087 L139.498795,90.4069565 C137.424096,92.0921739 135.843373,93.2817391 133.373494,93.2817391 C131.496386,93.2817391 129.619277,92.0921739 129.619277,89.2173913 L129.619277,80.2956522 C129.619277,79.4034783 129.520482,78.5113043 127.544578,78.4121739 L127.544578,77.7182609 C128.828916,77.7182609 131.496386,77.52 131.990361,77.52 C132.385542,77.52 132.385542,77.7182609 132.385542,78.5113043 L132.385542,87.4330435 C132.385542,88.4243478 132.385542,91.3982609 135.349398,91.3982609 C136.53494,91.3982609 138.016867,90.506087 139.498795,89.3165217 L139.498795,79.9982609 C139.498795,79.3043478 137.819277,78.9078261 136.633735,78.6104348 L136.633735,78.0156522 C139.696386,77.8173913 141.672289,77.52 141.968675,77.52 C142.26506,77.52 142.26506,77.7182609 142.26506,78.1147826 L142.26506,90.8034783 Z" id="Shape" fill="#000000"></path>
                <path d="M149.081928,79.4034783 C150.46506,78.213913 152.342169,76.9252174 154.219277,76.9252174 C158.171084,76.9252174 160.640964,80.3947826 160.640964,84.1617391 C160.640964,88.7217391 157.380723,93.1826087 152.440964,93.1826087 C149.872289,93.1826087 148.587952,92.3895652 147.698795,91.9930435 L146.710843,92.786087 L146.019277,92.3895652 C146.315663,90.3078261 146.513253,88.3252174 146.513253,86.2434783 L146.513253,71.373913 C146.513253,69.093913 146.019277,69.093913 144.73494,68.6973913 L144.73494,68.1026087 C146.118072,67.6069565 147.6,67.0121739 148.291566,66.6156522 C148.686747,66.4173913 148.983133,66.2191304 149.081928,66.2191304 C149.279518,66.2191304 149.378313,66.4173913 149.378313,66.7147826 L149.378313,79.4034783 L149.081928,79.4034783 Z M149.081928,88.8208696 C149.081928,90.1095652 150.366265,92.3895652 152.638554,92.3895652 C156.293976,92.3895652 157.874699,88.7217391 157.874699,85.6486957 C157.874699,81.8817391 155.009639,78.8086957 152.342169,78.8086957 C151.057831,78.8086957 149.971084,79.6017391 149.081928,80.3947826 L149.081928,88.8208696 Z" id="Shape" fill="#000000"></path>
                <path d="M0.691566265,112.810435 L0.987951807,112.810435 C1.67951807,112.810435 2.37108434,112.711304 2.37108434,111.72 L2.37108434,101.906087 C2.37108434,100.914783 1.67951807,100.815652 0.987951807,100.815652 L0.691566265,100.815652 L0.691566265,100.22087 C1.38313253,100.22087 2.5686747,100.32 3.45783133,100.32 C4.34698795,100.32 5.53253012,100.22087 6.42168675,100.22087 L6.42168675,100.815652 L6.1253012,100.815652 C5.43373494,100.815652 4.74216867,100.914783 4.74216867,101.906087 L4.74216867,111.72 C4.74216867,112.711304 5.43373494,112.810435 6.1253012,112.810435 L6.42168675,112.810435 L6.42168675,113.405217 C5.53253012,113.405217 4.44578313,113.306087 3.45783133,113.306087 C2.5686747,113.306087 1.48192771,113.405217 0.691566265,113.405217 L0.691566265,112.810435 Z" id="Shape" fill="#000000"></path>
                <path d="M6.42168675,113.405217 C5.53253012,113.405217 4.44578313,113.306087 3.45783133,113.306087 C2.5686747,113.306087 1.48192771,113.405217 0.691566265,113.405217 L0.592771084,113.405217 L0.592771084,113.306087 L0.592771084,112.711304 L0.592771084,112.612174 L0.691566265,112.612174 L0.987951807,112.612174 C1.67951807,112.612174 2.27228916,112.513043 2.27228916,111.62087 L2.27228916,101.806957 C2.27228916,100.914783 1.67951807,100.815652 0.987951807,100.815652 L0.691566265,100.815652 L0.691566265,100.716522 L0.691566265,100.121739 L0.790361446,100.121739 C1.48192771,100.121739 2.66746988,100.22087 3.55662651,100.22087 C4.44578313,100.22087 5.6313253,100.121739 6.52048193,100.121739 L6.61927711,100.121739 L6.61927711,100.22087 L6.61927711,100.815652 L6.52048193,100.815652 L6.22409639,100.815652 C5.53253012,100.815652 4.93975904,100.914783 4.93975904,101.806957 L4.93975904,111.62087 C4.93975904,112.513043 5.53253012,112.612174 6.22409639,112.612174 L6.52048193,112.612174 L6.52048193,112.711304 L6.42168675,113.405217 Z M6.32289157,113.206957 L6.32289157,112.810435 L6.1253012,112.810435 C5.43373494,112.810435 4.64337349,112.711304 4.64337349,111.62087 L4.64337349,101.806957 C4.64337349,100.815652 5.43373494,100.617391 6.1253012,100.617391 L6.32289157,100.617391 L6.32289157,100.22087 C5.43373494,100.22087 4.34698795,100.32 3.45783133,100.32 C2.5686747,100.32 1.48192771,100.22087 0.790361446,100.22087 L0.790361446,100.617391 L0.987951807,100.617391 C1.67951807,100.617391 2.46987952,100.716522 2.46987952,101.806957 L2.46987952,111.62087 C2.46987952,112.612174 1.67951807,112.810435 0.987951807,112.810435 L0.790361446,112.810435 L0.790361446,113.206957 C1.48192771,113.206957 2.5686747,113.107826 3.45783133,113.107826 C4.34698795,113.206957 5.43373494,113.206957 6.32289157,113.206957 Z" id="Shape" fill="#000000"></path>
                <path d="M19.2650602,109.638261 L19.2650602,102.6 C19.2650602,101.013913 18.1783133,100.815652 17.6843373,100.815652 L17.2891566,100.815652 L17.2891566,100.22087 C18.1783133,100.22087 19.0674699,100.32 19.9566265,100.32 C20.746988,100.32 21.5373494,100.22087 22.2289157,100.22087 L22.2289157,100.815652 L21.9325301,100.815652 C21.1421687,100.815652 20.253012,100.914783 20.253012,103.194783 L20.253012,111.72 C20.253012,112.413913 20.253012,113.008696 20.3518072,113.603478 L19.660241,113.603478 L9.97831325,102.798261 L9.97831325,110.530435 C9.97831325,112.116522 10.2746988,112.711304 11.7566265,112.711304 L12.053012,112.711304 L12.053012,113.306087 C11.2626506,113.306087 10.4722892,113.206957 9.68192771,113.206957 C8.89156627,113.206957 8.00240964,113.306087 7.11325301,113.306087 L7.11325301,112.711304 L7.40963855,112.711304 C8.6939759,112.711304 9.08915663,111.81913 9.08915663,110.332174 L9.08915663,102.401739 C9.08915663,101.311304 8.2,100.716522 7.40963855,100.716522 L7.21204819,100.716522 L7.21204819,100.121739 C7.90361446,100.121739 8.6939759,100.22087 9.38554217,100.22087 C9.97831325,100.22087 10.4722892,100.121739 11.0650602,100.121739 L19.2650602,109.638261 Z" id="Shape" fill="#000000"></path>
                <path d="M20.3518072,113.702609 L19.5614458,113.702609 L10.0771084,103.095652 L10.0771084,110.629565 C10.0771084,112.215652 10.373494,112.711304 11.7566265,112.711304 L12.1518072,112.711304 L12.1518072,112.810435 L12.1518072,113.504348 L12.053012,113.504348 C11.2626506,113.504348 10.4722892,113.405217 9.68192771,113.405217 C8.89156627,113.405217 8.00240964,113.504348 7.11325301,113.504348 L7.01445783,113.504348 L7.01445783,113.405217 L7.01445783,112.711304 L7.11325301,112.711304 L7.40963855,112.711304 C8.6939759,112.711304 8.99036145,111.918261 8.99036145,110.431304 L8.99036145,102.50087 C8.99036145,101.509565 8.2,100.914783 7.40963855,100.914783 L7.11325301,100.914783 L7.11325301,100.815652 L7.11325301,100.121739 L7.21204819,100.121739 C7.90361446,100.121739 8.6939759,100.22087 9.38554217,100.22087 C9.97831325,100.22087 10.4722892,100.121739 11.1638554,100.22087 L19.3638554,109.53913 L19.3638554,102.6 C19.3638554,101.113043 18.3759036,100.914783 17.7831325,100.914783 L17.2891566,100.914783 L17.2891566,100.815652 L17.2891566,100.121739 L17.3879518,100.121739 C18.2771084,100.121739 19.1662651,100.22087 20.0554217,100.22087 C20.8457831,100.22087 21.5373494,100.121739 22.3277108,100.121739 L22.426506,100.121739 L22.426506,100.22087 L22.426506,100.914783 L22.3277108,100.914783 L22.0313253,100.914783 C21.2409639,100.914783 20.4506024,101.013913 20.4506024,103.194783 L20.4506024,111.72 C20.3518072,112.413913 20.3518072,113.008696 20.3518072,113.702609 Z M19.660241,113.504348 L20.253012,113.504348 C20.1542169,112.909565 20.1542169,112.314783 20.1542169,111.72 L20.1542169,103.194783 C20.1542169,100.914783 21.1421687,100.716522 21.9325301,100.716522 L22.1301205,100.716522 L22.1301205,100.32 C21.4385542,100.32 20.6481928,100.41913 19.9566265,100.41913 C19.0674699,100.41913 18.2771084,100.32 17.3879518,100.32 L17.3879518,100.716522 L17.6843373,100.716522 C18.2771084,100.716522 19.3638554,101.013913 19.3638554,102.6 L19.3638554,109.737391 L19.2650602,109.836522 L10.9662651,100.41913 C10.373494,100.41913 9.87951807,100.518261 9.28674699,100.518261 C8.59518072,100.518261 7.90361446,100.41913 7.21204819,100.41913 L7.21204819,100.815652 L7.40963855,100.815652 C8.29879518,100.815652 9.18795181,101.509565 9.18795181,102.6 L9.18795181,110.530435 C9.18795181,112.017391 8.79277108,113.008696 7.40963855,113.008696 L7.21204819,113.008696 L7.21204819,113.405217 C8.00240964,113.405217 8.89156627,113.306087 9.68192771,113.306087 C10.4722892,113.306087 11.2626506,113.405217 12.053012,113.405217 L12.053012,113.008696 L11.8554217,113.008696 C10.373494,113.008696 9.97831325,112.314783 9.97831325,110.728696 L9.97831325,102.798261 L19.660241,113.504348 Z" id="Shape" fill="#000000"></path>
                <path d="M24.9951807,101.113043 C23.6120482,101.113043 23.513253,101.410435 23.2168675,102.798261 L22.7228916,102.798261 C22.8216867,102.302609 22.9204819,101.707826 22.9204819,101.212174 C23.0192771,100.716522 23.0192771,100.121739 23.0192771,99.626087 L23.513253,99.626087 C23.7108434,100.22087 24.1060241,100.121739 24.6,100.121739 L34.2819277,100.121739 C34.7759036,100.121739 35.2698795,100.121739 35.2698795,99.5269565 L35.7638554,99.626087 C35.6650602,100.121739 35.6650602,100.617391 35.5662651,101.113043 C35.5662651,101.608696 35.5662651,102.104348 35.5662651,102.6 L34.973494,102.798261 C34.973494,102.104348 34.8746988,101.013913 33.5903614,101.013913 L30.5277108,101.013913 L30.5277108,111.026087 C30.5277108,112.513043 31.2192771,112.612174 32.1084337,112.612174 L32.5036145,112.612174 L32.5036145,113.206957 C31.8120482,113.206957 30.4289157,113.107826 29.4409639,113.107826 C28.3542169,113.107826 26.9710843,113.206957 26.2795181,113.206957 L26.2795181,112.612174 L26.6746988,112.612174 C27.6626506,112.612174 28.2554217,112.513043 28.2554217,111.026087 L28.2554217,101.113043 L24.9951807,101.113043 Z" id="Shape" fill="#000000"></path>
                <path d="M32.4048193,113.405217 C31.713253,113.405217 30.3301205,113.306087 29.3421687,113.306087 C28.2554217,113.306087 26.8722892,113.405217 26.1807229,113.405217 L26.0819277,113.405217 L26.0819277,113.306087 L26.0819277,112.612174 L26.1807229,112.612174 L26.5759036,112.612174 C27.5638554,112.612174 28.0578313,112.612174 28.0578313,111.125217 L28.0578313,101.212174 L25.0939759,101.212174 L25.0939759,101.113043 L28.2554217,101.113043 L28.2554217,111.224348 C28.2554217,112.711304 27.6626506,112.909565 26.5759036,112.909565 L26.2795181,112.909565 L26.2795181,113.306087 C26.9710843,113.306087 28.2554217,113.206957 29.3421687,113.206957 C30.3301205,113.206957 31.6144578,113.306087 32.3060241,113.306087 L32.3060241,112.909565 L32.0096386,112.909565 C31.1204819,112.909565 30.3301205,112.711304 30.3301205,111.224348 L30.3301205,101.113043 L33.4915663,101.113043 C34.7759036,101.113043 34.8746988,102.203478 34.973494,102.897391 L35.3686747,102.69913 C35.3686747,102.203478 35.3686747,101.707826 35.3686747,101.212174 C35.4674699,100.716522 35.4674699,100.22087 35.5662651,99.7252174 L35.2698795,99.7252174 C35.1710843,100.22087 34.6771084,100.32 34.1831325,100.32 L24.5012048,100.32 L24.4024096,100.32 C24.0072289,100.32 23.513253,100.32 23.3156627,99.8243478 L23.0192771,99.8243478 C23.0192771,100.32 23.0192771,100.815652 22.9204819,101.311304 C22.8216867,101.806957 22.8216867,102.302609 22.7228916,102.798261 L23.1180723,102.798261 C23.3156627,101.509565 23.513253,101.113043 24.8963855,101.113043 L24.8963855,101.212174 L24.8963855,101.311304 C23.513253,101.311304 23.513253,101.608696 23.2168675,102.996522 L23.2168675,103.095652 L23.1180723,103.095652 L22.426506,103.095652 L22.426506,102.996522 C22.5253012,102.50087 22.6240964,101.906087 22.6240964,101.410435 C22.7228916,100.914783 22.7228916,100.32 22.7228916,99.8243478 L22.7228916,99.7252174 L22.8216867,99.7252174 L23.3156627,99.7252174 L23.3156627,99.8243478 C23.4144578,100.32 23.8096386,100.32 24.3036145,100.32 L24.4024096,100.32 L34.0843373,100.32 C34.5783133,100.32 34.973494,100.32 34.973494,99.8243478 L34.973494,99.7252174 L35.0722892,99.7252174 L35.5662651,99.8243478 L35.5662651,99.9234783 C35.4674699,100.41913 35.4674699,100.914783 35.3686747,101.410435 C35.3686747,101.906087 35.3686747,102.401739 35.3686747,102.897391 L35.3686747,102.996522 L35.2698795,102.996522 L34.5783133,103.194783 L34.5783133,103.095652 C34.4795181,102.401739 34.4795181,101.410435 33.2939759,101.410435 L30.3301205,101.410435 L30.3301205,111.323478 C30.3301205,112.711304 30.9228916,112.810435 31.8120482,112.810435 L32.2072289,112.810435 L32.2072289,112.909565 L32.4048193,113.405217 Z" id="Shape" fill="#000000"></path>
                <path d="M36.3566265,112.810435 L36.653012,112.810435 C37.3445783,112.810435 38.0361446,112.711304 38.0361446,111.72 L38.0361446,101.906087 C38.0361446,100.914783 37.3445783,100.815652 36.653012,100.815652 L36.3566265,100.815652 L36.3566265,100.22087 C37.5421687,100.22087 39.4192771,100.32 41,100.32 C42.5807229,100.32 44.5566265,100.22087 45.7421687,100.22087 C45.7421687,101.013913 45.7421687,102.302609 45.7421687,103.095652 L45.1493976,103.293913 C45.0506024,102.104348 44.853012,101.113043 42.8771084,101.113043 L40.3084337,101.113043 L40.3084337,106.069565 L42.4819277,106.069565 C43.5686747,106.069565 43.8650602,105.474783 43.9638554,104.384348 L44.5566265,104.384348 C44.5566265,105.078261 44.4578313,105.871304 44.4578313,106.565217 C44.4578313,107.25913 44.4578313,107.953043 44.5566265,108.746087 L43.9638554,108.845217 C43.8650602,107.754783 43.7662651,106.961739 42.4819277,106.961739 L40.2096386,106.961739 L40.2096386,111.323478 C40.2096386,112.513043 41.2963855,112.513043 42.4819277,112.513043 C44.7542169,112.513043 45.7421687,112.314783 46.2361446,110.233043 L46.7301205,110.332174 C46.5325301,111.323478 46.2361446,112.314783 46.1373494,113.306087 C44.9518072,113.306087 42.7783133,113.206957 41.0987952,113.206957 C39.4192771,113.206957 37.146988,113.306087 36.1590361,113.306087 L36.1590361,112.810435 L36.3566265,112.810435 Z" id="Shape" fill="#000000"></path>
                <path d="M46.3349398,113.405217 C45.1493976,113.405217 42.9759036,113.306087 41.2963855,113.306087 C39.6168675,113.306087 37.3445783,113.405217 36.3566265,113.405217 L36.2578313,113.405217 L36.2578313,113.306087 L36.2578313,112.711304 L36.2578313,112.612174 L36.3566265,112.612174 L36.653012,112.612174 C37.3445783,112.612174 37.9373494,112.513043 37.9373494,111.62087 L37.9373494,101.806957 C37.9373494,100.914783 37.3445783,100.815652 36.653012,100.815652 L36.3566265,100.815652 L36.3566265,100.716522 L36.3566265,100.121739 L36.4554217,100.121739 C37.6409639,100.121739 39.5180723,100.22087 41.0987952,100.22087 C42.6795181,100.22087 44.6554217,100.121739 45.8409639,100.121739 L45.939759,100.121739 L45.939759,100.22087 C45.939759,100.518261 45.939759,100.815652 45.939759,101.212174 C45.939759,101.906087 45.939759,102.6 46.0385542,103.095652 L46.0385542,103.194783 L45.939759,103.194783 L45.2481928,103.393043 L45.2481928,103.293913 C45.1493976,102.104348 44.9518072,101.212174 43.0746988,101.212174 L40.5060241,101.212174 L40.5060241,105.970435 L42.6795181,105.970435 C43.7662651,105.970435 43.9638554,105.375652 44.0626506,104.384348 L44.0626506,104.285217 L44.1614458,104.285217 L44.853012,104.285217 L44.853012,104.384348 C44.853012,105.078261 44.7542169,105.871304 44.7542169,106.565217 C44.7542169,107.25913 44.7542169,107.953043 44.853012,108.746087 L44.853012,108.845217 L44.7542169,108.845217 L44.0626506,108.944348 L44.0626506,108.845217 C43.9638554,107.655652 43.9638554,107.06087 42.6795181,107.06087 L40.5060241,107.06087 L40.5060241,111.323478 C40.5060241,112.513043 41.4939759,112.413913 42.6795181,112.513043 C44.9518072,112.513043 45.8409639,112.413913 46.4337349,110.332174 L46.4337349,110.233043 L46.5325301,110.233043 L47.1253012,110.431304 L47.1253012,110.530435 C46.8289157,111.323478 46.6313253,112.314783 46.3349398,113.405217 Z M46.2361446,113.206957 C46.4337349,112.215652 46.6313253,111.323478 46.8289157,110.332174 L46.4337349,110.233043 C45.8409639,112.314783 44.7542169,112.513043 42.5807229,112.513043 C41.3951807,112.513043 40.2096386,112.513043 40.2096386,111.224348 L40.2096386,106.763478 L42.5807229,106.763478 C43.8650602,106.763478 44.0626506,107.556522 44.0626506,108.646957 L44.4578313,108.547826 C44.4578313,107.853913 44.3590361,107.16 44.3590361,106.466087 C44.3590361,105.772174 44.3590361,105.078261 44.4578313,104.384348 L44.0626506,104.384348 C43.9638554,105.375652 43.6674699,106.069565 42.4819277,106.069565 L40.2096386,106.069565 L40.2096386,101.013913 L42.8771084,101.013913 C44.853012,101.013913 45.1493976,102.005217 45.2481928,103.194783 L45.6433735,103.095652 C45.6433735,102.6 45.5445783,101.906087 45.5445783,101.212174 C45.5445783,100.914783 45.5445783,100.617391 45.5445783,100.32 C44.260241,100.32 42.3831325,100.41913 40.8024096,100.41913 C39.2216867,100.41913 37.3445783,100.32 36.2578313,100.32 L36.2578313,100.716522 L36.4554217,100.716522 C37.146988,100.716522 37.9373494,100.815652 37.9373494,101.906087 L37.9373494,111.72 C37.9373494,112.711304 37.146988,112.909565 36.4554217,112.909565 L36.2578313,112.909565 L36.2578313,113.306087 C37.3445783,113.306087 39.5180723,113.206957 41.1975904,113.206957 C42.9759036,113.206957 45.0506024,113.206957 46.2361446,113.206957 Z" id="Shape" fill="#000000"></path>
                <path d="M49.4963855,102.203478 C49.4963855,100.815652 48.7060241,100.815652 48.2120482,100.815652 L47.9156627,100.815652 L47.9156627,100.22087 C48.5084337,100.22087 49.6939759,100.32 50.7807229,100.32 C51.8674699,100.32 52.7566265,100.22087 53.7445783,100.22087 C56.1156627,100.22087 58.1903614,100.815652 58.1903614,103.492174 C58.1903614,105.177391 57.1036145,106.168696 55.6216867,106.763478 L58.7831325,111.521739 C59.2771084,112.314783 59.6722892,112.513043 60.5614458,112.612174 L60.5614458,113.206957 C59.9686747,113.206957 59.3759036,113.107826 58.6843373,113.107826 C58.0915663,113.107826 57.4987952,113.206957 56.9060241,113.206957 C55.4240964,111.323478 54.2385542,109.241739 53.053012,107.16 L51.8674699,107.16 L51.8674699,111.224348 C51.8674699,112.711304 52.5590361,112.711304 53.3493976,112.711304 L53.6457831,112.711304 L53.6457831,113.306087 C52.5590361,113.306087 51.4722892,113.206957 50.3855422,113.206957 C49.4963855,113.206957 48.6072289,113.306087 47.7180723,113.306087 L47.7180723,112.711304 L48.0144578,112.711304 C48.7060241,112.711304 49.2987952,112.413913 49.2987952,111.72 L49.2987952,102.203478 L49.4963855,102.203478 Z M51.8674699,106.565217 L52.7566265,106.565217 C54.6337349,106.565217 55.6216867,105.871304 55.6216867,103.591304 C55.6216867,101.906087 54.5349398,100.815652 52.8554217,100.815652 C52.2626506,100.815652 52.0650602,100.914783 51.7686747,100.914783 L51.7686747,106.565217 L51.8674699,106.565217 Z" id="Shape" fill="#000000"></path>
                <path d="M60.660241,113.405217 C60.0674699,113.405217 59.4746988,113.306087 58.7831325,113.306087 C58.1903614,113.306087 57.5975904,113.405217 57.0048193,113.306087 C55.5228916,111.422609 54.3373494,109.44 53.1518072,107.25913 L52.0650602,107.25913 L52.0650602,111.224348 C52.0650602,112.612174 52.6578313,112.612174 53.546988,112.612174 L53.9421687,112.612174 L53.9421687,112.711304 L53.9421687,113.306087 L53.8433735,113.306087 C52.7566265,113.306087 51.6698795,113.206957 50.5831325,113.206957 C49.6939759,113.206957 48.8048193,113.306087 47.9156627,113.306087 L47.8168675,113.306087 L47.8168675,113.206957 L47.8168675,112.513043 L47.9156627,112.513043 L48.2120482,112.513043 C48.9036145,112.513043 49.4963855,112.215652 49.4963855,111.62087 L49.4963855,102.104348 C49.4963855,100.815652 48.8048193,100.815652 48.2120482,100.716522 L47.8168675,100.716522 L47.8168675,100.617391 L47.8168675,100.121739 L47.9156627,100.121739 C48.5084337,100.121739 49.6939759,100.22087 50.7807229,100.22087 C51.8674699,100.22087 52.7566265,100.121739 53.8433735,100.121739 C56.2144578,100.121739 58.3879518,100.815652 58.3879518,103.492174 C58.3879518,105.177391 57.3012048,106.267826 55.8192771,106.862609 L58.9807229,111.62087 C59.4746988,112.413913 59.8698795,112.612174 60.7590361,112.711304 L60.8578313,112.711304 L60.8578313,112.810435 L60.660241,113.405217 Z M51.8674699,107.16 L53.1518072,107.16 C54.3373494,109.34087 55.6216867,111.323478 57.0048193,113.206957 C57.5975904,113.206957 58.1903614,113.107826 58.7831325,113.107826 C59.3759036,113.107826 59.9686747,113.206957 60.5614458,113.206957 L60.5614458,112.810435 C59.6722892,112.711304 59.2771084,112.413913 58.7831325,111.62087 L55.5228916,106.763478 L55.6216867,106.763478 C57.1036145,106.168696 58.1903614,105.177391 58.1903614,103.492174 C58.1903614,100.914783 56.2144578,100.32 53.8433735,100.22087 C52.8554217,100.22087 51.9662651,100.32 50.7807229,100.32 C49.6939759,100.32 48.6072289,100.22087 47.9156627,100.22087 L47.9156627,100.617391 L48.2120482,100.617391 C48.8048193,100.617391 49.5951807,100.716522 49.5951807,102.104348 L49.5951807,111.62087 C49.5951807,112.413913 48.9036145,112.711304 48.2120482,112.711304 L47.9156627,112.711304 L47.9156627,113.107826 C48.8048193,113.107826 49.6939759,113.008696 50.5831325,113.008696 C51.6698795,113.008696 52.6578313,113.107826 53.7445783,113.107826 L53.7445783,112.711304 L53.4481928,112.711304 C52.5590361,112.711304 51.8674699,112.612174 51.8674699,111.125217 L51.8674699,107.16 Z M51.8674699,106.664348 L51.7686747,100.914783 L51.8674699,100.914783 C52.1638554,100.914783 52.3614458,100.815652 52.9542169,100.815652 C54.6337349,100.815652 55.7204819,101.906087 55.8192771,103.591304 C55.8192771,105.871304 54.7325301,106.565217 52.8554217,106.565217 L51.8674699,106.565217 L51.8674699,106.664348 Z M52.8554217,106.466087 C54.7325301,106.466087 55.6216867,105.772174 55.6216867,103.591304 C55.6216867,101.906087 54.6337349,100.914783 52.9542169,100.914783 C52.460241,100.914783 52.1638554,100.914783 51.9662651,101.013913 L51.9662651,106.466087 L52.8554217,106.466087 Z" id="Shape" fill="#000000"></path>
                <path d="M73.3060241,109.638261 L73.3060241,102.6 C73.3060241,101.013913 72.2192771,100.815652 71.7253012,100.815652 L71.3301205,100.815652 L71.3301205,100.22087 C72.2192771,100.22087 73.1084337,100.32 73.8987952,100.32 C74.6891566,100.32 75.4795181,100.22087 76.1710843,100.22087 L76.1710843,100.815652 L75.8746988,100.815652 C75.0843373,100.815652 74.1951807,100.914783 74.1951807,103.194783 L74.1951807,111.72 C74.1951807,112.413913 74.1951807,113.008696 74.2939759,113.603478 L73.6024096,113.603478 L63.9204819,102.798261 L63.9204819,110.530435 C63.9204819,112.116522 64.2168675,112.711304 65.6987952,112.711304 L65.9951807,112.711304 L65.9951807,113.306087 C65.2048193,113.306087 64.4144578,113.206957 63.6240964,113.206957 C62.7349398,113.206957 61.9445783,113.306087 61.0554217,113.306087 L61.0554217,112.711304 L61.3518072,112.711304 C62.6361446,112.711304 63.0313253,111.81913 63.0313253,110.332174 L63.0313253,102.401739 C63.0313253,101.311304 62.1421687,100.716522 61.3518072,100.716522 L61.1542169,100.716522 L61.1542169,100.121739 C61.8457831,100.121739 62.6361446,100.22087 63.3277108,100.22087 C63.9204819,100.22087 64.4144578,100.121739 65.0072289,100.121739 L73.3060241,109.638261 Z" id="Shape" fill="#000000"></path>
                <path d="M74.3927711,113.702609 L73.6024096,113.702609 L64.1180723,103.095652 L64.1180723,110.629565 C64.1180723,112.314783 64.4144578,112.711304 65.7975904,112.711304 L66.1927711,112.711304 L66.1927711,112.810435 L66.1927711,113.504348 L66.0939759,113.504348 C65.3036145,113.504348 64.513253,113.405217 63.7228916,113.405217 C62.9325301,113.405217 62.0433735,113.504348 61.1542169,113.504348 L61.0554217,113.504348 L61.0554217,113.405217 L61.0554217,112.711304 L61.1542169,112.711304 L61.4506024,112.711304 C62.7349398,112.711304 63.0313253,111.918261 63.0313253,110.431304 L63.0313253,102.50087 C63.0313253,101.509565 62.2409639,100.914783 61.4506024,100.914783 L61.1542169,100.914783 L61.1542169,100.815652 L61.1542169,100.121739 L61.253012,100.121739 C61.9445783,100.121739 62.7349398,100.22087 63.426506,100.22087 C64.0192771,100.22087 64.513253,100.121739 65.1060241,100.22087 L73.3060241,109.53913 L73.3060241,102.6 C73.3060241,101.113043 72.3180723,100.914783 71.7253012,100.914783 L71.2313253,100.914783 L71.2313253,100.815652 L71.2313253,100.121739 L71.3301205,100.121739 C72.2192771,100.121739 73.1084337,100.22087 73.9975904,100.22087 C74.7879518,100.22087 75.4795181,100.121739 76.2698795,100.121739 L76.3686747,100.121739 L76.3686747,100.22087 L76.3686747,100.815652 L76.2698795,100.815652 L75.973494,100.815652 C75.1831325,100.815652 74.3927711,100.914783 74.3927711,103.095652 L74.3927711,111.62087 C74.3927711,112.413913 74.3927711,113.008696 74.3927711,113.702609 Z M73.7012048,113.504348 L74.2939759,113.504348 C74.1951807,112.909565 74.1951807,112.314783 74.1951807,111.72 L74.1951807,103.194783 C74.1951807,100.914783 75.1831325,100.716522 75.973494,100.716522 L76.1710843,100.716522 L76.1710843,100.32 C75.4795181,100.32 74.6891566,100.41913 73.9975904,100.41913 C73.1084337,100.41913 72.3180723,100.32 71.4289157,100.32 L71.4289157,100.716522 L71.7253012,100.716522 C72.3180723,100.716522 73.4048193,101.013913 73.4048193,102.6 L73.4048193,109.737391 L73.3060241,109.836522 L65.0072289,100.41913 C64.4144578,100.41913 63.9204819,100.518261 63.3277108,100.518261 C62.6361446,100.518261 61.9445783,100.41913 61.253012,100.41913 L61.253012,100.815652 L61.4506024,100.815652 C62.339759,100.815652 63.2289157,101.509565 63.2289157,102.6 L63.2289157,110.530435 C63.2289157,112.017391 62.8337349,113.008696 61.4506024,113.008696 L61.253012,113.008696 L61.253012,113.405217 C62.0433735,113.405217 62.9325301,113.306087 63.7228916,113.306087 C64.513253,113.306087 65.3036145,113.405217 66.0939759,113.405217 L66.0939759,113.008696 L65.8963855,113.008696 C64.4144578,113.008696 64.0192771,112.314783 64.0192771,110.728696 L64.0192771,102.798261 L73.7012048,113.504348 Z" id="Shape" fill="#000000"></path>
                <path d="M79.2337349,110.629565 C79.0361446,111.224348 78.8385542,111.72 78.8385542,112.116522 C78.8385542,112.711304 79.6289157,112.810435 80.2216867,112.810435 L80.4192771,112.810435 L80.4192771,113.405217 C79.6289157,113.405217 78.9373494,113.306087 78.146988,113.306087 C77.4554217,113.306087 76.7638554,113.306087 76.1710843,113.405217 L76.1710843,112.810435 L76.2698795,112.810435 C76.9614458,112.810435 77.653012,112.413913 77.8506024,111.62087 L80.8144578,102.996522 C81.0120482,102.302609 81.4072289,101.311304 81.5060241,100.617391 C82.0987952,100.41913 82.8891566,100.022609 83.1855422,99.8243478 C83.2843373,99.8243478 83.2843373,99.8243478 83.3831325,99.8243478 C83.4819277,99.8243478 83.4819277,99.8243478 83.4819277,99.9234783 C83.5807229,100.121739 83.5807229,100.22087 83.6795181,100.41913 L87.1373494,110.233043 C87.3349398,110.926957 87.6313253,111.62087 87.8289157,112.116522 C88.026506,112.612174 88.4216867,112.909565 89.113253,112.909565 L89.2120482,112.909565 L89.2120482,113.504348 C88.3228916,113.504348 87.5325301,113.405217 86.6433735,113.405217 C85.7542169,113.405217 84.7662651,113.405217 83.8771084,113.504348 L83.8771084,112.909565 L84.0746988,112.909565 C84.4698795,112.909565 85.260241,112.810435 85.260241,112.413913 C85.260241,112.215652 85.0626506,111.62087 84.8650602,111.026087 L84.173494,108.845217 L79.9253012,108.845217 L79.2337349,110.629565 Z M82,102.302609 L80.2216867,107.655652 L83.6795181,107.655652 L82,102.302609 Z" id="Shape" fill="#000000"></path>
                <path d="M89.2120482,113.405217 C88.3228916,113.405217 87.5325301,113.306087 86.6433735,113.306087 C85.7542169,113.306087 84.7662651,113.306087 83.8771084,113.405217 L83.7783133,113.405217 L83.7783133,113.306087 L83.7783133,112.612174 L83.8771084,112.612174 L84.0746988,112.612174 C84.4698795,112.612174 85.1614458,112.513043 85.1614458,112.116522 C85.1614458,111.918261 84.9638554,111.422609 84.7662651,110.827826 L84.0746988,108.746087 L79.9253012,108.746087 L79.3325301,110.629565 C79.1349398,111.224348 78.9373494,111.72 78.9373494,112.116522 C78.9373494,112.612174 79.6289157,112.711304 80.2216867,112.711304 L80.5180723,112.711304 L80.5180723,112.810435 L80.5180723,113.504348 L80.4192771,113.504348 C79.6289157,113.504348 78.9373494,113.405217 78.146988,113.405217 C77.4554217,113.405217 76.7638554,113.405217 76.1710843,113.504348 L76.0722892,113.504348 L76.0722892,113.405217 L76.0722892,112.711304 L76.1710843,112.711304 L76.2698795,112.711304 C76.9614458,112.711304 77.5542169,112.314783 77.8506024,111.521739 L80.8144578,102.897391 C81.0120482,102.203478 81.4072289,101.311304 81.6048193,100.518261 C82.1975904,100.32 82.9879518,99.9234783 83.2843373,99.7252174 C83.3831325,99.7252174 83.3831325,99.7252174 83.4819277,99.7252174 C83.4819277,99.7252174 83.5807229,99.7252174 83.6795181,99.8243478 C83.7783133,100.022609 83.7783133,100.121739 83.8771084,100.32 L87.3349398,110.133913 C87.5325301,110.827826 87.7301205,111.521739 88.026506,112.017391 C88.2240964,112.513043 88.6192771,112.711304 89.2120482,112.711304 L89.4096386,112.711304 L89.4096386,112.810435 L89.2120482,113.405217 Z M83.8771084,113.206957 C84.7662651,113.206957 85.7542169,113.107826 86.6433735,113.107826 C87.5325301,113.107826 88.3228916,113.107826 89.113253,113.206957 L89.113253,112.810435 C88.5204819,112.810435 88.026506,112.513043 87.8289157,112.017391 C87.6313253,111.422609 87.3349398,110.728696 87.1373494,110.133913 L83.6795181,100.32 C83.5807229,100.121739 83.5807229,100.022609 83.4819277,99.8243478 C83.4819277,99.8243478 83.4819277,99.8243478 83.4819277,99.8243478 C83.4819277,99.8243478 83.3831325,99.8243478 83.3831325,99.8243478 C82.9879518,100.022609 82.2963855,100.41913 81.7036145,100.617391 C81.6048193,101.311304 81.2096386,102.302609 81.0120482,102.996522 L78.0481928,111.62087 C77.7518072,112.413913 77.060241,112.909565 76.3686747,112.909565 L76.3686747,113.306087 C77.060241,113.306087 77.653012,113.206957 78.3445783,113.206957 C79.0361446,113.206957 79.826506,113.206957 80.5180723,113.306087 L80.5180723,112.909565 L80.4192771,112.909565 C79.826506,112.909565 78.9373494,112.810435 78.9373494,112.215652 C78.9373494,111.81913 79.1349398,111.323478 79.3325301,110.728696 L79.4313253,110.728696 L79.3325301,110.728696 L79.9253012,108.746087 L84.2722892,108.746087 L85.0626506,110.926957 C85.260241,111.521739 85.4578313,112.017391 85.4578313,112.314783 C85.4578313,112.909565 84.6674699,112.909565 84.173494,112.909565 L84.0746988,112.909565 L84.0746988,113.206957 L83.8771084,113.206957 Z M80.1228916,107.754783 L81.9012048,102.302609 L82,102.302609 L82,102.401739 L82,102.302609 L82.0987952,102.302609 L83.8771084,107.754783 L80.1228916,107.754783 Z M80.3204819,107.556522 L83.5807229,107.556522 L82,102.50087 L80.3204819,107.556522 Z" id="Shape" fill="#000000"></path>
                <path d="M90.1012048,101.113043 C88.7180723,101.113043 88.6192771,101.410435 88.3228916,102.798261 L87.7301205,102.798261 C87.8289157,102.302609 87.9277108,101.707826 87.9277108,101.212174 C88.026506,100.716522 88.026506,100.121739 88.026506,99.626087 L88.5204819,99.626087 C88.6192771,100.22087 89.113253,100.121739 89.6072289,100.121739 L99.2891566,100.121739 C99.7831325,100.121739 100.277108,100.121739 100.277108,99.5269565 L100.771084,99.626087 C100.672289,100.121739 100.672289,100.617391 100.573494,101.113043 C100.573494,101.608696 100.573494,102.104348 100.573494,102.6 L99.9807229,102.798261 C99.9807229,102.104348 99.8819277,101.013913 98.5975904,101.013913 L95.5349398,101.013913 L95.5349398,111.026087 C95.5349398,112.513043 96.226506,112.612174 97.1156627,112.612174 L97.5108434,112.612174 L97.5108434,113.206957 C96.8192771,113.206957 95.4361446,113.107826 94.4481928,113.107826 C93.3614458,113.107826 91.9783133,113.206957 91.286747,113.206957 L91.286747,112.612174 L91.6819277,112.612174 C92.6698795,112.612174 93.2626506,112.513043 93.2626506,111.026087 L93.2626506,101.113043 L90.1012048,101.113043 Z" id="Shape" fill="#000000"></path>
                <path d="M97.4120482,113.405217 C96.7204819,113.405217 95.3373494,113.306087 94.3493976,113.306087 C93.2626506,113.306087 91.8795181,113.405217 91.1879518,113.405217 L91.0891566,113.405217 L91.0891566,113.306087 L91.0891566,112.612174 L91.1879518,112.612174 L91.5831325,112.612174 C92.5710843,112.612174 93.0650602,112.612174 93.0650602,111.125217 L93.0650602,101.212174 L90.1012048,101.212174 L90.1012048,101.113043 L93.2626506,101.113043 L93.2626506,111.224348 C93.2626506,112.711304 92.6698795,112.909565 91.5831325,112.909565 L91.286747,112.909565 L91.286747,113.306087 C91.9783133,113.306087 93.2626506,113.206957 94.3493976,113.206957 C95.3373494,113.206957 96.6216867,113.306087 97.313253,113.306087 L97.313253,112.909565 L97.0168675,112.909565 C96.1277108,112.909565 95.3373494,112.711304 95.3373494,111.224348 L95.3373494,101.113043 L98.4987952,101.113043 C99.7831325,101.113043 99.8819277,102.203478 99.9807229,102.897391 L100.375904,102.69913 C100.375904,102.203478 100.375904,101.707826 100.375904,101.212174 C100.474699,100.716522 100.474699,100.22087 100.573494,99.7252174 L100.277108,99.7252174 C100.178313,100.22087 99.6843373,100.32 99.1903614,100.32 L89.5084337,100.32 L89.4096386,100.32 C89.0144578,100.32 88.5204819,100.32 88.3228916,99.8243478 L88.026506,99.8243478 C88.026506,100.32 88.026506,100.815652 87.9277108,101.311304 C87.8289157,101.806957 87.8289157,102.302609 87.7301205,102.798261 L88.1253012,102.798261 C88.3228916,101.509565 88.5204819,101.013913 89.9036145,101.113043 L89.9036145,101.212174 L89.9036145,101.311304 C88.5204819,101.311304 88.5204819,101.608696 88.2240964,102.996522 L88.2240964,103.095652 L88.1253012,103.095652 L87.4337349,103.095652 L87.4337349,102.996522 C87.5325301,102.50087 87.6313253,101.906087 87.6313253,101.410435 C87.7301205,100.914783 87.7301205,100.32 87.7301205,99.8243478 L87.7301205,99.7252174 L87.8289157,99.7252174 L88.3228916,99.7252174 L88.3228916,99.8243478 C88.4216867,100.32 88.8168675,100.32 89.3108434,100.32 L89.4096386,100.32 L99.0915663,100.32 C99.5855422,100.32 99.9807229,100.32 99.9807229,99.8243478 L99.9807229,99.7252174 L100.079518,99.7252174 L100.573494,99.8243478 L100.573494,99.9234783 C100.474699,100.41913 100.375904,100.914783 100.375904,101.410435 C100.375904,101.906087 100.375904,102.401739 100.375904,102.897391 L100.375904,102.996522 L100.277108,102.996522 L99.5855422,103.194783 L99.5855422,103.095652 C99.486747,102.401739 99.486747,101.410435 98.3012048,101.410435 L95.3373494,101.410435 L95.3373494,111.323478 C95.3373494,112.711304 95.9301205,112.810435 96.8192771,112.810435 L97.2144578,112.810435 L97.2144578,112.909565 L97.4120482,113.405217 Z" id="Shape" fill="#000000"></path>
                <path d="M101.462651,112.810435 L101.759036,112.810435 C102.450602,112.810435 103.142169,112.711304 103.142169,111.72 L103.142169,101.906087 C103.142169,100.914783 102.450602,100.815652 101.759036,100.815652 L101.462651,100.815652 L101.462651,100.22087 C102.154217,100.22087 103.339759,100.32 104.228916,100.32 C105.216867,100.32 106.303614,100.22087 107.192771,100.22087 L107.192771,100.815652 L106.896386,100.815652 C106.204819,100.815652 105.513253,100.914783 105.513253,101.906087 L105.513253,111.72 C105.513253,112.711304 106.204819,112.810435 106.896386,112.810435 L107.192771,112.810435 L107.192771,113.405217 C106.303614,113.405217 105.216867,113.306087 104.228916,113.306087 C103.339759,113.306087 102.253012,113.405217 101.462651,113.405217 L101.462651,112.810435 Z" id="Shape" fill="#000000"></path>
                <path d="M107.192771,113.405217 C106.303614,113.405217 105.216867,113.306087 104.228916,113.306087 C103.339759,113.306087 102.253012,113.405217 101.462651,113.405217 L101.363855,113.405217 L101.363855,113.306087 L101.363855,112.711304 L101.363855,112.612174 L101.462651,112.612174 L101.759036,112.612174 C102.450602,112.612174 103.043373,112.513043 103.043373,111.62087 L103.043373,101.806957 C103.043373,100.914783 102.450602,100.815652 101.759036,100.815652 L101.462651,100.815652 L101.462651,100.716522 L101.462651,100.121739 L101.561446,100.121739 C102.253012,100.121739 103.438554,100.22087 104.327711,100.22087 C105.216867,100.22087 106.40241,100.121739 107.291566,100.121739 L107.390361,100.121739 L107.390361,100.22087 L107.390361,100.914783 L107.291566,100.914783 L106.995181,100.914783 C106.303614,100.914783 105.710843,101.013913 105.710843,101.906087 L105.710843,111.72 C105.710843,112.612174 106.303614,112.711304 106.995181,112.711304 L107.291566,112.711304 L107.291566,112.810435 L107.192771,113.405217 Z M107.093976,113.206957 L107.093976,112.810435 L106.896386,112.810435 C106.204819,112.810435 105.414458,112.711304 105.414458,111.62087 L105.414458,101.806957 C105.414458,100.815652 106.204819,100.617391 106.896386,100.617391 L107.093976,100.617391 L107.093976,100.22087 C106.204819,100.22087 105.118072,100.32 104.228916,100.32 C103.339759,100.32 102.253012,100.22087 101.561446,100.22087 L101.561446,100.617391 L101.759036,100.617391 C102.450602,100.617391 103.240964,100.716522 103.240964,101.806957 L103.240964,111.62087 C103.240964,112.612174 102.450602,112.810435 101.759036,112.810435 L101.561446,112.810435 L101.561446,113.206957 C102.253012,113.206957 103.339759,113.107826 104.228916,113.107826 C105.118072,113.206957 106.204819,113.206957 107.093976,113.206957 Z" id="Shape" fill="#000000"></path>
                <path d="M114.60241,99.9234783 C118.554217,99.9234783 121.814458,102.401739 121.814458,106.366957 C121.814458,110.728696 118.751807,113.603478 114.701205,113.603478 C110.749398,113.603478 107.686747,110.926957 107.686747,106.862609 C107.785542,102.996522 110.749398,99.9234783 114.60241,99.9234783 M114.898795,112.810435 C118.554217,112.810435 119.146988,109.638261 119.146988,106.862609 C119.146988,104.086957 117.66506,100.815652 114.60241,100.815652 C111.342169,100.815652 110.354217,103.789565 110.354217,106.267826 C110.354217,109.53913 111.93494,112.810435 114.898795,112.810435" id="Shape" fill="#000000"></path>
                <path d="M107.686747,106.862609 C107.686747,102.897391 110.749398,99.8243478 114.701205,99.8243478 L114.701205,99.9234783 L114.701205,100.022609 C110.848193,100.022609 107.884337,102.996522 107.884337,106.862609 C107.884337,110.827826 110.848193,113.504348 114.8,113.504348 C118.751807,113.504348 121.814458,110.629565 121.814458,106.366957 C121.814458,102.401739 118.653012,100.022609 114.701205,99.9234783 L114.701205,99.8243478 L114.701205,99.7252174 C118.751807,99.7252174 121.913253,102.203478 121.913253,106.267826 C121.913253,110.629565 118.751807,113.504348 114.8,113.504348 C110.749398,113.702609 107.686747,110.926957 107.686747,106.862609 M110.255422,106.168696 C110.255422,103.690435 111.243373,100.617391 114.60241,100.617391 C117.763855,100.617391 119.245783,103.987826 119.245783,106.763478 C119.245783,109.53913 118.554217,112.810435 114.898795,112.810435 L114.898795,112.711304 L114.898795,112.612174 C118.455422,112.612174 119.048193,109.44 119.048193,106.763478 C119.048193,104.086957 117.566265,100.815652 114.503614,100.815652 C111.342169,100.815652 110.354217,103.690435 110.354217,106.168696 C110.354217,109.53913 111.836145,112.612174 114.8,112.711304 L114.8,112.810435 L114.8,112.909565 C111.836145,112.909565 110.255422,109.638261 110.255422,106.168696" id="Shape" fill="#000000"></path>
                <path d="M134.460241,109.638261 L134.460241,102.6 C134.460241,101.013913 133.373494,100.815652 132.780723,100.815652 L132.385542,100.815652 L132.385542,100.22087 C133.274699,100.22087 134.163855,100.32 134.954217,100.32 C135.744578,100.32 136.53494,100.22087 137.226506,100.22087 L137.226506,100.815652 L136.93012,100.815652 C136.139759,100.815652 135.250602,100.914783 135.250602,103.194783 L135.250602,111.72 C135.250602,112.413913 135.250602,113.008696 135.349398,113.603478 L134.657831,113.603478 L124.975904,102.798261 L124.975904,110.530435 C124.975904,112.116522 125.272289,112.711304 126.754217,112.711304 L127.050602,112.711304 L127.050602,113.306087 C126.260241,113.306087 125.46988,113.206957 124.679518,113.206957 C123.790361,113.206957 123,113.306087 122.110843,113.306087 L122.110843,112.711304 L122.407229,112.711304 C123.691566,112.711304 124.086747,111.81913 124.086747,110.332174 L124.086747,102.401739 C124.086747,101.311304 123.19759,100.716522 122.407229,100.716522 L122.209639,100.716522 L122.209639,100.121739 C122.901205,100.121739 123.691566,100.22087 124.383133,100.22087 C124.975904,100.22087 125.46988,100.121739 126.062651,100.121739 L134.460241,109.638261 Z" id="Shape" fill="#000000"></path>
                <path d="M135.546988,113.702609 L134.756627,113.702609 L125.272289,103.095652 L125.272289,110.629565 C125.272289,112.215652 125.568675,112.711304 126.951807,112.711304 L127.346988,112.711304 L127.346988,112.810435 L127.346988,113.405217 L127.248193,113.405217 C126.457831,113.405217 125.66747,113.306087 124.877108,113.306087 C124.086747,113.306087 123.19759,113.405217 122.308434,113.405217 L122.209639,113.405217 L122.209639,113.306087 L122.209639,112.612174 L122.308434,112.612174 L122.604819,112.612174 C123.790361,112.612174 124.185542,111.81913 124.185542,110.332174 L124.185542,102.401739 C124.185542,101.410435 123.395181,100.815652 122.604819,100.815652 L122.308434,100.815652 L122.308434,100.716522 L122.308434,100.121739 L122.407229,100.121739 C123.098795,100.121739 123.889157,100.22087 124.580723,100.22087 C125.173494,100.22087 125.66747,100.121739 126.260241,100.22087 L134.460241,109.53913 L134.460241,102.6 C134.460241,101.113043 133.472289,100.914783 132.879518,100.914783 L132.385542,100.914783 L132.385542,100.815652 L132.385542,100.121739 L132.484337,100.121739 C133.373494,100.121739 134.262651,100.22087 135.053012,100.22087 C135.843373,100.22087 136.53494,100.121739 137.325301,100.121739 L137.424096,100.121739 L137.424096,100.22087 L137.424096,100.914783 L137.325301,100.914783 L137.028916,100.914783 C136.238554,100.914783 135.448193,101.013913 135.448193,103.194783 L135.448193,111.72 C135.448193,112.413913 135.448193,113.008696 135.546988,113.702609 Z M134.756627,113.504348 L135.349398,113.504348 C135.250602,112.909565 135.250602,112.314783 135.250602,111.72 L135.250602,103.194783 C135.250602,100.914783 136.238554,100.716522 137.028916,100.716522 L137.226506,100.716522 L137.226506,100.32 C136.436145,100.32 135.744578,100.41913 134.954217,100.41913 C134.06506,100.41913 133.274699,100.32 132.385542,100.32 L132.385542,100.716522 L132.681928,100.716522 C133.274699,100.716522 134.361446,101.013913 134.361446,102.6 L134.361446,109.737391 L134.262651,109.836522 L125.963855,100.41913 C125.371084,100.41913 124.877108,100.518261 124.284337,100.518261 C123.592771,100.518261 122.901205,100.41913 122.209639,100.41913 L122.209639,100.815652 L122.407229,100.815652 C123.296386,100.815652 124.185542,101.509565 124.185542,102.6 L124.185542,110.530435 C124.185542,112.017391 123.790361,113.008696 122.407229,113.008696 L122.209639,113.008696 L122.209639,113.405217 C123,113.405217 123.889157,113.306087 124.679518,113.306087 C125.46988,113.306087 126.260241,113.405217 127.050602,113.405217 L127.050602,113.008696 L126.853012,113.008696 C125.371084,113.008696 124.975904,112.314783 124.975904,110.728696 L124.975904,102.798261 L134.756627,113.504348 Z" id="Shape" fill="#000000"></path>
                <path d="M140.387952,110.629565 C140.190361,111.224348 139.992771,111.72 139.992771,112.116522 C139.992771,112.711304 140.783133,112.810435 141.375904,112.810435 L141.573494,112.810435 L141.573494,113.405217 C140.783133,113.405217 140.091566,113.306087 139.301205,113.306087 C138.609639,113.306087 137.918072,113.306087 137.325301,113.405217 L137.325301,112.810435 L137.424096,112.810435 C138.115663,112.810435 138.807229,112.413913 139.004819,111.62087 L141.968675,102.996522 C142.166265,102.302609 142.561446,101.311304 142.660241,100.617391 C143.253012,100.41913 144.043373,100.022609 144.339759,99.8243478 C144.438554,99.8243478 144.438554,99.8243478 144.438554,99.8243478 C144.537349,99.8243478 144.537349,99.8243478 144.537349,99.9234783 C144.636145,100.121739 144.636145,100.22087 144.73494,100.41913 L148.192771,110.233043 C148.390361,110.926957 148.686747,111.62087 148.884337,112.116522 C149.081928,112.612174 149.477108,112.909565 150.06988,112.909565 L150.168675,112.909565 L150.168675,113.504348 C149.279518,113.504348 148.489157,113.405217 147.6,113.405217 C146.710843,113.405217 145.722892,113.405217 144.833735,113.504348 L144.833735,112.909565 L145.031325,112.909565 C145.426506,112.909565 146.216867,112.810435 146.216867,112.413913 C146.216867,112.215652 146.019277,111.62087 145.821687,111.026087 L145.13012,108.845217 L140.881928,108.845217 L140.387952,110.629565 Z M143.055422,102.302609 L141.277108,107.655652 L144.73494,107.655652 L143.055422,102.302609 Z" id="Shape" fill="#000000"></path>
                <path d="M150.366265,113.405217 C149.477108,113.405217 148.686747,113.306087 147.79759,113.306087 C146.908434,113.306087 145.920482,113.306087 145.031325,113.405217 L144.93253,113.405217 L144.93253,113.306087 L144.93253,112.612174 L145.031325,112.612174 L145.228916,112.612174 C145.624096,112.612174 146.315663,112.513043 146.315663,112.116522 C146.315663,111.918261 146.118072,111.422609 145.920482,110.827826 L145.228916,108.746087 L141.079518,108.746087 L140.486747,110.629565 C140.289157,111.224348 140.091566,111.72 140.091566,112.116522 C140.091566,112.612174 140.783133,112.711304 141.375904,112.711304 L141.672289,112.711304 L141.672289,112.810435 L141.672289,113.504348 L141.573494,113.504348 C140.783133,113.504348 140.091566,113.405217 139.301205,113.405217 C138.609639,113.405217 137.918072,113.405217 137.325301,113.504348 L137.226506,113.504348 L137.226506,113.405217 L137.226506,112.711304 L137.325301,112.711304 L137.424096,112.711304 C138.115663,112.711304 138.708434,112.314783 139.004819,111.521739 L141.968675,102.897391 C142.166265,102.203478 142.561446,101.311304 142.759036,100.518261 C143.351807,100.32 144.142169,99.9234783 144.438554,99.7252174 C144.438554,99.7252174 144.537349,99.7252174 144.636145,99.7252174 C144.636145,99.7252174 144.73494,99.7252174 144.833735,99.8243478 C144.93253,99.9234783 144.93253,100.121739 145.031325,100.32 L148.489157,110.133913 C148.686747,110.827826 148.983133,111.521739 149.180723,112.017391 C149.378313,112.513043 149.773494,112.711304 150.366265,112.711304 L150.563855,112.711304 L150.563855,112.810435 L150.366265,113.405217 Z M145.031325,113.206957 C145.920482,113.206957 146.908434,113.107826 147.79759,113.107826 C148.686747,113.107826 149.477108,113.107826 150.26747,113.206957 L150.26747,112.810435 C149.674699,112.810435 149.180723,112.513043 148.983133,112.017391 C148.785542,111.422609 148.489157,110.728696 148.291566,110.133913 L144.833735,100.32 C144.73494,100.121739 144.73494,100.022609 144.636145,99.8243478 C144.636145,99.8243478 144.636145,99.8243478 144.636145,99.8243478 C144.636145,99.8243478 144.537349,99.8243478 144.537349,99.8243478 C144.142169,100.022609 143.450602,100.41913 142.857831,100.617391 C142.759036,101.311304 142.363855,102.302609 142.166265,102.996522 L139.20241,111.62087 C138.906024,112.413913 138.313253,112.909565 137.522892,112.909565 L137.522892,113.306087 C138.214458,113.306087 138.807229,113.206957 139.498795,113.206957 C140.190361,113.206957 140.980723,113.206957 141.672289,113.306087 L141.672289,112.909565 L141.573494,112.909565 C140.980723,112.909565 140.091566,112.810435 140.091566,112.215652 C140.091566,111.81913 140.289157,111.323478 140.486747,110.728696 L140.585542,110.728696 L140.486747,110.728696 L141.079518,108.746087 L145.426506,108.746087 L146.216867,110.926957 C146.414458,111.521739 146.612048,112.017391 146.612048,112.314783 C146.612048,112.909565 145.821687,112.909565 145.327711,112.909565 L145.228916,112.909565 L145.228916,113.206957 L145.031325,113.206957 Z M141.178313,107.754783 L142.956627,102.302609 L143.055422,102.302609 L143.055422,102.401739 L143.055422,102.302609 L143.154217,102.302609 L144.93253,107.754783 L141.178313,107.754783 Z M141.375904,107.556522 L144.636145,107.556522 L143.055422,102.50087 L141.375904,107.556522 Z" id="Shape" fill="#000000"></path>
                <path d="M155.009639,111.521739 C155.009639,112.314783 155.503614,112.513043 156.096386,112.612174 C156.886747,112.711304 157.677108,112.711304 158.566265,112.612174 C159.356627,112.513043 160.048193,112.116522 160.344578,111.62087 C160.640964,111.224348 160.838554,110.728696 160.937349,110.233043 L161.431325,110.233043 C161.233735,111.323478 160.937349,112.314783 160.739759,113.405217 C159.060241,113.405217 157.479518,113.306087 155.8,113.306087 C154.120482,113.306087 152.539759,113.405217 150.860241,113.405217 L150.860241,112.810435 L151.156627,112.810435 C151.848193,112.810435 152.539759,112.711304 152.539759,111.521739 L152.539759,101.906087 C152.539759,100.914783 151.848193,100.815652 151.156627,100.815652 L150.860241,100.815652 L150.860241,100.22087 C151.848193,100.22087 152.836145,100.32 153.824096,100.32 C154.812048,100.32 155.701205,100.22087 156.689157,100.22087 L156.689157,100.815652 L156.195181,100.815652 C155.503614,100.815652 154.910843,100.815652 154.910843,101.806957 L154.910843,111.521739 L155.009639,111.521739 Z" id="Shape" fill="#000000"></path>
                <path d="M160.838554,113.405217 C159.159036,113.405217 157.578313,113.306087 155.898795,113.306087 C154.219277,113.306087 152.638554,113.405217 150.959036,113.405217 L150.860241,113.405217 L150.860241,113.306087 L150.860241,112.612174 L150.959036,112.612174 L151.255422,112.612174 C151.946988,112.612174 152.539759,112.513043 152.539759,111.422609 L152.539759,101.806957 C152.539759,100.914783 151.848193,100.815652 151.255422,100.815652 L150.959036,100.815652 L150.959036,100.716522 L150.959036,100.121739 L151.057831,100.121739 C152.045783,100.121739 153.033735,100.22087 154.021687,100.22087 C155.009639,100.22087 155.898795,100.121739 156.886747,100.121739 L156.985542,100.121739 L156.985542,100.22087 L156.985542,100.914783 L156.886747,100.914783 L156.392771,100.914783 C155.701205,100.914783 155.207229,100.914783 155.207229,101.806957 L155.207229,111.521739 C155.207229,112.215652 155.701205,112.413913 156.293976,112.513043 C156.590361,112.513043 156.985542,112.513043 157.281928,112.513043 C157.775904,112.513043 158.171084,112.513043 158.66506,112.413913 C159.455422,112.314783 160.048193,111.918261 160.443373,111.422609 C160.739759,111.026087 160.937349,110.530435 161.036145,110.133913 L161.036145,110.034783 L161.13494,110.034783 L161.727711,110.034783 L161.727711,110.133913 C161.431325,111.224348 161.13494,112.314783 160.838554,113.405217 Z M160.838554,113.206957 C161.036145,112.215652 161.33253,111.224348 161.53012,110.133913 L161.036145,110.133913 C160.937349,110.530435 160.739759,111.026087 160.443373,111.422609 C160.048193,111.918261 159.356627,112.413913 158.566265,112.513043 C158.072289,112.513043 157.578313,112.612174 157.084337,112.612174 C156.689157,112.612174 156.392771,112.612174 155.99759,112.612174 C155.404819,112.513043 154.812048,112.314783 154.812048,111.521739 L154.812048,101.806957 C154.812048,100.716522 155.503614,100.716522 156.195181,100.716522 L156.590361,100.716522 L156.590361,100.32 C155.701205,100.32 154.713253,100.41913 153.824096,100.41913 C152.836145,100.41913 151.946988,100.32 150.959036,100.32 L150.959036,100.716522 L151.156627,100.716522 C151.848193,100.716522 152.638554,100.815652 152.638554,101.906087 L152.638554,111.521739 C152.638554,112.711304 151.848193,112.909565 151.156627,112.909565 L150.959036,112.909565 L150.959036,113.306087 C152.539759,113.306087 154.219277,113.206957 155.8,113.206957 C157.578313,113.206957 159.159036,113.206957 160.838554,113.206957 Z" id="Shape" fill="#000000"></path>
                <path d="M161.33253,99.7252174 C162.419277,99.7252174 163.308434,100.617391 163.308434,101.707826 C163.308434,102.798261 162.419277,103.690435 161.33253,103.690435 C160.245783,103.690435 159.356627,102.798261 159.356627,101.707826 C159.356627,100.518261 160.245783,99.7252174 161.33253,99.7252174 Z M161.33253,103.293913 C162.221687,103.293913 162.913253,102.50087 162.913253,101.707826 C162.913253,100.815652 162.221687,100.121739 161.33253,100.121739 C160.443373,100.121739 159.751807,100.914783 159.751807,101.707826 C159.751807,102.50087 160.443373,103.293913 161.33253,103.293913 Z M160.344578,102.69913 C160.542169,102.6 160.640964,102.6 160.640964,102.401739 L160.640964,100.914783 C160.640964,100.716522 160.640964,100.617391 160.344578,100.617391 L160.344578,100.518261 L161.33253,100.518261 C161.727711,100.518261 162.024096,100.716522 162.024096,101.013913 C162.024096,101.311304 161.826506,101.509565 161.53012,101.608696 L161.826506,102.104348 C162.024096,102.302609 162.122892,102.50087 162.221687,102.6 L162.221687,102.69913 L161.826506,102.69913 C161.628916,102.69913 161.431325,102.302609 161.13494,101.806957 L161.036145,101.806957 L161.036145,102.50087 C161.036145,102.6 161.036145,102.6 161.33253,102.69913 L161.33253,102.798261 L160.344578,102.798261 L160.344578,102.69913 Z M161.036145,101.707826 L161.233735,101.707826 C161.53012,101.707826 161.628916,101.509565 161.628916,101.212174 C161.628916,100.914783 161.431325,100.815652 161.233735,100.815652 L161.036145,100.815652 L161.036145,101.707826 Z" id="Shape" fill="#000000"></path>
            </g>
        </g>
    </g>
</svg>