<?xml version="1.0" encoding="UTF-8"?>
<svg xmlns="http://www.w3.org/2000/svg" xmlns:xlink="http://www.w3.org/1999/xlink" width="24px" height="24px" viewBox="0 0 24 24" version="1.1">
<g id="surface1">
<path style=" stroke:none;fill-rule:nonzero;fill:rgb(100%,79.215686%,1.960784%);fill-opacity:1;" d="M 4.945312 9.804688 C 5.175781 9.726562 5.421875 9.6875 5.679688 9.6875 C 6.796875 9.6875 7.730469 10.480469 7.945312 11.535156 L 9.53125 11.214844 C 9.167969 9.417969 7.582031 8.066406 5.679688 8.066406 C 5.242188 8.066406 4.824219 8.136719 4.433594 8.269531 Z M 4.945312 9.804688 "/>
<path style=" stroke:none;fill-rule:nonzero;fill:rgb(0%,63.921569%,87.45098%);fill-opacity:1;" d="M 3.074219 14.941406 L 4.144531 13.730469 C 3.667969 13.304688 3.367188 12.6875 3.367188 11.996094 C 3.367188 11.308594 3.667969 10.691406 4.144531 10.265625 L 3.074219 9.054688 C 2.261719 9.773438 1.746094 10.824219 1.746094 11.996094 C 1.746094 13.167969 2.261719 14.222656 3.074219 14.941406 "/>
<path style=" stroke:none;fill-rule:nonzero;fill:rgb(93.333333%,25.098039%,13.72549%);fill-opacity:1;" d="M 7.945312 12.460938 C 7.730469 13.515625 6.796875 14.308594 5.679688 14.308594 C 5.421875 14.308594 5.175781 14.269531 4.945312 14.191406 L 4.433594 15.726562 C 4.824219 15.855469 5.242188 15.929688 5.679688 15.929688 C 7.578125 15.929688 9.164062 14.578125 9.53125 12.785156 Z M 7.945312 12.460938 "/>
<path style=" stroke:none;fill-rule:nonzero;fill:rgb(100%,100%,100%);fill-opacity:1;" d="M 10.917969 13.78125 C 10.863281 13.695312 10.796875 13.5625 10.753906 13.460938 C 10.5 12.878906 10.488281 12.277344 10.699219 11.695312 C 10.933594 11.0625 11.378906 10.574219 11.957031 10.328125 C 12.679688 10.015625 13.480469 10.078125 14.171875 10.488281 C 14.613281 10.742188 14.925781 11.132812 15.164062 11.683594 C 15.191406 11.753906 15.21875 11.828125 15.246094 11.894531 Z M 12.363281 11.265625 C 11.847656 11.484375 11.582031 11.96875 11.640625 12.53125 L 13.816406 11.59375 C 13.441406 11.15625 12.953125 11.011719 12.363281 11.265625 Z M 14.085938 13.304688 L 14.039062 13.273438 C 13.910156 13.484375 13.707031 13.65625 13.453125 13.765625 C 12.964844 13.976562 12.515625 13.921875 12.191406 13.640625 L 12.160156 13.683594 L 11.605469 14.507812 C 11.746094 14.605469 11.890625 14.683594 12.046875 14.75 C 12.65625 15.003906 13.28125 14.992188 13.894531 14.722656 C 14.339844 14.53125 14.6875 14.238281 14.925781 13.863281 Z M 14.085938 13.304688 "/>
<path style=" stroke:none;fill-rule:nonzero;fill:rgb(100%,100%,100%);fill-opacity:1;" d="M 16.757812 9.113281 L 16.757812 13.703125 L 17.472656 13.992188 L 17.066406 14.941406 L 16.277344 14.613281 C 16.101562 14.535156 15.980469 14.417969 15.890625 14.285156 C 15.804688 14.152344 15.738281 13.964844 15.738281 13.71875 L 15.738281 9.113281 Z M 16.757812 9.113281 "/>
<path style=" stroke:none;fill-rule:nonzero;fill:rgb(100%,100%,100%);fill-opacity:1;" d="M 18.609375 12.535156 C 18.609375 12.144531 18.78125 11.792969 19.054688 11.554688 L 18.320312 10.738281 C 17.824219 11.175781 17.511719 11.820312 17.511719 12.535156 C 17.511719 13.25 17.824219 13.890625 18.320312 14.332031 L 19.050781 13.511719 C 18.777344 13.273438 18.609375 12.925781 18.609375 12.535156 Z M 18.609375 12.535156 "/>
<path style=" stroke:none;fill-rule:nonzero;fill:rgb(100%,100%,100%);fill-opacity:1;" d="M 19.910156 13.839844 C 19.765625 13.839844 19.625 13.8125 19.496094 13.769531 L 19.144531 14.808594 C 19.386719 14.890625 19.640625 14.933594 19.90625 14.933594 C 21.066406 14.933594 22.035156 14.113281 22.261719 13.019531 L 21.183594 12.800781 C 21.0625 13.394531 20.539062 13.839844 19.910156 13.839844 Z M 19.910156 13.839844 "/>
<path style=" stroke:none;fill-rule:nonzero;fill:rgb(100%,100%,100%);fill-opacity:1;" d="M 19.914062 10.136719 C 19.644531 10.136719 19.390625 10.179688 19.152344 10.257812 L 19.5 11.300781 C 19.628906 11.257812 19.765625 11.234375 19.910156 11.234375 C 20.542969 11.234375 21.066406 11.679688 21.1875 12.277344 L 22.261719 12.058594 C 22.042969 10.964844 21.074219 10.136719 19.914062 10.136719 Z M 19.914062 10.136719 "/>
</g>
</svg>
