<?xml version="1.0" encoding="utf-8"?>
<!-- Generator: Adobe Illustrator 23.0.3, SVG Export Plug-In . SVG Version: 6.00 Build 0)  -->
<svg version="1.1" id="Camada_1" xmlns="http://www.w3.org/2000/svg" xmlns:xlink="http://www.w3.org/1999/xlink" x="0px" y="0px"
	 viewBox="0 0 367.4 246.7" style="enable-background:new 0 0 367.4 246.7;" xml:space="preserve">
<style type="text/css">
	.st0{fill-rule:evenodd;clip-rule:evenodd;fill:#FFCC00;}
	.st1{fill-rule:evenodd;clip-rule:evenodd;fill:#00468E;}
	.st2{fill-rule:evenodd;clip-rule:evenodd;fill:#FFFFFF;}
</style>
<g>
	<path class="st0" d="M40.6,174.5h298.5l-3.1,34.8c-0.8,9.2-9.1,16.7-18.4,16.7H19.2l3.1-34.8C23.1,182,31.3,174.5,40.6,174.5
		L40.6,174.5z"/>
	<path class="st1" d="M60.8,37.2h289.6l-9.2,109.7c-1.1,12.6-12,20.6-22.8,20.6l-294.2,0L32.8,65C34.9,40.1,51.5,37.2,60.8,37.2
		L60.8,37.2z"/>
	<path class="st2" d="M88.3,118.3c0.8-6.1,1.5-12.3,2.3-18.4c10.6,0,21.1,0,31.7,0c-1.9,15.8-3.8,31.7-5.7,47.5
		c-8.9,2.3-18.9,3.9-28.6,4.1c-26.2,0.4-46.8-11.3-42.8-45c3.3-28.1,24.1-40.5,43.8-42.6c11.1-1.2,22.7,0.2,33.1,2.1
		c-0.2,6.5-0.5,12.9-0.7,19.4c-20.5-6.6-45.7-7-52.1,22.5c-3.7,16.8,7.5,27.1,26.3,23c0.7-4.2,1.3-8.4,2-12.6
		C94.4,118.2,91.3,118.2,88.3,118.3L88.3,118.3z M159.8,82.6c17.5,0.2,31.1,7.5,29.3,34c-1.3,18.9-15.2,34.5-37.7,34.5
		c-23,0-29-14.8-28-33.7C124.6,96.6,140,82.4,159.8,82.6L159.8,82.6z M158.9,100.4c5.5,0.6,9.5,4.5,7.7,17.3
		c-1.3,9.1-6.3,16.2-13.4,15.6c-7.2-0.7-8.5-8-7.3-17.1C147.2,106.1,152.7,99.7,158.9,100.4L158.9,100.4z M227.5,82.6
		c17.5,0.2,31.1,7.5,29.3,34c-1.3,18.9-15.2,34.5-37.7,34.5c-23,0-29-14.8-28-33.7C192.3,96.6,207.7,82.4,227.5,82.6L227.5,82.6z
		 M226.6,100.4c5.5,0.6,9.5,4.5,7.7,17.3c-1.3,9.1-6.3,16.2-13.4,15.6c-7.2-0.7-8.5-8-7.3-17.1C214.9,106.1,220.4,99.7,226.6,100.4
		L226.6,100.4z M300.8,121.8c-2.1,6.9-6.3,11.6-12,11.1c-6.9-0.7-7.8-8-6.4-17.1c0.8-5.2,3.7-9.6,6.2-12.7c2.6-3.3,8.4-5.6,15.1-3.3
		L300.8,121.8L300.8,121.8z M308.4,64.9h22.2L318.4,149h-21.1l0.6-4.2l0,0c-5,5.5-24.2,11.2-34.8-2.6c-4.7-6.1-5.3-14.7-4.1-24.9
		c2.5-20.7,18.8-34.9,38.6-34.7c3.1,0,5.9,0.3,8.4,0.8L308.4,64.9L308.4,64.9z"/>
	<path class="st1" d="M305,207c-1,2.8-2.9,4.7-5.4,4.5c-3.1-0.3-3.7-3.5-3.1-7.2c0.4-2.1,1.7-3.9,2.8-5.2c1.2-1.3,4-2,7-1.1L305,207
		L305,207z M308.4,184h10.1l-5.6,34h-9.6l0.3-1.7l0,0c-2.3,2.2-10.8,4.8-15.6-0.8c-2.1-2.5-2.2-6.2-1.7-10.3
		c1.1-8.4,8.1-14.1,17.2-14c1.4,0,2.7,0.1,3.8,0.3L308.4,184L308.4,184z M237.2,209.6l-1.9,8.4c-3.7,0.9-5.4,0.9-9.4,1
		c-10.8,0.2-19.5-4.3-17.8-18.2c1.4-11.6,10-16.7,18.1-17.6c4.6-0.5,9.4,0.1,13.7,0.9c-0.1,2.7-0.2,5.3-0.3,8
		c-8.5-2.7-17.8-3-20.4,9.1c-1.5,6.9,3.5,10.3,11.4,9.7C233.5,210.7,235.5,210.3,237.2,209.6L237.2,209.6z M253,218h9.9
		c0,0,1.7-15.4,2.4-20c0.6-4.6-1.2-7.1-9.5-7.4c-8.3-0.3-11,1.5-11,1.5l-1.6,7.6c0,0,4.9-2.4,8.4-2.4c3.5,0,4.1,0.7,4.1,1.7
		c0,1-1.5,2.1-5.3,2.9c-3.8,0.8-11.5,1.8-12.2,9.1c-0.8,7.3,5.1,7.6,7.8,7.6c2.7,0,7.1-1.5,7.1-1.5L253,218L253,218z M254.6,206.5
		l-0.8,5.6c0,0-7.6,3.2-7.4-1.4C246.6,207.7,252.8,207.9,254.6,206.5L254.6,206.5z M275.6,218h-10l3.8-26.5h8.9l-0.5,3.3
		c0,0,2-4.4,10.1-4.1l-1.4,8.2c0,0-7.8-2-9.3,8.1C275.7,217.2,275.6,218,275.6,218L275.6,218z"/>
</g>
</svg>
