<?xml version="1.0" encoding="UTF-8"?>
<svg xmlns="http://www.w3.org/2000/svg" xmlns:xlink="http://www.w3.org/1999/xlink" width="24px" height="24px" viewBox="0 0 24 24" version="1.1">
<g id="surface1">
<path style=" stroke:none;fill-rule:evenodd;fill:rgb(100%,80%,0%);fill-opacity:1;" d="M 2.652344 15.339844 L 22.152344 15.339844 L 21.949219 17.613281 C 21.898438 18.214844 21.355469 18.707031 20.746094 18.707031 L 1.253906 18.707031 L 1.457031 16.433594 C 1.507812 15.832031 2.042969 15.339844 2.652344 15.339844 Z M 2.652344 15.339844 "/>
<path style=" stroke:none;fill-rule:evenodd;fill:rgb(0%,27.45098%,55.686275%);fill-opacity:1;" d="M 3.972656 6.371094 L 22.890625 6.371094 L 22.289062 13.539062 C 22.214844 14.363281 21.503906 14.882812 20.800781 14.882812 L 1.582031 14.882812 L 2.144531 8.1875 C 2.28125 6.5625 3.363281 6.371094 3.972656 6.371094 Z M 3.972656 6.371094 "/>
<path style=" stroke:none;fill-rule:evenodd;fill:rgb(100%,100%,100%);fill-opacity:1;" d="M 5.769531 11.671875 C 5.820312 11.273438 5.867188 10.867188 5.917969 10.46875 C 6.609375 10.46875 7.296875 10.46875 7.988281 10.46875 C 7.863281 11.5 7.742188 12.539062 7.617188 13.570312 C 7.035156 13.722656 6.382812 13.824219 5.75 13.839844 C 4.035156 13.863281 2.691406 13.101562 2.953125 10.898438 C 3.167969 9.0625 4.527344 8.253906 5.8125 8.117188 C 6.539062 8.039062 7.296875 8.128906 7.976562 8.253906 C 7.964844 8.679688 7.945312 9.097656 7.929688 9.519531 C 6.589844 9.089844 4.945312 9.0625 4.527344 10.992188 C 4.285156 12.089844 5.015625 12.761719 6.246094 12.492188 C 6.289062 12.21875 6.328125 11.945312 6.375 11.671875 C 6.167969 11.664062 5.964844 11.664062 5.769531 11.671875 Z M 10.4375 9.339844 C 11.582031 9.351562 12.46875 9.828125 12.351562 11.558594 C 12.269531 12.792969 11.359375 13.8125 9.890625 13.8125 C 8.386719 13.8125 7.996094 12.847656 8.0625 11.609375 C 8.140625 10.253906 9.144531 9.324219 10.4375 9.339844 Z M 10.378906 10.5 C 10.738281 10.539062 11 10.792969 10.882812 11.632812 C 10.796875 12.226562 10.472656 12.6875 10.007812 12.648438 C 9.539062 12.605469 9.453125 12.128906 9.53125 11.53125 C 9.617188 10.875 9.976562 10.457031 10.378906 10.5 Z M 14.859375 9.339844 C 16.003906 9.351562 16.894531 9.828125 16.773438 11.558594 C 16.691406 12.792969 15.78125 13.8125 14.3125 13.8125 C 12.808594 13.8125 12.417969 12.847656 12.484375 11.609375 C 12.5625 10.253906 13.566406 9.324219 14.859375 9.339844 Z M 14.800781 10.5 C 15.160156 10.539062 15.421875 10.792969 15.304688 11.632812 C 15.21875 12.226562 14.894531 12.6875 14.429688 12.648438 C 13.960938 12.605469 13.875 12.128906 13.953125 11.53125 C 14.039062 10.875 14.398438 10.457031 14.800781 10.5 Z M 19.648438 11.898438 C 19.511719 12.347656 19.238281 12.65625 18.867188 12.625 C 18.414062 12.578125 18.355469 12.101562 18.449219 11.507812 C 18.5 11.167969 18.6875 10.878906 18.851562 10.675781 C 19.023438 10.460938 19.402344 10.3125 19.839844 10.460938 Z M 20.144531 8.183594 L 21.597656 8.183594 L 20.800781 13.675781 L 19.421875 13.675781 L 19.460938 13.402344 C 19.132812 13.761719 17.878906 14.132812 17.1875 13.230469 C 16.878906 12.832031 16.839844 12.269531 16.917969 11.605469 C 17.082031 10.253906 18.148438 9.324219 19.441406 9.339844 C 19.644531 9.339844 19.824219 9.359375 19.988281 9.390625 Z M 20.144531 8.183594 "/>
<path style=" stroke:none;fill-rule:evenodd;fill:rgb(0%,27.45098%,55.686275%);fill-opacity:1;" d="M 19.921875 17.464844 C 19.859375 17.648438 19.734375 17.769531 19.570312 17.757812 C 19.367188 17.738281 19.328125 17.53125 19.367188 17.289062 C 19.394531 17.152344 19.480469 17.035156 19.550781 16.949219 C 19.628906 16.863281 19.8125 16.816406 20.007812 16.875 Z M 20.144531 15.960938 L 20.804688 15.960938 L 20.441406 18.183594 L 19.8125 18.183594 L 19.832031 18.070312 C 19.683594 18.214844 19.125 18.386719 18.8125 18.019531 C 18.675781 17.855469 18.667969 17.613281 18.703125 17.347656 C 18.773438 16.796875 19.230469 16.425781 19.824219 16.433594 C 19.917969 16.433594 20.003906 16.4375 20.074219 16.453125 Z M 15.496094 17.632812 L 15.371094 18.183594 C 15.128906 18.242188 15.019531 18.242188 14.757812 18.25 C 14.050781 18.261719 13.484375 17.96875 13.59375 17.058594 C 13.683594 16.300781 14.246094 15.96875 14.777344 15.910156 C 15.078125 15.878906 15.390625 15.917969 15.671875 15.96875 C 15.664062 16.144531 15.65625 16.316406 15.652344 16.492188 C 15.097656 16.316406 14.488281 16.296875 14.320312 17.085938 C 14.222656 17.535156 14.546875 17.757812 15.0625 17.71875 C 15.253906 17.707031 15.382812 17.679688 15.496094 17.632812 Z M 16.527344 18.183594 L 17.171875 18.183594 C 17.171875 18.183594 17.285156 17.175781 17.332031 16.875 C 17.371094 16.574219 17.253906 16.414062 16.710938 16.394531 C 16.167969 16.375 15.992188 16.492188 15.992188 16.492188 L 15.886719 16.988281 C 15.886719 16.988281 16.207031 16.832031 16.433594 16.832031 C 16.664062 16.832031 16.703125 16.875 16.703125 16.941406 C 16.703125 17.007812 16.605469 17.078125 16.355469 17.132812 C 16.109375 17.183594 15.605469 17.25 15.558594 17.726562 C 15.507812 18.203125 15.894531 18.222656 16.070312 18.222656 C 16.246094 18.222656 16.535156 18.125 16.535156 18.125 Z M 16.632812 17.433594 L 16.578125 17.796875 C 16.578125 17.796875 16.082031 18.007812 16.097656 17.707031 C 16.109375 17.511719 16.515625 17.523438 16.632812 17.433594 Z M 18.003906 18.183594 L 17.351562 18.183594 L 17.597656 16.453125 L 18.179688 16.453125 L 18.148438 16.667969 C 18.148438 16.667969 18.277344 16.378906 18.808594 16.398438 L 18.714844 16.933594 C 18.714844 16.933594 18.207031 16.804688 18.109375 17.464844 C 18.011719 18.128906 18.003906 18.183594 18.003906 18.183594 Z M 18.003906 18.183594 "/>
</g>
</svg>
