<?xml version="1.0" encoding="UTF-8"?>
<svg xmlns="http://www.w3.org/2000/svg" xmlns:xlink="http://www.w3.org/1999/xlink" width="24px" height="24px" viewBox="0 0 24 24" version="1.1">
<g id="surface1">
<path style=" stroke:none;fill-rule:nonzero;fill:rgb(92.156863%,36.470588%,8.235294%);fill-opacity:1;" d="M 5.265625 19.761719 L 21.050781 19.761719 C 21.492188 19.152344 21.667969 18.355469 21.472656 17.578125 L 18.824219 6.941406 C 18.46875 5.53125 17.03125 4.65625 15.609375 5.007812 L 4.972656 7.660156 C 3.558594 8.011719 2.683594 9.453125 3.039062 10.875 Z M 5.265625 19.761719 "/>
<path style=" stroke:none;fill-rule:nonzero;fill:rgb(100%,98.431373%,100%);fill-opacity:1;" d="M 7.683594 11.6875 L 7.683594 13.339844 L 6.09375 13.339844 L 6.09375 11.6875 L 4.972656 11.6875 L 4.972656 16.191406 L 6.09375 16.191406 L 6.09375 14.308594 L 7.683594 14.308594 L 7.683594 16.191406 L 8.808594 16.191406 L 8.808594 11.6875 Z M 7.683594 11.6875 "/>
<path style=" stroke:none;fill-rule:nonzero;fill:rgb(100%,100%,100%);fill-opacity:1;" d="M 12.765625 12.808594 C 11.765625 12.808594 11.730469 13.339844 11.730469 13.339844 L 11.730469 12.921875 L 10.847656 12.921875 L 10.847656 15.421875 C 10.300781 15.421875 10.316406 14.820312 10.316406 14.820312 L 10.316406 12.921875 L 9.230469 12.921875 C 9.230469 12.921875 9.230469 13.699219 9.230469 14.785156 C 9.230469 16.191406 10.804688 16.28125 10.804688 16.28125 L 10.804688 17.429688 L 11.878906 17.429688 L 11.878906 16.304688 C 13.9375 16.304688 14.175781 15.441406 14.175781 14.582031 C 14.175781 13.734375 13.761719 12.808594 12.765625 12.808594 Z M 12.261719 15.433594 C 12.039062 15.433594 11.878906 15.433594 11.878906 15.433594 L 11.878906 14.089844 C 11.878906 14.089844 11.925781 13.664062 12.4375 13.664062 C 12.949219 13.664062 13.074219 14.308594 13.074219 14.65625 C 13.074219 15 12.96875 15.433594 12.261719 15.433594 Z M 12.261719 15.433594 "/>
<path style=" stroke:none;fill-rule:nonzero;fill:rgb(98.823529%,81.176471%,6.666667%);fill-opacity:1;" d="M 10.316406 12.046875 C 10.316406 12.367188 10.0625 12.632812 9.734375 12.632812 C 9.417969 12.632812 9.152344 12.375 9.152344 12.046875 C 9.152344 11.730469 9.40625 11.464844 9.734375 11.464844 C 10.0625 11.464844 10.316406 11.730469 10.316406 12.046875 Z M 10.316406 12.046875 "/>
<path style=" stroke:none;fill-rule:nonzero;fill:rgb(100%,98.431373%,100%);fill-opacity:1;" d="M 15.925781 12.808594 C 14.230469 12.808594 14.335938 14.726562 14.335938 14.691406 C 14.335938 14.65625 14.230469 16.296875 15.996094 16.296875 C 16.660156 16.296875 17.277344 16.050781 17.277344 16.050781 L 17.171875 15.316406 C 17.171875 15.316406 15.433594 15.785156 15.289062 14.875 L 17.402344 14.875 C 17.402344 14.867188 17.621094 12.808594 15.925781 12.808594 Z M 16.519531 14.152344 L 15.28125 14.152344 C 15.28125 14.152344 15.238281 13.460938 15.898438 13.460938 C 16.5625 13.460938 16.519531 14.152344 16.519531 14.152344 Z M 16.519531 14.152344 "/>
<path style=" stroke:none;fill-rule:nonzero;fill:rgb(100%,98.431373%,100%);fill-opacity:1;" d="M 18.648438 12.921875 L 17.667969 12.921875 L 17.667969 16.191406 L 18.816406 16.191406 L 18.816406 14.308594 C 18.816406 14.308594 18.753906 13.628906 19.699219 13.824219 L 19.699219 12.808594 C 19.699219 12.808594 18.949219 12.632812 18.636719 13.339844 Z M 18.648438 12.921875 "/>
</g>
</svg>
