<?xml version="1.0" encoding="utf-8"?>
<svg version="1.1" xmlns="http://www.w3.org/2000/svg" height="24" width="24" viewBox="0 0 271.7 271.7" style="enable-background:new 0 0 271.7 271.7;" xml:space="preserve">
<g>
	<path display="none" fill="#EB5D15" d="M221.2,235.3l-120.4,30c-16,4-32.4-5.9-36.4-21.9L34.5,123c-4-16,5.9-32.4,21.9-36.4l120.4-30
		c16-4,32.4,5.9,36.4,21.9l30,120.4C247.1,215,237.2,231.3,221.2,235.3z"/>
    <path fill="#EB5D15" d="M59.6,223.7h178.7c5-6.9,7-15.9,4.8-24.7l-30-120.4c-4-16-20.3-25.9-36.4-21.9l-120.4,30
		c-16,4-25.9,20.3-21.9,36.4L59.6,223.7z"/>
</g>
    <g id="Camada_2">
	<polygon fill="#FFFBFF" points="87,132.3 87,151 69,151 69,132.3 56.3,132.3 56.3,183.3 69,183.3 69,162 87,162 87,183.3 99.7,183.3 
		99.7,132.3 	"/>
        <path fill="#FFFFFF" d="M144.5,145c-11.3,0-11.7,6-11.7,6v-4.7h-10v28.3c-6.2,0-6-6.8-6-6.8v-21.5h-12.3c0,0,0,8.8,0,21.1
		c0,15.9,17.8,16.9,17.8,16.9v13h12.2v-12.7c23.3,0,26-9.8,26-19.5C160.5,155.5,155.8,145,144.5,145z M138.8,174.7
		c-2.5,0-4.3,0-4.3,0v-15.2c0,0,0.5-4.8,6.3-4.8s7.2,7.3,7.2,11.2S146.8,174.7,138.8,174.7z"/>
        <path fill="#FCCF11" d="M116.8,136.4c0,3.6-2.9,6.6-6.6,6.6c-3.6,0-6.6-2.9-6.6-6.6c0-3.6,2.9-6.6,6.6-6.6
		C113.9,129.8,116.8,132.8,116.8,136.4z"/>
        <path fill="#FFFBFF" d="M180.3,145c-19.2,0-18,21.7-18,21.3s-1.2,18.2,18.8,18.2c7.5,0,14.5-2.8,14.5-2.8l-1.2-8.3
		c0,0-19.7,5.3-21.3-5H197C197,168.3,199.5,145,180.3,145z M187,160.2h-14c0,0-0.5-7.8,7-7.8S187,160.2,187,160.2z"/>
        <path fill="#FFFBFF" d="M211.1,146.3H200v37h13V162c0,0-0.7-7.7,10-5.5V145c0,0-8.5-2-12,6L211.1,146.3z"/>
        <path fill="none" d="M7.6,311.8H-3.5v37h13v-21.3c0,0-0.7-7.7,10-5.5v-11.5c0,0-8.5-2-12,6L7.6,311.8z"/>
    </g>
</svg>
