<?xml version="1.0" encoding="UTF-8"?>
<svg xmlns="http://www.w3.org/2000/svg" xmlns:xlink="http://www.w3.org/1999/xlink" width="24px" height="24px" viewBox="0 0 24 24" version="1.1">
<defs>
<linearGradient id="linear0" gradientUnits="userSpaceOnUse" x1="-0.575271" y1="0.501242" x2="2.323912" y2="0.501242" gradientTransform="matrix(2.273438,0,0,1.40625,17.398438,12.285156)">
<stop offset="0" style="stop-color:rgb(0%,47.45098%,25.098039%);stop-opacity:1;"/>
<stop offset="0.2285" style="stop-color:rgb(0%,52.941176%,24.705882%);stop-opacity:1;"/>
<stop offset="0.7433" style="stop-color:rgb(25.098039%,65.490196%,21.568627%);stop-opacity:1;"/>
<stop offset="1" style="stop-color:rgb(36.078431%,70.980392%,19.215686%);stop-opacity:1;"/>
</linearGradient>
<linearGradient id="linear1" gradientUnits="userSpaceOnUse" x1="0.00182517" y1="0.4996" x2="1.002734" y2="0.4996" gradientTransform="matrix(6.585938,0,0,16.003906,16.078125,3.964844)">
<stop offset="0" style="stop-color:rgb(0%,47.45098%,25.098039%);stop-opacity:1;"/>
<stop offset="0.2285" style="stop-color:rgb(0%,52.941176%,24.705882%);stop-opacity:1;"/>
<stop offset="0.7433" style="stop-color:rgb(25.098039%,65.490196%,21.568627%);stop-opacity:1;"/>
<stop offset="1" style="stop-color:rgb(36.078431%,70.980392%,19.215686%);stop-opacity:1;"/>
</linearGradient>
<linearGradient id="linear2" gradientUnits="userSpaceOnUse" x1="-0.628016" y1="0.498578" x2="2.536713" y2="0.498578" gradientTransform="matrix(2.082031,0,0,1.292969,17.398437,10.199219)">
<stop offset="0" style="stop-color:rgb(0%,47.45098%,25.098039%);stop-opacity:1;"/>
<stop offset="0.2285" style="stop-color:rgb(0%,52.941176%,24.705882%);stop-opacity:1;"/>
<stop offset="0.7433" style="stop-color:rgb(25.098039%,65.490196%,21.568627%);stop-opacity:1;"/>
<stop offset="1" style="stop-color:rgb(36.078431%,70.980392%,19.215686%);stop-opacity:1;"/>
</linearGradient>
<linearGradient id="linear3" gradientUnits="userSpaceOnUse" x1="0.00175557" y1="0.500058" x2="1.018082" y2="0.500058" gradientTransform="matrix(6.585938,0,0,15.992188,1.320312,3.964844)">
<stop offset="0" style="stop-color:rgb(12.156863%,15.686275%,43.529412%);stop-opacity:1;"/>
<stop offset="0.4751" style="stop-color:rgb(0%,30.588235%,58.039216%);stop-opacity:1;"/>
<stop offset="0.8261" style="stop-color:rgb(0%,40%,69.411765%);stop-opacity:1;"/>
<stop offset="1" style="stop-color:rgb(0%,43.529412%,73.72549%);stop-opacity:1;"/>
</linearGradient>
<linearGradient id="linear4" gradientUnits="userSpaceOnUse" x1="-0.00575856" y1="0.499142" x2="0.98133" y2="0.499142" gradientTransform="matrix(6.585937,0,0,16.019531,8.714844,3.964844)">
<stop offset="0" style="stop-color:rgb(42.352941%,17.254902%,18.431373%);stop-opacity:1;"/>
<stop offset="0.1735" style="stop-color:rgb(53.333333%,15.294118%,18.823529%);stop-opacity:1;"/>
<stop offset="0.5731" style="stop-color:rgb(74.509804%,9.411765%,20%);stop-opacity:1;"/>
<stop offset="0.8585" style="stop-color:rgb(86.27451%,1.568627%,21.176471%);stop-opacity:1;"/>
<stop offset="1" style="stop-color:rgb(90.196078%,0%,22.352941%);stop-opacity:1;"/>
</linearGradient>
</defs>
<g id="surface1">
<path style=" stroke:none;fill-rule:nonzero;fill:rgb(100%,100%,100%);fill-opacity:1;" d="M 24 17.476562 C 24 19.53125 22.328125 21.203125 20.273438 21.203125 L 0 21.203125 L 0 6.445312 C 0 4.390625 1.671875 2.71875 3.726562 2.71875 L 24 2.71875 Z M 24 17.476562 "/>
<path style=" stroke:none;fill-rule:nonzero;fill:url(#linear0);" d="M 17.398438 13.691406 L 18.9375 13.691406 C 18.984375 13.691406 19.085938 13.675781 19.128906 13.675781 C 19.421875 13.617188 19.671875 13.355469 19.671875 12.988281 C 19.671875 12.636719 19.421875 12.371094 19.128906 12.296875 C 19.085938 12.285156 18.996094 12.285156 18.9375 12.285156 L 17.398438 12.285156 Z M 17.398438 13.691406 "/>
<path style=" stroke:none;fill-rule:nonzero;fill:url(#linear1);" d="M 18.761719 3.964844 C 17.296875 3.964844 16.09375 5.152344 16.09375 6.636719 L 16.09375 9.410156 L 19.863281 9.410156 C 19.949219 9.410156 20.054688 9.410156 20.128906 9.421875 C 20.976562 9.46875 21.609375 9.90625 21.609375 10.667969 C 21.609375 11.269531 21.183594 11.785156 20.390625 11.886719 L 20.390625 11.917969 C 21.257812 11.976562 21.917969 12.460938 21.917969 13.207031 C 21.917969 14.015625 21.183594 14.542969 20.214844 14.542969 L 16.078125 14.542969 L 16.078125 19.96875 L 19.996094 19.96875 C 21.460938 19.96875 22.664062 18.78125 22.664062 17.300781 L 22.664062 3.964844 Z M 18.761719 3.964844 "/>
<path style=" stroke:none;fill-rule:nonzero;fill:url(#linear2);" d="M 19.480469 10.847656 C 19.480469 10.492188 19.230469 10.257812 18.9375 10.214844 C 18.910156 10.214844 18.835938 10.199219 18.792969 10.199219 L 17.398438 10.199219 L 17.398438 11.492188 L 18.792969 11.492188 C 18.835938 11.492188 18.925781 11.492188 18.9375 11.476562 C 19.230469 11.433594 19.480469 11.199219 19.480469 10.847656 Z M 19.480469 10.847656 "/>
<path style=" stroke:none;fill-rule:nonzero;fill:url(#linear3);" d="M 4.003906 3.964844 C 2.539062 3.964844 1.335938 5.152344 1.335938 6.636719 L 1.335938 13.222656 C 2.082031 13.589844 2.859375 13.824219 3.636719 13.824219 C 4.5625 13.824219 5.0625 13.265625 5.0625 12.503906 L 5.0625 9.394531 L 7.351562 9.394531 L 7.351562 12.488281 C 7.351562 13.691406 6.601562 14.675781 4.0625 14.675781 C 2.523438 14.675781 1.320312 14.335938 1.320312 14.335938 L 1.320312 19.957031 L 5.238281 19.957031 C 6.703125 19.957031 7.90625 18.769531 7.90625 17.285156 L 7.90625 3.964844 Z M 4.003906 3.964844 "/>
<path style=" stroke:none;fill-rule:nonzero;fill:url(#linear4);" d="M 11.382812 3.964844 C 9.917969 3.964844 8.714844 5.152344 8.714844 6.636719 L 8.714844 10.128906 C 9.390625 9.554688 10.5625 9.1875 12.453125 9.277344 C 13.46875 9.320312 14.550781 9.597656 14.550781 9.597656 L 14.550781 10.730469 C 14.011719 10.449219 13.363281 10.199219 12.527344 10.140625 C 11.089844 10.039062 10.226562 10.742188 10.226562 11.976562 C 10.226562 13.222656 11.089844 13.925781 12.527344 13.808594 C 13.363281 13.75 14.011719 13.488281 14.550781 13.222656 L 14.550781 14.351562 C 14.550781 14.351562 13.480469 14.628906 12.453125 14.675781 C 10.5625 14.761719 9.390625 14.394531 8.714844 13.824219 L 8.714844 19.984375 L 12.628906 19.984375 C 14.097656 19.984375 15.300781 18.796875 15.300781 17.316406 L 15.300781 3.964844 Z M 11.382812 3.964844 "/>
</g>
</svg>
