<?xml version="1.0" encoding="UTF-8"?>
<svg xmlns="http://www.w3.org/2000/svg" xmlns:xlink="http://www.w3.org/1999/xlink" width="24px" height="24px" viewBox="0 0 24 24" version="1.1">
<g id="surface1">
<path style=" stroke:none;fill-rule:nonzero;fill:rgb(100%,37.254902%,0%);fill-opacity:1;" d="M 8.839844 6.820312 L 15.179688 6.820312 L 15.179688 17.160156 L 8.839844 17.160156 Z M 8.839844 6.820312 "/>
<path style=" stroke:none;fill-rule:nonzero;fill:rgb(92.156863%,0%,10.588235%);fill-opacity:1;" d="M 9.480469 12.007812 C 9.480469 10 10.410156 8.082031 12 6.839844 C 9.152344 4.59375 5.003906 5.085938 2.757812 7.9375 C 0.511719 10.785156 1.003906 14.929688 3.871094 17.160156 C 6.265625 19.042969 9.605469 19.042969 12 17.179688 C 10.410156 15.917969 9.480469 14.019531 9.480469 12.007812 Z M 9.480469 12.007812 "/>
<path style=" stroke:none;fill-rule:nonzero;fill:rgb(96.862745%,61.960784%,10.588235%);fill-opacity:1;" d="M 22.007812 16.082031 L 22.007812 15.863281 L 22.101562 15.863281 L 22.101562 15.828125 L 21.882812 15.828125 L 21.882812 15.863281 L 21.972656 15.863281 L 21.972656 16.082031 Z M 22.429688 16.082031 L 22.429688 15.828125 L 22.355469 15.828125 L 22.28125 16.007812 L 22.210938 15.828125 L 22.136719 15.828125 L 22.136719 16.082031 L 22.191406 16.082031 L 22.191406 15.882812 L 22.265625 16.046875 L 22.320312 16.046875 L 22.394531 15.882812 L 22.394531 16.082031 Z M 22.429688 16.082031 "/>
<path style=" stroke:none;fill-rule:nonzero;fill:rgb(96.862745%,61.960784%,10.588235%);fill-opacity:1;" d="M 22.628906 12.007812 C 22.628906 15.644531 19.691406 18.585938 16.054688 18.585938 C 14.574219 18.585938 13.152344 18.089844 12 17.179688 C 14.847656 14.929688 15.34375 10.785156 13.113281 7.9375 C 12.785156 7.515625 12.421875 7.152344 12 6.820312 C 14.847656 4.574219 18.996094 5.070312 21.242188 7.9375 C 22.136719 9.085938 22.628906 10.53125 22.628906 12.007812 Z M 22.628906 12.007812 "/>
</g>
</svg>
