<?xml version="1.0" encoding="utf-8"?>
<svg version="1.1" id="Camada_1" xmlns="http://www.w3.org/2000/svg" height="24" width="24" viewBox="0 0 131.4 86.9" style="enable-background:new 0 0 131.4 86.9;" xml:space="preserve">
<g opacity="0">
	<rect fill="#FFFFFF" width="131.4" height="86.9"/>
</g>
    <rect x="48.4" y="15.1" fill="#FF5F00" width="34.7" height="56.6"/>
    <path fill="#EB001B" d="M51.9,43.5c0-11,5.1-21.5,13.8-28.3C50.1,2.9,27.4,5.6,15.1,21.2s-9.6,38.3,6.1,50.5C34.3,82,52.6,82,65.7,71.8
	C57,64.9,51.9,54.5,51.9,43.5z"/>
    <path fill="#F79E1B" d="M120.5,65.8v-1.2h0.5v-0.2h-1.2v0.2h0.5v1.2H120.5z M122.8,65.8v-1.4h-0.4l-0.4,1l-0.4-1h-0.4v1.4h0.3v-1.1
	l0.4,0.9h0.3l0.4-0.9v1.1L122.8,65.8z"/>
    <path fill="#F79E1B" d="M123.9,43.5c0,19.9-16.1,36-36,36c-8.1,0-15.9-2.7-22.2-7.7C81.3,59.5,84,36.8,71.8,21.2
	c-1.8-2.3-3.8-4.3-6.1-6.1c15.6-12.3,38.3-9.6,50.6,6.1C121.2,27.5,123.9,35.4,123.9,43.5L123.9,43.5z"/>
</svg>
