<?xml version="1.0" encoding="UTF-8"?>
<svg xmlns="http://www.w3.org/2000/svg" xmlns:xlink="http://www.w3.org/1999/xlink" width="24px" height="24px" viewBox="0 0 24 24" version="1.1">
<g id="surface1">
<path style=" stroke:none;fill-rule:nonzero;fill:rgb(100%,100%,100%);fill-opacity:1;" d="M 24 23.996094 L 0 23.996094 L 0 0.00390625 L 24 0.00390625 Z M 24 23.996094 "/>
<path style=" stroke:none;fill-rule:nonzero;fill:rgb(14.509804%,64.313725%,22.745098%);fill-opacity:1;" d="M 4.257812 19.230469 L 5.851562 19.230469 L 5.851562 21.109375 L 4.257812 21.109375 Z M 4.257812 19.230469 "/>
<path style=" stroke:none;fill-rule:nonzero;fill:rgb(82.745098%,9.803922%,11.372549%);fill-opacity:1;" d="M 4.257812 2.90625 L 5.851562 2.90625 L 5.851562 4.8125 L 4.257812 4.8125 Z M 4.257812 2.90625 "/>
<path style=" stroke:none;fill-rule:nonzero;fill:rgb(65.882353%,53.333333%,12.156863%);fill-opacity:1;" d="M 22.582031 1.089844 L 1.09375 1.089844 L 1.09375 22.90625 L 22.90625 22.90625 L 22.90625 1.09375 L 22.582031 1.09375 Z M 22.582031 22.582031 L 1.417969 22.582031 L 1.417969 1.417969 L 22.582031 1.417969 Z M 9.632812 11.75 C 10.980469 11.75 11.652344 11.039062 11.652344 9.640625 L 11.652344 6.589844 C 11.652344 5.191406 10.980469 4.492188 9.632812 4.492188 C 8.292969 4.492188 7.601562 5.195312 7.601562 6.589844 L 7.601562 9.640625 C 7.605469 11.035156 8.292969 11.75 9.632812 11.75 Z M 9.160156 6.351562 C 9.160156 5.925781 9.289062 5.714844 9.625 5.714844 C 9.976562 5.714844 10.105469 5.929688 10.105469 6.351562 L 10.105469 9.902344 C 10.105469 10.328125 9.976562 10.53125 9.636719 10.53125 C 9.289062 10.53125 9.160156 10.328125 9.160156 9.902344 Z M 18.976562 11.75 C 20.324219 11.75 21 11.039062 21 9.640625 L 21 6.589844 C 21 5.191406 20.324219 4.492188 18.976562 4.492188 C 17.636719 4.492188 16.949219 5.195312 16.949219 6.589844 L 16.949219 9.640625 C 16.949219 11.035156 17.636719 11.75 18.976562 11.75 Z M 18.5 6.351562 C 18.5 5.925781 18.628906 5.714844 18.964844 5.714844 C 19.316406 5.714844 19.441406 5.929688 19.441406 6.351562 L 19.441406 9.902344 C 19.441406 10.328125 19.316406 10.53125 18.976562 10.53125 C 18.628906 10.53125 18.5 10.328125 18.5 9.902344 Z M 11.765625 14.277344 L 11.765625 13.886719 C 11.765625 12.878906 11.195312 12.378906 10.042969 12.378906 L 7.863281 12.378906 L 7.863281 19.425781 L 9.371094 19.425781 L 9.371094 16.46875 C 10.121094 16.476562 10.238281 16.667969 10.238281 17.355469 L 10.238281 18.652344 C 10.238281 19.003906 10.253906 19.257812 10.34375 19.425781 L 11.882812 19.425781 C 11.765625 19.242188 11.742188 19.007812 11.742188 18.710938 L 11.742188 17.152344 C 11.742188 16.445312 11.515625 15.761719 10.910156 15.578125 C 11.515625 15.347656 11.765625 14.960938 11.765625 14.277344 Z M 10.238281 14.652344 C 10.238281 15.113281 9.996094 15.234375 9.371094 15.25 L 9.371094 13.523438 L 9.433594 13.523438 C 10.027344 13.523438 10.238281 13.648438 10.238281 14.121094 Z M 13.875 8.707031 C 14.625 8.714844 14.742188 8.910156 14.742188 9.589844 L 14.742188 10.886719 C 14.742188 11.242188 14.757812 11.492188 14.851562 11.660156 L 16.390625 11.660156 C 16.273438 11.476562 16.246094 11.246094 16.246094 10.949219 L 16.246094 9.386719 C 16.246094 8.679688 16.019531 7.996094 15.414062 7.808594 C 16.019531 7.582031 16.273438 7.191406 16.273438 6.507812 L 16.273438 6.125 C 16.273438 5.113281 15.703125 4.617188 14.546875 4.617188 L 12.367188 4.617188 L 12.367188 11.65625 L 13.875 11.65625 Z M 13.875 5.765625 L 13.933594 5.765625 C 14.53125 5.765625 14.738281 5.886719 14.738281 6.359375 L 14.738281 6.890625 C 14.738281 7.351562 14.496094 7.46875 13.871094 7.484375 L 13.871094 5.765625 Z M 14.265625 18.121094 L 16.210938 18.121094 L 16.210938 19.425781 L 12.746094 19.425781 L 12.746094 12.386719 L 16.152344 12.386719 L 16.152344 13.6875 L 14.265625 13.6875 L 14.265625 15.175781 L 15.933594 15.175781 L 15.933594 16.484375 L 14.265625 16.484375 Z M 18.929688 12.386719 L 17.042969 12.386719 L 17.042969 19.429688 L 18.65625 19.429688 C 19.457031 19.429688 20.007812 19.410156 20.4375 19.066406 C 20.886719 18.703125 20.992188 18.253906 20.992188 17.609375 L 20.992188 14.210938 C 21 12.71875 20.433594 12.386719 18.929688 12.386719 Z M 19.457031 17.644531 C 19.457031 18.203125 19.273438 18.277344 18.761719 18.277344 L 18.566406 18.277344 L 18.566406 13.539062 L 18.761719 13.539062 C 19.273438 13.539062 19.457031 13.605469 19.457031 14.171875 Z M 3.011719 9.804688 L 3.011719 9.59375 L 4.53125 9.59375 L 4.53125 9.84375 C 4.53125 10.300781 4.691406 10.527344 5.035156 10.527344 C 5.335938 10.527344 5.542969 10.304688 5.542969 9.972656 C 5.542969 9.6875 5.320312 9.449219 5.011719 9.121094 C 4.558594 8.640625 4.003906 8.105469 3.628906 7.71875 C 3.269531 7.355469 3.09375 6.863281 3.09375 6.300781 C 3.09375 5.171875 3.816406 4.488281 5.089844 4.488281 C 6.347656 4.488281 6.984375 5.066406 6.984375 6.222656 L 6.984375 6.476562 L 5.53125 6.476562 L 5.53125 6.3125 C 5.53125 5.882812 5.386719 5.679688 5.050781 5.679688 C 4.777344 5.679688 4.597656 5.882812 4.597656 6.179688 C 4.597656 6.570312 4.984375 6.910156 5.625 7.496094 C 6.179688 7.996094 6.640625 8.5 6.828125 8.84375 C 6.984375 9.125 7.070312 9.476562 7.070312 9.871094 C 7.070312 11.023438 6.320312 11.734375 5 11.734375 C 3.699219 11.742188 3.011719 11.070312 3.011719 9.804688 Z M 3 17.4375 L 3 14.371094 C 3 12.992188 3.683594 12.292969 5.011719 12.292969 C 6.351562 12.292969 7.015625 12.980469 7.015625 14.371094 L 7.015625 14.734375 L 5.476562 14.734375 L 5.476562 14.125 C 5.476562 13.703125 5.347656 13.492188 5.003906 13.492188 C 4.667969 13.492188 4.542969 13.703125 4.542969 14.125 L 4.542969 17.691406 C 4.542969 18.113281 4.667969 18.3125 5.011719 18.3125 C 5.347656 18.3125 5.476562 18.113281 5.476562 17.691406 L 5.476562 16.921875 L 7.015625 16.921875 L 7.015625 17.4375 C 7.015625 18.828125 6.351562 19.527344 5.011719 19.527344 C 3.683594 19.527344 3 18.820312 3 17.4375 Z M 3 17.4375 "/>
</g>
</svg>
