<?xml version="1.0" encoding="utf-8"?>
<!-- Generator: Adobe Illustrator 23.0.3, SVG Export Plug-In . SVG Version: 6.00 Build 0)  -->
<svg version="1.1" id="logo" xmlns="http://www.w3.org/2000/svg" xmlns:xlink="http://www.w3.org/1999/xlink" x="0px" y="0px"
	 viewBox="0 0 467.7 467.6" style="enable-background:new 0 0 467.7 467.6;" xml:space="preserve">
<style type="text/css">
	.st0{fill:#FFFFFF;}
	.st1{fill:#25A43A;}
	.st2{fill:#D3191D;}
	.st3{fill:#A8881F;}
</style>
<polygon class="st0" points="467.7,467.6 0,467.6 0,0 467.7,0 467.7,467.6 "/>
<rect x="83" y="374.7" class="st1" width="31" height="36.6"/>
<rect x="83" y="56.6" class="st2" width="31" height="37.1"/>
<path class="st3" d="M440.1,21.2H27.6h-6.3v6.3V440v6.3h6.3h412.5h6.3V440V27.6v-6.3H440.1z M440.1,440H27.6V27.6h412.5V440z
	 M187.7,228.9c26.3,0,39.4-13.8,39.4-41.1v-59.4c0-27.3-13.1-40.9-39.4-40.9c-26.1,0-39.6,13.7-39.6,40.9v59.4
	C148.2,215,161.6,228.9,187.7,228.9z M178.5,123.7c0-8.3,2.5-12.4,9.1-12.4c6.8,0,9.3,4.2,9.3,12.4v69.2c0,8.3-2.5,12.3-9.1,12.3
	c-6.8,0-9.3-4-9.3-12.3V123.7z M369.8,228.9c26.3,0,39.4-13.8,39.4-41.1v-59.4c0-27.3-13.1-40.9-39.4-40.9
	c-26.1,0-39.5,13.7-39.5,40.9v59.4C330.3,215,343.7,228.9,369.8,228.9z M360.5,123.7c0-8.3,2.5-12.4,9.1-12.4
	c6.8,0,9.3,4.2,9.3,12.4v69.2c0,8.3-2.5,12.3-9.1,12.3c-6.8,0-9.3-4-9.3-12.3V123.7z M229.3,278.2v-7.6c0-19.7-11.1-29.4-33.6-29.4
	h-42.5v137.3h29.4v-57.6c14.6,0.1,16.9,3.9,16.9,17.3v25.2c0,6.9,0.3,11.8,2.1,15.1h30c-2.3-3.6-2.8-8.1-2.8-13.9v-30.4
	c0-13.8-4.4-27.1-16.2-30.7C224.4,299,229.3,291.5,229.3,278.2z M199.5,285.5c0,9-4.7,11.3-16.9,11.6v-33.6h1.2
	c11.6,0,15.7,2.4,15.7,11.6V285.5z M270.4,169.6c14.6,0.2,16.9,4,16.9,17.2v25.3c0,6.9,0.3,11.8,2.1,15.1h30
	c-2.3-3.6-2.8-8.1-2.8-13.9v-30.4c0-13.8-4.4-27.1-16.2-30.8c11.8-4.4,16.7-12,16.7-25.3v-7.5c0-19.7-11.1-29.4-33.6-29.4H241v137.2
	h29.4V169.6z M270.4,112.3h1.1c11.7,0,15.7,2.4,15.7,11.6v10.3c0,9-4.7,11.3-16.9,11.6V112.3z M278,353.1h37.9v25.4h-67.5V241.3
	h66.4v25.4H278v29h32.5v25.5H278V353.1z M368.9,241.3h-36.8v137.3h31.5c15.6,0,26.3-0.4,34.7-7.1c8.7-7.1,10.8-15.8,10.8-28.4v-66.2
	C409.2,247.8,398.2,241.3,368.9,241.3z M379.2,343.8c0,10.9-3.6,12.3-13.6,12.3h-3.8v-92.3h3.8c10,0,13.6,1.3,13.6,12.3V343.8z
	 M58.7,191v-4.1h29.6v4.9c0,8.9,3.1,13.3,9.8,13.3c5.9,0,9.9-4.3,9.9-10.8c0-5.6-4.3-10.2-10.3-16.6c-8.9-9.4-19.7-19.8-27-27.3
	c-7-7.1-10.4-16.7-10.4-27.7c0-22,14.1-35.3,38.9-35.3c24.5,0,36.9,11.3,36.9,33.8v5h-28.3v-3.2c0-8.4-2.8-12.4-9.4-12.4
	c-5.3,0-8.8,4-8.8,9.8c0,7.6,7.5,14.2,20,25.6c10.8,9.8,19.8,19.6,23.5,26.3c3,5.5,4.7,12.3,4.7,20c0,22.5-14.6,36.3-40.4,36.3
	C72.1,228.8,58.7,215.7,58.7,191z M58.5,339.8V280c0-26.9,13.3-40.5,39.2-40.5c26.1,0,39,13.4,39,40.5v7.1h-30v-11.9
	c0-8.2-2.5-12.3-9.2-12.3c-6.5,0-9,4.1-9,12.3v69.5c0,8.2,2.5,12.1,9.2,12.1c6.5,0,9-3.9,9-12.1v-15h30v10.1
	c0,27.1-12.9,40.7-39,40.7C71.8,380.5,58.5,366.7,58.5,339.8z"/>
</svg>
