<?xml version="1.0" encoding="UTF-8"?>
<svg xmlns="http://www.w3.org/2000/svg" xmlns:xlink="http://www.w3.org/1999/xlink" width="24px" height="24px" viewBox="0 0 24 24" version="1.1">
<g id="surface1">
<path style=" stroke:none;fill-rule:nonzero;fill:rgb(5.490196%,27.058824%,58.431373%);fill-opacity:1;" d="M 9.023438 15.039062 L 10.046875 9.015625 L 11.691406 9.015625 L 10.664062 15.039062 Z M 16.59375 9.144531 C 16.269531 9.023438 15.757812 8.890625 15.121094 8.890625 C 13.5 8.890625 12.359375 9.707031 12.347656 10.878906 C 12.339844 11.746094 13.164062 12.226562 13.785156 12.515625 C 14.425781 12.8125 14.640625 13 14.636719 13.261719 C 14.632812 13.667969 14.128906 13.851562 13.65625 13.851562 C 12.996094 13.851562 12.648438 13.757812 12.109375 13.535156 L 11.898438 13.4375 L 11.667969 14.789062 C 12.050781 14.957031 12.761719 15.101562 13.496094 15.109375 C 15.222656 15.109375 16.34375 14.300781 16.355469 13.050781 C 16.363281 12.367188 15.925781 11.84375 14.976562 11.414062 C 14.402344 11.136719 14.050781 10.949219 14.054688 10.667969 C 14.054688 10.417969 14.351562 10.148438 14.996094 10.148438 C 15.53125 10.140625 15.921875 10.257812 16.222656 10.378906 L 16.371094 10.449219 L 16.59375 9.144531 M 20.820312 9.015625 L 19.550781 9.015625 C 19.15625 9.015625 18.863281 9.121094 18.691406 9.515625 L 16.253906 15.035156 L 17.976562 15.035156 C 17.976562 15.035156 18.257812 14.292969 18.320312 14.128906 C 18.511719 14.128906 20.183594 14.132812 20.425781 14.132812 C 20.472656 14.34375 20.625 15.035156 20.625 15.035156 L 22.148438 15.035156 Z M 18.804688 12.902344 C 18.941406 12.558594 19.460938 11.21875 19.460938 11.21875 C 19.449219 11.234375 19.59375 10.871094 19.679688 10.644531 L 19.789062 11.164062 C 19.789062 11.164062 20.101562 12.601562 20.167969 12.902344 Z M 7.628906 9.015625 L 6.019531 13.121094 L 5.847656 12.289062 C 5.550781 11.324219 4.617188 10.28125 3.574219 9.761719 L 5.046875 15.027344 L 6.78125 15.027344 L 9.367188 9.015625 L 7.628906 9.015625 "/>
<path style=" stroke:none;fill-rule:nonzero;fill:rgb(94.901961%,68.235294%,7.843137%);fill-opacity:1;" d="M 4.519531 9.015625 L 1.875 9.015625 L 1.851562 9.140625 C 3.910156 9.636719 5.273438 10.84375 5.839844 12.289062 L 5.265625 9.523438 C 5.164062 9.140625 4.878906 9.027344 4.519531 9.015625 "/>
</g>
</svg>
