<svg width="23" height="22" viewBox="0 0 23 22" fill="none" xmlns="http://www.w3.org/2000/svg">
<path d="M20.4884 9.20469H19.75V9.16665H11.5V12.8333H16.6805C15.9247 14.9678 13.8939 16.5 11.5 16.5C8.46262 16.5 5.99999 14.0374 5.99999 11C5.99999 7.9626 8.46262 5.49998 11.5 5.49998C12.902 5.49998 14.1776 6.0289 15.1488 6.89285L17.7416 4.30006C16.1044 2.77427 13.9145 1.83331 11.5 1.83331C6.4377 1.83331 2.33333 5.93769 2.33333 11C2.33333 16.0623 6.4377 20.1666 11.5 20.1666C16.5623 20.1666 20.6667 16.0623 20.6667 11C20.6667 10.3854 20.6034 9.7854 20.4884 9.20469Z" fill="#FFC107"/>
<path d="M3.39024 6.73335L6.40195 8.94206C7.21687 6.92448 9.19045 5.49998 11.5 5.49998C12.902 5.49998 14.1776 6.0289 15.1488 6.89285L17.7416 4.30006C16.1044 2.77427 13.9145 1.83331 11.5 1.83331C7.97908 1.83331 4.92566 3.8211 3.39024 6.73335Z" fill="#FF3D00"/>
<path d="M11.5 20.1667C13.8677 20.1667 16.0192 19.2606 17.6458 17.787L14.8087 15.3863C13.8884 16.0834 12.7444 16.5 11.5 16.5C9.11575 16.5 7.09129 14.9797 6.32862 12.8581L3.33937 15.1612C4.85645 18.1298 7.93737 20.1667 11.5 20.1667Z" fill="#4CAF50"/>
<path d="M20.4884 9.20473H19.75V9.16669H11.5V12.8334H16.6805C16.3175 13.8586 15.658 14.7428 14.8073 15.3867L14.8087 15.3858L17.6458 17.7866C17.445 17.969 20.6667 15.5834 20.6667 11C20.6667 10.3854 20.6034 9.78544 20.4884 9.20473Z" fill="#1976D2"/>
</svg>
